<?xml version="1.0" standalone="no"?>
 <!DOCTYPE svg PUBLIC "-//W3C//DTD SVG 1.1//EN" 
 "http://www.w3.org/Graphics/SVG/1.1/DTD/svg11.dtd"> 
<svg xmlns="http://www.w3.org/2000/svg" version="1.1" 
    width="29.7002cm" height="21.0007cm" viewBox="0 0 116930 82680 ">
<title>SVG Picture created as single_tranzistor_amp-B.Cu.svg date 2017/06/17 14:25:17 </title>
  <desc>Picture generated by PCBNEW </desc>
<g style="fill:#000000; fill-opacity:1;stroke:#000000; stroke-opacity:1;
stroke-linecap:round; stroke-linejoin:round; "
 transform="translate(0 0) scale(1 1)">
</g>
<g style="fill:#000000; fill-opacity:0.0; 
stroke:#000000; stroke-width:-0.000393701; stroke-opacity:1; 
stroke-linecap:round; stroke-linejoin:round;">
</g>
<g style="fill:#000000; fill-opacity:0.0; 
stroke:#000000; stroke-width:39.3701; stroke-opacity:1; 
stroke-linecap:round; stroke-linejoin:round;">
</g>
<g style="fill:#000000; fill-opacity:0.0; 
stroke:#000000; stroke-width:59.0551; stroke-opacity:1; 
stroke-linecap:round; stroke-linejoin:round;">
<rect x="69685.9" y="65357.2" width="42519.7" height="12598.4" rx="0" />
</g>
<g style="fill:#000000; fill-opacity:0.0; 
stroke:#000000; stroke-width:39.3701; stroke-opacity:1; 
stroke-linecap:round; stroke-linejoin:round;">
</g>
<g style="fill:#000000; fill-opacity:0.0; 
stroke:#000000; stroke-width:59.0551; stroke-opacity:1; 
stroke-linecap:round; stroke-linejoin:round;">
<rect x="3937.01" y="3937.01" width="109056" height="74806" rx="0" />
</g>
<g style="fill:#000000; fill-opacity:0.0; 
stroke:#000000; stroke-width:39.3701; stroke-opacity:1; 
stroke-linecap:round; stroke-linejoin:round;">
</g>
<g style="fill:#000000; fill-opacity:0.0; 
stroke:#000000; stroke-width:59.0551; stroke-opacity:1; 
stroke-linecap:round; stroke-linejoin:round;">
<rect x="4724.41" y="4724.41" width="107481" height="73231.2" rx="0" />
</g>
<g style="fill:#000000; fill-opacity:0.0; 
stroke:#000000; stroke-width:39.3701; stroke-opacity:1; 
stroke-linecap:round; stroke-linejoin:round;">
</g>
<g style="fill:#000000; fill-opacity:0.0; 
stroke:#000000; stroke-width:59.0551; stroke-opacity:1; 
stroke-linecap:round; stroke-linejoin:round;">
<path d="M23622 4724
L23622 3937
" />
</g>
<g style="fill:#000000; fill-opacity:0.0; 
stroke:#000000; stroke-width:39.3701; stroke-opacity:1; 
stroke-linecap:round; stroke-linejoin:round;">
</g>
<g style="fill:#000000; fill-opacity:0.0; 
stroke:#000000; stroke-width:59.0551; stroke-opacity:1; 
stroke-linecap:round; stroke-linejoin:round;">
<path d="M43307 4724
L43307 3937
" />
</g>
<g style="fill:#000000; fill-opacity:0.0; 
stroke:#000000; stroke-width:39.3701; stroke-opacity:1; 
stroke-linecap:round; stroke-linejoin:round;">
</g>
<g style="fill:#000000; fill-opacity:0.0; 
stroke:#000000; stroke-width:59.0551; stroke-opacity:1; 
stroke-linecap:round; stroke-linejoin:round;">
<path d="M62992 4724
L62992 3937
" />
</g>
<g style="fill:#000000; fill-opacity:0.0; 
stroke:#000000; stroke-width:39.3701; stroke-opacity:1; 
stroke-linecap:round; stroke-linejoin:round;">
</g>
<g style="fill:#000000; fill-opacity:0.0; 
stroke:#000000; stroke-width:59.0551; stroke-opacity:1; 
stroke-linecap:round; stroke-linejoin:round;">
<path d="M82677 4724
L82677 3937
" />
</g>
<g style="fill:#000000; fill-opacity:0.0; 
stroke:#000000; stroke-width:39.3701; stroke-opacity:1; 
stroke-linecap:round; stroke-linejoin:round;">
</g>
<g style="fill:#000000; fill-opacity:0.0; 
stroke:#000000; stroke-width:59.0551; stroke-opacity:1; 
stroke-linecap:round; stroke-linejoin:round;">
<path d="M102362 4724
L102362 3937
" />
</g>
<g style="fill:#000000; fill-opacity:0.0; 
stroke:#000000; stroke-width:39.3701; stroke-opacity:1; 
stroke-linecap:round; stroke-linejoin:round;">
</g>
<g style="fill:#000000; fill-opacity:0.0; 
stroke:#000000; stroke-width:59.0551; stroke-opacity:1; 
stroke-linecap:round; stroke-linejoin:round;">
<path d="M14169 4562
L13877 4562
" />
<path d="M14023 4562
L14023 4050
L13974 4123
L13925 4172
L13877 4196
" />
</g>
<g style="fill:#000000; fill-opacity:0.0; 
stroke:#000000; stroke-width:39.3701; stroke-opacity:1; 
stroke-linecap:round; stroke-linejoin:round;">
</g>
<g style="fill:#000000; fill-opacity:0.0; 
stroke:#000000; stroke-width:59.0551; stroke-opacity:1; 
stroke-linecap:round; stroke-linejoin:round;">
<path d="M33562 4099
L33586 4074
L33635 4050
L33757 4050
L33805 4074
L33830 4099
L33854 4147
L33854 4196
L33830 4269
L33537 4562
L33854 4562
" />
</g>
<g style="fill:#000000; fill-opacity:0.0; 
stroke:#000000; stroke-width:39.3701; stroke-opacity:1; 
stroke-linecap:round; stroke-linejoin:round;">
</g>
<g style="fill:#000000; fill-opacity:0.0; 
stroke:#000000; stroke-width:59.0551; stroke-opacity:1; 
stroke-linecap:round; stroke-linejoin:round;">
<path d="M53222 4050
L53539 4050
L53368 4245
L53442 4245
L53490 4269
L53515 4294
L53539 4342
L53539 4464
L53515 4513
L53490 4537
L53442 4562
L53295 4562
L53247 4537
L53222 4513
" />
</g>
<g style="fill:#000000; fill-opacity:0.0; 
stroke:#000000; stroke-width:39.3701; stroke-opacity:1; 
stroke-linecap:round; stroke-linejoin:round;">
</g>
<g style="fill:#000000; fill-opacity:0.0; 
stroke:#000000; stroke-width:59.0551; stroke-opacity:1; 
stroke-linecap:round; stroke-linejoin:round;">
<path d="M73175 4221
L73175 4562
" />
<path d="M73053 4026
L72932 4391
L73248 4391
" />
</g>
<g style="fill:#000000; fill-opacity:0.0; 
stroke:#000000; stroke-width:39.3701; stroke-opacity:1; 
stroke-linecap:round; stroke-linejoin:round;">
</g>
<g style="fill:#000000; fill-opacity:0.0; 
stroke:#000000; stroke-width:59.0551; stroke-opacity:1; 
stroke-linecap:round; stroke-linejoin:round;">
<path d="M92885 4050
L92641 4050
L92617 4294
L92641 4269
L92690 4245
L92812 4245
L92860 4269
L92885 4294
L92909 4342
L92909 4464
L92885 4513
L92860 4537
L92812 4562
L92690 4562
L92641 4537
L92617 4513
" />
</g>
<g style="fill:#000000; fill-opacity:0.0; 
stroke:#000000; stroke-width:39.3701; stroke-opacity:1; 
stroke-linecap:round; stroke-linejoin:round;">
</g>
<g style="fill:#000000; fill-opacity:0.0; 
stroke:#000000; stroke-width:59.0551; stroke-opacity:1; 
stroke-linecap:round; stroke-linejoin:round;">
<path d="M112545 4050
L112448 4050
L112399 4074
L112375 4099
L112326 4172
L112302 4269
L112302 4464
L112326 4513
L112350 4537
L112399 4562
L112497 4562
L112545 4537
L112570 4513
L112594 4464
L112594 4342
L112570 4294
L112545 4269
L112497 4245
L112399 4245
L112350 4269
L112326 4294
L112302 4342
" />
</g>
<g style="fill:#000000; fill-opacity:0.0; 
stroke:#000000; stroke-width:39.3701; stroke-opacity:1; 
stroke-linecap:round; stroke-linejoin:round;">
</g>
<g style="fill:#000000; fill-opacity:0.0; 
stroke:#000000; stroke-width:59.0551; stroke-opacity:1; 
stroke-linecap:round; stroke-linejoin:round;">
<path d="M23622 77955
L23622 78742
" />
</g>
<g style="fill:#000000; fill-opacity:0.0; 
stroke:#000000; stroke-width:39.3701; stroke-opacity:1; 
stroke-linecap:round; stroke-linejoin:round;">
</g>
<g style="fill:#000000; fill-opacity:0.0; 
stroke:#000000; stroke-width:59.0551; stroke-opacity:1; 
stroke-linecap:round; stroke-linejoin:round;">
<path d="M43307 77955
L43307 78742
" />
</g>
<g style="fill:#000000; fill-opacity:0.0; 
stroke:#000000; stroke-width:39.3701; stroke-opacity:1; 
stroke-linecap:round; stroke-linejoin:round;">
</g>
<g style="fill:#000000; fill-opacity:0.0; 
stroke:#000000; stroke-width:59.0551; stroke-opacity:1; 
stroke-linecap:round; stroke-linejoin:round;">
<path d="M62992 77955
L62992 78742
" />
</g>
<g style="fill:#000000; fill-opacity:0.0; 
stroke:#000000; stroke-width:39.3701; stroke-opacity:1; 
stroke-linecap:round; stroke-linejoin:round;">
</g>
<g style="fill:#000000; fill-opacity:0.0; 
stroke:#000000; stroke-width:59.0551; stroke-opacity:1; 
stroke-linecap:round; stroke-linejoin:round;">
<path d="M82677 77955
L82677 78742
" />
</g>
<g style="fill:#000000; fill-opacity:0.0; 
stroke:#000000; stroke-width:39.3701; stroke-opacity:1; 
stroke-linecap:round; stroke-linejoin:round;">
</g>
<g style="fill:#000000; fill-opacity:0.0; 
stroke:#000000; stroke-width:59.0551; stroke-opacity:1; 
stroke-linecap:round; stroke-linejoin:round;">
<path d="M102362 77955
L102362 78742
" />
</g>
<g style="fill:#000000; fill-opacity:0.0; 
stroke:#000000; stroke-width:39.3701; stroke-opacity:1; 
stroke-linecap:round; stroke-linejoin:round;">
</g>
<g style="fill:#000000; fill-opacity:0.0; 
stroke:#000000; stroke-width:59.0551; stroke-opacity:1; 
stroke-linecap:round; stroke-linejoin:round;">
<path d="M14169 78580
L13877 78580
" />
<path d="M14023 78580
L14023 78069
L13974 78142
L13925 78190
L13877 78215
" />
</g>
<g style="fill:#000000; fill-opacity:0.0; 
stroke:#000000; stroke-width:39.3701; stroke-opacity:1; 
stroke-linecap:round; stroke-linejoin:round;">
</g>
<g style="fill:#000000; fill-opacity:0.0; 
stroke:#000000; stroke-width:59.0551; stroke-opacity:1; 
stroke-linecap:round; stroke-linejoin:round;">
<path d="M33562 78117
L33586 78093
L33635 78069
L33757 78069
L33805 78093
L33830 78117
L33854 78166
L33854 78215
L33830 78288
L33537 78580
L33854 78580
" />
</g>
<g style="fill:#000000; fill-opacity:0.0; 
stroke:#000000; stroke-width:39.3701; stroke-opacity:1; 
stroke-linecap:round; stroke-linejoin:round;">
</g>
<g style="fill:#000000; fill-opacity:0.0; 
stroke:#000000; stroke-width:59.0551; stroke-opacity:1; 
stroke-linecap:round; stroke-linejoin:round;">
<path d="M53222 78069
L53539 78069
L53368 78263
L53442 78263
L53490 78288
L53515 78312
L53539 78361
L53539 78483
L53515 78532
L53490 78556
L53442 78580
L53295 78580
L53247 78556
L53222 78532
" />
</g>
<g style="fill:#000000; fill-opacity:0.0; 
stroke:#000000; stroke-width:39.3701; stroke-opacity:1; 
stroke-linecap:round; stroke-linejoin:round;">
</g>
<g style="fill:#000000; fill-opacity:0.0; 
stroke:#000000; stroke-width:59.0551; stroke-opacity:1; 
stroke-linecap:round; stroke-linejoin:round;">
<path d="M73175 78239
L73175 78580
" />
<path d="M73053 78044
L72932 78410
L73248 78410
" />
</g>
<g style="fill:#000000; fill-opacity:0.0; 
stroke:#000000; stroke-width:39.3701; stroke-opacity:1; 
stroke-linecap:round; stroke-linejoin:round;">
</g>
<g style="fill:#000000; fill-opacity:0.0; 
stroke:#000000; stroke-width:59.0551; stroke-opacity:1; 
stroke-linecap:round; stroke-linejoin:round;">
<path d="M92885 78069
L92641 78069
L92617 78312
L92641 78288
L92690 78263
L92812 78263
L92860 78288
L92885 78312
L92909 78361
L92909 78483
L92885 78532
L92860 78556
L92812 78580
L92690 78580
L92641 78556
L92617 78532
" />
</g>
<g style="fill:#000000; fill-opacity:0.0; 
stroke:#000000; stroke-width:39.3701; stroke-opacity:1; 
stroke-linecap:round; stroke-linejoin:round;">
</g>
<g style="fill:#000000; fill-opacity:0.0; 
stroke:#000000; stroke-width:59.0551; stroke-opacity:1; 
stroke-linecap:round; stroke-linejoin:round;">
<path d="M112545 78069
L112448 78069
L112399 78093
L112375 78117
L112326 78190
L112302 78288
L112302 78483
L112326 78532
L112350 78556
L112399 78580
L112497 78580
L112545 78556
L112570 78532
L112594 78483
L112594 78361
L112570 78312
L112545 78288
L112497 78263
L112399 78263
L112350 78288
L112326 78312
L112302 78361
" />
</g>
<g style="fill:#000000; fill-opacity:0.0; 
stroke:#000000; stroke-width:39.3701; stroke-opacity:1; 
stroke-linecap:round; stroke-linejoin:round;">
</g>
<g style="fill:#000000; fill-opacity:0.0; 
stroke:#000000; stroke-width:59.0551; stroke-opacity:1; 
stroke-linecap:round; stroke-linejoin:round;">
<path d="M3937 23622
L4724 23622
" />
</g>
<g style="fill:#000000; fill-opacity:0.0; 
stroke:#000000; stroke-width:39.3701; stroke-opacity:1; 
stroke-linecap:round; stroke-linejoin:round;">
</g>
<g style="fill:#000000; fill-opacity:0.0; 
stroke:#000000; stroke-width:59.0551; stroke-opacity:1; 
stroke-linecap:round; stroke-linejoin:round;">
<path d="M3937 43307
L4724 43307
" />
</g>
<g style="fill:#000000; fill-opacity:0.0; 
stroke:#000000; stroke-width:39.3701; stroke-opacity:1; 
stroke-linecap:round; stroke-linejoin:round;">
</g>
<g style="fill:#000000; fill-opacity:0.0; 
stroke:#000000; stroke-width:59.0551; stroke-opacity:1; 
stroke-linecap:round; stroke-linejoin:round;">
<path d="M3937 62992
L4724 62992
" />
</g>
<g style="fill:#000000; fill-opacity:0.0; 
stroke:#000000; stroke-width:39.3701; stroke-opacity:1; 
stroke-linecap:round; stroke-linejoin:round;">
</g>
<g style="fill:#000000; fill-opacity:0.0; 
stroke:#000000; stroke-width:59.0551; stroke-opacity:1; 
stroke-linecap:round; stroke-linejoin:round;">
<path d="M4208 13864
L4452 13864
" />
<path d="M4160 14011
L4330 13499
L4501 14011
" />
</g>
<g style="fill:#000000; fill-opacity:0.0; 
stroke:#000000; stroke-width:39.3701; stroke-opacity:1; 
stroke-linecap:round; stroke-linejoin:round;">
</g>
<g style="fill:#000000; fill-opacity:0.0; 
stroke:#000000; stroke-width:59.0551; stroke-opacity:1; 
stroke-linecap:round; stroke-linejoin:round;">
<path d="M4367 33428
L4440 33452
L4464 33476
L4489 33525
L4489 33598
L4464 33647
L4440 33671
L4391 33696
L4196 33696
L4196 33184
L4367 33184
L4416 33208
L4440 33233
L4464 33281
L4464 33330
L4440 33379
L4416 33403
L4367 33428
L4196 33428
" />
</g>
<g style="fill:#000000; fill-opacity:0.0; 
stroke:#000000; stroke-width:39.3701; stroke-opacity:1; 
stroke-linecap:round; stroke-linejoin:round;">
</g>
<g style="fill:#000000; fill-opacity:0.0; 
stroke:#000000; stroke-width:59.0551; stroke-opacity:1; 
stroke-linecap:round; stroke-linejoin:round;">
<path d="M4489 53332
L4464 53356
L4391 53381
L4342 53381
L4269 53356
L4221 53308
L4196 53259
L4172 53161
L4172 53088
L4196 52991
L4221 52942
L4269 52893
L4342 52869
L4391 52869
L4464 52893
L4489 52918
" />
</g>
<g style="fill:#000000; fill-opacity:0.0; 
stroke:#000000; stroke-width:39.3701; stroke-opacity:1; 
stroke-linecap:round; stroke-linejoin:round;">
</g>
<g style="fill:#000000; fill-opacity:0.0; 
stroke:#000000; stroke-width:59.0551; stroke-opacity:1; 
stroke-linecap:round; stroke-linejoin:round;">
<path d="M4196 73066
L4196 72554
L4318 72554
L4391 72578
L4440 72627
L4464 72676
L4489 72773
L4489 72846
L4464 72944
L4440 72993
L4391 73041
L4318 73066
L4196 73066
" />
</g>
<g style="fill:#000000; fill-opacity:0.0; 
stroke:#000000; stroke-width:39.3701; stroke-opacity:1; 
stroke-linecap:round; stroke-linejoin:round;">
</g>
<g style="fill:#000000; fill-opacity:0.0; 
stroke:#000000; stroke-width:59.0551; stroke-opacity:1; 
stroke-linecap:round; stroke-linejoin:round;">
<path d="M112992 23622
L112205 23622
" />
</g>
<g style="fill:#000000; fill-opacity:0.0; 
stroke:#000000; stroke-width:39.3701; stroke-opacity:1; 
stroke-linecap:round; stroke-linejoin:round;">
</g>
<g style="fill:#000000; fill-opacity:0.0; 
stroke:#000000; stroke-width:59.0551; stroke-opacity:1; 
stroke-linecap:round; stroke-linejoin:round;">
<path d="M112992 43307
L112205 43307
" />
</g>
<g style="fill:#000000; fill-opacity:0.0; 
stroke:#000000; stroke-width:39.3701; stroke-opacity:1; 
stroke-linecap:round; stroke-linejoin:round;">
</g>
<g style="fill:#000000; fill-opacity:0.0; 
stroke:#000000; stroke-width:59.0551; stroke-opacity:1; 
stroke-linecap:round; stroke-linejoin:round;">
<path d="M112992 62992
L112205 62992
" />
</g>
<g style="fill:#000000; fill-opacity:0.0; 
stroke:#000000; stroke-width:39.3701; stroke-opacity:1; 
stroke-linecap:round; stroke-linejoin:round;">
</g>
<g style="fill:#000000; fill-opacity:0.0; 
stroke:#000000; stroke-width:59.0551; stroke-opacity:1; 
stroke-linecap:round; stroke-linejoin:round;">
<path d="M112477 13864
L112721 13864
" />
<path d="M112428 14011
L112599 13499
L112769 14011
" />
</g>
<g style="fill:#000000; fill-opacity:0.0; 
stroke:#000000; stroke-width:39.3701; stroke-opacity:1; 
stroke-linecap:round; stroke-linejoin:round;">
</g>
<g style="fill:#000000; fill-opacity:0.0; 
stroke:#000000; stroke-width:59.0551; stroke-opacity:1; 
stroke-linecap:round; stroke-linejoin:round;">
<path d="M112635 33428
L112708 33452
L112733 33476
L112757 33525
L112757 33598
L112733 33647
L112708 33671
L112660 33696
L112465 33696
L112465 33184
L112635 33184
L112684 33208
L112708 33233
L112733 33281
L112733 33330
L112708 33379
L112684 33403
L112635 33428
L112465 33428
" />
</g>
<g style="fill:#000000; fill-opacity:0.0; 
stroke:#000000; stroke-width:39.3701; stroke-opacity:1; 
stroke-linecap:round; stroke-linejoin:round;">
</g>
<g style="fill:#000000; fill-opacity:0.0; 
stroke:#000000; stroke-width:59.0551; stroke-opacity:1; 
stroke-linecap:round; stroke-linejoin:round;">
<path d="M112757 53332
L112733 53356
L112660 53381
L112611 53381
L112538 53356
L112489 53308
L112465 53259
L112440 53161
L112440 53088
L112465 52991
L112489 52942
L112538 52893
L112611 52869
L112660 52869
L112733 52893
L112757 52918
" />
</g>
<g style="fill:#000000; fill-opacity:0.0; 
stroke:#000000; stroke-width:39.3701; stroke-opacity:1; 
stroke-linecap:round; stroke-linejoin:round;">
</g>
<g style="fill:#000000; fill-opacity:0.0; 
stroke:#000000; stroke-width:59.0551; stroke-opacity:1; 
stroke-linecap:round; stroke-linejoin:round;">
<path d="M112465 73066
L112465 72554
L112587 72554
L112660 72578
L112708 72627
L112733 72676
L112757 72773
L112757 72846
L112733 72944
L112708 72993
L112660 73041
L112587 73066
L112465 73066
" />
</g>
<g style="fill:#000000; fill-opacity:0.0; 
stroke:#000000; stroke-width:39.3701; stroke-opacity:1; 
stroke-linecap:round; stroke-linejoin:round;">
</g>
<g style="fill:#000000; fill-opacity:0.0; 
stroke:#000000; stroke-width:59.0551; stroke-opacity:1; 
stroke-linecap:round; stroke-linejoin:round;">
<path d="M78881 76293
L78881 75703
L79022 75703
L79106 75731
L79162 75787
L79190 75843
L79219 75956
L79219 76040
L79190 76153
L79162 76209
L79106 76265
L79022 76293
L78881 76293
" />
<path d="M79725 76293
L79725 75984
L79697 75928
L79640 75899
L79528 75899
L79472 75928
" />
<path d="M79725 76265
L79669 76293
L79528 76293
L79472 76265
L79444 76209
L79444 76153
L79472 76096
L79528 76068
L79669 76068
L79725 76040
" />
<path d="M79922 75899
L80147 75899
" />
<path d="M80006 75703
L80006 76209
L80034 76265
L80090 76293
L80147 76293
" />
<path d="M80568 76265
L80512 76293
L80400 76293
L80343 76265
L80315 76209
L80315 75984
L80343 75928
L80400 75899
L80512 75899
L80568 75928
L80597 75984
L80597 76040
L80315 76096
" />
<path d="M80850 76237
L80878 76265
L80850 76293
L80822 76265
L80850 76237
L80850 76293
" />
<path d="M80850 75928
L80878 75956
L80850 75984
L80822 75956
L80850 75928
L80850 75984
" />
<path d="M81553 75759
L81581 75731
L81637 75703
L81778 75703
L81834 75731
L81862 75759
L81890 75815
L81890 75871
L81862 75956
L81525 76293
L81890 76293
" />
<path d="M82256 75703
L82312 75703
L82368 75731
L82396 75759
L82424 75815
L82453 75928
L82453 76068
L82424 76181
L82396 76237
L82368 76265
L82312 76293
L82256 76293
L82199 76265
L82171 76237
L82143 76181
L82115 76068
L82115 75928
L82143 75815
L82171 75759
L82199 75731
L82256 75703
" />
<path d="M83015 76293
L82678 76293
" />
<path d="M82846 76293
L82846 75703
L82790 75787
L82734 75843
L82678 75871
" />
<path d="M83212 75703
L83606 75703
L83352 76293
" />
<path d="M83831 76068
L84280 76068
" />
<path d="M84674 75703
L84730 75703
L84787 75731
L84815 75759
L84843 75815
L84871 75928
L84871 76068
L84843 76181
L84815 76237
L84787 76265
L84730 76293
L84674 76293
L84618 76265
L84590 76237
L84562 76181
L84534 76068
L84534 75928
L84562 75815
L84590 75759
L84618 75731
L84674 75703
" />
<path d="M85405 75703
L85124 75703
L85096 75984
L85124 75956
L85180 75928
L85321 75928
L85377 75956
L85405 75984
L85433 76040
L85433 76181
L85405 76237
L85377 76265
L85321 76293
L85180 76293
L85124 76265
L85096 76237
" />
<path d="M85687 76068
L86136 76068
" />
<path d="M86727 76293
L86390 76293
" />
<path d="M86558 76293
L86558 75703
L86502 75787
L86446 75843
L86390 75871
" />
<path d="M87289 76293
L86952 76293
" />
<path d="M87121 76293
L87121 75703
L87064 75787
L87008 75843
L86952 75871
" />
</g>
<g style="fill:#000000; fill-opacity:0.0; 
stroke:#000000; stroke-width:39.3701; stroke-opacity:1; 
stroke-linecap:round; stroke-linejoin:round;">
</g>
<g style="fill:#000000; fill-opacity:0.0; 
stroke:#000000; stroke-width:59.0551; stroke-opacity:1; 
stroke-linecap:round; stroke-linejoin:round;">
<path d="M69685 76577
L112205 76577
" />
</g>
<g style="fill:#000000; fill-opacity:0.0; 
stroke:#000000; stroke-width:39.3701; stroke-opacity:1; 
stroke-linecap:round; stroke-linejoin:round;">
</g>
<g style="fill:#000000; fill-opacity:0.0; 
stroke:#000000; stroke-width:59.0551; stroke-opacity:1; 
stroke-linecap:round; stroke-linejoin:round;">
<path d="M70220 77395
L70220 76805
" />
<path d="M70557 77395
L70304 77058
" />
<path d="M70557 76805
L70220 77142
" />
<path d="M70810 77395
L70810 77002
" />
<path d="M70810 76805
L70782 76833
L70810 76861
L70838 76833
L70810 76805
L70810 76861
" />
<path d="M71429 77339
L71401 77367
L71316 77395
L71260 77395
L71176 77367
L71120 77311
L71091 77255
L71063 77142
L71063 77058
L71091 76946
L71120 76889
L71176 76833
L71260 76805
L71316 76805
L71401 76833
L71429 76861
" />
<path d="M71935 77395
L71935 77086
L71907 77030
L71851 77002
L71738 77002
L71682 77030
" />
<path d="M71935 77367
L71879 77395
L71738 77395
L71682 77367
L71654 77311
L71654 77255
L71682 77199
L71738 77171
L71879 77171
L71935 77142
" />
<path d="M72469 77395
L72469 76805
" />
<path d="M72469 77367
L72413 77395
L72301 77395
L72244 77367
L72216 77339
L72188 77283
L72188 77114
L72216 77058
L72244 77030
L72301 77002
L72413 77002
L72469 77030
" />
<path d="M73201 77086
L73397 77086
" />
<path d="M73482 77395
L73201 77395
L73201 76805
L73482 76805
" />
<path d="M73735 77339
L73763 77367
L73735 77395
L73707 77367
L73735 77339
L73735 77395
" />
<path d="M74016 77395
L74016 76805
L74157 76805
L74241 76833
L74297 76889
L74325 76946
L74354 77058
L74354 77142
L74325 77255
L74297 77311
L74241 77367
L74157 77395
L74016 77395
" />
<path d="M74607 77339
L74635 77367
L74607 77395
L74579 77367
L74607 77339
L74607 77395
" />
<path d="M74860 77227
L75141 77227
" />
<path d="M74804 77395
L75000 76805
L75197 77395
" />
<path d="M75394 77339
L75422 77367
L75394 77395
L75366 77367
L75394 77339
L75394 77395
" />
<path d="M76575 77395
L76575 76805
" />
<path d="M76631 77171
L76800 77395
" />
<path d="M76800 77002
L76575 77227
" />
<path d="M77053 77395
L77053 77002
" />
<path d="M77053 76805
L77025 76833
L77053 76861
L77081 76833
L77053 76805
L77053 76861
" />
<path d="M77588 77367
L77531 77395
L77419 77395
L77363 77367
L77334 77339
L77306 77283
L77306 77114
L77334 77058
L77363 77030
L77419 77002
L77531 77002
L77588 77030
" />
<path d="M78094 77395
L78094 77086
L78066 77030
L78009 77002
L77897 77002
L77841 77030
" />
<path d="M78094 77367
L78037 77395
L77897 77395
L77841 77367
L77813 77311
L77813 77255
L77841 77199
L77897 77171
L78037 77171
L78094 77142
" />
<path d="M78628 77395
L78628 76805
" />
<path d="M78628 77367
L78572 77395
L78459 77395
L78403 77367
L78375 77339
L78347 77283
L78347 77114
L78375 77058
L78403 77030
L78459 77002
L78572 77002
L78628 77030
" />
<path d="M79612 77002
L79612 77395
" />
<path d="M79472 76777
L79331 77199
L79697 77199
" />
<path d="M79922 77339
L79950 77367
L79922 77395
L79894 77367
L79922 77339
L79922 77395
" />
<path d="M80315 76805
L80372 76805
L80428 76833
L80456 76861
L80484 76917
L80512 77030
L80512 77171
L80484 77283
L80456 77339
L80428 77367
L80372 77395
L80315 77395
L80259 77367
L80231 77339
L80203 77283
L80175 77171
L80175 77030
L80203 76917
L80231 76861
L80259 76833
L80315 76805
" />
<path d="M80765 77339
L80793 77367
L80765 77395
L80737 77367
L80765 77339
L80765 77395
" />
<path d="M81300 76805
L81187 76805
L81131 76833
L81103 76861
L81046 76946
L81018 77058
L81018 77283
L81046 77339
L81075 77367
L81131 77395
L81243 77395
L81300 77367
L81328 77339
L81356 77283
L81356 77142
L81328 77086
L81300 77058
L81243 77030
L81131 77030
L81075 77058
L81046 77086
L81018 77142
" />
</g>
<g style="fill:#000000; fill-opacity:0.0; 
stroke:#000000; stroke-width:39.3701; stroke-opacity:1; 
stroke-linecap:round; stroke-linejoin:round;">
</g>
<g style="fill:#000000; fill-opacity:0.0; 
stroke:#000000; stroke-width:59.0551; stroke-opacity:1; 
stroke-linecap:round; stroke-linejoin:round;">
<path d="M69685 75396
L112205 75396
" />
</g>
<g style="fill:#000000; fill-opacity:0.0; 
stroke:#000000; stroke-width:39.3701; stroke-opacity:1; 
stroke-linecap:round; stroke-linejoin:round;">
</g>
<g style="fill:#000000; fill-opacity:0.0; 
stroke:#000000; stroke-width:118.11; stroke-opacity:1; 
stroke-linecap:round; stroke-linejoin:round;">
<path d="M104022 76293
L103825 76012
" />
<path d="M103684 76293
L103684 75703
L103909 75703
L103965 75731
L103994 75759
L104022 75815
L104022 75899
L103994 75956
L103965 75984
L103909 76012
L103684 76012
" />
<path d="M104500 76265
L104444 76293
L104331 76293
L104275 76265
L104247 76209
L104247 75984
L104275 75928
L104331 75899
L104444 75899
L104500 75928
L104528 75984
L104528 76040
L104247 76096
" />
<path d="M104725 75899
L104865 76293
L105006 75899
" />
<path d="M105231 76237
L105259 76265
L105231 76293
L105203 76265
L105231 76237
L105231 76293
" />
<path d="M105231 75928
L105259 75956
L105231 75984
L105203 75956
L105231 75928
L105231 75984
" />
<path d="M105878 75703
L106075 76293
L106271 75703
" />
<path d="M106778 76293
L106440 76293
" />
<path d="M106609 76293
L106609 75703
L106553 75787
L106496 75843
L106440 75871
" />
<path d="M107031 76237
L107059 76265
L107031 76293
L107003 76265
L107031 76237
L107031 76293
" />
<path d="M107424 75703
L107481 75703
L107537 75731
L107565 75759
L107593 75815
L107621 75928
L107621 76068
L107593 76181
L107565 76237
L107537 76265
L107481 76293
L107424 76293
L107368 76265
L107340 76237
L107312 76181
L107284 76068
L107284 75928
L107312 75815
L107340 75759
L107368 75731
L107424 75703
" />
</g>
<g style="fill:#000000; fill-opacity:0.0; 
stroke:#000000; stroke-width:39.3701; stroke-opacity:1; 
stroke-linecap:round; stroke-linejoin:round;">
</g>
<g style="fill:#000000; fill-opacity:0.0; 
stroke:#000000; stroke-width:59.0551; stroke-opacity:1; 
stroke-linecap:round; stroke-linejoin:round;">
<path d="M70192 76265
L70276 76293
L70417 76293
L70473 76265
L70501 76237
L70529 76181
L70529 76124
L70501 76068
L70473 76040
L70417 76012
L70304 75984
L70248 75956
L70220 75928
L70192 75871
L70192 75815
L70220 75759
L70248 75731
L70304 75703
L70445 75703
L70529 75731
" />
<path d="M70782 76293
L70782 75899
" />
<path d="M70782 75703
L70754 75731
L70782 75759
L70810 75731
L70782 75703
L70782 75759
" />
<path d="M71007 75899
L71316 75899
L71007 76293
L71316 76293
" />
<path d="M71766 76265
L71710 76293
L71598 76293
L71541 76265
L71513 76209
L71513 75984
L71541 75928
L71598 75899
L71710 75899
L71766 75928
L71795 75984
L71795 76040
L71513 76096
" />
<path d="M72048 76237
L72076 76265
L72048 76293
L72019 76265
L72048 76237
L72048 76293
" />
<path d="M72048 75928
L72076 75956
L72048 75984
L72019 75956
L72048 75928
L72048 75984
" />
<path d="M72751 76124
L73032 76124
" />
<path d="M72694 76293
L72891 75703
L73088 76293
" />
<path d="M73538 75899
L73538 76293
" />
<path d="M73397 75674
L73257 76096
L73622 76096
" />
</g>
<g style="fill:#000000; fill-opacity:0.0; 
stroke:#000000; stroke-width:39.3701; stroke-opacity:1; 
stroke-linecap:round; stroke-linejoin:round;">
</g>
<g style="fill:#000000; fill-opacity:0.0; 
stroke:#000000; stroke-width:59.0551; stroke-opacity:1; 
stroke-linecap:round; stroke-linejoin:round;">
<path d="M103684 77395
L103684 76805
" />
<path d="M104219 77395
L104219 76805
" />
<path d="M104219 77367
L104162 77395
L104050 77395
L103994 77367
L103965 77339
L103937 77283
L103937 77114
L103965 77058
L103994 77030
L104050 77002
L104162 77002
L104219 77030
" />
<path d="M104500 77339
L104528 77367
L104500 77395
L104472 77367
L104500 77339
L104500 77395
" />
<path d="M104500 77030
L104528 77058
L104500 77086
L104472 77058
L104500 77030
L104500 77086
" />
<path d="M105540 77395
L105203 77395
" />
<path d="M105372 77395
L105372 76805
L105315 76889
L105259 76946
L105203 76974
" />
<path d="M106215 76777
L105709 77536
" />
<path d="M106721 77395
L106384 77395
" />
<path d="M106553 77395
L106553 76805
L106496 76889
L106440 76946
L106384 76974
" />
</g>
<g style="fill:#000000; fill-opacity:0.0; 
stroke:#000000; stroke-width:39.3701; stroke-opacity:1; 
stroke-linecap:round; stroke-linejoin:round;">
</g>
<g style="fill:#000000; fill-opacity:0.0; 
stroke:#000000; stroke-width:59.0551; stroke-opacity:1; 
stroke-linecap:round; stroke-linejoin:round;">
<path d="M69685 73821
L112205 73821
" />
</g>
<g style="fill:#000000; fill-opacity:0.0; 
stroke:#000000; stroke-width:39.3701; stroke-opacity:1; 
stroke-linecap:round; stroke-linejoin:round;">
</g>
<g style="fill:#000000; fill-opacity:0.0; 
stroke:#000000; stroke-width:157.48; stroke-opacity:1; 
stroke-linecap:round; stroke-linejoin:round;">
<path d="M70257 74099
L70707 74099
" />
<path d="M70384 74886
L70482 74099
" />
<path d="M70871 74886
L70937 74361
" />
<path d="M70970 74099
L70927 74136
L70960 74174
L71002 74136
L70970 74099
L70960 74174
" />
<path d="M71199 74361
L71499 74361
" />
<path d="M71345 74099
L71260 74774
L71288 74849
L71359 74886
L71434 74886
" />
<path d="M71809 74886
L71738 74849
L71710 74774
L71795 74099
" />
<path d="M72413 74849
L72334 74886
L72184 74886
L72113 74849
L72085 74774
L72123 74474
L72169 74399
L72249 74361
L72399 74361
L72469 74399
L72498 74474
L72488 74549
L72104 74624
" />
<path d="M72793 74811
L72826 74849
L72783 74886
L72751 74849
L72793 74811
L72783 74886
" />
<path d="M72844 74399
L72877 74436
L72835 74474
L72802 74436
L72844 74399
L72835 74474
" />
<path d="M73726 74849
L73796 74886
L73946 74886
L74025 74849
L74072 74774
L74077 74736
L74049 74661
L73979 74624
L73866 74624
L73796 74586
L73768 74511
L73772 74474
L73819 74399
L73899 74361
L74011 74361
L74082 74399
" />
<path d="M74396 74886
L74461 74361
" />
<path d="M74494 74099
L74452 74136
L74485 74174
L74527 74136
L74494 74099
L74485 74174
" />
<path d="M74836 74361
L74771 74886
" />
<path d="M74827 74436
L74869 74399
L74949 74361
L75061 74361
L75132 74399
L75160 74474
L75108 74886
" />
<path d="M75886 74361
L75807 74999
L75760 75074
L75717 75111
L75638 75149
L75525 75149
L75455 75111
" />
<path d="M75825 74849
L75746 74886
L75596 74886
L75525 74849
L75492 74811
L75464 74736
L75492 74511
L75539 74436
L75582 74399
L75661 74361
L75811 74361
L75882 74399
" />
<path d="M76308 74886
L76238 74849
L76210 74774
L76294 74099
" />
<path d="M76913 74849
L76833 74886
L76683 74886
L76613 74849
L76585 74774
L76622 74474
L76669 74399
L76749 74361
L76899 74361
L76969 74399
L76997 74474
L76988 74549
L76603 74624
" />
<path d="M77836 74361
L78136 74361
" />
<path d="M77981 74099
L77897 74774
L77925 74849
L77995 74886
L78070 74886
" />
<path d="M78333 74886
L78398 74361
" />
<path d="M78380 74511
L78427 74436
L78469 74399
L78548 74361
L78623 74361
" />
<path d="M79158 74886
L79209 74474
L79181 74399
L79111 74361
L78961 74361
L78881 74399
" />
<path d="M79162 74849
L79083 74886
L78895 74886
L78825 74849
L78797 74774
L78806 74699
L78853 74624
L78933 74586
L79120 74586
L79200 74549
" />
<path d="M79598 74361
L79533 74886
" />
<path d="M79589 74436
L79631 74399
L79711 74361
L79823 74361
L79894 74399
L79922 74474
L79870 74886
" />
<path d="M80236 74361
L80648 74361
L80170 74886
L80582 74886
" />
<path d="M80882 74886
L80948 74361
" />
<path d="M80981 74099
L80939 74136
L80971 74174
L81014 74136
L80981 74099
L80971 74174
" />
<path d="M81225 74849
L81295 74886
L81445 74886
L81525 74849
L81571 74774
L81576 74736
L81548 74661
L81478 74624
L81365 74624
L81295 74586
L81267 74511
L81271 74474
L81318 74399
L81398 74361
L81510 74361
L81581 74399
" />
<path d="M81848 74361
L82148 74361
" />
<path d="M81993 74099
L81909 74774
L81937 74849
L82007 74886
L82082 74886
" />
<path d="M82457 74886
L82387 74849
L82354 74811
L82326 74736
L82354 74511
L82401 74436
L82443 74399
L82523 74361
L82635 74361
L82706 74399
L82738 74436
L82767 74511
L82738 74736
L82692 74811
L82649 74849
L82570 74886
L82457 74886
" />
<path d="M83057 74886
L83123 74361
" />
<path d="M83104 74511
L83151 74436
L83193 74399
L83273 74361
L83348 74361
" />
<path d="M84482 74886
L84534 74474
L84505 74399
L84435 74361
L84285 74361
L84205 74399
" />
<path d="M84487 74849
L84407 74886
L84220 74886
L84149 74849
L84121 74774
L84130 74699
L84177 74624
L84257 74586
L84444 74586
L84524 74549
" />
<path d="M84857 74886
L84923 74361
" />
<path d="M84913 74436
L84955 74399
L85035 74361
L85148 74361
L85218 74399
L85246 74474
L85194 74886
" />
<path d="M85246 74474
L85293 74399
L85373 74361
L85485 74361
L85555 74399
L85583 74474
L85532 74886
" />
<path d="M85972 74361
L85874 75149
" />
<path d="M85968 74399
L86047 74361
L86197 74361
L86268 74399
L86301 74436
L86329 74511
L86301 74736
L86254 74811
L86211 74849
L86132 74886
L85982 74886
L85912 74849
" />
</g>
<g style="fill:#000000; fill-opacity:0.0; 
stroke:#000000; stroke-width:39.3701; stroke-opacity:1; 
stroke-linecap:round; stroke-linejoin:round;">
</g>
<g style="fill:#000000; fill-opacity:0.0; 
stroke:#000000; stroke-width:59.0551; stroke-opacity:1; 
stroke-linecap:round; stroke-linejoin:round;">
<path d="M70417 73070
L70220 73070
" />
<path d="M70220 73380
L70220 72789
L70501 72789
" />
<path d="M70726 73380
L70726 72986
" />
<path d="M70726 72789
L70698 72817
L70726 72845
L70754 72817
L70726 72789
L70726 72845
" />
<path d="M71091 73380
L71035 73352
L71007 73295
L71007 72789
" />
<path d="M71541 73352
L71485 73380
L71373 73380
L71316 73352
L71288 73295
L71288 73070
L71316 73014
L71373 72986
L71485 72986
L71541 73014
L71570 73070
L71570 73127
L71288 73183
" />
<path d="M71823 73323
L71851 73352
L71823 73380
L71795 73352
L71823 73323
L71823 73380
" />
<path d="M71823 73014
L71851 73042
L71823 73070
L71795 73042
L71823 73014
L71823 73070
" />
<path d="M72526 73352
L72582 73380
L72694 73380
L72751 73352
L72779 73295
L72779 73267
L72751 73211
L72694 73183
L72610 73183
L72554 73155
L72526 73099
L72526 73070
L72554 73014
L72610 72986
L72694 72986
L72751 73014
" />
<path d="M73032 73380
L73032 72986
" />
<path d="M73032 72789
L73004 72817
L73032 72845
L73060 72817
L73032 72789
L73032 72845
" />
<path d="M73313 72986
L73313 73380
" />
<path d="M73313 73042
L73341 73014
L73397 72986
L73482 72986
L73538 73014
L73566 73070
L73566 73380
" />
<path d="M74100 72986
L74100 73464
L74072 73520
L74044 73548
L73988 73577
L73904 73577
L73847 73548
" />
<path d="M74100 73352
L74044 73380
L73932 73380
L73876 73352
L73847 73323
L73819 73267
L73819 73099
L73847 73042
L73876 73014
L73932 72986
L74044 72986
L74100 73014
" />
<path d="M74466 73380
L74410 73352
L74382 73295
L74382 72789
" />
<path d="M74916 73352
L74860 73380
L74747 73380
L74691 73352
L74663 73295
L74663 73070
L74691 73014
L74747 72986
L74860 72986
L74916 73014
L74944 73070
L74944 73127
L74663 73183
" />
<path d="M75057 73436
L75507 73436
" />
<path d="M75563 72986
L75788 72986
" />
<path d="M75647 72789
L75647 73295
L75675 73352
L75732 73380
L75788 73380
" />
<path d="M75985 73380
L75985 72986
" />
<path d="M75985 73099
L76013 73042
L76041 73014
L76097 72986
L76153 72986
" />
<path d="M76603 73380
L76603 73070
L76575 73014
L76519 72986
L76406 72986
L76350 73014
" />
<path d="M76603 73352
L76547 73380
L76406 73380
L76350 73352
L76322 73295
L76322 73239
L76350 73183
L76406 73155
L76547 73155
L76603 73127
" />
<path d="M76885 72986
L76885 73380
" />
<path d="M76885 73042
L76913 73014
L76969 72986
L77053 72986
L77109 73014
L77138 73070
L77138 73380
" />
<path d="M77363 72986
L77672 72986
L77363 73380
L77672 73380
" />
<path d="M77897 73380
L77897 72986
" />
<path d="M77897 72789
L77869 72817
L77897 72845
L77925 72817
L77897 72789
L77897 72845
" />
<path d="M78150 73352
L78206 73380
L78319 73380
L78375 73352
L78403 73295
L78403 73267
L78375 73211
L78319 73183
L78234 73183
L78178 73155
L78150 73099
L78150 73070
L78178 73014
L78234 72986
L78319 72986
L78375 73014
" />
<path d="M78572 72986
L78797 72986
" />
<path d="M78656 72789
L78656 73295
L78684 73352
L78741 73380
L78797 73380
" />
<path d="M79078 73380
L79022 73352
L78994 73323
L78965 73267
L78965 73099
L78994 73042
L79022 73014
L79078 72986
L79162 72986
L79219 73014
L79247 73042
L79275 73099
L79275 73267
L79247 73323
L79219 73352
L79162 73380
L79078 73380
" />
<path d="M79528 73380
L79528 72986
" />
<path d="M79528 73099
L79556 73042
L79584 73014
L79640 72986
L79697 72986
" />
<path d="M79753 73436
L80203 73436
" />
<path d="M80597 73380
L80597 73070
L80568 73014
L80512 72986
L80400 72986
L80343 73014
" />
<path d="M80597 73352
L80540 73380
L80400 73380
L80343 73352
L80315 73295
L80315 73239
L80343 73183
L80400 73155
L80540 73155
L80597 73127
" />
<path d="M80878 73380
L80878 72986
" />
<path d="M80878 73042
L80906 73014
L80962 72986
L81046 72986
L81103 73014
L81131 73070
L81131 73380
" />
<path d="M81131 73070
L81159 73014
L81215 72986
L81300 72986
L81356 73014
L81384 73070
L81384 73380
" />
<path d="M81665 72986
L81665 73577
" />
<path d="M81665 73014
L81721 72986
L81834 72986
L81890 73014
L81918 73042
L81946 73099
L81946 73267
L81918 73323
L81890 73352
L81834 73380
L81721 73380
L81665 73352
" />
<path d="M82199 73323
L82228 73352
L82199 73380
L82171 73352
L82199 73323
L82199 73380
" />
<path d="M82481 73380
L82481 72789
" />
<path d="M82537 73155
L82706 73380
" />
<path d="M82706 72986
L82481 73211
" />
<path d="M82959 73380
L82959 72986
" />
<path d="M82959 72789
L82931 72817
L82959 72845
L82987 72817
L82959 72789
L82959 72845
" />
<path d="M83493 73352
L83437 73380
L83324 73380
L83268 73352
L83240 73323
L83212 73267
L83212 73099
L83240 73042
L83268 73014
L83324 72986
L83437 72986
L83493 73014
" />
<path d="M83999 73380
L83999 73070
L83971 73014
L83915 72986
L83802 72986
L83746 73014
" />
<path d="M83999 73352
L83943 73380
L83802 73380
L83746 73352
L83718 73295
L83718 73239
L83746 73183
L83802 73155
L83943 73155
L83999 73127
" />
<path d="M84534 73380
L84534 72789
" />
<path d="M84534 73352
L84477 73380
L84365 73380
L84309 73352
L84280 73323
L84252 73267
L84252 73099
L84280 73042
L84309 73014
L84365 72986
L84477 72986
L84534 73014
" />
<path d="M84674 73436
L85124 73436
" />
<path d="M85265 72986
L85265 73577
" />
<path d="M85265 73014
L85321 72986
L85433 72986
L85490 73014
L85518 73042
L85546 73099
L85546 73267
L85518 73323
L85490 73352
L85433 73380
L85321 73380
L85265 73352
" />
<path d="M86052 73352
L85996 73380
L85883 73380
L85827 73352
L85799 73323
L85771 73267
L85771 73099
L85799 73042
L85827 73014
L85883 72986
L85996 72986
L86052 73014
" />
<path d="M86305 73380
L86305 72789
" />
<path d="M86305 73014
L86361 72986
L86474 72986
L86530 73014
L86558 73042
L86586 73099
L86586 73267
L86558 73323
L86530 73352
L86474 73380
L86361 73380
L86305 73352
" />
</g>
<g style="fill:#000000; fill-opacity:0.0; 
stroke:#000000; stroke-width:39.3701; stroke-opacity:1; 
stroke-linecap:round; stroke-linejoin:round;">
</g>
<g style="fill:#000000; fill-opacity:0.0; 
stroke:#000000; stroke-width:59.0551; stroke-opacity:1; 
stroke-linecap:round; stroke-linejoin:round;">
<path d="M69685 71459
L112205 71459
" />
</g>
<g style="fill:#000000; fill-opacity:0.0; 
stroke:#000000; stroke-width:39.3701; stroke-opacity:1; 
stroke-linecap:round; stroke-linejoin:round;">
</g>
<g style="fill:#000000; fill-opacity:0.0; 
stroke:#000000; stroke-width:59.0551; stroke-opacity:1; 
stroke-linecap:round; stroke-linejoin:round;">
<path d="M70192 72289
L70276 72317
L70417 72317
L70473 72289
L70501 72260
L70529 72204
L70529 72148
L70501 72092
L70473 72064
L70417 72036
L70304 72007
L70248 71979
L70220 71951
L70192 71895
L70192 71839
L70220 71782
L70248 71754
L70304 71726
L70445 71726
L70529 71754
" />
<path d="M70782 72317
L70782 71726
" />
<path d="M71035 72317
L71035 72007
L71007 71951
L70951 71923
L70867 71923
L70810 71951
L70782 71979
" />
<path d="M71541 72289
L71485 72317
L71373 72317
L71316 72289
L71288 72232
L71288 72007
L71316 71951
L71373 71923
L71485 71923
L71541 71951
L71570 72007
L71570 72064
L71288 72120
" />
<path d="M72048 72289
L71991 72317
L71879 72317
L71823 72289
L71795 72232
L71795 72007
L71823 71951
L71879 71923
L71991 71923
L72048 71951
L72076 72007
L72076 72064
L71795 72120
" />
<path d="M72244 71923
L72469 71923
" />
<path d="M72329 71726
L72329 72232
L72357 72289
L72413 72317
L72469 72317
" />
<path d="M72666 72260
L72694 72289
L72666 72317
L72638 72289
L72666 72260
L72666 72317
" />
<path d="M72666 71951
L72694 71979
L72666 72007
L72638 71979
L72666 71951
L72666 72007
" />
</g>
<g style="fill:#000000; fill-opacity:0.0; 
stroke:#000000; stroke-width:39.3701; stroke-opacity:1; 
stroke-linecap:round; stroke-linejoin:round;">
</g>
<g style="fill:#000000; fill-opacity:0.0; 
stroke:#000000; stroke-width:59.0551; stroke-opacity:1; 
stroke-linecap:round; stroke-linejoin:round;">
<path d="M70192 69786
L70473 69786
" />
<path d="M70135 69955
L70332 69364
L70529 69955
" />
<path d="M70979 69561
L70979 69955
" />
<path d="M70726 69561
L70726 69870
L70754 69926
L70810 69955
L70895 69955
L70951 69926
L70979 69898
" />
<path d="M71176 69561
L71401 69561
" />
<path d="M71260 69364
L71260 69870
L71288 69926
L71345 69955
L71401 69955
" />
<path d="M71682 69955
L71626 69926
L71598 69898
L71570 69842
L71570 69673
L71598 69617
L71626 69589
L71682 69561
L71766 69561
L71823 69589
L71851 69617
L71879 69673
L71879 69842
L71851 69898
L71823 69926
L71766 69955
L71682 69955
" />
<path d="M72132 69955
L72132 69561
" />
<path d="M72132 69673
L72160 69617
L72188 69589
L72244 69561
L72301 69561
" />
<path d="M72469 69926
L72526 69955
L72638 69955
L72694 69926
L72723 69870
L72723 69842
L72694 69786
L72638 69758
L72554 69758
L72498 69730
L72469 69673
L72469 69645
L72498 69589
L72554 69561
L72638 69561
L72694 69589
" />
<path d="M72976 69898
L73004 69926
L72976 69955
L72947 69926
L72976 69898
L72976 69955
" />
<path d="M72976 69589
L73004 69617
L72976 69645
L72947 69617
L72976 69589
L72976 69645
" />
</g>
<g style="fill:#000000; fill-opacity:0.0; 
stroke:#000000; stroke-width:39.3701; stroke-opacity:1; 
stroke-linecap:round; stroke-linejoin:round;">
</g>
<g style="fill:#000000; fill-opacity:0.0; 
stroke:#000000; stroke-width:59.0551; stroke-opacity:1; 
stroke-linecap:round; stroke-linejoin:round;">
<path d="M70220 68773
L70220 68183
" />
<path d="M70557 68773
L70304 68436
" />
<path d="M70557 68183
L70220 68520
" />
<path d="M70810 68773
L70810 68380
" />
<path d="M70810 68492
L70838 68436
L70867 68408
L70923 68380
L70979 68380
" />
<path d="M71176 68773
L71176 68380
" />
<path d="M71176 68183
L71148 68211
L71176 68239
L71204 68211
L71176 68183
L71176 68239
" />
<path d="M71429 68745
L71485 68773
L71598 68773
L71654 68745
L71682 68689
L71682 68661
L71654 68605
L71598 68577
L71513 68577
L71457 68548
L71429 68492
L71429 68464
L71457 68408
L71513 68380
L71598 68380
L71654 68408
" />
<path d="M71851 68380
L72076 68380
" />
<path d="M71935 68183
L71935 68689
L71963 68745
L72019 68773
L72076 68773
" />
<path d="M72526 68773
L72526 68464
L72498 68408
L72441 68380
L72329 68380
L72273 68408
" />
<path d="M72526 68745
L72469 68773
L72329 68773
L72273 68745
L72244 68689
L72244 68633
L72273 68577
L72329 68548
L72469 68548
L72526 68520
" />
<path d="M72807 68380
L72807 68970
" />
<path d="M72807 68408
L72863 68380
L72976 68380
L73032 68408
L73060 68436
L73088 68492
L73088 68661
L73060 68717
L73032 68745
L72976 68773
L72863 68773
L72807 68745
" />
<path d="M73313 68745
L73369 68773
L73482 68773
L73538 68745
L73566 68689
L73566 68661
L73538 68605
L73482 68577
L73397 68577
L73341 68548
L73313 68492
L73313 68464
L73341 68408
L73397 68380
L73482 68380
L73538 68408
" />
</g>
<g style="fill:#000000; fill-opacity:0.0; 
stroke:#000000; stroke-width:39.3701; stroke-opacity:1; 
stroke-linecap:round; stroke-linejoin:round;">
</g>
<g style="fill:#000000; fill-opacity:0.0; 
stroke:#000000; stroke-width:59.0551; stroke-opacity:1; 
stroke-linecap:round; stroke-linejoin:round;">
<path d="M70135 67002
L70332 67592
L70529 67002
" />
<path d="M70726 67592
L70726 67199
" />
<path d="M70726 67002
L70698 67030
L70726 67058
L70754 67030
L70726 67002
L70726 67058
" />
<path d="M71091 67592
L71035 67564
L71007 67508
L71007 67002
" />
<path d="M71570 67564
L71513 67592
L71401 67592
L71345 67564
L71316 67536
L71288 67480
L71288 67311
L71316 67255
L71345 67227
L71401 67199
L71513 67199
L71570 67227
" />
<path d="M72076 67592
L72076 67283
L72048 67227
L71991 67199
L71879 67199
L71823 67227
" />
<path d="M72076 67564
L72019 67592
L71879 67592
L71823 67564
L71795 67508
L71795 67452
L71823 67395
L71879 67367
L72019 67367
L72076 67339
" />
<path d="M72357 67199
L72357 67592
" />
<path d="M72357 67255
L72385 67227
L72441 67199
L72526 67199
L72582 67227
L72610 67283
L72610 67592
" />
<path d="M72863 67564
L72919 67592
L73032 67592
L73088 67564
L73116 67508
L73116 67480
L73088 67424
L73032 67395
L72947 67395
L72891 67367
L72863 67311
L72863 67283
L72891 67227
L72947 67199
L73032 67199
L73088 67227
" />
</g>
<g style="fill:#000000; fill-opacity:0.0; 
stroke:#000000; stroke-width:39.3701; stroke-opacity:1; 
stroke-linecap:round; stroke-linejoin:round;">
</g>
<g style="fill:#000000; fill-opacity:0.0; 
stroke:#000000; stroke-width:59.0551; stroke-opacity:1; 
stroke-linecap:round; stroke-linejoin:round;">
<path d="M77559 75396
L77559 76577
" />
</g>
<g style="fill:#000000; fill-opacity:0.0; 
stroke:#000000; stroke-width:39.3701; stroke-opacity:1; 
stroke-linecap:round; stroke-linejoin:round;">
</g>
<g style="fill:#000000; fill-opacity:0.0; 
stroke:#000000; stroke-width:59.0551; stroke-opacity:1; 
stroke-linecap:round; stroke-linejoin:round;">
<path d="M102756 75396
L102756 77955
" />
</g>
<g style="fill:#C2C200; fill-opacity:0.0; 
stroke:#C2C200; stroke-width:59.0551; stroke-opacity:1; 
stroke-linecap:round; stroke-linejoin:round;">
</g>
<g style="fill:#C2C200; fill-opacity:0.0; 
stroke:#C2C200; stroke-width:39.3701; stroke-opacity:1; 
stroke-linecap:round; stroke-linejoin:round;">
<path d="M65200 42800
L76500 42800
" />
<path d="M64700 33200
L64700 42300
" />
<path d="M76500 32700
L65200 32700
" />
<path d="M77000 42300
L77000 33200
" />
<path d="M76500 42800 A500 500 0.0 0 0 77000 42300 " />
<path d="M64700 42300 A500 500 0.0 0 0 65200 42800 " />
<path d="M65200 32700 A500 500 0.0 0 0 64700 33200 " />
<path d="M77000 33200 A500 500 0.0 0 0 76500 32700 " />
</g>
<g style="fill:#840000; fill-opacity:0.0; 
stroke:#840000; stroke-width:39.3701; stroke-opacity:1; 
stroke-linecap:round; stroke-linejoin:round;">
</g>
<g style="fill:#840000; fill-opacity:1.0; 
stroke:#840000; stroke-width:0; stroke-opacity:1; 
stroke-linecap:round; stroke-linejoin:round;">
<circle cx="69291.5" cy="34700" r="314.961" /> 
</g>
<g style="fill:#840000; fill-opacity:1.0; 
stroke:#840000; stroke-width:39.3701; stroke-opacity:1; 
stroke-linecap:round; stroke-linejoin:round;">
</g>
<g style="fill:#840000; fill-opacity:1.0; 
stroke:#840000; stroke-width:0; stroke-opacity:1; 
stroke-linecap:round; stroke-linejoin:round;">
<circle cx="71260" cy="34700" r="314.961" /> 
</g>
<g style="fill:#840000; fill-opacity:1.0; 
stroke:#840000; stroke-width:39.3701; stroke-opacity:1; 
stroke-linecap:round; stroke-linejoin:round;">
</g>
<g style="fill:#840000; fill-opacity:1.0; 
stroke:#840000; stroke-width:0; stroke-opacity:1; 
stroke-linecap:round; stroke-linejoin:round;">
<circle cx="71300" cy="36900" r="314.961" /> 
</g>
<g style="fill:#840000; fill-opacity:1.0; 
stroke:#840000; stroke-width:39.3701; stroke-opacity:1; 
stroke-linecap:round; stroke-linejoin:round;">
</g>
<g style="fill:#840000; fill-opacity:1.0; 
stroke:#840000; stroke-width:0; stroke-opacity:1; 
stroke-linecap:round; stroke-linejoin:round;">
<circle cx="69331.5" cy="36900" r="314.961" /> 
</g>
<g style="fill:#840000; fill-opacity:1.0; 
stroke:#840000; stroke-width:39.3701; stroke-opacity:1; 
stroke-linecap:round; stroke-linejoin:round;">
</g>
<g style="fill:#840000; fill-opacity:1.0; 
stroke:#840000; stroke-width:0; stroke-opacity:1; 
stroke-linecap:round; stroke-linejoin:round;">
<circle cx="68260" cy="35568.5" r="314.961" /> 
</g>
<g style="fill:#840000; fill-opacity:1.0; 
stroke:#840000; stroke-width:39.3701; stroke-opacity:1; 
stroke-linecap:round; stroke-linejoin:round;">
</g>
<g style="fill:#840000; fill-opacity:1.0; 
stroke:#840000; stroke-width:0; stroke-opacity:1; 
stroke-linecap:round; stroke-linejoin:round;">
<circle cx="68260" cy="33600" r="314.961" /> 
</g>
<g style="fill:#840000; fill-opacity:1.0; 
stroke:#840000; stroke-width:39.3701; stroke-opacity:1; 
stroke-linecap:round; stroke-linejoin:round;">
</g>
<g style="fill:#840000; fill-opacity:1.0; 
stroke:#840000; stroke-width:0; stroke-opacity:1; 
stroke-linecap:round; stroke-linejoin:round;">
<polyline style="fill-rule:evenodd;"
points="67881,40899
67881,39340
68661,39340
68661,40899
67881,40899
" /> 
</g>
<g style="fill:#840000; fill-opacity:1.0; 
stroke:#840000; stroke-width:779.528; stroke-opacity:1; 
stroke-linecap:round; stroke-linejoin:round;">
</g>
<g style="fill:#840000; fill-opacity:0.0; 
stroke:#840000; stroke-width:779.528; stroke-opacity:1; 
stroke-linecap:round; stroke-linejoin:round;">
<path d="M70240 39730
L70240 40509
" />
</g>
<g style="fill:#840000; fill-opacity:0.0; 
stroke:#840000; stroke-width:0; stroke-opacity:1; 
stroke-linecap:round; stroke-linejoin:round;">
</g>
<g style="fill:#840000; fill-opacity:1.0; 
stroke:#840000; stroke-width:0; stroke-opacity:1; 
stroke-linecap:round; stroke-linejoin:round;">
<polyline style="fill-rule:evenodd;"
points="75079,36758
73520,36758
73520,35978
75079,35978
75079,36758
" /> 
</g>
<g style="fill:#840000; fill-opacity:1.0; 
stroke:#840000; stroke-width:779.528; stroke-opacity:1; 
stroke-linecap:round; stroke-linejoin:round;">
</g>
<g style="fill:#840000; fill-opacity:0.0; 
stroke:#840000; stroke-width:779.528; stroke-opacity:1; 
stroke-linecap:round; stroke-linejoin:round;">
<path d="M73910 34400
L74689 34400
" />
</g>
<g style="fill:#840000; fill-opacity:0.0; 
stroke:#840000; stroke-width:0; stroke-opacity:1; 
stroke-linecap:round; stroke-linejoin:round;">
</g>
<g style="fill:#840000; fill-opacity:1.0; 
stroke:#840000; stroke-width:0; stroke-opacity:1; 
stroke-linecap:round; stroke-linejoin:round;">
<polyline style="fill-rule:evenodd;"
points="75079,41278
73520,41278
73520,40498
75079,40498
75079,41278
" /> 
</g>
<g style="fill:#840000; fill-opacity:1.0; 
stroke:#840000; stroke-width:779.528; stroke-opacity:1; 
stroke-linecap:round; stroke-linejoin:round;">
</g>
<g style="fill:#840000; fill-opacity:0.0; 
stroke:#840000; stroke-width:779.528; stroke-opacity:1; 
stroke-linecap:round; stroke-linejoin:round;">
<path d="M73910 38920
L74689 38920
" />
</g>
<g style="fill:#840000; fill-opacity:0.0; 
stroke:#840000; stroke-width:354.331; stroke-opacity:1; 
stroke-linecap:round; stroke-linejoin:round;">
<path d="M66918 34500
L66681 34500
" />
<path d="M66918 34000
L66681 34000
" />
</g>
<g style="fill:#840000; fill-opacity:0.0; 
stroke:#840000; stroke-width:0; stroke-opacity:1; 
stroke-linecap:round; stroke-linejoin:round;">
</g>
<g style="fill:#840000; fill-opacity:1.0; 
stroke:#840000; stroke-width:0; stroke-opacity:1; 
stroke-linecap:round; stroke-linejoin:round;">
<polyline style="fill-rule:evenodd;"
points="66504,34822
67095,34822
67095,35177
66504,35177
66504,34822
" /> 
<circle cx="65600" cy="38000" r="275.591" /> 
</g>
<g style="fill:#840000; fill-opacity:1.0; 
stroke:#840000; stroke-width:39.3701; stroke-opacity:1; 
stroke-linecap:round; stroke-linejoin:round;">
</g>
<g style="fill:#840000; fill-opacity:1.0; 
stroke:#840000; stroke-width:551.181; stroke-opacity:1; 
stroke-linecap:round; stroke-linejoin:round;">
</g>
<g style="fill:#840000; fill-opacity:0.0; 
stroke:#840000; stroke-width:551.181; stroke-opacity:1; 
stroke-linecap:round; stroke-linejoin:round;">
<path d="M65600 36000
L65600 36000
" />
</g>
<g style="fill:#840000; fill-opacity:1.0; 
stroke:#840000; stroke-width:0; stroke-opacity:1; 
stroke-linecap:round; stroke-linejoin:round;">
<circle cx="66500" cy="36900" r="275.591" /> 
</g>
<g style="fill:#840000; fill-opacity:1.0; 
stroke:#840000; stroke-width:39.3701; stroke-opacity:1; 
stroke-linecap:round; stroke-linejoin:round;">
</g>
<g style="fill:#840000; fill-opacity:1.0; 
stroke:#840000; stroke-width:551.181; stroke-opacity:1; 
stroke-linecap:round; stroke-linejoin:round;">
</g>
<g style="fill:#840000; fill-opacity:0.0; 
stroke:#840000; stroke-width:551.181; stroke-opacity:1; 
stroke-linecap:round; stroke-linejoin:round;">
<path d="M68500 36900
L68500 36900
" />
</g>
<g style="fill:#840000; fill-opacity:1.0; 
stroke:#840000; stroke-width:0; stroke-opacity:1; 
stroke-linecap:round; stroke-linejoin:round;">
<circle cx="69300" cy="35800" r="275.591" /> 
</g>
<g style="fill:#840000; fill-opacity:1.0; 
stroke:#840000; stroke-width:39.3701; stroke-opacity:1; 
stroke-linecap:round; stroke-linejoin:round;">
</g>
<g style="fill:#840000; fill-opacity:1.0; 
stroke:#840000; stroke-width:551.181; stroke-opacity:1; 
stroke-linecap:round; stroke-linejoin:round;">
</g>
<g style="fill:#840000; fill-opacity:0.0; 
stroke:#840000; stroke-width:551.181; stroke-opacity:1; 
stroke-linecap:round; stroke-linejoin:round;">
<path d="M71300 35800
L71300 35800
" />
</g>
<g style="fill:#840000; fill-opacity:1.0; 
stroke:#840000; stroke-width:0; stroke-opacity:1; 
stroke-linecap:round; stroke-linejoin:round;">
<circle cx="69300" cy="33600" r="275.591" /> 
</g>
<g style="fill:#840000; fill-opacity:1.0; 
stroke:#840000; stroke-width:39.3701; stroke-opacity:1; 
stroke-linecap:round; stroke-linejoin:round;">
</g>
<g style="fill:#840000; fill-opacity:1.0; 
stroke:#840000; stroke-width:551.181; stroke-opacity:1; 
stroke-linecap:round; stroke-linejoin:round;">
</g>
<g style="fill:#840000; fill-opacity:0.0; 
stroke:#840000; stroke-width:551.181; stroke-opacity:1; 
stroke-linecap:round; stroke-linejoin:round;">
<path d="M71300 33600
L71300 33600
" />
</g>
<g style="fill:#008400; fill-opacity:0.0; 
stroke:#008400; stroke-width:551.181; stroke-opacity:1; 
stroke-linecap:round; stroke-linejoin:round;">
</g>
<g style="fill:#008400; fill-opacity:0.0; 
stroke:#008400; stroke-width:118.11; stroke-opacity:1; 
stroke-linecap:round; stroke-linejoin:round;">
<path d="M66800 34500
L66386 34500
" />
<path d="M66386 34500
L65600 35286
" />
<path d="M65600 35286
L65600 35610
" />
<path d="M65600 35610
L65600 36000
" />
<path d="M69300 35800
L69300 34708
" />
<path d="M69300 34708
L69291 34700
" />
<path d="M68340 34700
L68140 34500
" />
<path d="M68140 34500
L66800 34500
" />
<path d="M69291 34700
L68340 34700
" />
<path d="M72300 34700
L72600 34400
" />
<path d="M72600 34400
L74300 34400
" />
<path d="M71260 34700
L72300 34700
" />
<path d="M74300 40888
L73402 40888
" />
<path d="M73402 40888
L71300 38786
" />
<path d="M71300 38786
L71300 37345
" />
<path d="M71300 37345
L71300 36900
" />
<path d="M66800 35000
L66800 35920
" />
<path d="M66800 35920
L67780 36900
" />
<path d="M67780 36900
L68500 36900
" />
<path d="M68500 36900
L69331 36900
" />
<path d="M68260 33600
L66904 33600
" />
<path d="M66904 33600
L66800 33704
" />
<path d="M66800 33704
L66800 34000
" />
<path d="M68260 33600
L69300 33600
" />
<path d="M65600 39040
L66680 40120
" />
<path d="M66680 40120
L68271 40120
" />
<path d="M65600 38000
L65600 39040
" />
<path d="M66500 36900
L66110 36900
" />
<path d="M66110 36900
L65600 37410
" />
<path d="M65600 37410
L65600 37610
" />
<path d="M65600 37610
L65600 38000
" />
</g>
<g style="fill:#008400; fill-opacity:0.0; 
stroke:#008400; stroke-width:100; stroke-opacity:1; 
stroke-linecap:round; stroke-linejoin:round;">
<path d="M65210 32969
L76486 32969
" />
<path d="M65028 33049
L68129 33049
" />
<path d="M68388 33049
L76671 33049
" />
<path d="M64983 33129
L67946 33129
" />
<path d="M68573 33129
L69060 33129
" />
<path d="M69537 33129
L71066 33129
" />
<path d="M71233 33129
L71366 33129
" />
<path d="M71533 33129
L76716 33129
" />
<path d="M64970 33209
L67851 33209
" />
<path d="M68668 33209
L68947 33209
" />
<path d="M69653 33209
L70951 33209
" />
<path d="M71250 33209
L71350 33209
" />
<path d="M71648 33209
L76730 33209
" />
<path d="M64969 33289
L67787 33289
" />
<path d="M68732 33289
L68875 33289
" />
<path d="M69724 33289
L70878 33289
" />
<path d="M71250 33289
L71350 33289
" />
<path d="M71721 33289
L76730 33289
" />
<path d="M64969 33369
L66700 33369
" />
<path d="M69773 33369
L70830 33369
" />
<path d="M71250 33369
L71350 33369
" />
<path d="M71769 33369
L76730 33369
" />
<path d="M64969 33449
L66617 33449
" />
<path d="M69806 33449
L70796 33449
" />
<path d="M71250 33449
L71350 33449
" />
<path d="M71803 33449
L76730 33449
" />
<path d="M64969 33529
L66545 33529
" />
<path d="M69821 33529
L70827 33529
" />
<path d="M71250 33529
L71350 33529
" />
<path d="M71772 33529
L76730 33529
" />
<path d="M64969 33609
L66507 33609
" />
<path d="M69824 33609
L76730 33609
" />
<path d="M64969 33689
L66387 33689
" />
<path d="M69818 33689
L70815 33689
" />
<path d="M71250 33689
L71350 33689
" />
<path d="M71784 33689
L76730 33689
" />
<path d="M64969 33769
L66320 33769
" />
<path d="M69799 33769
L70802 33769
" />
<path d="M71250 33769
L71350 33769
" />
<path d="M71797 33769
L73808 33769
" />
<path d="M74787 33769
L76730 33769
" />
<path d="M64969 33849
L66280 33849
" />
<path d="M69764 33849
L70839 33849
" />
<path d="M71250 33849
L71350 33849
" />
<path d="M71760 33849
L73584 33849
" />
<path d="M75015 33849
L76730 33849
" />
<path d="M64969 33929
L66259 33929
" />
<path d="M67341 33929
L67800 33929
" />
<path d="M68718 33929
L68887 33929
" />
<path d="M69710 33929
L70893 33929
" />
<path d="M71250 33929
L71350 33929
" />
<path d="M71706 33929
L73474 33929
" />
<path d="M75124 33929
L76730 33929
" />
<path d="M64969 34009
L66253 34009
" />
<path d="M67347 34009
L67870 34009
" />
<path d="M68649 34009
L68968 34009
" />
<path d="M69631 34009
L70972 34009
" />
<path d="M71250 34009
L71350 34009
" />
<path d="M71627 34009
L73401 34009
" />
<path d="M75197 34009
L76730 34009
" />
<path d="M64969 34089
L66262 34089
" />
<path d="M67338 34089
L67974 34089
" />
<path d="M68542 34089
L69107 34089
" />
<path d="M69490 34089
L71116 34089
" />
<path d="M71201 34089
L71398 34089
" />
<path d="M71483 34089
L73349 34089
" />
<path d="M75250 34089
L76730 34089
" />
<path d="M64969 34169
L66288 34169
" />
<path d="M67312 34169
L69095 34169
" />
<path d="M69487 34169
L71064 34169
" />
<path d="M71456 34169
L72395 34169
" />
<path d="M75290 34169
L76730 34169
" />
<path d="M64969 34249
L66206 34249
" />
<path d="M68320 34249
L68947 34249
" />
<path d="M69634 34249
L70916 34249
" />
<path d="M71602 34249
L72313 34249
" />
<path d="M75314 34249
L76730 34249
" />
<path d="M64969 34329
L66119 34329
" />
<path d="M68406 34329
L68862 34329
" />
<path d="M69719 34329
L70830 34329
" />
<path d="M71688 34329
L72233 34329
" />
<path d="M75327 34329
L76730 34329
" />
<path d="M64969 34409
L66039 34409
" />
<path d="M69776 34409
L70774 34409
" />
<path d="M75333 34409
L76730 34409
" />
<path d="M64969 34489
L65959 34489
" />
<path d="M69815 34489
L70735 34489
" />
<path d="M75325 34489
L76730 34489
" />
<path d="M64969 34569
L65879 34569
" />
<path d="M69841 34569
L70710 34569
" />
<path d="M75308 34569
L76730 34569
" />
<path d="M64969 34649
L65799 34649
" />
<path d="M69856 34649
L70695 34649
" />
<path d="M75283 34649
L76730 34649
" />
<path d="M64969 34729
L65719 34729
" />
<path d="M69855 34729
L70694 34729
" />
<path d="M72707 34729
L73359 34729
" />
<path d="M75240 34729
L76730 34729
" />
<path d="M64969 34809
L65639 34809
" />
<path d="M67345 34809
L68012 34809
" />
<path d="M69845 34809
L70705 34809
" />
<path d="M72627 34809
L73417 34809
" />
<path d="M75182 34809
L76730 34809
" />
<path d="M64969 34889
L65559 34889
" />
<path d="M67346 34889
L68092 34889
" />
<path d="M69825 34889
L70727 34889
" />
<path d="M72547 34889
L73498 34889
" />
<path d="M75101 34889
L76730 34889
" />
<path d="M64969 34969
L65479 34969
" />
<path d="M67346 34969
L68192 34969
" />
<path d="M69789 34969
L70761 34969
" />
<path d="M72448 34969
L73619 34969
" />
<path d="M74979 34969
L76730 34969
" />
<path d="M64969 35049
L65399 35049
" />
<path d="M67346 35049
L68032 35049
" />
<path d="M68484 35049
L68844 35049
" />
<path d="M69736 35049
L70813 35049
" />
<path d="M71704 35049
L76730 35049
" />
<path d="M64969 35129
L65335 35129
" />
<path d="M66193 35129
L66253 35129
" />
<path d="M67346 35129
L67953 35129
" />
<path d="M68566 35129
L68921 35129
" />
<path d="M69659 35129
L70889 35129
" />
<path d="M71628 35129
L76730 35129
" />
<path d="M64969 35209
L65301 35209
" />
<path d="M66113 35209
L66256 35209
" />
<path d="M67341 35209
L67971 35209
" />
<path d="M68548 35209
L68990 35209
" />
<path d="M69609 35209
L71015 35209
" />
<path d="M71508 35209
L76730 35209
" />
<path d="M64969 35289
L65290 35289
" />
<path d="M66033 35289
L66281 35289
" />
<path d="M67317 35289
L67766 35289
" />
<path d="M67910 35289
L68051 35289
" />
<path d="M68468 35289
L68609 35289
" />
<path d="M68753 35289
L68990 35289
" />
<path d="M69609 35289
L76730 35289
" />
<path d="M64969 35369
L65290 35369
" />
<path d="M65953 35369
L66347 35369
" />
<path d="M67255 35369
L67729 35369
" />
<path d="M67990 35369
L68131 35369
" />
<path d="M68388 35369
L68529 35369
" />
<path d="M68788 35369
L68990 35369
" />
<path d="M69609 35369
L71000 35369
" />
<path d="M71250 35369
L71350 35369
" />
<path d="M71599 35369
L76730 35369
" />
<path d="M64969 35449
L65290 35449
" />
<path d="M65909 35449
L66490 35449
" />
<path d="M67109 35449
L67707 35449
" />
<path d="M68070 35449
L68211 35449
" />
<path d="M68308 35449
L68449 35449
" />
<path d="M68813 35449
L68906 35449
" />
<path d="M69692 35449
L70908 35449
" />
<path d="M71250 35449
L71350 35449
" />
<path d="M71691 35449
L76730 35449
" />
<path d="M64969 35529
L65290 35529
" />
<path d="M65909 35529
L66490 35529
" />
<path d="M67109 35529
L67696 35529
" />
<path d="M68150 35529
L68369 35529
" />
<path d="M68825 35529
L68848 35529
" />
<path d="M69751 35529
L70849 35529
" />
<path d="M71250 35529
L71350 35529
" />
<path d="M71750 35529
L76730 35529
" />
<path d="M64969 35609
L65247 35609
" />
<path d="M65951 35609
L66490 35609
" />
<path d="M67109 35609
L67694 35609
" />
<path d="M68148 35609
L68371 35609
" />
<path d="M69790 35609
L70811 35609
" />
<path d="M71250 35609
L71350 35609
" />
<path d="M71788 35609
L76730 35609
" />
<path d="M64969 35689
L65175 35689
" />
<path d="M66023 35689
L66490 35689
" />
<path d="M67109 35689
L67706 35689
" />
<path d="M68068 35689
L68209 35689
" />
<path d="M68310 35689
L68451 35689
" />
<path d="M69813 35689
L70803 35689
" />
<path d="M71250 35689
L71350 35689
" />
<path d="M71796 35689
L76730 35689
" />
<path d="M64969 35769
L65128 35769
" />
<path d="M66071 35769
L66490 35769
" />
<path d="M67109 35769
L67731 35769
" />
<path d="M67988 35769
L68129 35769
" />
<path d="M68390 35769
L68531 35769
" />
<path d="M69825 35769
L73383 35769
" />
<path d="M74228 35769
L74371 35769
" />
<path d="M75216 35769
L76730 35769
" />
<path d="M64969 35849
L65098 35849
" />
<path d="M66101 35849
L66490 35849
" />
<path d="M67166 35849
L67767 35849
" />
<path d="M67908 35849
L68049 35849
" />
<path d="M68470 35849
L68611 35849
" />
<path d="M68751 35849
L68774 35849
" />
<path d="M69824 35849
L73306 35849
" />
<path d="M74250 35849
L74350 35849
" />
<path d="M75293 35849
L76730 35849
" />
<path d="M64969 35929
L65081 35929
" />
<path d="M66118 35929
L66491 35929
" />
<path d="M67246 35929
L67969 35929
" />
<path d="M68550 35929
L68789 35929
" />
<path d="M69809 35929
L70791 35929
" />
<path d="M71250 35929
L71350 35929
" />
<path d="M71808 35929
L73275 35929
" />
<path d="M74250 35929
L74350 35929
" />
<path d="M75324 35929
L76730 35929
" />
<path d="M64969 36009
L65075 36009
" />
<path d="M66125 36009
L66505 36009
" />
<path d="M67326 36009
L67954 36009
" />
<path d="M68565 36009
L68817 36009
" />
<path d="M69781 36009
L70820 36009
" />
<path d="M71250 36009
L71350 36009
" />
<path d="M71779 36009
L73270 36009
" />
<path d="M74250 36009
L74350 36009
" />
<path d="M75329 36009
L76730 36009
" />
<path d="M64969 36089
L65082 36089
" />
<path d="M66116 36089
L66541 36089
" />
<path d="M67406 36089
L68040 36089
" />
<path d="M68480 36089
L68861 36089
" />
<path d="M69738 36089
L70863 36089
" />
<path d="M71250 36089
L71350 36089
" />
<path d="M71736 36089
L73270 36089
" />
<path d="M74250 36089
L74350 36089
" />
<path d="M75329 36089
L76730 36089
" />
<path d="M64969 36169
L65104 36169
" />
<path d="M66095 36169
L66612 36169
" />
<path d="M67486 36169
L68926 36169
" />
<path d="M69673 36169
L70929 36169
" />
<path d="M71250 36169
L71350 36169
" />
<path d="M71670 36169
L73270 36169
" />
<path d="M74250 36169
L74350 36169
" />
<path d="M75329 36169
L76730 36169
" />
<path d="M64969 36249
L65138 36249
" />
<path d="M66061 36249
L66692 36249
" />
<path d="M67566 36249
L69026 36249
" />
<path d="M69572 36249
L71032 36249
" />
<path d="M71250 36249
L71350 36249
" />
<path d="M71567 36249
L73270 36249
" />
<path d="M74250 36249
L74350 36249
" />
<path d="M75329 36249
L76730 36249
" />
<path d="M64969 36329
L65191 36329
" />
<path d="M66008 36329
L66772 36329
" />
<path d="M67646 36329
L76730 36329
" />
<path d="M64969 36409
L65271 36409
" />
<path d="M65928 36409
L66310 36409
" />
<path d="M66689 36409
L66852 36409
" />
<path d="M67726 36409
L68311 36409
" />
<path d="M68686 36409
L69048 36409
" />
<path d="M69614 36409
L71017 36409
" />
<path d="M71583 36409
L76730 36409
" />
<path d="M64969 36489
L65404 36489
" />
<path d="M65797 36489
L66167 36489
" />
<path d="M66831 36489
L66932 36489
" />
<path d="M67806 36489
L68172 36489
" />
<path d="M68827 36489
L68942 36489
" />
<path d="M69720 36489
L70911 36489
" />
<path d="M71688 36489
L73270 36489
" />
<path d="M74250 36489
L74350 36489
" />
<path d="M75329 36489
L76730 36489
" />
<path d="M64969 36569
L66089 36569
" />
<path d="M66911 36569
L67012 36569
" />
<path d="M67886 36569
L68091 36569
" />
<path d="M69790 36569
L70841 36569
" />
<path d="M71758 36569
L73270 36569
" />
<path d="M74250 36569
L74350 36569
" />
<path d="M75329 36569
L76730 36569
" />
<path d="M64969 36649
L65930 36649
" />
<path d="M66964 36649
L67092 36649
" />
<path d="M69839 36649
L70792 36649
" />
<path d="M71807 36649
L73270 36649
" />
<path d="M74250 36649
L74350 36649
" />
<path d="M75329 36649
L76730 36649
" />
<path d="M64969 36729
L65843 36729
" />
<path d="M66998 36729
L67172 36729
" />
<path d="M69872 36729
L70758 36729
" />
<path d="M71840 36729
L73270 36729
" />
<path d="M74250 36729
L74350 36729
" />
<path d="M75329 36729
L76730 36729
" />
<path d="M64969 36809
L65763 36809
" />
<path d="M67017 36809
L67252 36809
" />
<path d="M69889 36809
L70741 36809
" />
<path d="M71858 36809
L73275 36809
" />
<path d="M74250 36809
L74350 36809
" />
<path d="M75324 36809
L76730 36809
" />
<path d="M64969 36889
L65683 36889
" />
<path d="M67025 36889
L67332 36889
" />
<path d="M69895 36889
L70735 36889
" />
<path d="M71864 36889
L73307 36889
" />
<path d="M74250 36889
L74350 36889
" />
<path d="M75292 36889
L76730 36889
" />
<path d="M64969 36969
L65603 36969
" />
<path d="M67023 36969
L67412 36969
" />
<path d="M69894 36969
L70738 36969
" />
<path d="M71863 36969
L73386 36969
" />
<path d="M74226 36969
L74373 36969
" />
<path d="M75213 36969
L76730 36969
" />
<path d="M64969 37049
L65523 37049
" />
<path d="M67004 37049
L67492 37049
" />
<path d="M69876 37049
L70753 37049
" />
<path d="M71845 37049
L76730 37049
" />
<path d="M64969 37129
L65443 37129
" />
<path d="M66973 37129
L67575 37129
" />
<path d="M69847 37129
L70783 37129
" />
<path d="M71816 37129
L76730 37129
" />
<path d="M64969 37209
L65366 37209
" />
<path d="M66924 37209
L68075 37209
" />
<path d="M69804 37209
L70827 37209
" />
<path d="M71772 37209
L76730 37209
" />
<path d="M64969 37289
L65315 37289
" />
<path d="M66852 37289
L68148 37289
" />
<path d="M68852 37289
L68922 37289
" />
<path d="M69741 37289
L70890 37289
" />
<path d="M71710 37289
L76730 37289
" />
<path d="M64969 37369
L65294 37369
" />
<path d="M66077 37369
L66262 37369
" />
<path d="M66740 37369
L68266 37369
" />
<path d="M68733 37369
L69017 37369
" />
<path d="M69645 37369
L70985 37369
" />
<path d="M71614 37369
L76730 37369
" />
<path d="M64969 37449
L65290 37449
" />
<path d="M65997 37449
L69200 37449
" />
<path d="M69467 37449
L70990 37449
" />
<path d="M71609 37449
L76730 37449
" />
<path d="M64969 37529
L65290 37529
" />
<path d="M65917 37529
L70990 37529
" />
<path d="M71609 37529
L76730 37529
" />
<path d="M64969 37609
L65247 37609
" />
<path d="M65953 37609
L70990 37609
" />
<path d="M71609 37609
L76730 37609
" />
<path d="M64969 37689
L65175 37689
" />
<path d="M66024 37689
L70990 37689
" />
<path d="M71609 37689
L76730 37689
" />
<path d="M64969 37769
L65126 37769
" />
<path d="M66073 37769
L70990 37769
" />
<path d="M71609 37769
L76730 37769
" />
<path d="M64969 37849
L65094 37849
" />
<path d="M66106 37849
L70990 37849
" />
<path d="M71609 37849
L76730 37849
" />
<path d="M64969 37929
L65077 37929
" />
<path d="M66121 37929
L70990 37929
" />
<path d="M71609 37929
L76730 37929
" />
<path d="M64969 38009
L65074 38009
" />
<path d="M66124 38009
L70990 38009
" />
<path d="M71609 38009
L76730 38009
" />
<path d="M64969 38089
L65082 38089
" />
<path d="M66118 38089
L70990 38089
" />
<path d="M71609 38089
L76730 38089
" />
<path d="M64969 38169
L65101 38169
" />
<path d="M66099 38169
L70990 38169
" />
<path d="M71609 38169
L76730 38169
" />
<path d="M64969 38249
L65135 38249
" />
<path d="M66064 38249
L70990 38249
" />
<path d="M71609 38249
L76730 38249
" />
<path d="M64969 38329
L65187 38329
" />
<path d="M66010 38329
L70990 38329
" />
<path d="M71609 38329
L73666 38329
" />
<path d="M74250 38329
L74350 38329
" />
<path d="M74933 38329
L76730 38329
" />
<path d="M64969 38409
L65268 38409
" />
<path d="M65931 38409
L70990 38409
" />
<path d="M71609 38409
L73522 38409
" />
<path d="M74250 38409
L74350 38409
" />
<path d="M75077 38409
L76730 38409
" />
<path d="M64969 38489
L65290 38489
" />
<path d="M65909 38489
L70990 38489
" />
<path d="M71609 38489
L73436 38489
" />
<path d="M74250 38489
L74350 38489
" />
<path d="M75163 38489
L76730 38489
" />
<path d="M64969 38569
L65290 38569
" />
<path d="M65909 38569
L70990 38569
" />
<path d="M71609 38569
L73375 38569
" />
<path d="M74250 38569
L74350 38569
" />
<path d="M75224 38569
L76730 38569
" />
<path d="M64969 38649
L65290 38649
" />
<path d="M65909 38649
L70990 38649
" />
<path d="M71609 38649
L73331 38649
" />
<path d="M74250 38649
L74350 38649
" />
<path d="M75268 38649
L76730 38649
" />
<path d="M64969 38729
L65290 38729
" />
<path d="M65909 38729
L70990 38729
" />
<path d="M71680 38729
L73298 38729
" />
<path d="M74250 38729
L74350 38729
" />
<path d="M75301 38729
L76730 38729
" />
<path d="M64969 38809
L65290 38809
" />
<path d="M65909 38809
L70993 38809
" />
<path d="M71760 38809
L73306 38809
" />
<path d="M74250 38809
L74350 38809
" />
<path d="M75293 38809
L76730 38809
" />
<path d="M64969 38889
L65290 38889
" />
<path d="M65909 38889
L71009 38889
" />
<path d="M71840 38889
L76730 38889
" />
<path d="M64969 38969
L65290 38969
" />
<path d="M65966 38969
L71052 38969
" />
<path d="M71920 38969
L76730 38969
" />
<path d="M64969 39049
L65291 39049
" />
<path d="M66046 39049
L71126 39049
" />
<path d="M72000 39049
L73297 39049
" />
<path d="M74250 39049
L74350 39049
" />
<path d="M75302 39049
L76730 39049
" />
<path d="M64969 39129
L65305 39129
" />
<path d="M66126 39129
L67749 39129
" />
<path d="M68797 39129
L70019 39129
" />
<path d="M70136 39129
L70343 39129
" />
<path d="M70460 39129
L71206 39129
" />
<path d="M72080 39129
L73304 39129
" />
<path d="M74250 39129
L74350 39129
" />
<path d="M75295 39129
L76730 39129
" />
<path d="M64969 39209
L65341 39209
" />
<path d="M66206 39209
L67667 39209
" />
<path d="M68872 39209
L69870 39209
" />
<path d="M70190 39209
L70290 39209
" />
<path d="M70609 39209
L71286 39209
" />
<path d="M72160 39209
L73339 39209
" />
<path d="M74250 39209
L74350 39209
" />
<path d="M75260 39209
L76730 39209
" />
<path d="M64969 39289
L65412 39289
" />
<path d="M66286 39289
L67637 39289
" />
<path d="M68905 39289
L69777 39289
" />
<path d="M70190 39289
L70290 39289
" />
<path d="M70702 39289
L71366 39289
" />
<path d="M72240 39289
L73389 39289
" />
<path d="M74250 39289
L74350 39289
" />
<path d="M75210 39289
L76730 39289
" />
<path d="M64969 39369
L65492 39369
" />
<path d="M66366 39369
L67630 39369
" />
<path d="M68912 39369
L69712 39369
" />
<path d="M70190 39369
L70290 39369
" />
<path d="M70767 39369
L71446 39369
" />
<path d="M72320 39369
L73456 39369
" />
<path d="M74250 39369
L74350 39369
" />
<path d="M75143 39369
L76730 39369
" />
<path d="M64969 39449
L65572 39449
" />
<path d="M66446 39449
L67630 39449
" />
<path d="M68912 39449
L69663 39449
" />
<path d="M70190 39449
L70290 39449
" />
<path d="M70816 39449
L71526 39449
" />
<path d="M72400 39449
L73553 39449
" />
<path d="M74250 39449
L74350 39449
" />
<path d="M75046 39449
L76730 39449
" />
<path d="M64969 39529
L65652 39529
" />
<path d="M66526 39529
L67630 39529
" />
<path d="M68912 39529
L69632 39529
" />
<path d="M70190 39529
L70290 39529
" />
<path d="M70847 39529
L71606 39529
" />
<path d="M72480 39529
L73715 39529
" />
<path d="M74250 39529
L74350 39529
" />
<path d="M74884 39529
L76730 39529
" />
<path d="M64969 39609
L65732 39609
" />
<path d="M66606 39609
L67630 39609
" />
<path d="M68912 39609
L69612 39609
" />
<path d="M70190 39609
L70290 39609
" />
<path d="M70867 39609
L71686 39609
" />
<path d="M72560 39609
L76730 39609
" />
<path d="M64969 39689
L65812 39689
" />
<path d="M66686 39689
L67630 39689
" />
<path d="M68912 39689
L69600 39689
" />
<path d="M70190 39689
L70290 39689
" />
<path d="M70879 39689
L71766 39689
" />
<path d="M72640 39689
L76730 39689
" />
<path d="M64969 39769
L65892 39769
" />
<path d="M66766 39769
L67630 39769
" />
<path d="M68912 39769
L69600 39769
" />
<path d="M70190 39769
L70290 39769
" />
<path d="M70879 39769
L71846 39769
" />
<path d="M72720 39769
L76730 39769
" />
<path d="M64969 39849
L65972 39849
" />
<path d="M68912 39849
L69600 39849
" />
<path d="M70190 39849
L70290 39849
" />
<path d="M70879 39849
L71926 39849
" />
<path d="M72800 39849
L76730 39849
" />
<path d="M64969 39929
L66052 39929
" />
<path d="M68912 39929
L69600 39929
" />
<path d="M70190 39929
L70290 39929
" />
<path d="M70879 39929
L72006 39929
" />
<path d="M72880 39929
L76730 39929
" />
<path d="M64969 40009
L66132 40009
" />
<path d="M68912 40009
L69600 40009
" />
<path d="M70190 40009
L70290 40009
" />
<path d="M70879 40009
L72086 40009
" />
<path d="M72960 40009
L76730 40009
" />
<path d="M64969 40089
L66212 40089
" />
<path d="M68912 40089
L72166 40089
" />
<path d="M73040 40089
L76730 40089
" />
<path d="M64969 40169
L66292 40169
" />
<path d="M68912 40169
L72246 40169
" />
<path d="M73120 40169
L76730 40169
" />
<path d="M64969 40249
L66372 40249
" />
<path d="M68912 40249
L69600 40249
" />
<path d="M70190 40249
L70290 40249
" />
<path d="M70879 40249
L72326 40249
" />
<path d="M73200 40249
L73493 40249
" />
<path d="M75094 40249
L76730 40249
" />
<path d="M64969 40329
L66452 40329
" />
<path d="M68912 40329
L69600 40329
" />
<path d="M70190 40329
L70290 40329
" />
<path d="M70879 40329
L72406 40329
" />
<path d="M73280 40329
L73337 40329
" />
<path d="M75264 40329
L76730 40329
" />
<path d="M64969 40409
L66575 40409
" />
<path d="M68912 40409
L69600 40409
" />
<path d="M70190 40409
L70290 40409
" />
<path d="M70879 40409
L72486 40409
" />
<path d="M75312 40409
L76730 40409
" />
<path d="M64969 40489
L67630 40489
" />
<path d="M68912 40489
L69600 40489
" />
<path d="M70190 40489
L70290 40489
" />
<path d="M70879 40489
L72566 40489
" />
<path d="M75330 40489
L76730 40489
" />
<path d="M64969 40569
L67630 40569
" />
<path d="M68912 40569
L69602 40569
" />
<path d="M70190 40569
L70290 40569
" />
<path d="M70877 40569
L72646 40569
" />
<path d="M75330 40569
L76730 40569
" />
<path d="M64969 40649
L67630 40649
" />
<path d="M68912 40649
L69616 40649
" />
<path d="M70190 40649
L70290 40649
" />
<path d="M70863 40649
L72726 40649
" />
<path d="M75330 40649
L76730 40649
" />
<path d="M64969 40729
L67630 40729
" />
<path d="M68912 40729
L69640 40729
" />
<path d="M70190 40729
L70290 40729
" />
<path d="M70839 40729
L72806 40729
" />
<path d="M75330 40729
L76730 40729
" />
<path d="M64969 40809
L67630 40809
" />
<path d="M68912 40809
L69673 40809
" />
<path d="M70190 40809
L70290 40809
" />
<path d="M70806 40809
L72886 40809
" />
<path d="M75330 40809
L76730 40809
" />
<path d="M64969 40889
L67630 40889
" />
<path d="M68912 40889
L69724 40889
" />
<path d="M70190 40889
L70290 40889
" />
<path d="M70755 40889
L72966 40889
" />
<path d="M75330 40889
L76730 40889
" />
<path d="M64969 40969
L67643 40969
" />
<path d="M68902 40969
L69796 40969
" />
<path d="M70190 40969
L70290 40969
" />
<path d="M70683 40969
L73046 40969
" />
<path d="M75330 40969
L76730 40969
" />
<path d="M64969 41049
L67682 41049
" />
<path d="M68860 41049
L69897 41049
" />
<path d="M70190 41049
L70290 41049
" />
<path d="M70582 41049
L73126 41049
" />
<path d="M75330 41049
L76730 41049
" />
<path d="M64969 41129
L67787 41129
" />
<path d="M68758 41129
L70081 41129
" />
<path d="M70095 41129
L70384 41129
" />
<path d="M70398 41129
L73211 41129
" />
<path d="M75330 41129
L76730 41129
" />
<path d="M64969 41209
L73269 41209
" />
<path d="M75330 41209
L76730 41209
" />
<path d="M64969 41289
L73270 41289
" />
<path d="M75329 41289
L76730 41289
" />
<path d="M64969 41369
L73288 41369
" />
<path d="M75311 41369
L76730 41369
" />
<path d="M64969 41449
L73338 41449
" />
<path d="M75260 41449
L76730 41449
" />
<path d="M64969 41529
L76730 41529
" />
<path d="M64969 41609
L76730 41609
" />
<path d="M64969 41689
L76730 41689
" />
<path d="M64969 41769
L76730 41769
" />
<path d="M64969 41849
L76730 41849
" />
<path d="M64969 41929
L76730 41929
" />
<path d="M64969 42009
L76730 42009
" />
<path d="M64969 42089
L76730 42089
" />
<path d="M64969 42169
L76730 42169
" />
<path d="M64969 42249
L76730 42249
" />
<path d="M64973 42329
L76726 42329
" />
<path d="M65000 42409
L76699 42409
" />
<path d="M65071 42489
L76628 42489
" />
<polyline fill="none;"
points="76544,32975
76587,32988
76626,33009
76661,33037
76689,33071
76711,33111
76724,33153
76730,33210
76730,42286
76724,42344
76711,42387
76690,42426
76662,42461
76628,42489
76588,42511
76546,42524
76489,42530
65213,42530
65155,42524
65112,42511
65073,42490
65038,42462
65010,42428
64988,42388
64975,42346
64969,42289
64969,38044
65073,38044
65092,38145
65130,38241
65186,38328
65257,38402
65290,38425
65290,39040
65293,39068
65296,39096
65296,39098
65296,39100
65305,39127
65313,39154
65313,39156
65314,39157
65327,39182
65340,39208
65341,39209
65342,39211
65360,39233
65378,39255
65380,39257
65380,39257
65380,39257
65381,39258
66461,40338
66483,40356
66505,40375
66506,40375
66508,40376
66533,40390
66558,40404
66559,40404
66561,40405
66588,40413
66615,40422
66617,40422
66618,40422
66647,40425
66675,40429
66678,40429
66678,40429
66678,40429
66680,40429
67630,40429
67630,40899
67633,40939
67654,41006
67693,41065
67747,41111
67811,41140
67881,41150
68661,41150
68701,41147
68768,41126
68827,41087
68873,41033
68902,40969
68912,40899
68912,40170
69600,40170
69600,40559
69622,40683
69668,40800
69735,40906
69822,40997
69926,41069
70041,41119
70090,41131
70190,41084
70190,40170
70290,40170
70290,41084
70389,41131
70438,41119
70553,41069
70657,40997
70744,40906
70811,40800
70857,40683
70879,40559
70879,40170
70290,40170
70190,40170
69600,40170
68912,40170
68912,39680
69600,39680
69600,40070
70190,40070
70190,39155
70290,39155
70290,40070
70879,40070
70879,39680
70857,39556
70811,39439
70744,39333
70657,39242
70553,39170
70438,39120
70389,39108
70290,39155
70190,39155
70090,39108
70041,39120
69926,39170
69822,39242
69735,39333
69668,39439
69622,39556
69600,39680
68912,39680
68912,39340
68909,39300
68888,39233
68849,39174
68795,39128
68731,39099
68661,39089
67881,39089
67841,39092
67774,39113
67715,39152
67669,39206
67640,39270
67630,39340
67630,39810
66808,39810
65909,38911
65909,38426
65925,38416
65999,38345
66059,38260
66101,38166
66123,38066
66125,37948
66105,37847
66066,37752
66009,37666
65936,37593
65909,37574
65909,37538
66151,37295
66157,37302
66242,37361
66336,37402
66437,37424
66540,37426
66642,37408
66738,37371
66825,37316
66899,37245
66959,37160
67001,37066
67023,36966
67025,36848
67005,36747
66966,36652
66909,36566
66836,36493
66751,36435
66656,36395
66555,36374
66452,36374
66350,36393
66255,36431
66169,36488
66095,36560
66072,36594
66053,36596
66051,36596
66050,36596
66022,36605
65995,36613
65994,36613
65992,36614
65967,36627
65941,36640
65940,36641
65939,36642
65917,36660
65894,36678
65892,36680
65892,36680
65892,36680
65891,36681
65381,37191
65363,37213
65344,37235
65344,37237
65343,37238
65329,37263
65315,37288
65315,37290
65314,37291
65306,37318
65297,37346
65297,37347
65297,37349
65294,37377
65290,37405
65290,37409
65290,37409
65290,37409
65290,37410
65290,37574
65269,37588
65195,37660
65137,37745
65096,37840
65075,37941
65073,38044
64969,38044
64969,35997
65074,35997
65074,36002
65084,36104
65114,36202
65162,36293
65227,36372
65306,36438
65396,36487
65494,36517
65596,36528
65698,36518
65796,36489
65887,36442
65967,36378
66033,36299
66083,36209
66114,36111
66125,36009
66125,36002
66125,35997
66115,35895
66085,35797
66037,35706
65972,35627
65909,35574
65909,35414
66253,35070
66253,35177
66256,35216
66277,35284
66316,35343
66370,35389
66434,35418
66490,35426
66490,35920
66493,35948
66496,35976
66496,35978
66496,35980
66505,36007
66513,36034
66513,36036
66514,36037
66527,36062
66540,36088
66541,36089
66542,36091
66560,36113
66578,36135
66580,36137
66580,36137
66580,36137
66581,36138
67561,37118
67583,37136
67605,37155
67606,37155
67608,37156
67633,37170
67658,37184
67659,37184
67661,37185
67688,37193
67715,37202
67717,37202
67718,37202
67747,37205
67775,37209
67778,37209
67778,37209
67778,37209
67780,37209
68074,37209
68121,37267
68200,37333
68290,37383
68388,37414
68490,37425
68497,37425
68502,37425
68604,37415
68702,37385
68793,37337
68872,37272
68888,37254
68963,37332
69054,37395
69156,37439
69264,37463
69375,37466
69484,37446
69587,37406
69681,37347
69761,37270
69825,37180
69870,37079
69894,36971
69895,36947
70734,36947
70754,37056
70795,37159
70855,37252
70932,37332
70990,37373
70990,38786
70993,38814
70996,38842
70996,38844
70996,38846
71005,38873
71013,38900
71013,38902
71014,38903
71027,38929
71040,38954
71041,38955
71042,38957
71060,38979
71078,39001
71080,39003
71080,39003
71080,39003
71081,39004
73183,41107
73205,41125
73227,41143
73229,41144
73230,41145
73255,41158
73269,41166
73269,41278
73272,41318
73293,41385
73332,41444
73386,41490
73450,41519
73520,41529
75079,41529
75119,41526
75186,41505
75245,41466
75291,41412
75320,41348
75330,41278
75330,40498
75327,40458
75306,40391
75267,40332
75213,40286
75149,40257
75079,40247
73520,40247
73480,40250
73413,40271
73354,40310
73311,40360
72020,39069
73288,39069
73300,39118
73350,39233
73422,39337
73513,39424
73619,39491
73736,39537
73860,39559
74250,39559
74250,38970
74350,38970
74350,39559
74739,39559
74863,39537
74980,39491
75086,39424
75177,39337
75249,39233
75299,39118
75311,39069
75264,38970
74350,38970
74250,38970
73335,38970
73288,39069
72020,39069
71721,38770
73288,38770
73335,38870
74250,38870
74250,38280
74350,38280
74350,38870
75264,38870
75311,38770
75299,38721
75249,38606
75177,38502
75086,38415
74980,38348
74863,38302
74739,38280
74350,38280
74250,38280
73860,38280
73736,38302
73619,38348
73513,38415
73422,38502
73350,38606
73300,38721
73288,38770
71721,38770
71609,38658
71609,37373
71649,37347
71729,37270
71793,37180
71838,37079
71863,36971
71864,36844
71843,36735
71801,36633
71739,36541
71680,36481
73270,36481
73270,36782
73280,36831
73298,36876
73326,36917
73361,36952
73402,36979
73447,36998
73495,37008
74187,37008
74250,36945
74250,36418
74350,36418
74350,36945
74412,37008
75104,37008
75152,36998
75197,36979
75238,36952
75273,36917
75301,36876
75319,36831
75329,36782
75329,36481
75267,36418
74350,36418
74250,36418
73332,36418
73270,36481
71680,36481
71661,36462
71570,36400
71467,36357
71359,36335
71248,36334
71139,36355
71036,36396
70944,36457
70865,36535
70802,36626
70758,36728
70735,36836
70734,36947
69895,36947
69896,36844
69874,36735
69832,36633
69771,36541
69693,36462
69601,36400
69499,36357
69390,36335
69280,36334
69171,36355
69068,36396
68975,36457
68896,36535
68889,36546
68878,36532
68799,36466
68709,36416
68611,36385
68509,36374
68502,36374
68497,36374
68395,36384
68297,36414
68206,36462
68127,36527
68074,36590
67908,36590
67276,35959
67939,35959
67968,36055
68068,36102
68176,36130
68287,36135
68397,36119
68502,36081
68551,36055
68580,35959
68260,35639
67939,35959
67276,35959
67109,35791
67109,35596
67692,35596
67709,35706
67746,35811
67773,35860
67869,35888
68189,35568
67869,35248
67773,35276
67725,35377
67698,35485
67692,35596
67109,35596
67109,35427
67135,35425
67202,35404
67261,35365
67307,35311
67336,35247
67346,35177
67346,34822
67345,34809
68011,34809
68121,34918
68143,34936
68165,34955
68166,34955
68168,34956
68193,34970
68218,34984
68219,34984
68221,34985
68248,34993
68275,35002
68277,35002
68278,35002
68294,35004
68232,35001
68122,35017
68017,35055
67968,35081
67939,35177
68260,35497
68580,35177
68551,35081
68451,35034
68351,35009
68818,35009
68846,35052
68923,35132
68990,35179
68990,35374
68969,35388
68895,35460
68837,35545
68825,35573
68827,35540
68810,35430
68773,35325
68746,35276
68650,35248
68330,35568
68650,35888
68746,35860
68774,35802
68773,35844
68792,35945
68830,36041
68886,36128
68957,36202
69042,36261
69136,36302
69237,36324
69340,36326
69442,36308
69538,36271
69625,36216
69699,36145
69759,36060
69801,35966
69809,35931
70791,35931
70803,35973
70847,36067
70908,36150
70983,36219
71071,36273
71168,36308
71250,36260
71250,35850
71350,35850
71350,36260
71431,36308
71528,36273
71616,36219
71691,36150
71752,36067
71796,35973
71802,35954
73270,35954
73270,36256
73332,36318
74250,36318
74250,35791
74350,35791
74350,36318
75267,36318
75329,36256
75329,35954
75319,35905
75301,35860
75273,35819
75238,35784
75197,35757
75152,35738
75104,35728
74412,35728
74350,35791
74250,35791
74187,35728
73495,35728
73447,35738
73402,35757
73361,35784
73326,35819
73298,35860
73280,35905
73270,35954
71802,35954
71808,35931
71760,35850
71350,35850
71250,35850
70839,35850
70791,35931
69809,35931
69823,35866
69825,35748
69809,35668
70791,35668
70839,35750
71250,35750
71250,35339
71350,35339
71350,35750
71760,35750
71808,35668
71796,35626
71752,35532
71691,35449
71616,35380
71528,35326
71431,35291
71350,35339
71250,35339
71168,35291
71071,35326
70983,35380
70908,35449
70847,35532
70803,35626
70791,35668
69809,35668
69805,35647
69766,35552
69709,35466
69636,35393
69609,35374
69609,35167
69641,35147
69721,35070
69785,34980
69830,34879
69854,34771
69855,34747
70694,34747
70714,34856
70755,34959
70815,35052
70892,35132
70983,35195
71084,35239
71192,35263
71303,35266
71412,35246
71515,35206
71609,35147
71689,35070
71733,35009
72300,35009
72328,35006
72356,35003
72358,35003
72360,35003
72387,34994
72414,34986
72416,34986
72417,34985
72442,34972
72468,34959
72469,34958
72471,34957
72493,34939
72515,34921
72517,34919
72517,34919
72517,34919
72518,34918
72728,34709
73348,34709
73369,34750
73448,34847
73543,34927
73653,34988
73772,35025
73896,35039
73905,35039
74694,35039
74819,35027
74938,34991
75048,34932
75145,34853
75225,34757
75284,34647
75321,34528
75334,34404
75323,34280
75287,34160
75230,34049
75151,33952
75056,33872
74946,33811
74827,33774
74703,33760
74694,33760
73905,33760
73780,33772
73661,33808
73551,33867
73454,33946
73374,34042
73348,34090
72600,34090
72571,34093
72543,34096
72541,34096
72539,34096
72512,34105
72485,34113
72483,34113
72482,34114
72457,34127
72431,34140
72430,34141
72428,34142
72406,34160
72384,34178
72382,34180
72382,34180
72382,34180
72381,34181
72171,34390
71732,34390
71699,34341
71621,34262
71530,34200
71427,34157
71319,34135
71208,34134
71099,34155
70996,34196
70904,34257
70825,34335
70762,34426
70718,34528
70695,34636
70694,34747
69855,34747
69856,34644
69834,34535
69792,34433
69731,34341
69653,34262
69561,34200
69459,34157
69350,34135
69240,34134
69131,34155
69028,34196
68935,34257
68856,34335
68818,34390
68468,34390
68358,34281
68336,34263
68314,34244
68313,34244
68311,34243
68286,34229
68261,34215
68260,34215
68258,34214
68231,34206
68204,34197
68202,34197
68201,34197
68172,34194
68144,34190
68141,34190
68141,34190
68141,34190
68140,34190
67300,34190
67314,34165
67339,34085
67347,34002
67340,33919
67337,33909
67787,33909
67815,33952
67892,34032
67983,34095
68084,34139
68192,34163
68303,34166
68412,34146
68515,34106
68609,34047
68689,33970
68733,33909
68873,33909
68886,33928
68957,34002
69042,34061
69136,34102
69237,34124
69340,34126
69442,34108
69538,34071
69625,34016
69699,33945
69759,33860
69801,33766
69809,33731
70791,33731
70803,33773
70847,33867
70908,33950
70983,34019
71071,34073
71168,34108
71250,34060
71250,33650
71350,33650
71350,34060
71431,34108
71528,34073
71616,34019
71691,33950
71752,33867
71796,33773
71808,33731
71760,33650
71350,33650
71250,33650
70839,33650
70791,33731
69809,33731
69823,33666
69825,33548
69809,33468
70791,33468
70839,33550
71250,33550
71250,33139
71350,33139
71350,33550
71760,33550
71808,33468
71796,33426
71752,33332
71691,33249
71616,33180
71528,33126
71431,33091
71350,33139
71250,33139
71168,33091
71071,33126
70983,33180
70908,33249
70847,33332
70803,33426
70791,33468
69809,33468
69805,33447
69766,33352
69709,33266
69636,33193
69551,33135
69456,33095
69355,33074
69252,33074
69150,33093
69055,33131
68969,33188
68895,33260
68874,33290
68732,33290
68699,33241
68621,33162
68530,33100
68427,33057
68319,33035
68208,33034
68099,33055
67996,33096
67904,33157
67825,33235
67786,33290
66904,33290
66876,33293
66847,33296
66846,33296
66844,33296
66817,33305
66789,33313
66788,33313
66786,33314
66761,33327
66736,33340
66735,33341
66733,33342
66711,33360
66689,33378
66687,33380
66686,33380
66686,33380
66686,33381
66581,33486
66563,33508
66544,33530
66544,33531
66543,33532
66529,33557
66515,33582
66515,33584
66514,33585
66507,33609
66442,33644
66378,33696
66325,33761
66285,33834
66260,33914
66252,33997
66259,34080
66283,34160
66305,34203
66299,34205
66271,34213
66270,34213
66268,34214
66243,34227
66218,34240
66217,34241
66215,34242
66193,34260
66171,34278
66168,34280
66168,34280
66168,34280
66168,34281
65381,35068
65363,35090
65344,35112
65344,35113
65343,35114
65329,35139
65315,35164
65315,35166
65314,35167
65306,35195
65297,35222
65297,35223
65297,35225
65294,35253
65290,35282
65290,35285
65290,35285
65290,35285
65290,35286
65290,35574
65232,35621
65166,35700
65116,35790
65085,35888
65074,35990
65074,35997
64969,35997
64969,33213
64975,33155
64988,33112
65009,33073
65037,33038
65071,33010
65111,32988
65153,32975
65210,32969
76486,32969
76544,32975
" /> 
</g>
<g style="fill:#FFFFFF; fill-opacity:0.0; 
stroke:#FFFFFF; stroke-width:100; stroke-opacity:1; 
stroke-linecap:round; stroke-linejoin:round;">
</g>
<g style="fill:#FFFFFF; fill-opacity:1.0; 
stroke:#FFFFFF; stroke-width:0; stroke-opacity:1; 
stroke-linecap:round; stroke-linejoin:round;">
<circle cx="69291.5" cy="34700" r="157.48" /> 
</g>
<g style="fill:#FFFFFF; fill-opacity:1.0; 
stroke:#FFFFFF; stroke-width:39.3701; stroke-opacity:1; 
stroke-linecap:round; stroke-linejoin:round;">
</g>
<g style="fill:#FFFFFF; fill-opacity:1.0; 
stroke:#FFFFFF; stroke-width:0; stroke-opacity:1; 
stroke-linecap:round; stroke-linejoin:round;">
<circle cx="71260" cy="34700" r="157.48" /> 
</g>
<g style="fill:#FFFFFF; fill-opacity:1.0; 
stroke:#FFFFFF; stroke-width:39.3701; stroke-opacity:1; 
stroke-linecap:round; stroke-linejoin:round;">
</g>
<g style="fill:#FFFFFF; fill-opacity:1.0; 
stroke:#FFFFFF; stroke-width:0; stroke-opacity:1; 
stroke-linecap:round; stroke-linejoin:round;">
<circle cx="71300" cy="36900" r="157.48" /> 
</g>
<g style="fill:#FFFFFF; fill-opacity:1.0; 
stroke:#FFFFFF; stroke-width:39.3701; stroke-opacity:1; 
stroke-linecap:round; stroke-linejoin:round;">
</g>
<g style="fill:#FFFFFF; fill-opacity:1.0; 
stroke:#FFFFFF; stroke-width:0; stroke-opacity:1; 
stroke-linecap:round; stroke-linejoin:round;">
<circle cx="69331.5" cy="36900" r="157.48" /> 
</g>
<g style="fill:#FFFFFF; fill-opacity:1.0; 
stroke:#FFFFFF; stroke-width:39.3701; stroke-opacity:1; 
stroke-linecap:round; stroke-linejoin:round;">
</g>
<g style="fill:#FFFFFF; fill-opacity:1.0; 
stroke:#FFFFFF; stroke-width:0; stroke-opacity:1; 
stroke-linecap:round; stroke-linejoin:round;">
<circle cx="68260" cy="35568.5" r="157.48" /> 
</g>
<g style="fill:#FFFFFF; fill-opacity:1.0; 
stroke:#FFFFFF; stroke-width:39.3701; stroke-opacity:1; 
stroke-linecap:round; stroke-linejoin:round;">
</g>
<g style="fill:#FFFFFF; fill-opacity:1.0; 
stroke:#FFFFFF; stroke-width:0; stroke-opacity:1; 
stroke-linecap:round; stroke-linejoin:round;">
<circle cx="68260" cy="33600" r="157.48" /> 
</g>
<g style="fill:#FFFFFF; fill-opacity:1.0; 
stroke:#FFFFFF; stroke-width:39.3701; stroke-opacity:1; 
stroke-linecap:round; stroke-linejoin:round;">
</g>
<g style="fill:#FFFFFF; fill-opacity:1.0; 
stroke:#FFFFFF; stroke-width:0; stroke-opacity:1; 
stroke-linecap:round; stroke-linejoin:round;">
<circle cx="68271.5" cy="40120" r="259.843" /> 
</g>
<g style="fill:#FFFFFF; fill-opacity:1.0; 
stroke:#FFFFFF; stroke-width:39.3701; stroke-opacity:1; 
stroke-linecap:round; stroke-linejoin:round;">
</g>
<g style="fill:#FFFFFF; fill-opacity:1.0; 
stroke:#FFFFFF; stroke-width:0; stroke-opacity:1; 
stroke-linecap:round; stroke-linejoin:round;">
<circle cx="70240" cy="40120" r="259.843" /> 
</g>
<g style="fill:#FFFFFF; fill-opacity:1.0; 
stroke:#FFFFFF; stroke-width:39.3701; stroke-opacity:1; 
stroke-linecap:round; stroke-linejoin:round;">
</g>
<g style="fill:#FFFFFF; fill-opacity:1.0; 
stroke:#FFFFFF; stroke-width:0; stroke-opacity:1; 
stroke-linecap:round; stroke-linejoin:round;">
<circle cx="74300" cy="36368.5" r="259.843" /> 
</g>
<g style="fill:#FFFFFF; fill-opacity:1.0; 
stroke:#FFFFFF; stroke-width:39.3701; stroke-opacity:1; 
stroke-linecap:round; stroke-linejoin:round;">
</g>
<g style="fill:#FFFFFF; fill-opacity:1.0; 
stroke:#FFFFFF; stroke-width:0; stroke-opacity:1; 
stroke-linecap:round; stroke-linejoin:round;">
<circle cx="74300" cy="34400" r="259.843" /> 
</g>
<g style="fill:#FFFFFF; fill-opacity:1.0; 
stroke:#FFFFFF; stroke-width:39.3701; stroke-opacity:1; 
stroke-linecap:round; stroke-linejoin:round;">
</g>
<g style="fill:#FFFFFF; fill-opacity:1.0; 
stroke:#FFFFFF; stroke-width:0; stroke-opacity:1; 
stroke-linecap:round; stroke-linejoin:round;">
<circle cx="74300" cy="40888.5" r="259.843" /> 
</g>
<g style="fill:#FFFFFF; fill-opacity:1.0; 
stroke:#FFFFFF; stroke-width:39.3701; stroke-opacity:1; 
stroke-linecap:round; stroke-linejoin:round;">
</g>
<g style="fill:#FFFFFF; fill-opacity:1.0; 
stroke:#FFFFFF; stroke-width:0; stroke-opacity:1; 
stroke-linecap:round; stroke-linejoin:round;">
<circle cx="74300" cy="38920" r="259.843" /> 
</g>
<g style="fill:#FFFFFF; fill-opacity:1.0; 
stroke:#FFFFFF; stroke-width:39.3701; stroke-opacity:1; 
stroke-linecap:round; stroke-linejoin:round;">
</g>
<g style="fill:#FFFFFF; fill-opacity:1.0; 
stroke:#FFFFFF; stroke-width:0; stroke-opacity:1; 
stroke-linecap:round; stroke-linejoin:round;">
<circle cx="66800" cy="34500" r="118.11" /> 
</g>
<g style="fill:#FFFFFF; fill-opacity:1.0; 
stroke:#FFFFFF; stroke-width:39.3701; stroke-opacity:1; 
stroke-linecap:round; stroke-linejoin:round;">
</g>
<g style="fill:#FFFFFF; fill-opacity:1.0; 
stroke:#FFFFFF; stroke-width:0; stroke-opacity:1; 
stroke-linecap:round; stroke-linejoin:round;">
<circle cx="66800" cy="34000" r="118.11" /> 
</g>
<g style="fill:#FFFFFF; fill-opacity:1.0; 
stroke:#FFFFFF; stroke-width:39.3701; stroke-opacity:1; 
stroke-linecap:round; stroke-linejoin:round;">
</g>
<g style="fill:#FFFFFF; fill-opacity:1.0; 
stroke:#FFFFFF; stroke-width:0; stroke-opacity:1; 
stroke-linecap:round; stroke-linejoin:round;">
<circle cx="66800" cy="35000" r="118.11" /> 
</g>
<g style="fill:#FFFFFF; fill-opacity:1.0; 
stroke:#FFFFFF; stroke-width:39.3701; stroke-opacity:1; 
stroke-linecap:round; stroke-linejoin:round;">
</g>
<g style="fill:#FFFFFF; fill-opacity:1.0; 
stroke:#FFFFFF; stroke-width:0; stroke-opacity:1; 
stroke-linecap:round; stroke-linejoin:round;">
<circle cx="65600" cy="38000" r="137.795" /> 
</g>
<g style="fill:#FFFFFF; fill-opacity:1.0; 
stroke:#FFFFFF; stroke-width:39.3701; stroke-opacity:1; 
stroke-linecap:round; stroke-linejoin:round;">
</g>
<g style="fill:#FFFFFF; fill-opacity:1.0; 
stroke:#FFFFFF; stroke-width:0; stroke-opacity:1; 
stroke-linecap:round; stroke-linejoin:round;">
<circle cx="65600" cy="36000" r="137.795" /> 
</g>
<g style="fill:#FFFFFF; fill-opacity:1.0; 
stroke:#FFFFFF; stroke-width:39.3701; stroke-opacity:1; 
stroke-linecap:round; stroke-linejoin:round;">
</g>
<g style="fill:#FFFFFF; fill-opacity:1.0; 
stroke:#FFFFFF; stroke-width:0; stroke-opacity:1; 
stroke-linecap:round; stroke-linejoin:round;">
<circle cx="66500" cy="36900" r="137.795" /> 
</g>
<g style="fill:#FFFFFF; fill-opacity:1.0; 
stroke:#FFFFFF; stroke-width:39.3701; stroke-opacity:1; 
stroke-linecap:round; stroke-linejoin:round;">
</g>
<g style="fill:#FFFFFF; fill-opacity:1.0; 
stroke:#FFFFFF; stroke-width:0; stroke-opacity:1; 
stroke-linecap:round; stroke-linejoin:round;">
<circle cx="68500" cy="36900" r="137.795" /> 
</g>
<g style="fill:#FFFFFF; fill-opacity:1.0; 
stroke:#FFFFFF; stroke-width:39.3701; stroke-opacity:1; 
stroke-linecap:round; stroke-linejoin:round;">
</g>
<g style="fill:#FFFFFF; fill-opacity:1.0; 
stroke:#FFFFFF; stroke-width:0; stroke-opacity:1; 
stroke-linecap:round; stroke-linejoin:round;">
<circle cx="69300" cy="35800" r="137.795" /> 
</g>
<g style="fill:#FFFFFF; fill-opacity:1.0; 
stroke:#FFFFFF; stroke-width:39.3701; stroke-opacity:1; 
stroke-linecap:round; stroke-linejoin:round;">
</g>
<g style="fill:#FFFFFF; fill-opacity:1.0; 
stroke:#FFFFFF; stroke-width:0; stroke-opacity:1; 
stroke-linecap:round; stroke-linejoin:round;">
<circle cx="71300" cy="35800" r="137.795" /> 
</g>
<g style="fill:#FFFFFF; fill-opacity:1.0; 
stroke:#FFFFFF; stroke-width:39.3701; stroke-opacity:1; 
stroke-linecap:round; stroke-linejoin:round;">
</g>
<g style="fill:#FFFFFF; fill-opacity:1.0; 
stroke:#FFFFFF; stroke-width:0; stroke-opacity:1; 
stroke-linecap:round; stroke-linejoin:round;">
<circle cx="69300" cy="33600" r="137.795" /> 
</g>
<g style="fill:#FFFFFF; fill-opacity:1.0; 
stroke:#FFFFFF; stroke-width:39.3701; stroke-opacity:1; 
stroke-linecap:round; stroke-linejoin:round;">
</g>
<g style="fill:#FFFFFF; fill-opacity:1.0; 
stroke:#FFFFFF; stroke-width:0; stroke-opacity:1; 
stroke-linecap:round; stroke-linejoin:round;">
<circle cx="71300" cy="33600" r="137.795" /> 
</g>
<g style="fill:#FFFFFF; fill-opacity:1.0; 
stroke:#FFFFFF; stroke-width:39.3701; stroke-opacity:1; 
stroke-linecap:round; stroke-linejoin:round;">
</g>
<g style="fill:#000000; fill-opacity:1.0; 
stroke:#000000; stroke-width:39.3701; stroke-opacity:1; 
stroke-linecap:round; stroke-linejoin:round;">
</g> 
</svg>
