<?xml version="1.0" standalone="no"?>
 <!DOCTYPE svg PUBLIC "-//W3C//DTD SVG 1.1//EN" 
 "http://www.w3.org/Graphics/SVG/1.1/DTD/svg11.dtd"> 
<svg xmlns="http://www.w3.org/2000/svg" version="1.1" 
    width="29.7002cm" height="21.0007cm" viewBox="0 0 116930 82680 ">
<title>SVG Picture created as single_tranzistor_amp-F.Cu.svg date 2017/06/17 14:25:17 </title>
  <desc>Picture generated by PCBNEW </desc>
<g style="fill:#000000; fill-opacity:1;stroke:#000000; stroke-opacity:1;
stroke-linecap:round; stroke-linejoin:round; "
 transform="translate(0 0) scale(1 1)">
</g>
<g style="fill:#000000; fill-opacity:0.0; 
stroke:#000000; stroke-width:-0.000393701; stroke-opacity:1; 
stroke-linecap:round; stroke-linejoin:round;">
</g>
<g style="fill:#000000; fill-opacity:0.0; 
stroke:#000000; stroke-width:39.3701; stroke-opacity:1; 
stroke-linecap:round; stroke-linejoin:round;">
</g>
<g style="fill:#000000; fill-opacity:0.0; 
stroke:#000000; stroke-width:59.0551; stroke-opacity:1; 
stroke-linecap:round; stroke-linejoin:round;">
<rect x="69685.9" y="65357.2" width="42519.7" height="12598.4" rx="0" />
</g>
<g style="fill:#000000; fill-opacity:0.0; 
stroke:#000000; stroke-width:39.3701; stroke-opacity:1; 
stroke-linecap:round; stroke-linejoin:round;">
</g>
<g style="fill:#000000; fill-opacity:0.0; 
stroke:#000000; stroke-width:59.0551; stroke-opacity:1; 
stroke-linecap:round; stroke-linejoin:round;">
<rect x="3937.01" y="3937.01" width="109056" height="74806" rx="0" />
</g>
<g style="fill:#000000; fill-opacity:0.0; 
stroke:#000000; stroke-width:39.3701; stroke-opacity:1; 
stroke-linecap:round; stroke-linejoin:round;">
</g>
<g style="fill:#000000; fill-opacity:0.0; 
stroke:#000000; stroke-width:59.0551; stroke-opacity:1; 
stroke-linecap:round; stroke-linejoin:round;">
<rect x="4724.41" y="4724.41" width="107481" height="73231.2" rx="0" />
</g>
<g style="fill:#000000; fill-opacity:0.0; 
stroke:#000000; stroke-width:39.3701; stroke-opacity:1; 
stroke-linecap:round; stroke-linejoin:round;">
</g>
<g style="fill:#000000; fill-opacity:0.0; 
stroke:#000000; stroke-width:59.0551; stroke-opacity:1; 
stroke-linecap:round; stroke-linejoin:round;">
<path d="M23622 4724
L23622 3937
" />
</g>
<g style="fill:#000000; fill-opacity:0.0; 
stroke:#000000; stroke-width:39.3701; stroke-opacity:1; 
stroke-linecap:round; stroke-linejoin:round;">
</g>
<g style="fill:#000000; fill-opacity:0.0; 
stroke:#000000; stroke-width:59.0551; stroke-opacity:1; 
stroke-linecap:round; stroke-linejoin:round;">
<path d="M43307 4724
L43307 3937
" />
</g>
<g style="fill:#000000; fill-opacity:0.0; 
stroke:#000000; stroke-width:39.3701; stroke-opacity:1; 
stroke-linecap:round; stroke-linejoin:round;">
</g>
<g style="fill:#000000; fill-opacity:0.0; 
stroke:#000000; stroke-width:59.0551; stroke-opacity:1; 
stroke-linecap:round; stroke-linejoin:round;">
<path d="M62992 4724
L62992 3937
" />
</g>
<g style="fill:#000000; fill-opacity:0.0; 
stroke:#000000; stroke-width:39.3701; stroke-opacity:1; 
stroke-linecap:round; stroke-linejoin:round;">
</g>
<g style="fill:#000000; fill-opacity:0.0; 
stroke:#000000; stroke-width:59.0551; stroke-opacity:1; 
stroke-linecap:round; stroke-linejoin:round;">
<path d="M82677 4724
L82677 3937
" />
</g>
<g style="fill:#000000; fill-opacity:0.0; 
stroke:#000000; stroke-width:39.3701; stroke-opacity:1; 
stroke-linecap:round; stroke-linejoin:round;">
</g>
<g style="fill:#000000; fill-opacity:0.0; 
stroke:#000000; stroke-width:59.0551; stroke-opacity:1; 
stroke-linecap:round; stroke-linejoin:round;">
<path d="M102362 4724
L102362 3937
" />
</g>
<g style="fill:#000000; fill-opacity:0.0; 
stroke:#000000; stroke-width:39.3701; stroke-opacity:1; 
stroke-linecap:round; stroke-linejoin:round;">
</g>
<g style="fill:#000000; fill-opacity:0.0; 
stroke:#000000; stroke-width:59.0551; stroke-opacity:1; 
stroke-linecap:round; stroke-linejoin:round;">
<path d="M14169 4562
L13877 4562
" />
<path d="M14023 4562
L14023 4050
L13974 4123
L13925 4172
L13877 4196
" />
</g>
<g style="fill:#000000; fill-opacity:0.0; 
stroke:#000000; stroke-width:39.3701; stroke-opacity:1; 
stroke-linecap:round; stroke-linejoin:round;">
</g>
<g style="fill:#000000; fill-opacity:0.0; 
stroke:#000000; stroke-width:59.0551; stroke-opacity:1; 
stroke-linecap:round; stroke-linejoin:round;">
<path d="M33562 4099
L33586 4074
L33635 4050
L33757 4050
L33805 4074
L33830 4099
L33854 4147
L33854 4196
L33830 4269
L33537 4562
L33854 4562
" />
</g>
<g style="fill:#000000; fill-opacity:0.0; 
stroke:#000000; stroke-width:39.3701; stroke-opacity:1; 
stroke-linecap:round; stroke-linejoin:round;">
</g>
<g style="fill:#000000; fill-opacity:0.0; 
stroke:#000000; stroke-width:59.0551; stroke-opacity:1; 
stroke-linecap:round; stroke-linejoin:round;">
<path d="M53222 4050
L53539 4050
L53368 4245
L53442 4245
L53490 4269
L53515 4294
L53539 4342
L53539 4464
L53515 4513
L53490 4537
L53442 4562
L53295 4562
L53247 4537
L53222 4513
" />
</g>
<g style="fill:#000000; fill-opacity:0.0; 
stroke:#000000; stroke-width:39.3701; stroke-opacity:1; 
stroke-linecap:round; stroke-linejoin:round;">
</g>
<g style="fill:#000000; fill-opacity:0.0; 
stroke:#000000; stroke-width:59.0551; stroke-opacity:1; 
stroke-linecap:round; stroke-linejoin:round;">
<path d="M73175 4221
L73175 4562
" />
<path d="M73053 4026
L72932 4391
L73248 4391
" />
</g>
<g style="fill:#000000; fill-opacity:0.0; 
stroke:#000000; stroke-width:39.3701; stroke-opacity:1; 
stroke-linecap:round; stroke-linejoin:round;">
</g>
<g style="fill:#000000; fill-opacity:0.0; 
stroke:#000000; stroke-width:59.0551; stroke-opacity:1; 
stroke-linecap:round; stroke-linejoin:round;">
<path d="M92885 4050
L92641 4050
L92617 4294
L92641 4269
L92690 4245
L92812 4245
L92860 4269
L92885 4294
L92909 4342
L92909 4464
L92885 4513
L92860 4537
L92812 4562
L92690 4562
L92641 4537
L92617 4513
" />
</g>
<g style="fill:#000000; fill-opacity:0.0; 
stroke:#000000; stroke-width:39.3701; stroke-opacity:1; 
stroke-linecap:round; stroke-linejoin:round;">
</g>
<g style="fill:#000000; fill-opacity:0.0; 
stroke:#000000; stroke-width:59.0551; stroke-opacity:1; 
stroke-linecap:round; stroke-linejoin:round;">
<path d="M112545 4050
L112448 4050
L112399 4074
L112375 4099
L112326 4172
L112302 4269
L112302 4464
L112326 4513
L112350 4537
L112399 4562
L112497 4562
L112545 4537
L112570 4513
L112594 4464
L112594 4342
L112570 4294
L112545 4269
L112497 4245
L112399 4245
L112350 4269
L112326 4294
L112302 4342
" />
</g>
<g style="fill:#000000; fill-opacity:0.0; 
stroke:#000000; stroke-width:39.3701; stroke-opacity:1; 
stroke-linecap:round; stroke-linejoin:round;">
</g>
<g style="fill:#000000; fill-opacity:0.0; 
stroke:#000000; stroke-width:59.0551; stroke-opacity:1; 
stroke-linecap:round; stroke-linejoin:round;">
<path d="M23622 77955
L23622 78742
" />
</g>
<g style="fill:#000000; fill-opacity:0.0; 
stroke:#000000; stroke-width:39.3701; stroke-opacity:1; 
stroke-linecap:round; stroke-linejoin:round;">
</g>
<g style="fill:#000000; fill-opacity:0.0; 
stroke:#000000; stroke-width:59.0551; stroke-opacity:1; 
stroke-linecap:round; stroke-linejoin:round;">
<path d="M43307 77955
L43307 78742
" />
</g>
<g style="fill:#000000; fill-opacity:0.0; 
stroke:#000000; stroke-width:39.3701; stroke-opacity:1; 
stroke-linecap:round; stroke-linejoin:round;">
</g>
<g style="fill:#000000; fill-opacity:0.0; 
stroke:#000000; stroke-width:59.0551; stroke-opacity:1; 
stroke-linecap:round; stroke-linejoin:round;">
<path d="M62992 77955
L62992 78742
" />
</g>
<g style="fill:#000000; fill-opacity:0.0; 
stroke:#000000; stroke-width:39.3701; stroke-opacity:1; 
stroke-linecap:round; stroke-linejoin:round;">
</g>
<g style="fill:#000000; fill-opacity:0.0; 
stroke:#000000; stroke-width:59.0551; stroke-opacity:1; 
stroke-linecap:round; stroke-linejoin:round;">
<path d="M82677 77955
L82677 78742
" />
</g>
<g style="fill:#000000; fill-opacity:0.0; 
stroke:#000000; stroke-width:39.3701; stroke-opacity:1; 
stroke-linecap:round; stroke-linejoin:round;">
</g>
<g style="fill:#000000; fill-opacity:0.0; 
stroke:#000000; stroke-width:59.0551; stroke-opacity:1; 
stroke-linecap:round; stroke-linejoin:round;">
<path d="M102362 77955
L102362 78742
" />
</g>
<g style="fill:#000000; fill-opacity:0.0; 
stroke:#000000; stroke-width:39.3701; stroke-opacity:1; 
stroke-linecap:round; stroke-linejoin:round;">
</g>
<g style="fill:#000000; fill-opacity:0.0; 
stroke:#000000; stroke-width:59.0551; stroke-opacity:1; 
stroke-linecap:round; stroke-linejoin:round;">
<path d="M14169 78580
L13877 78580
" />
<path d="M14023 78580
L14023 78069
L13974 78142
L13925 78190
L13877 78215
" />
</g>
<g style="fill:#000000; fill-opacity:0.0; 
stroke:#000000; stroke-width:39.3701; stroke-opacity:1; 
stroke-linecap:round; stroke-linejoin:round;">
</g>
<g style="fill:#000000; fill-opacity:0.0; 
stroke:#000000; stroke-width:59.0551; stroke-opacity:1; 
stroke-linecap:round; stroke-linejoin:round;">
<path d="M33562 78117
L33586 78093
L33635 78069
L33757 78069
L33805 78093
L33830 78117
L33854 78166
L33854 78215
L33830 78288
L33537 78580
L33854 78580
" />
</g>
<g style="fill:#000000; fill-opacity:0.0; 
stroke:#000000; stroke-width:39.3701; stroke-opacity:1; 
stroke-linecap:round; stroke-linejoin:round;">
</g>
<g style="fill:#000000; fill-opacity:0.0; 
stroke:#000000; stroke-width:59.0551; stroke-opacity:1; 
stroke-linecap:round; stroke-linejoin:round;">
<path d="M53222 78069
L53539 78069
L53368 78263
L53442 78263
L53490 78288
L53515 78312
L53539 78361
L53539 78483
L53515 78532
L53490 78556
L53442 78580
L53295 78580
L53247 78556
L53222 78532
" />
</g>
<g style="fill:#000000; fill-opacity:0.0; 
stroke:#000000; stroke-width:39.3701; stroke-opacity:1; 
stroke-linecap:round; stroke-linejoin:round;">
</g>
<g style="fill:#000000; fill-opacity:0.0; 
stroke:#000000; stroke-width:59.0551; stroke-opacity:1; 
stroke-linecap:round; stroke-linejoin:round;">
<path d="M73175 78239
L73175 78580
" />
<path d="M73053 78044
L72932 78410
L73248 78410
" />
</g>
<g style="fill:#000000; fill-opacity:0.0; 
stroke:#000000; stroke-width:39.3701; stroke-opacity:1; 
stroke-linecap:round; stroke-linejoin:round;">
</g>
<g style="fill:#000000; fill-opacity:0.0; 
stroke:#000000; stroke-width:59.0551; stroke-opacity:1; 
stroke-linecap:round; stroke-linejoin:round;">
<path d="M92885 78069
L92641 78069
L92617 78312
L92641 78288
L92690 78263
L92812 78263
L92860 78288
L92885 78312
L92909 78361
L92909 78483
L92885 78532
L92860 78556
L92812 78580
L92690 78580
L92641 78556
L92617 78532
" />
</g>
<g style="fill:#000000; fill-opacity:0.0; 
stroke:#000000; stroke-width:39.3701; stroke-opacity:1; 
stroke-linecap:round; stroke-linejoin:round;">
</g>
<g style="fill:#000000; fill-opacity:0.0; 
stroke:#000000; stroke-width:59.0551; stroke-opacity:1; 
stroke-linecap:round; stroke-linejoin:round;">
<path d="M112545 78069
L112448 78069
L112399 78093
L112375 78117
L112326 78190
L112302 78288
L112302 78483
L112326 78532
L112350 78556
L112399 78580
L112497 78580
L112545 78556
L112570 78532
L112594 78483
L112594 78361
L112570 78312
L112545 78288
L112497 78263
L112399 78263
L112350 78288
L112326 78312
L112302 78361
" />
</g>
<g style="fill:#000000; fill-opacity:0.0; 
stroke:#000000; stroke-width:39.3701; stroke-opacity:1; 
stroke-linecap:round; stroke-linejoin:round;">
</g>
<g style="fill:#000000; fill-opacity:0.0; 
stroke:#000000; stroke-width:59.0551; stroke-opacity:1; 
stroke-linecap:round; stroke-linejoin:round;">
<path d="M3937 23622
L4724 23622
" />
</g>
<g style="fill:#000000; fill-opacity:0.0; 
stroke:#000000; stroke-width:39.3701; stroke-opacity:1; 
stroke-linecap:round; stroke-linejoin:round;">
</g>
<g style="fill:#000000; fill-opacity:0.0; 
stroke:#000000; stroke-width:59.0551; stroke-opacity:1; 
stroke-linecap:round; stroke-linejoin:round;">
<path d="M3937 43307
L4724 43307
" />
</g>
<g style="fill:#000000; fill-opacity:0.0; 
stroke:#000000; stroke-width:39.3701; stroke-opacity:1; 
stroke-linecap:round; stroke-linejoin:round;">
</g>
<g style="fill:#000000; fill-opacity:0.0; 
stroke:#000000; stroke-width:59.0551; stroke-opacity:1; 
stroke-linecap:round; stroke-linejoin:round;">
<path d="M3937 62992
L4724 62992
" />
</g>
<g style="fill:#000000; fill-opacity:0.0; 
stroke:#000000; stroke-width:39.3701; stroke-opacity:1; 
stroke-linecap:round; stroke-linejoin:round;">
</g>
<g style="fill:#000000; fill-opacity:0.0; 
stroke:#000000; stroke-width:59.0551; stroke-opacity:1; 
stroke-linecap:round; stroke-linejoin:round;">
<path d="M4208 13864
L4452 13864
" />
<path d="M4160 14011
L4330 13499
L4501 14011
" />
</g>
<g style="fill:#000000; fill-opacity:0.0; 
stroke:#000000; stroke-width:39.3701; stroke-opacity:1; 
stroke-linecap:round; stroke-linejoin:round;">
</g>
<g style="fill:#000000; fill-opacity:0.0; 
stroke:#000000; stroke-width:59.0551; stroke-opacity:1; 
stroke-linecap:round; stroke-linejoin:round;">
<path d="M4367 33428
L4440 33452
L4464 33476
L4489 33525
L4489 33598
L4464 33647
L4440 33671
L4391 33696
L4196 33696
L4196 33184
L4367 33184
L4416 33208
L4440 33233
L4464 33281
L4464 33330
L4440 33379
L4416 33403
L4367 33428
L4196 33428
" />
</g>
<g style="fill:#000000; fill-opacity:0.0; 
stroke:#000000; stroke-width:39.3701; stroke-opacity:1; 
stroke-linecap:round; stroke-linejoin:round;">
</g>
<g style="fill:#000000; fill-opacity:0.0; 
stroke:#000000; stroke-width:59.0551; stroke-opacity:1; 
stroke-linecap:round; stroke-linejoin:round;">
<path d="M4489 53332
L4464 53356
L4391 53381
L4342 53381
L4269 53356
L4221 53308
L4196 53259
L4172 53161
L4172 53088
L4196 52991
L4221 52942
L4269 52893
L4342 52869
L4391 52869
L4464 52893
L4489 52918
" />
</g>
<g style="fill:#000000; fill-opacity:0.0; 
stroke:#000000; stroke-width:39.3701; stroke-opacity:1; 
stroke-linecap:round; stroke-linejoin:round;">
</g>
<g style="fill:#000000; fill-opacity:0.0; 
stroke:#000000; stroke-width:59.0551; stroke-opacity:1; 
stroke-linecap:round; stroke-linejoin:round;">
<path d="M4196 73066
L4196 72554
L4318 72554
L4391 72578
L4440 72627
L4464 72676
L4489 72773
L4489 72846
L4464 72944
L4440 72993
L4391 73041
L4318 73066
L4196 73066
" />
</g>
<g style="fill:#000000; fill-opacity:0.0; 
stroke:#000000; stroke-width:39.3701; stroke-opacity:1; 
stroke-linecap:round; stroke-linejoin:round;">
</g>
<g style="fill:#000000; fill-opacity:0.0; 
stroke:#000000; stroke-width:59.0551; stroke-opacity:1; 
stroke-linecap:round; stroke-linejoin:round;">
<path d="M112992 23622
L112205 23622
" />
</g>
<g style="fill:#000000; fill-opacity:0.0; 
stroke:#000000; stroke-width:39.3701; stroke-opacity:1; 
stroke-linecap:round; stroke-linejoin:round;">
</g>
<g style="fill:#000000; fill-opacity:0.0; 
stroke:#000000; stroke-width:59.0551; stroke-opacity:1; 
stroke-linecap:round; stroke-linejoin:round;">
<path d="M112992 43307
L112205 43307
" />
</g>
<g style="fill:#000000; fill-opacity:0.0; 
stroke:#000000; stroke-width:39.3701; stroke-opacity:1; 
stroke-linecap:round; stroke-linejoin:round;">
</g>
<g style="fill:#000000; fill-opacity:0.0; 
stroke:#000000; stroke-width:59.0551; stroke-opacity:1; 
stroke-linecap:round; stroke-linejoin:round;">
<path d="M112992 62992
L112205 62992
" />
</g>
<g style="fill:#000000; fill-opacity:0.0; 
stroke:#000000; stroke-width:39.3701; stroke-opacity:1; 
stroke-linecap:round; stroke-linejoin:round;">
</g>
<g style="fill:#000000; fill-opacity:0.0; 
stroke:#000000; stroke-width:59.0551; stroke-opacity:1; 
stroke-linecap:round; stroke-linejoin:round;">
<path d="M112477 13864
L112721 13864
" />
<path d="M112428 14011
L112599 13499
L112769 14011
" />
</g>
<g style="fill:#000000; fill-opacity:0.0; 
stroke:#000000; stroke-width:39.3701; stroke-opacity:1; 
stroke-linecap:round; stroke-linejoin:round;">
</g>
<g style="fill:#000000; fill-opacity:0.0; 
stroke:#000000; stroke-width:59.0551; stroke-opacity:1; 
stroke-linecap:round; stroke-linejoin:round;">
<path d="M112635 33428
L112708 33452
L112733 33476
L112757 33525
L112757 33598
L112733 33647
L112708 33671
L112660 33696
L112465 33696
L112465 33184
L112635 33184
L112684 33208
L112708 33233
L112733 33281
L112733 33330
L112708 33379
L112684 33403
L112635 33428
L112465 33428
" />
</g>
<g style="fill:#000000; fill-opacity:0.0; 
stroke:#000000; stroke-width:39.3701; stroke-opacity:1; 
stroke-linecap:round; stroke-linejoin:round;">
</g>
<g style="fill:#000000; fill-opacity:0.0; 
stroke:#000000; stroke-width:59.0551; stroke-opacity:1; 
stroke-linecap:round; stroke-linejoin:round;">
<path d="M112757 53332
L112733 53356
L112660 53381
L112611 53381
L112538 53356
L112489 53308
L112465 53259
L112440 53161
L112440 53088
L112465 52991
L112489 52942
L112538 52893
L112611 52869
L112660 52869
L112733 52893
L112757 52918
" />
</g>
<g style="fill:#000000; fill-opacity:0.0; 
stroke:#000000; stroke-width:39.3701; stroke-opacity:1; 
stroke-linecap:round; stroke-linejoin:round;">
</g>
<g style="fill:#000000; fill-opacity:0.0; 
stroke:#000000; stroke-width:59.0551; stroke-opacity:1; 
stroke-linecap:round; stroke-linejoin:round;">
<path d="M112465 73066
L112465 72554
L112587 72554
L112660 72578
L112708 72627
L112733 72676
L112757 72773
L112757 72846
L112733 72944
L112708 72993
L112660 73041
L112587 73066
L112465 73066
" />
</g>
<g style="fill:#000000; fill-opacity:0.0; 
stroke:#000000; stroke-width:39.3701; stroke-opacity:1; 
stroke-linecap:round; stroke-linejoin:round;">
</g>
<g style="fill:#000000; fill-opacity:0.0; 
stroke:#000000; stroke-width:59.0551; stroke-opacity:1; 
stroke-linecap:round; stroke-linejoin:round;">
<path d="M78881 76293
L78881 75703
L79022 75703
L79106 75731
L79162 75787
L79190 75843
L79219 75956
L79219 76040
L79190 76153
L79162 76209
L79106 76265
L79022 76293
L78881 76293
" />
<path d="M79725 76293
L79725 75984
L79697 75928
L79640 75899
L79528 75899
L79472 75928
" />
<path d="M79725 76265
L79669 76293
L79528 76293
L79472 76265
L79444 76209
L79444 76153
L79472 76096
L79528 76068
L79669 76068
L79725 76040
" />
<path d="M79922 75899
L80147 75899
" />
<path d="M80006 75703
L80006 76209
L80034 76265
L80090 76293
L80147 76293
" />
<path d="M80568 76265
L80512 76293
L80400 76293
L80343 76265
L80315 76209
L80315 75984
L80343 75928
L80400 75899
L80512 75899
L80568 75928
L80597 75984
L80597 76040
L80315 76096
" />
<path d="M80850 76237
L80878 76265
L80850 76293
L80822 76265
L80850 76237
L80850 76293
" />
<path d="M80850 75928
L80878 75956
L80850 75984
L80822 75956
L80850 75928
L80850 75984
" />
<path d="M81553 75759
L81581 75731
L81637 75703
L81778 75703
L81834 75731
L81862 75759
L81890 75815
L81890 75871
L81862 75956
L81525 76293
L81890 76293
" />
<path d="M82256 75703
L82312 75703
L82368 75731
L82396 75759
L82424 75815
L82453 75928
L82453 76068
L82424 76181
L82396 76237
L82368 76265
L82312 76293
L82256 76293
L82199 76265
L82171 76237
L82143 76181
L82115 76068
L82115 75928
L82143 75815
L82171 75759
L82199 75731
L82256 75703
" />
<path d="M83015 76293
L82678 76293
" />
<path d="M82846 76293
L82846 75703
L82790 75787
L82734 75843
L82678 75871
" />
<path d="M83212 75703
L83606 75703
L83352 76293
" />
<path d="M83831 76068
L84280 76068
" />
<path d="M84674 75703
L84730 75703
L84787 75731
L84815 75759
L84843 75815
L84871 75928
L84871 76068
L84843 76181
L84815 76237
L84787 76265
L84730 76293
L84674 76293
L84618 76265
L84590 76237
L84562 76181
L84534 76068
L84534 75928
L84562 75815
L84590 75759
L84618 75731
L84674 75703
" />
<path d="M85405 75703
L85124 75703
L85096 75984
L85124 75956
L85180 75928
L85321 75928
L85377 75956
L85405 75984
L85433 76040
L85433 76181
L85405 76237
L85377 76265
L85321 76293
L85180 76293
L85124 76265
L85096 76237
" />
<path d="M85687 76068
L86136 76068
" />
<path d="M86727 76293
L86390 76293
" />
<path d="M86558 76293
L86558 75703
L86502 75787
L86446 75843
L86390 75871
" />
<path d="M87289 76293
L86952 76293
" />
<path d="M87121 76293
L87121 75703
L87064 75787
L87008 75843
L86952 75871
" />
</g>
<g style="fill:#000000; fill-opacity:0.0; 
stroke:#000000; stroke-width:39.3701; stroke-opacity:1; 
stroke-linecap:round; stroke-linejoin:round;">
</g>
<g style="fill:#000000; fill-opacity:0.0; 
stroke:#000000; stroke-width:59.0551; stroke-opacity:1; 
stroke-linecap:round; stroke-linejoin:round;">
<path d="M69685 76577
L112205 76577
" />
</g>
<g style="fill:#000000; fill-opacity:0.0; 
stroke:#000000; stroke-width:39.3701; stroke-opacity:1; 
stroke-linecap:round; stroke-linejoin:round;">
</g>
<g style="fill:#000000; fill-opacity:0.0; 
stroke:#000000; stroke-width:59.0551; stroke-opacity:1; 
stroke-linecap:round; stroke-linejoin:round;">
<path d="M70220 77395
L70220 76805
" />
<path d="M70557 77395
L70304 77058
" />
<path d="M70557 76805
L70220 77142
" />
<path d="M70810 77395
L70810 77002
" />
<path d="M70810 76805
L70782 76833
L70810 76861
L70838 76833
L70810 76805
L70810 76861
" />
<path d="M71429 77339
L71401 77367
L71316 77395
L71260 77395
L71176 77367
L71120 77311
L71091 77255
L71063 77142
L71063 77058
L71091 76946
L71120 76889
L71176 76833
L71260 76805
L71316 76805
L71401 76833
L71429 76861
" />
<path d="M71935 77395
L71935 77086
L71907 77030
L71851 77002
L71738 77002
L71682 77030
" />
<path d="M71935 77367
L71879 77395
L71738 77395
L71682 77367
L71654 77311
L71654 77255
L71682 77199
L71738 77171
L71879 77171
L71935 77142
" />
<path d="M72469 77395
L72469 76805
" />
<path d="M72469 77367
L72413 77395
L72301 77395
L72244 77367
L72216 77339
L72188 77283
L72188 77114
L72216 77058
L72244 77030
L72301 77002
L72413 77002
L72469 77030
" />
<path d="M73201 77086
L73397 77086
" />
<path d="M73482 77395
L73201 77395
L73201 76805
L73482 76805
" />
<path d="M73735 77339
L73763 77367
L73735 77395
L73707 77367
L73735 77339
L73735 77395
" />
<path d="M74016 77395
L74016 76805
L74157 76805
L74241 76833
L74297 76889
L74325 76946
L74354 77058
L74354 77142
L74325 77255
L74297 77311
L74241 77367
L74157 77395
L74016 77395
" />
<path d="M74607 77339
L74635 77367
L74607 77395
L74579 77367
L74607 77339
L74607 77395
" />
<path d="M74860 77227
L75141 77227
" />
<path d="M74804 77395
L75000 76805
L75197 77395
" />
<path d="M75394 77339
L75422 77367
L75394 77395
L75366 77367
L75394 77339
L75394 77395
" />
<path d="M76575 77395
L76575 76805
" />
<path d="M76631 77171
L76800 77395
" />
<path d="M76800 77002
L76575 77227
" />
<path d="M77053 77395
L77053 77002
" />
<path d="M77053 76805
L77025 76833
L77053 76861
L77081 76833
L77053 76805
L77053 76861
" />
<path d="M77588 77367
L77531 77395
L77419 77395
L77363 77367
L77334 77339
L77306 77283
L77306 77114
L77334 77058
L77363 77030
L77419 77002
L77531 77002
L77588 77030
" />
<path d="M78094 77395
L78094 77086
L78066 77030
L78009 77002
L77897 77002
L77841 77030
" />
<path d="M78094 77367
L78037 77395
L77897 77395
L77841 77367
L77813 77311
L77813 77255
L77841 77199
L77897 77171
L78037 77171
L78094 77142
" />
<path d="M78628 77395
L78628 76805
" />
<path d="M78628 77367
L78572 77395
L78459 77395
L78403 77367
L78375 77339
L78347 77283
L78347 77114
L78375 77058
L78403 77030
L78459 77002
L78572 77002
L78628 77030
" />
<path d="M79612 77002
L79612 77395
" />
<path d="M79472 76777
L79331 77199
L79697 77199
" />
<path d="M79922 77339
L79950 77367
L79922 77395
L79894 77367
L79922 77339
L79922 77395
" />
<path d="M80315 76805
L80372 76805
L80428 76833
L80456 76861
L80484 76917
L80512 77030
L80512 77171
L80484 77283
L80456 77339
L80428 77367
L80372 77395
L80315 77395
L80259 77367
L80231 77339
L80203 77283
L80175 77171
L80175 77030
L80203 76917
L80231 76861
L80259 76833
L80315 76805
" />
<path d="M80765 77339
L80793 77367
L80765 77395
L80737 77367
L80765 77339
L80765 77395
" />
<path d="M81300 76805
L81187 76805
L81131 76833
L81103 76861
L81046 76946
L81018 77058
L81018 77283
L81046 77339
L81075 77367
L81131 77395
L81243 77395
L81300 77367
L81328 77339
L81356 77283
L81356 77142
L81328 77086
L81300 77058
L81243 77030
L81131 77030
L81075 77058
L81046 77086
L81018 77142
" />
</g>
<g style="fill:#000000; fill-opacity:0.0; 
stroke:#000000; stroke-width:39.3701; stroke-opacity:1; 
stroke-linecap:round; stroke-linejoin:round;">
</g>
<g style="fill:#000000; fill-opacity:0.0; 
stroke:#000000; stroke-width:59.0551; stroke-opacity:1; 
stroke-linecap:round; stroke-linejoin:round;">
<path d="M69685 75396
L112205 75396
" />
</g>
<g style="fill:#000000; fill-opacity:0.0; 
stroke:#000000; stroke-width:39.3701; stroke-opacity:1; 
stroke-linecap:round; stroke-linejoin:round;">
</g>
<g style="fill:#000000; fill-opacity:0.0; 
stroke:#000000; stroke-width:118.11; stroke-opacity:1; 
stroke-linecap:round; stroke-linejoin:round;">
<path d="M104022 76293
L103825 76012
" />
<path d="M103684 76293
L103684 75703
L103909 75703
L103965 75731
L103994 75759
L104022 75815
L104022 75899
L103994 75956
L103965 75984
L103909 76012
L103684 76012
" />
<path d="M104500 76265
L104444 76293
L104331 76293
L104275 76265
L104247 76209
L104247 75984
L104275 75928
L104331 75899
L104444 75899
L104500 75928
L104528 75984
L104528 76040
L104247 76096
" />
<path d="M104725 75899
L104865 76293
L105006 75899
" />
<path d="M105231 76237
L105259 76265
L105231 76293
L105203 76265
L105231 76237
L105231 76293
" />
<path d="M105231 75928
L105259 75956
L105231 75984
L105203 75956
L105231 75928
L105231 75984
" />
<path d="M105878 75703
L106075 76293
L106271 75703
" />
<path d="M106778 76293
L106440 76293
" />
<path d="M106609 76293
L106609 75703
L106553 75787
L106496 75843
L106440 75871
" />
<path d="M107031 76237
L107059 76265
L107031 76293
L107003 76265
L107031 76237
L107031 76293
" />
<path d="M107424 75703
L107481 75703
L107537 75731
L107565 75759
L107593 75815
L107621 75928
L107621 76068
L107593 76181
L107565 76237
L107537 76265
L107481 76293
L107424 76293
L107368 76265
L107340 76237
L107312 76181
L107284 76068
L107284 75928
L107312 75815
L107340 75759
L107368 75731
L107424 75703
" />
</g>
<g style="fill:#000000; fill-opacity:0.0; 
stroke:#000000; stroke-width:39.3701; stroke-opacity:1; 
stroke-linecap:round; stroke-linejoin:round;">
</g>
<g style="fill:#000000; fill-opacity:0.0; 
stroke:#000000; stroke-width:59.0551; stroke-opacity:1; 
stroke-linecap:round; stroke-linejoin:round;">
<path d="M70192 76265
L70276 76293
L70417 76293
L70473 76265
L70501 76237
L70529 76181
L70529 76124
L70501 76068
L70473 76040
L70417 76012
L70304 75984
L70248 75956
L70220 75928
L70192 75871
L70192 75815
L70220 75759
L70248 75731
L70304 75703
L70445 75703
L70529 75731
" />
<path d="M70782 76293
L70782 75899
" />
<path d="M70782 75703
L70754 75731
L70782 75759
L70810 75731
L70782 75703
L70782 75759
" />
<path d="M71007 75899
L71316 75899
L71007 76293
L71316 76293
" />
<path d="M71766 76265
L71710 76293
L71598 76293
L71541 76265
L71513 76209
L71513 75984
L71541 75928
L71598 75899
L71710 75899
L71766 75928
L71795 75984
L71795 76040
L71513 76096
" />
<path d="M72048 76237
L72076 76265
L72048 76293
L72019 76265
L72048 76237
L72048 76293
" />
<path d="M72048 75928
L72076 75956
L72048 75984
L72019 75956
L72048 75928
L72048 75984
" />
<path d="M72751 76124
L73032 76124
" />
<path d="M72694 76293
L72891 75703
L73088 76293
" />
<path d="M73538 75899
L73538 76293
" />
<path d="M73397 75674
L73257 76096
L73622 76096
" />
</g>
<g style="fill:#000000; fill-opacity:0.0; 
stroke:#000000; stroke-width:39.3701; stroke-opacity:1; 
stroke-linecap:round; stroke-linejoin:round;">
</g>
<g style="fill:#000000; fill-opacity:0.0; 
stroke:#000000; stroke-width:59.0551; stroke-opacity:1; 
stroke-linecap:round; stroke-linejoin:round;">
<path d="M103684 77395
L103684 76805
" />
<path d="M104219 77395
L104219 76805
" />
<path d="M104219 77367
L104162 77395
L104050 77395
L103994 77367
L103965 77339
L103937 77283
L103937 77114
L103965 77058
L103994 77030
L104050 77002
L104162 77002
L104219 77030
" />
<path d="M104500 77339
L104528 77367
L104500 77395
L104472 77367
L104500 77339
L104500 77395
" />
<path d="M104500 77030
L104528 77058
L104500 77086
L104472 77058
L104500 77030
L104500 77086
" />
<path d="M105540 77395
L105203 77395
" />
<path d="M105372 77395
L105372 76805
L105315 76889
L105259 76946
L105203 76974
" />
<path d="M106215 76777
L105709 77536
" />
<path d="M106721 77395
L106384 77395
" />
<path d="M106553 77395
L106553 76805
L106496 76889
L106440 76946
L106384 76974
" />
</g>
<g style="fill:#000000; fill-opacity:0.0; 
stroke:#000000; stroke-width:39.3701; stroke-opacity:1; 
stroke-linecap:round; stroke-linejoin:round;">
</g>
<g style="fill:#000000; fill-opacity:0.0; 
stroke:#000000; stroke-width:59.0551; stroke-opacity:1; 
stroke-linecap:round; stroke-linejoin:round;">
<path d="M69685 73821
L112205 73821
" />
</g>
<g style="fill:#000000; fill-opacity:0.0; 
stroke:#000000; stroke-width:39.3701; stroke-opacity:1; 
stroke-linecap:round; stroke-linejoin:round;">
</g>
<g style="fill:#000000; fill-opacity:0.0; 
stroke:#000000; stroke-width:157.48; stroke-opacity:1; 
stroke-linecap:round; stroke-linejoin:round;">
<path d="M70257 74099
L70707 74099
" />
<path d="M70384 74886
L70482 74099
" />
<path d="M70871 74886
L70937 74361
" />
<path d="M70970 74099
L70927 74136
L70960 74174
L71002 74136
L70970 74099
L70960 74174
" />
<path d="M71199 74361
L71499 74361
" />
<path d="M71345 74099
L71260 74774
L71288 74849
L71359 74886
L71434 74886
" />
<path d="M71809 74886
L71738 74849
L71710 74774
L71795 74099
" />
<path d="M72413 74849
L72334 74886
L72184 74886
L72113 74849
L72085 74774
L72123 74474
L72169 74399
L72249 74361
L72399 74361
L72469 74399
L72498 74474
L72488 74549
L72104 74624
" />
<path d="M72793 74811
L72826 74849
L72783 74886
L72751 74849
L72793 74811
L72783 74886
" />
<path d="M72844 74399
L72877 74436
L72835 74474
L72802 74436
L72844 74399
L72835 74474
" />
<path d="M73726 74849
L73796 74886
L73946 74886
L74025 74849
L74072 74774
L74077 74736
L74049 74661
L73979 74624
L73866 74624
L73796 74586
L73768 74511
L73772 74474
L73819 74399
L73899 74361
L74011 74361
L74082 74399
" />
<path d="M74396 74886
L74461 74361
" />
<path d="M74494 74099
L74452 74136
L74485 74174
L74527 74136
L74494 74099
L74485 74174
" />
<path d="M74836 74361
L74771 74886
" />
<path d="M74827 74436
L74869 74399
L74949 74361
L75061 74361
L75132 74399
L75160 74474
L75108 74886
" />
<path d="M75886 74361
L75807 74999
L75760 75074
L75717 75111
L75638 75149
L75525 75149
L75455 75111
" />
<path d="M75825 74849
L75746 74886
L75596 74886
L75525 74849
L75492 74811
L75464 74736
L75492 74511
L75539 74436
L75582 74399
L75661 74361
L75811 74361
L75882 74399
" />
<path d="M76308 74886
L76238 74849
L76210 74774
L76294 74099
" />
<path d="M76913 74849
L76833 74886
L76683 74886
L76613 74849
L76585 74774
L76622 74474
L76669 74399
L76749 74361
L76899 74361
L76969 74399
L76997 74474
L76988 74549
L76603 74624
" />
<path d="M77836 74361
L78136 74361
" />
<path d="M77981 74099
L77897 74774
L77925 74849
L77995 74886
L78070 74886
" />
<path d="M78333 74886
L78398 74361
" />
<path d="M78380 74511
L78427 74436
L78469 74399
L78548 74361
L78623 74361
" />
<path d="M79158 74886
L79209 74474
L79181 74399
L79111 74361
L78961 74361
L78881 74399
" />
<path d="M79162 74849
L79083 74886
L78895 74886
L78825 74849
L78797 74774
L78806 74699
L78853 74624
L78933 74586
L79120 74586
L79200 74549
" />
<path d="M79598 74361
L79533 74886
" />
<path d="M79589 74436
L79631 74399
L79711 74361
L79823 74361
L79894 74399
L79922 74474
L79870 74886
" />
<path d="M80236 74361
L80648 74361
L80170 74886
L80582 74886
" />
<path d="M80882 74886
L80948 74361
" />
<path d="M80981 74099
L80939 74136
L80971 74174
L81014 74136
L80981 74099
L80971 74174
" />
<path d="M81225 74849
L81295 74886
L81445 74886
L81525 74849
L81571 74774
L81576 74736
L81548 74661
L81478 74624
L81365 74624
L81295 74586
L81267 74511
L81271 74474
L81318 74399
L81398 74361
L81510 74361
L81581 74399
" />
<path d="M81848 74361
L82148 74361
" />
<path d="M81993 74099
L81909 74774
L81937 74849
L82007 74886
L82082 74886
" />
<path d="M82457 74886
L82387 74849
L82354 74811
L82326 74736
L82354 74511
L82401 74436
L82443 74399
L82523 74361
L82635 74361
L82706 74399
L82738 74436
L82767 74511
L82738 74736
L82692 74811
L82649 74849
L82570 74886
L82457 74886
" />
<path d="M83057 74886
L83123 74361
" />
<path d="M83104 74511
L83151 74436
L83193 74399
L83273 74361
L83348 74361
" />
<path d="M84482 74886
L84534 74474
L84505 74399
L84435 74361
L84285 74361
L84205 74399
" />
<path d="M84487 74849
L84407 74886
L84220 74886
L84149 74849
L84121 74774
L84130 74699
L84177 74624
L84257 74586
L84444 74586
L84524 74549
" />
<path d="M84857 74886
L84923 74361
" />
<path d="M84913 74436
L84955 74399
L85035 74361
L85148 74361
L85218 74399
L85246 74474
L85194 74886
" />
<path d="M85246 74474
L85293 74399
L85373 74361
L85485 74361
L85555 74399
L85583 74474
L85532 74886
" />
<path d="M85972 74361
L85874 75149
" />
<path d="M85968 74399
L86047 74361
L86197 74361
L86268 74399
L86301 74436
L86329 74511
L86301 74736
L86254 74811
L86211 74849
L86132 74886
L85982 74886
L85912 74849
" />
</g>
<g style="fill:#000000; fill-opacity:0.0; 
stroke:#000000; stroke-width:39.3701; stroke-opacity:1; 
stroke-linecap:round; stroke-linejoin:round;">
</g>
<g style="fill:#000000; fill-opacity:0.0; 
stroke:#000000; stroke-width:59.0551; stroke-opacity:1; 
stroke-linecap:round; stroke-linejoin:round;">
<path d="M70417 73070
L70220 73070
" />
<path d="M70220 73380
L70220 72789
L70501 72789
" />
<path d="M70726 73380
L70726 72986
" />
<path d="M70726 72789
L70698 72817
L70726 72845
L70754 72817
L70726 72789
L70726 72845
" />
<path d="M71091 73380
L71035 73352
L71007 73295
L71007 72789
" />
<path d="M71541 73352
L71485 73380
L71373 73380
L71316 73352
L71288 73295
L71288 73070
L71316 73014
L71373 72986
L71485 72986
L71541 73014
L71570 73070
L71570 73127
L71288 73183
" />
<path d="M71823 73323
L71851 73352
L71823 73380
L71795 73352
L71823 73323
L71823 73380
" />
<path d="M71823 73014
L71851 73042
L71823 73070
L71795 73042
L71823 73014
L71823 73070
" />
<path d="M72526 73352
L72582 73380
L72694 73380
L72751 73352
L72779 73295
L72779 73267
L72751 73211
L72694 73183
L72610 73183
L72554 73155
L72526 73099
L72526 73070
L72554 73014
L72610 72986
L72694 72986
L72751 73014
" />
<path d="M73032 73380
L73032 72986
" />
<path d="M73032 72789
L73004 72817
L73032 72845
L73060 72817
L73032 72789
L73032 72845
" />
<path d="M73313 72986
L73313 73380
" />
<path d="M73313 73042
L73341 73014
L73397 72986
L73482 72986
L73538 73014
L73566 73070
L73566 73380
" />
<path d="M74100 72986
L74100 73464
L74072 73520
L74044 73548
L73988 73577
L73904 73577
L73847 73548
" />
<path d="M74100 73352
L74044 73380
L73932 73380
L73876 73352
L73847 73323
L73819 73267
L73819 73099
L73847 73042
L73876 73014
L73932 72986
L74044 72986
L74100 73014
" />
<path d="M74466 73380
L74410 73352
L74382 73295
L74382 72789
" />
<path d="M74916 73352
L74860 73380
L74747 73380
L74691 73352
L74663 73295
L74663 73070
L74691 73014
L74747 72986
L74860 72986
L74916 73014
L74944 73070
L74944 73127
L74663 73183
" />
<path d="M75057 73436
L75507 73436
" />
<path d="M75563 72986
L75788 72986
" />
<path d="M75647 72789
L75647 73295
L75675 73352
L75732 73380
L75788 73380
" />
<path d="M75985 73380
L75985 72986
" />
<path d="M75985 73099
L76013 73042
L76041 73014
L76097 72986
L76153 72986
" />
<path d="M76603 73380
L76603 73070
L76575 73014
L76519 72986
L76406 72986
L76350 73014
" />
<path d="M76603 73352
L76547 73380
L76406 73380
L76350 73352
L76322 73295
L76322 73239
L76350 73183
L76406 73155
L76547 73155
L76603 73127
" />
<path d="M76885 72986
L76885 73380
" />
<path d="M76885 73042
L76913 73014
L76969 72986
L77053 72986
L77109 73014
L77138 73070
L77138 73380
" />
<path d="M77363 72986
L77672 72986
L77363 73380
L77672 73380
" />
<path d="M77897 73380
L77897 72986
" />
<path d="M77897 72789
L77869 72817
L77897 72845
L77925 72817
L77897 72789
L77897 72845
" />
<path d="M78150 73352
L78206 73380
L78319 73380
L78375 73352
L78403 73295
L78403 73267
L78375 73211
L78319 73183
L78234 73183
L78178 73155
L78150 73099
L78150 73070
L78178 73014
L78234 72986
L78319 72986
L78375 73014
" />
<path d="M78572 72986
L78797 72986
" />
<path d="M78656 72789
L78656 73295
L78684 73352
L78741 73380
L78797 73380
" />
<path d="M79078 73380
L79022 73352
L78994 73323
L78965 73267
L78965 73099
L78994 73042
L79022 73014
L79078 72986
L79162 72986
L79219 73014
L79247 73042
L79275 73099
L79275 73267
L79247 73323
L79219 73352
L79162 73380
L79078 73380
" />
<path d="M79528 73380
L79528 72986
" />
<path d="M79528 73099
L79556 73042
L79584 73014
L79640 72986
L79697 72986
" />
<path d="M79753 73436
L80203 73436
" />
<path d="M80597 73380
L80597 73070
L80568 73014
L80512 72986
L80400 72986
L80343 73014
" />
<path d="M80597 73352
L80540 73380
L80400 73380
L80343 73352
L80315 73295
L80315 73239
L80343 73183
L80400 73155
L80540 73155
L80597 73127
" />
<path d="M80878 73380
L80878 72986
" />
<path d="M80878 73042
L80906 73014
L80962 72986
L81046 72986
L81103 73014
L81131 73070
L81131 73380
" />
<path d="M81131 73070
L81159 73014
L81215 72986
L81300 72986
L81356 73014
L81384 73070
L81384 73380
" />
<path d="M81665 72986
L81665 73577
" />
<path d="M81665 73014
L81721 72986
L81834 72986
L81890 73014
L81918 73042
L81946 73099
L81946 73267
L81918 73323
L81890 73352
L81834 73380
L81721 73380
L81665 73352
" />
<path d="M82199 73323
L82228 73352
L82199 73380
L82171 73352
L82199 73323
L82199 73380
" />
<path d="M82481 73380
L82481 72789
" />
<path d="M82537 73155
L82706 73380
" />
<path d="M82706 72986
L82481 73211
" />
<path d="M82959 73380
L82959 72986
" />
<path d="M82959 72789
L82931 72817
L82959 72845
L82987 72817
L82959 72789
L82959 72845
" />
<path d="M83493 73352
L83437 73380
L83324 73380
L83268 73352
L83240 73323
L83212 73267
L83212 73099
L83240 73042
L83268 73014
L83324 72986
L83437 72986
L83493 73014
" />
<path d="M83999 73380
L83999 73070
L83971 73014
L83915 72986
L83802 72986
L83746 73014
" />
<path d="M83999 73352
L83943 73380
L83802 73380
L83746 73352
L83718 73295
L83718 73239
L83746 73183
L83802 73155
L83943 73155
L83999 73127
" />
<path d="M84534 73380
L84534 72789
" />
<path d="M84534 73352
L84477 73380
L84365 73380
L84309 73352
L84280 73323
L84252 73267
L84252 73099
L84280 73042
L84309 73014
L84365 72986
L84477 72986
L84534 73014
" />
<path d="M84674 73436
L85124 73436
" />
<path d="M85265 72986
L85265 73577
" />
<path d="M85265 73014
L85321 72986
L85433 72986
L85490 73014
L85518 73042
L85546 73099
L85546 73267
L85518 73323
L85490 73352
L85433 73380
L85321 73380
L85265 73352
" />
<path d="M86052 73352
L85996 73380
L85883 73380
L85827 73352
L85799 73323
L85771 73267
L85771 73099
L85799 73042
L85827 73014
L85883 72986
L85996 72986
L86052 73014
" />
<path d="M86305 73380
L86305 72789
" />
<path d="M86305 73014
L86361 72986
L86474 72986
L86530 73014
L86558 73042
L86586 73099
L86586 73267
L86558 73323
L86530 73352
L86474 73380
L86361 73380
L86305 73352
" />
</g>
<g style="fill:#000000; fill-opacity:0.0; 
stroke:#000000; stroke-width:39.3701; stroke-opacity:1; 
stroke-linecap:round; stroke-linejoin:round;">
</g>
<g style="fill:#000000; fill-opacity:0.0; 
stroke:#000000; stroke-width:59.0551; stroke-opacity:1; 
stroke-linecap:round; stroke-linejoin:round;">
<path d="M69685 71459
L112205 71459
" />
</g>
<g style="fill:#000000; fill-opacity:0.0; 
stroke:#000000; stroke-width:39.3701; stroke-opacity:1; 
stroke-linecap:round; stroke-linejoin:round;">
</g>
<g style="fill:#000000; fill-opacity:0.0; 
stroke:#000000; stroke-width:59.0551; stroke-opacity:1; 
stroke-linecap:round; stroke-linejoin:round;">
<path d="M70192 72289
L70276 72317
L70417 72317
L70473 72289
L70501 72260
L70529 72204
L70529 72148
L70501 72092
L70473 72064
L70417 72036
L70304 72007
L70248 71979
L70220 71951
L70192 71895
L70192 71839
L70220 71782
L70248 71754
L70304 71726
L70445 71726
L70529 71754
" />
<path d="M70782 72317
L70782 71726
" />
<path d="M71035 72317
L71035 72007
L71007 71951
L70951 71923
L70867 71923
L70810 71951
L70782 71979
" />
<path d="M71541 72289
L71485 72317
L71373 72317
L71316 72289
L71288 72232
L71288 72007
L71316 71951
L71373 71923
L71485 71923
L71541 71951
L71570 72007
L71570 72064
L71288 72120
" />
<path d="M72048 72289
L71991 72317
L71879 72317
L71823 72289
L71795 72232
L71795 72007
L71823 71951
L71879 71923
L71991 71923
L72048 71951
L72076 72007
L72076 72064
L71795 72120
" />
<path d="M72244 71923
L72469 71923
" />
<path d="M72329 71726
L72329 72232
L72357 72289
L72413 72317
L72469 72317
" />
<path d="M72666 72260
L72694 72289
L72666 72317
L72638 72289
L72666 72260
L72666 72317
" />
<path d="M72666 71951
L72694 71979
L72666 72007
L72638 71979
L72666 71951
L72666 72007
" />
</g>
<g style="fill:#000000; fill-opacity:0.0; 
stroke:#000000; stroke-width:39.3701; stroke-opacity:1; 
stroke-linecap:round; stroke-linejoin:round;">
</g>
<g style="fill:#000000; fill-opacity:0.0; 
stroke:#000000; stroke-width:59.0551; stroke-opacity:1; 
stroke-linecap:round; stroke-linejoin:round;">
<path d="M70192 69786
L70473 69786
" />
<path d="M70135 69955
L70332 69364
L70529 69955
" />
<path d="M70979 69561
L70979 69955
" />
<path d="M70726 69561
L70726 69870
L70754 69926
L70810 69955
L70895 69955
L70951 69926
L70979 69898
" />
<path d="M71176 69561
L71401 69561
" />
<path d="M71260 69364
L71260 69870
L71288 69926
L71345 69955
L71401 69955
" />
<path d="M71682 69955
L71626 69926
L71598 69898
L71570 69842
L71570 69673
L71598 69617
L71626 69589
L71682 69561
L71766 69561
L71823 69589
L71851 69617
L71879 69673
L71879 69842
L71851 69898
L71823 69926
L71766 69955
L71682 69955
" />
<path d="M72132 69955
L72132 69561
" />
<path d="M72132 69673
L72160 69617
L72188 69589
L72244 69561
L72301 69561
" />
<path d="M72469 69926
L72526 69955
L72638 69955
L72694 69926
L72723 69870
L72723 69842
L72694 69786
L72638 69758
L72554 69758
L72498 69730
L72469 69673
L72469 69645
L72498 69589
L72554 69561
L72638 69561
L72694 69589
" />
<path d="M72976 69898
L73004 69926
L72976 69955
L72947 69926
L72976 69898
L72976 69955
" />
<path d="M72976 69589
L73004 69617
L72976 69645
L72947 69617
L72976 69589
L72976 69645
" />
</g>
<g style="fill:#000000; fill-opacity:0.0; 
stroke:#000000; stroke-width:39.3701; stroke-opacity:1; 
stroke-linecap:round; stroke-linejoin:round;">
</g>
<g style="fill:#000000; fill-opacity:0.0; 
stroke:#000000; stroke-width:59.0551; stroke-opacity:1; 
stroke-linecap:round; stroke-linejoin:round;">
<path d="M70220 68773
L70220 68183
" />
<path d="M70557 68773
L70304 68436
" />
<path d="M70557 68183
L70220 68520
" />
<path d="M70810 68773
L70810 68380
" />
<path d="M70810 68492
L70838 68436
L70867 68408
L70923 68380
L70979 68380
" />
<path d="M71176 68773
L71176 68380
" />
<path d="M71176 68183
L71148 68211
L71176 68239
L71204 68211
L71176 68183
L71176 68239
" />
<path d="M71429 68745
L71485 68773
L71598 68773
L71654 68745
L71682 68689
L71682 68661
L71654 68605
L71598 68577
L71513 68577
L71457 68548
L71429 68492
L71429 68464
L71457 68408
L71513 68380
L71598 68380
L71654 68408
" />
<path d="M71851 68380
L72076 68380
" />
<path d="M71935 68183
L71935 68689
L71963 68745
L72019 68773
L72076 68773
" />
<path d="M72526 68773
L72526 68464
L72498 68408
L72441 68380
L72329 68380
L72273 68408
" />
<path d="M72526 68745
L72469 68773
L72329 68773
L72273 68745
L72244 68689
L72244 68633
L72273 68577
L72329 68548
L72469 68548
L72526 68520
" />
<path d="M72807 68380
L72807 68970
" />
<path d="M72807 68408
L72863 68380
L72976 68380
L73032 68408
L73060 68436
L73088 68492
L73088 68661
L73060 68717
L73032 68745
L72976 68773
L72863 68773
L72807 68745
" />
<path d="M73313 68745
L73369 68773
L73482 68773
L73538 68745
L73566 68689
L73566 68661
L73538 68605
L73482 68577
L73397 68577
L73341 68548
L73313 68492
L73313 68464
L73341 68408
L73397 68380
L73482 68380
L73538 68408
" />
</g>
<g style="fill:#000000; fill-opacity:0.0; 
stroke:#000000; stroke-width:39.3701; stroke-opacity:1; 
stroke-linecap:round; stroke-linejoin:round;">
</g>
<g style="fill:#000000; fill-opacity:0.0; 
stroke:#000000; stroke-width:59.0551; stroke-opacity:1; 
stroke-linecap:round; stroke-linejoin:round;">
<path d="M70135 67002
L70332 67592
L70529 67002
" />
<path d="M70726 67592
L70726 67199
" />
<path d="M70726 67002
L70698 67030
L70726 67058
L70754 67030
L70726 67002
L70726 67058
" />
<path d="M71091 67592
L71035 67564
L71007 67508
L71007 67002
" />
<path d="M71570 67564
L71513 67592
L71401 67592
L71345 67564
L71316 67536
L71288 67480
L71288 67311
L71316 67255
L71345 67227
L71401 67199
L71513 67199
L71570 67227
" />
<path d="M72076 67592
L72076 67283
L72048 67227
L71991 67199
L71879 67199
L71823 67227
" />
<path d="M72076 67564
L72019 67592
L71879 67592
L71823 67564
L71795 67508
L71795 67452
L71823 67395
L71879 67367
L72019 67367
L72076 67339
" />
<path d="M72357 67199
L72357 67592
" />
<path d="M72357 67255
L72385 67227
L72441 67199
L72526 67199
L72582 67227
L72610 67283
L72610 67592
" />
<path d="M72863 67564
L72919 67592
L73032 67592
L73088 67564
L73116 67508
L73116 67480
L73088 67424
L73032 67395
L72947 67395
L72891 67367
L72863 67311
L72863 67283
L72891 67227
L72947 67199
L73032 67199
L73088 67227
" />
</g>
<g style="fill:#000000; fill-opacity:0.0; 
stroke:#000000; stroke-width:39.3701; stroke-opacity:1; 
stroke-linecap:round; stroke-linejoin:round;">
</g>
<g style="fill:#000000; fill-opacity:0.0; 
stroke:#000000; stroke-width:59.0551; stroke-opacity:1; 
stroke-linecap:round; stroke-linejoin:round;">
<path d="M77559 75396
L77559 76577
" />
</g>
<g style="fill:#000000; fill-opacity:0.0; 
stroke:#000000; stroke-width:39.3701; stroke-opacity:1; 
stroke-linecap:round; stroke-linejoin:round;">
</g>
<g style="fill:#000000; fill-opacity:0.0; 
stroke:#000000; stroke-width:59.0551; stroke-opacity:1; 
stroke-linecap:round; stroke-linejoin:round;">
<path d="M102756 75396
L102756 77955
" />
</g>
<g style="fill:#C2C200; fill-opacity:0.0; 
stroke:#C2C200; stroke-width:59.0551; stroke-opacity:1; 
stroke-linecap:round; stroke-linejoin:round;">
</g>
<g style="fill:#C2C200; fill-opacity:0.0; 
stroke:#C2C200; stroke-width:39.3701; stroke-opacity:1; 
stroke-linecap:round; stroke-linejoin:round;">
<path d="M65200 42800
L76500 42800
" />
<path d="M64700 33200
L64700 42300
" />
<path d="M76500 32700
L65200 32700
" />
<path d="M77000 42300
L77000 33200
" />
<path d="M76500 42800 A500 500 0.0 0 0 77000 42300 " />
<path d="M64700 42300 A500 500 0.0 0 0 65200 42800 " />
<path d="M65200 32700 A500 500 0.0 0 0 64700 33200 " />
<path d="M77000 33200 A500 500 0.0 0 0 76500 32700 " />
</g>
<g style="fill:#840000; fill-opacity:0.0; 
stroke:#840000; stroke-width:39.3701; stroke-opacity:1; 
stroke-linecap:round; stroke-linejoin:round;">
</g>
<g style="fill:#840000; fill-opacity:1.0; 
stroke:#840000; stroke-width:0; stroke-opacity:1; 
stroke-linecap:round; stroke-linejoin:round;">
<circle cx="69291.5" cy="34700" r="314.961" /> 
</g>
<g style="fill:#840000; fill-opacity:1.0; 
stroke:#840000; stroke-width:39.3701; stroke-opacity:1; 
stroke-linecap:round; stroke-linejoin:round;">
</g>
<g style="fill:#840000; fill-opacity:1.0; 
stroke:#840000; stroke-width:0; stroke-opacity:1; 
stroke-linecap:round; stroke-linejoin:round;">
<circle cx="71260" cy="34700" r="314.961" /> 
</g>
<g style="fill:#840000; fill-opacity:1.0; 
stroke:#840000; stroke-width:39.3701; stroke-opacity:1; 
stroke-linecap:round; stroke-linejoin:round;">
</g>
<g style="fill:#840000; fill-opacity:1.0; 
stroke:#840000; stroke-width:0; stroke-opacity:1; 
stroke-linecap:round; stroke-linejoin:round;">
<circle cx="71300" cy="36900" r="314.961" /> 
</g>
<g style="fill:#840000; fill-opacity:1.0; 
stroke:#840000; stroke-width:39.3701; stroke-opacity:1; 
stroke-linecap:round; stroke-linejoin:round;">
</g>
<g style="fill:#840000; fill-opacity:1.0; 
stroke:#840000; stroke-width:0; stroke-opacity:1; 
stroke-linecap:round; stroke-linejoin:round;">
<circle cx="69331.5" cy="36900" r="314.961" /> 
</g>
<g style="fill:#840000; fill-opacity:1.0; 
stroke:#840000; stroke-width:39.3701; stroke-opacity:1; 
stroke-linecap:round; stroke-linejoin:round;">
</g>
<g style="fill:#840000; fill-opacity:1.0; 
stroke:#840000; stroke-width:0; stroke-opacity:1; 
stroke-linecap:round; stroke-linejoin:round;">
<circle cx="68260" cy="35568.5" r="314.961" /> 
</g>
<g style="fill:#840000; fill-opacity:1.0; 
stroke:#840000; stroke-width:39.3701; stroke-opacity:1; 
stroke-linecap:round; stroke-linejoin:round;">
</g>
<g style="fill:#840000; fill-opacity:1.0; 
stroke:#840000; stroke-width:0; stroke-opacity:1; 
stroke-linecap:round; stroke-linejoin:round;">
<circle cx="68260" cy="33600" r="314.961" /> 
</g>
<g style="fill:#840000; fill-opacity:1.0; 
stroke:#840000; stroke-width:39.3701; stroke-opacity:1; 
stroke-linecap:round; stroke-linejoin:round;">
</g>
<g style="fill:#840000; fill-opacity:1.0; 
stroke:#840000; stroke-width:0; stroke-opacity:1; 
stroke-linecap:round; stroke-linejoin:round;">
<polyline style="fill-rule:evenodd;"
points="67881,40899
67881,39340
68661,39340
68661,40899
67881,40899
" /> 
</g>
<g style="fill:#840000; fill-opacity:1.0; 
stroke:#840000; stroke-width:779.528; stroke-opacity:1; 
stroke-linecap:round; stroke-linejoin:round;">
</g>
<g style="fill:#840000; fill-opacity:0.0; 
stroke:#840000; stroke-width:779.528; stroke-opacity:1; 
stroke-linecap:round; stroke-linejoin:round;">
<path d="M70240 39730
L70240 40509
" />
</g>
<g style="fill:#840000; fill-opacity:0.0; 
stroke:#840000; stroke-width:0; stroke-opacity:1; 
stroke-linecap:round; stroke-linejoin:round;">
</g>
<g style="fill:#840000; fill-opacity:1.0; 
stroke:#840000; stroke-width:0; stroke-opacity:1; 
stroke-linecap:round; stroke-linejoin:round;">
<polyline style="fill-rule:evenodd;"
points="75079,36758
73520,36758
73520,35978
75079,35978
75079,36758
" /> 
</g>
<g style="fill:#840000; fill-opacity:1.0; 
stroke:#840000; stroke-width:779.528; stroke-opacity:1; 
stroke-linecap:round; stroke-linejoin:round;">
</g>
<g style="fill:#840000; fill-opacity:0.0; 
stroke:#840000; stroke-width:779.528; stroke-opacity:1; 
stroke-linecap:round; stroke-linejoin:round;">
<path d="M73910 34400
L74689 34400
" />
</g>
<g style="fill:#840000; fill-opacity:0.0; 
stroke:#840000; stroke-width:0; stroke-opacity:1; 
stroke-linecap:round; stroke-linejoin:round;">
</g>
<g style="fill:#840000; fill-opacity:1.0; 
stroke:#840000; stroke-width:0; stroke-opacity:1; 
stroke-linecap:round; stroke-linejoin:round;">
<polyline style="fill-rule:evenodd;"
points="75079,41278
73520,41278
73520,40498
75079,40498
75079,41278
" /> 
</g>
<g style="fill:#840000; fill-opacity:1.0; 
stroke:#840000; stroke-width:779.528; stroke-opacity:1; 
stroke-linecap:round; stroke-linejoin:round;">
</g>
<g style="fill:#840000; fill-opacity:0.0; 
stroke:#840000; stroke-width:779.528; stroke-opacity:1; 
stroke-linecap:round; stroke-linejoin:round;">
<path d="M73910 38920
L74689 38920
" />
</g>
<g style="fill:#840000; fill-opacity:0.0; 
stroke:#840000; stroke-width:354.331; stroke-opacity:1; 
stroke-linecap:round; stroke-linejoin:round;">
<path d="M66918 34500
L66681 34500
" />
<path d="M66918 34000
L66681 34000
" />
</g>
<g style="fill:#840000; fill-opacity:0.0; 
stroke:#840000; stroke-width:0; stroke-opacity:1; 
stroke-linecap:round; stroke-linejoin:round;">
</g>
<g style="fill:#840000; fill-opacity:1.0; 
stroke:#840000; stroke-width:0; stroke-opacity:1; 
stroke-linecap:round; stroke-linejoin:round;">
<polyline style="fill-rule:evenodd;"
points="66504,34822
67095,34822
67095,35177
66504,35177
66504,34822
" /> 
<circle cx="65600" cy="38000" r="275.591" /> 
</g>
<g style="fill:#840000; fill-opacity:1.0; 
stroke:#840000; stroke-width:39.3701; stroke-opacity:1; 
stroke-linecap:round; stroke-linejoin:round;">
</g>
<g style="fill:#840000; fill-opacity:1.0; 
stroke:#840000; stroke-width:551.181; stroke-opacity:1; 
stroke-linecap:round; stroke-linejoin:round;">
</g>
<g style="fill:#840000; fill-opacity:0.0; 
stroke:#840000; stroke-width:551.181; stroke-opacity:1; 
stroke-linecap:round; stroke-linejoin:round;">
<path d="M65600 36000
L65600 36000
" />
</g>
<g style="fill:#840000; fill-opacity:1.0; 
stroke:#840000; stroke-width:0; stroke-opacity:1; 
stroke-linecap:round; stroke-linejoin:round;">
<circle cx="66500" cy="36900" r="275.591" /> 
</g>
<g style="fill:#840000; fill-opacity:1.0; 
stroke:#840000; stroke-width:39.3701; stroke-opacity:1; 
stroke-linecap:round; stroke-linejoin:round;">
</g>
<g style="fill:#840000; fill-opacity:1.0; 
stroke:#840000; stroke-width:551.181; stroke-opacity:1; 
stroke-linecap:round; stroke-linejoin:round;">
</g>
<g style="fill:#840000; fill-opacity:0.0; 
stroke:#840000; stroke-width:551.181; stroke-opacity:1; 
stroke-linecap:round; stroke-linejoin:round;">
<path d="M68500 36900
L68500 36900
" />
</g>
<g style="fill:#840000; fill-opacity:1.0; 
stroke:#840000; stroke-width:0; stroke-opacity:1; 
stroke-linecap:round; stroke-linejoin:round;">
<circle cx="69300" cy="35800" r="275.591" /> 
</g>
<g style="fill:#840000; fill-opacity:1.0; 
stroke:#840000; stroke-width:39.3701; stroke-opacity:1; 
stroke-linecap:round; stroke-linejoin:round;">
</g>
<g style="fill:#840000; fill-opacity:1.0; 
stroke:#840000; stroke-width:551.181; stroke-opacity:1; 
stroke-linecap:round; stroke-linejoin:round;">
</g>
<g style="fill:#840000; fill-opacity:0.0; 
stroke:#840000; stroke-width:551.181; stroke-opacity:1; 
stroke-linecap:round; stroke-linejoin:round;">
<path d="M71300 35800
L71300 35800
" />
</g>
<g style="fill:#840000; fill-opacity:1.0; 
stroke:#840000; stroke-width:0; stroke-opacity:1; 
stroke-linecap:round; stroke-linejoin:round;">
<circle cx="69300" cy="33600" r="275.591" /> 
</g>
<g style="fill:#840000; fill-opacity:1.0; 
stroke:#840000; stroke-width:39.3701; stroke-opacity:1; 
stroke-linecap:round; stroke-linejoin:round;">
</g>
<g style="fill:#840000; fill-opacity:1.0; 
stroke:#840000; stroke-width:551.181; stroke-opacity:1; 
stroke-linecap:round; stroke-linejoin:round;">
</g>
<g style="fill:#840000; fill-opacity:0.0; 
stroke:#840000; stroke-width:551.181; stroke-opacity:1; 
stroke-linecap:round; stroke-linejoin:round;">
<path d="M71300 33600
L71300 33600
" />
</g>
<g style="fill:#840000; fill-opacity:0.0; 
stroke:#840000; stroke-width:39.3701; stroke-opacity:1; 
stroke-linecap:round; stroke-linejoin:round;">
<path d="M74300 39200
L74300 38770
" />
</g>
<g style="fill:#840000; fill-opacity:0.0; 
stroke:#840000; stroke-width:100; stroke-opacity:1; 
stroke-linecap:round; stroke-linejoin:round;">
<path d="M76486 32969
L65210 32969
" />
<path d="M68129 33049
L65028 33049
" />
<path d="M76671 33049
L68388 33049
" />
<path d="M67946 33129
L64983 33129
" />
<path d="M69060 33129
L68573 33129
" />
<path d="M71066 33129
L69537 33129
" />
<path d="M71366 33129
L71233 33129
" />
<path d="M76716 33129
L71533 33129
" />
<path d="M67851 33209
L64970 33209
" />
<path d="M68947 33209
L68668 33209
" />
<path d="M70951 33209
L69653 33209
" />
<path d="M71350 33209
L71250 33209
" />
<path d="M76730 33209
L71648 33209
" />
<path d="M67787 33289
L64969 33289
" />
<path d="M68875 33289
L68732 33289
" />
<path d="M70878 33289
L69724 33289
" />
<path d="M71350 33289
L71250 33289
" />
<path d="M76730 33289
L71721 33289
" />
<path d="M67744 33369
L64969 33369
" />
<path d="M68826 33369
L68776 33369
" />
<path d="M70830 33369
L69773 33369
" />
<path d="M71350 33369
L71250 33369
" />
<path d="M76730 33369
L71769 33369
" />
<path d="M67714 33449
L64969 33449
" />
<path d="M70796 33449
L69806 33449
" />
<path d="M71350 33449
L71250 33449
" />
<path d="M76730 33449
L71803 33449
" />
<path d="M67697 33529
L64969 33529
" />
<path d="M70827 33529
L69821 33529
" />
<path d="M71350 33529
L71250 33529
" />
<path d="M76730 33529
L71772 33529
" />
<path d="M66507 33609
L64969 33609
" />
<path d="M67694 33609
L67093 33609
" />
<path d="M76730 33609
L69824 33609
" />
<path d="M66387 33689
L64969 33689
" />
<path d="M67702 33689
L67212 33689
" />
<path d="M70815 33689
L69818 33689
" />
<path d="M71350 33689
L71250 33689
" />
<path d="M76730 33689
L71784 33689
" />
<path d="M66320 33769
L64969 33769
" />
<path d="M67719 33769
L67280 33769
" />
<path d="M68801 33769
L68800 33769
" />
<path d="M70802 33769
L69799 33769
" />
<path d="M71350 33769
L71250 33769
" />
<path d="M73808 33769
L71797 33769
" />
<path d="M76730 33769
L74787 33769
" />
<path d="M66280 33849
L64969 33849
" />
<path d="M67751 33849
L67319 33849
" />
<path d="M68835 33849
L68767 33849
" />
<path d="M70839 33849
L69764 33849
" />
<path d="M71350 33849
L71250 33849
" />
<path d="M73584 33849
L71760 33849
" />
<path d="M76730 33849
L75015 33849
" />
<path d="M66259 33929
L64969 33929
" />
<path d="M67800 33929
L67341 33929
" />
<path d="M68887 33929
L68718 33929
" />
<path d="M70893 33929
L69710 33929
" />
<path d="M71350 33929
L71250 33929
" />
<path d="M73474 33929
L71706 33929
" />
<path d="M76730 33929
L75124 33929
" />
<path d="M66253 34009
L64969 34009
" />
<path d="M67870 34009
L67347 34009
" />
<path d="M68968 34009
L68649 34009
" />
<path d="M70972 34009
L69631 34009
" />
<path d="M71350 34009
L71250 34009
" />
<path d="M73401 34009
L71627 34009
" />
<path d="M76730 34009
L75197 34009
" />
<path d="M66262 34089
L64969 34089
" />
<path d="M67974 34089
L67338 34089
" />
<path d="M69107 34089
L68542 34089
" />
<path d="M71116 34089
L69490 34089
" />
<path d="M71398 34089
L71201 34089
" />
<path d="M73349 34089
L71483 34089
" />
<path d="M76730 34089
L75250 34089
" />
<path d="M66288 34169
L64969 34169
" />
<path d="M69095 34169
L67312 34169
" />
<path d="M71064 34169
L69487 34169
" />
<path d="M73310 34169
L71456 34169
" />
<path d="M76730 34169
L75290 34169
" />
<path d="M66334 34249
L64969 34249
" />
<path d="M68947 34249
L67265 34249
" />
<path d="M70916 34249
L69634 34249
" />
<path d="M73285 34249
L71602 34249
" />
<path d="M76730 34249
L75314 34249
" />
<path d="M66288 34329
L64969 34329
" />
<path d="M68862 34329
L67311 34329
" />
<path d="M70830 34329
L69719 34329
" />
<path d="M73272 34329
L71688 34329
" />
<path d="M76730 34329
L75327 34329
" />
<path d="M66262 34409
L64969 34409
" />
<path d="M68805 34409
L67337 34409
" />
<path d="M70774 34409
L69776 34409
" />
<path d="M73266 34409
L71745 34409
" />
<path d="M76730 34409
L75333 34409
" />
<path d="M66252 34489
L64969 34489
" />
<path d="M68766 34489
L67346 34489
" />
<path d="M70735 34489
L69815 34489
" />
<path d="M73274 34489
L71784 34489
" />
<path d="M76730 34489
L75325 34489
" />
<path d="M66258 34569
L64969 34569
" />
<path d="M68741 34569
L67340 34569
" />
<path d="M70710 34569
L69841 34569
" />
<path d="M73291 34569
L71810 34569
" />
<path d="M76730 34569
L75308 34569
" />
<path d="M66280 34649
L64969 34649
" />
<path d="M68727 34649
L67319 34649
" />
<path d="M70695 34649
L69856 34649
" />
<path d="M73317 34649
L71824 34649
" />
<path d="M76730 34649
L75283 34649
" />
<path d="M66273 34729
L64969 34729
" />
<path d="M68726 34729
L67326 34729
" />
<path d="M70694 34729
L69855 34729
" />
<path d="M73359 34729
L71823 34729
" />
<path d="M76730 34729
L75240 34729
" />
<path d="M66255 34809
L64969 34809
" />
<path d="M68737 34809
L67345 34809
" />
<path d="M70705 34809
L69845 34809
" />
<path d="M73417 34809
L71814 34809
" />
<path d="M76730 34809
L75182 34809
" />
<path d="M66253 34889
L64969 34889
" />
<path d="M68758 34889
L67346 34889
" />
<path d="M70727 34889
L69825 34889
" />
<path d="M73498 34889
L71793 34889
" />
<path d="M76730 34889
L75101 34889
" />
<path d="M66253 34969
L64969 34969
" />
<path d="M68793 34969
L67346 34969
" />
<path d="M70761 34969
L69789 34969
" />
<path d="M73619 34969
L71758 34969
" />
<path d="M76730 34969
L74979 34969
" />
<path d="M66253 35049
L64969 35049
" />
<path d="M68032 35049
L67346 35049
" />
<path d="M68844 35049
L68484 35049
" />
<path d="M70813 35049
L69736 35049
" />
<path d="M76730 35049
L71704 35049
" />
<path d="M66253 35129
L64969 35129
" />
<path d="M67953 35129
L67346 35129
" />
<path d="M68921 35129
L68566 35129
" />
<path d="M70889 35129
L69659 35129
" />
<path d="M76730 35129
L71628 35129
" />
<path d="M66256 35209
L64969 35209
" />
<path d="M67971 35209
L67341 35209
" />
<path d="M69046 35209
L68548 35209
" />
<path d="M71015 35209
L69539 35209
" />
<path d="M76730 35209
L71508 35209
" />
<path d="M66281 35289
L64969 35289
" />
<path d="M67766 35289
L67317 35289
" />
<path d="M68051 35289
L67910 35289
" />
<path d="M68609 35289
L68468 35289
" />
<path d="M69170 35289
L68753 35289
" />
<path d="M76730 35289
L69427 35289
" />
<path d="M66347 35369
L64969 35369
" />
<path d="M67729 35369
L67255 35369
" />
<path d="M68131 35369
L67990 35369
" />
<path d="M68529 35369
L68388 35369
" />
<path d="M68997 35369
L68788 35369
" />
<path d="M71000 35369
L69601 35369
" />
<path d="M71350 35369
L71250 35369
" />
<path d="M76730 35369
L71599 35369
" />
<path d="M67707 35449
L64969 35449
" />
<path d="M68211 35449
L68070 35449
" />
<path d="M68449 35449
L68308 35449
" />
<path d="M68906 35449
L68813 35449
" />
<path d="M70908 35449
L69692 35449
" />
<path d="M71350 35449
L71250 35449
" />
<path d="M76730 35449
L71691 35449
" />
<path d="M65365 35529
L64969 35529
" />
<path d="M67696 35529
L65834 35529
" />
<path d="M68369 35529
L68150 35529
" />
<path d="M68848 35529
L68825 35529
" />
<path d="M70849 35529
L69751 35529
" />
<path d="M71350 35529
L71250 35529
" />
<path d="M76730 35529
L71750 35529
" />
<path d="M65247 35609
L64969 35609
" />
<path d="M67694 35609
L65951 35609
" />
<path d="M68371 35609
L68148 35609
" />
<path d="M70811 35609
L69790 35609
" />
<path d="M71350 35609
L71250 35609
" />
<path d="M76730 35609
L71788 35609
" />
<path d="M65175 35689
L64969 35689
" />
<path d="M67706 35689
L66023 35689
" />
<path d="M68209 35689
L68068 35689
" />
<path d="M68451 35689
L68310 35689
" />
<path d="M70803 35689
L69813 35689
" />
<path d="M71350 35689
L71250 35689
" />
<path d="M76730 35689
L71796 35689
" />
<path d="M65128 35769
L64969 35769
" />
<path d="M67731 35769
L66071 35769
" />
<path d="M68129 35769
L67988 35769
" />
<path d="M68531 35769
L68390 35769
" />
<path d="M73383 35769
L69825 35769
" />
<path d="M74371 35769
L74228 35769
" />
<path d="M76730 35769
L75216 35769
" />
<path d="M65098 35849
L64969 35849
" />
<path d="M67767 35849
L66101 35849
" />
<path d="M68049 35849
L67908 35849
" />
<path d="M68611 35849
L68470 35849
" />
<path d="M68774 35849
L68751 35849
" />
<path d="M73306 35849
L69824 35849
" />
<path d="M74350 35849
L74250 35849
" />
<path d="M76730 35849
L75293 35849
" />
<path d="M65081 35929
L64969 35929
" />
<path d="M67969 35929
L66118 35929
" />
<path d="M68789 35929
L68550 35929
" />
<path d="M70791 35929
L69809 35929
" />
<path d="M71350 35929
L71250 35929
" />
<path d="M73275 35929
L71808 35929
" />
<path d="M74350 35929
L74250 35929
" />
<path d="M76730 35929
L75324 35929
" />
<path d="M65075 36009
L64969 36009
" />
<path d="M67954 36009
L66125 36009
" />
<path d="M68817 36009
L68565 36009
" />
<path d="M70820 36009
L69781 36009
" />
<path d="M71350 36009
L71250 36009
" />
<path d="M73270 36009
L71779 36009
" />
<path d="M74350 36009
L74250 36009
" />
<path d="M76730 36009
L75329 36009
" />
<path d="M65082 36089
L64969 36089
" />
<path d="M68040 36089
L66116 36089
" />
<path d="M68861 36089
L68480 36089
" />
<path d="M70863 36089
L69738 36089
" />
<path d="M71350 36089
L71250 36089
" />
<path d="M73270 36089
L71736 36089
" />
<path d="M74350 36089
L74250 36089
" />
<path d="M76730 36089
L75329 36089
" />
<path d="M65104 36169
L64969 36169
" />
<path d="M68926 36169
L66095 36169
" />
<path d="M70929 36169
L69673 36169
" />
<path d="M71350 36169
L71250 36169
" />
<path d="M73270 36169
L71670 36169
" />
<path d="M74350 36169
L74250 36169
" />
<path d="M76730 36169
L75329 36169
" />
<path d="M65138 36249
L64969 36249
" />
<path d="M69026 36249
L66061 36249
" />
<path d="M71032 36249
L69572 36249
" />
<path d="M71350 36249
L71250 36249
" />
<path d="M73270 36249
L71567 36249
" />
<path d="M74350 36249
L74250 36249
" />
<path d="M76730 36249
L75329 36249
" />
<path d="M65191 36329
L64969 36329
" />
<path d="M76730 36329
L66008 36329
" />
<path d="M65271 36409
L64969 36409
" />
<path d="M66310 36409
L65928 36409
" />
<path d="M68311 36409
L66689 36409
" />
<path d="M69048 36409
L68686 36409
" />
<path d="M71017 36409
L69614 36409
" />
<path d="M76730 36409
L71583 36409
" />
<path d="M65404 36489
L64969 36489
" />
<path d="M66167 36489
L65797 36489
" />
<path d="M68172 36489
L66831 36489
" />
<path d="M68942 36489
L68827 36489
" />
<path d="M70911 36489
L69720 36489
" />
<path d="M73270 36489
L71688 36489
" />
<path d="M74350 36489
L74250 36489
" />
<path d="M76730 36489
L75329 36489
" />
<path d="M66089 36569
L64969 36569
" />
<path d="M68091 36569
L66911 36569
" />
<path d="M70841 36569
L69790 36569
" />
<path d="M73270 36569
L71758 36569
" />
<path d="M74350 36569
L74250 36569
" />
<path d="M76730 36569
L75329 36569
" />
<path d="M66035 36649
L64969 36649
" />
<path d="M68038 36649
L66964 36649
" />
<path d="M70792 36649
L69839 36649
" />
<path d="M73270 36649
L71807 36649
" />
<path d="M74350 36649
L74250 36649
" />
<path d="M76730 36649
L75329 36649
" />
<path d="M66001 36729
L64969 36729
" />
<path d="M68002 36729
L66998 36729
" />
<path d="M70758 36729
L69872 36729
" />
<path d="M73270 36729
L71840 36729
" />
<path d="M74350 36729
L74250 36729
" />
<path d="M76730 36729
L75329 36729
" />
<path d="M65981 36809
L64969 36809
" />
<path d="M67980 36809
L67017 36809
" />
<path d="M70741 36809
L69889 36809
" />
<path d="M73275 36809
L71858 36809
" />
<path d="M74350 36809
L74250 36809
" />
<path d="M76730 36809
L75324 36809
" />
<path d="M65974 36889
L64969 36889
" />
<path d="M67972 36889
L67025 36889
" />
<path d="M70735 36889
L69895 36889
" />
<path d="M73307 36889
L71864 36889
" />
<path d="M74350 36889
L74250 36889
" />
<path d="M76730 36889
L75292 36889
" />
<path d="M65978 36969
L64969 36969
" />
<path d="M67978 36969
L67023 36969
" />
<path d="M70738 36969
L69894 36969
" />
<path d="M73386 36969
L71863 36969
" />
<path d="M74373 36969
L74226 36969
" />
<path d="M76730 36969
L75213 36969
" />
<path d="M65993 37049
L64969 37049
" />
<path d="M67996 37049
L67004 37049
" />
<path d="M70753 37049
L69876 37049
" />
<path d="M76730 37049
L71845 37049
" />
<path d="M66025 37129
L64969 37129
" />
<path d="M68027 37129
L66973 37129
" />
<path d="M70783 37129
L69847 37129
" />
<path d="M76730 37129
L71816 37129
" />
<path d="M66074 37209
L64969 37209
" />
<path d="M68075 37209
L66924 37209
" />
<path d="M70827 37209
L69804 37209
" />
<path d="M76730 37209
L71772 37209
" />
<path d="M66145 37289
L64969 37289
" />
<path d="M68148 37289
L66852 37289
" />
<path d="M68922 37289
L68852 37289
" />
<path d="M70890 37289
L69741 37289
" />
<path d="M76730 37289
L71710 37289
" />
<path d="M66262 37369
L64969 37369
" />
<path d="M68266 37369
L66740 37369
" />
<path d="M69017 37369
L68733 37369
" />
<path d="M70985 37369
L69645 37369
" />
<path d="M76730 37369
L71614 37369
" />
<path d="M69200 37449
L64969 37449
" />
<path d="M71169 37449
L69467 37449
" />
<path d="M76730 37449
L71436 37449
" />
<path d="M65360 37529
L64969 37529
" />
<path d="M76730 37529
L65837 37529
" />
<path d="M65247 37609
L64969 37609
" />
<path d="M76730 37609
L65953 37609
" />
<path d="M65175 37689
L64969 37689
" />
<path d="M76730 37689
L66024 37689
" />
<path d="M65126 37769
L64969 37769
" />
<path d="M76730 37769
L66073 37769
" />
<path d="M65094 37849
L64969 37849
" />
<path d="M76730 37849
L66106 37849
" />
<path d="M65077 37929
L64969 37929
" />
<path d="M76730 37929
L66121 37929
" />
<path d="M65074 38009
L64969 38009
" />
<path d="M76730 38009
L66124 38009
" />
<path d="M65082 38089
L64969 38089
" />
<path d="M76730 38089
L66118 38089
" />
<path d="M65101 38169
L64969 38169
" />
<path d="M76730 38169
L66099 38169
" />
<path d="M65135 38249
L64969 38249
" />
<path d="M76730 38249
L66064 38249
" />
<path d="M65187 38329
L64969 38329
" />
<path d="M73666 38329
L66010 38329
" />
<path d="M74350 38329
L74250 38329
" />
<path d="M76730 38329
L74933 38329
" />
<path d="M65268 38409
L64969 38409
" />
<path d="M73522 38409
L65931 38409
" />
<path d="M74350 38409
L74250 38409
" />
<path d="M76730 38409
L75077 38409
" />
<path d="M65407 38489
L64969 38489
" />
<path d="M73436 38489
L65790 38489
" />
<path d="M74350 38489
L74250 38489
" />
<path d="M76730 38489
L75163 38489
" />
<path d="M73375 38569
L64969 38569
" />
<path d="M74350 38569
L74250 38569
" />
<path d="M76730 38569
L75224 38569
" />
<path d="M73331 38649
L64969 38649
" />
<path d="M74350 38649
L74250 38649
" />
<path d="M76730 38649
L75268 38649
" />
<path d="M73298 38729
L64969 38729
" />
<path d="M74350 38729
L74250 38729
" />
<path d="M76730 38729
L75301 38729
" />
<path d="M73306 38809
L64969 38809
" />
<path d="M74350 38809
L74250 38809
" />
<path d="M76730 38809
L75293 38809
" />
<path d="M76730 38889
L64969 38889
" />
<path d="M76730 38969
L64969 38969
" />
<path d="M73297 39049
L64969 39049
" />
<path d="M74350 39049
L74250 39049
" />
<path d="M76730 39049
L75302 39049
" />
<path d="M67749 39129
L64969 39129
" />
<path d="M70019 39129
L68797 39129
" />
<path d="M70343 39129
L70136 39129
" />
<path d="M73304 39129
L70460 39129
" />
<path d="M74350 39129
L74250 39129
" />
<path d="M76730 39129
L75295 39129
" />
<path d="M67667 39209
L64969 39209
" />
<path d="M69870 39209
L68872 39209
" />
<path d="M70290 39209
L70190 39209
" />
<path d="M73339 39209
L70609 39209
" />
<path d="M74350 39209
L74250 39209
" />
<path d="M76730 39209
L75260 39209
" />
<path d="M67637 39289
L64969 39289
" />
<path d="M69777 39289
L68905 39289
" />
<path d="M70290 39289
L70190 39289
" />
<path d="M73389 39289
L70702 39289
" />
<path d="M74350 39289
L74250 39289
" />
<path d="M76730 39289
L75210 39289
" />
<path d="M67630 39369
L64969 39369
" />
<path d="M69712 39369
L68912 39369
" />
<path d="M70290 39369
L70190 39369
" />
<path d="M73456 39369
L70767 39369
" />
<path d="M74350 39369
L74250 39369
" />
<path d="M76730 39369
L75143 39369
" />
<path d="M67630 39449
L64969 39449
" />
<path d="M69663 39449
L68912 39449
" />
<path d="M70290 39449
L70190 39449
" />
<path d="M73553 39449
L70816 39449
" />
<path d="M74350 39449
L74250 39449
" />
<path d="M76730 39449
L75046 39449
" />
<path d="M67630 39529
L64969 39529
" />
<path d="M69632 39529
L68912 39529
" />
<path d="M70290 39529
L70190 39529
" />
<path d="M73715 39529
L70847 39529
" />
<path d="M74350 39529
L74250 39529
" />
<path d="M76730 39529
L74884 39529
" />
<path d="M67630 39609
L64969 39609
" />
<path d="M69612 39609
L68912 39609
" />
<path d="M70290 39609
L70190 39609
" />
<path d="M76730 39609
L70867 39609
" />
<path d="M67630 39689
L64969 39689
" />
<path d="M69600 39689
L68912 39689
" />
<path d="M70290 39689
L70190 39689
" />
<path d="M76730 39689
L70879 39689
" />
<path d="M67630 39769
L64969 39769
" />
<path d="M69600 39769
L68912 39769
" />
<path d="M70290 39769
L70190 39769
" />
<path d="M76730 39769
L70879 39769
" />
<path d="M67630 39849
L64969 39849
" />
<path d="M69600 39849
L68912 39849
" />
<path d="M70290 39849
L70190 39849
" />
<path d="M76730 39849
L70879 39849
" />
<path d="M67630 39929
L64969 39929
" />
<path d="M69600 39929
L68912 39929
" />
<path d="M70290 39929
L70190 39929
" />
<path d="M76730 39929
L70879 39929
" />
<path d="M67630 40009
L64969 40009
" />
<path d="M69600 40009
L68912 40009
" />
<path d="M70290 40009
L70190 40009
" />
<path d="M76730 40009
L70879 40009
" />
<path d="M67630 40089
L64969 40089
" />
<path d="M76730 40089
L68912 40089
" />
<path d="M67630 40169
L64969 40169
" />
<path d="M76730 40169
L68912 40169
" />
<path d="M67630 40249
L64969 40249
" />
<path d="M69600 40249
L68912 40249
" />
<path d="M70290 40249
L70190 40249
" />
<path d="M73493 40249
L70879 40249
" />
<path d="M76730 40249
L75094 40249
" />
<path d="M67630 40329
L64969 40329
" />
<path d="M69600 40329
L68912 40329
" />
<path d="M70290 40329
L70190 40329
" />
<path d="M73337 40329
L70879 40329
" />
<path d="M76730 40329
L75264 40329
" />
<path d="M67630 40409
L64969 40409
" />
<path d="M69600 40409
L68912 40409
" />
<path d="M70290 40409
L70190 40409
" />
<path d="M73287 40409
L70879 40409
" />
<path d="M76730 40409
L75312 40409
" />
<path d="M67630 40489
L64969 40489
" />
<path d="M69600 40489
L68912 40489
" />
<path d="M70290 40489
L70190 40489
" />
<path d="M73270 40489
L70879 40489
" />
<path d="M76730 40489
L75330 40489
" />
<path d="M67630 40569
L64969 40569
" />
<path d="M69602 40569
L68912 40569
" />
<path d="M70290 40569
L70190 40569
" />
<path d="M73269 40569
L70877 40569
" />
<path d="M76730 40569
L75330 40569
" />
<path d="M67630 40649
L64969 40649
" />
<path d="M69616 40649
L68912 40649
" />
<path d="M70290 40649
L70190 40649
" />
<path d="M73269 40649
L70863 40649
" />
<path d="M76730 40649
L75330 40649
" />
<path d="M67630 40729
L64969 40729
" />
<path d="M69640 40729
L68912 40729
" />
<path d="M70290 40729
L70190 40729
" />
<path d="M73269 40729
L70839 40729
" />
<path d="M76730 40729
L75330 40729
" />
<path d="M67630 40809
L64969 40809
" />
<path d="M69673 40809
L68912 40809
" />
<path d="M70290 40809
L70190 40809
" />
<path d="M73269 40809
L70806 40809
" />
<path d="M76730 40809
L75330 40809
" />
<path d="M67630 40889
L64969 40889
" />
<path d="M69724 40889
L68912 40889
" />
<path d="M70290 40889
L70190 40889
" />
<path d="M73269 40889
L70755 40889
" />
<path d="M76730 40889
L75330 40889
" />
<path d="M67643 40969
L64969 40969
" />
<path d="M69796 40969
L68902 40969
" />
<path d="M70290 40969
L70190 40969
" />
<path d="M73269 40969
L70683 40969
" />
<path d="M76730 40969
L75330 40969
" />
<path d="M67682 41049
L64969 41049
" />
<path d="M69897 41049
L68860 41049
" />
<path d="M70290 41049
L70190 41049
" />
<path d="M73269 41049
L70582 41049
" />
<path d="M76730 41049
L75330 41049
" />
<path d="M67787 41129
L64969 41129
" />
<path d="M70081 41129
L68758 41129
" />
<path d="M70384 41129
L70095 41129
" />
<path d="M73269 41129
L70398 41129
" />
<path d="M76730 41129
L75330 41129
" />
<path d="M73269 41209
L64969 41209
" />
<path d="M76730 41209
L75330 41209
" />
<path d="M73270 41289
L64969 41289
" />
<path d="M76730 41289
L75329 41289
" />
<path d="M73288 41369
L64969 41369
" />
<path d="M76730 41369
L75311 41369
" />
<path d="M73338 41449
L64969 41449
" />
<path d="M76730 41449
L75260 41449
" />
<path d="M76730 41529
L64969 41529
" />
<path d="M76730 41609
L64969 41609
" />
<path d="M76730 41689
L64969 41689
" />
<path d="M76730 41769
L64969 41769
" />
<path d="M76730 41849
L64969 41849
" />
<path d="M76730 41929
L64969 41929
" />
<path d="M76730 42009
L64969 42009
" />
<path d="M76730 42089
L64969 42089
" />
<path d="M76730 42169
L64969 42169
" />
<path d="M76730 42249
L64969 42249
" />
<path d="M76726 42329
L64973 42329
" />
<path d="M76699 42409
L65000 42409
" />
<path d="M76628 42489
L65071 42489
" />
<polyline fill="none;"
points="76544,32975
76587,32988
76626,33009
76661,33037
76689,33071
76711,33111
76724,33153
76730,33210
76730,42286
76724,42344
76711,42387
76690,42426
76662,42461
76628,42489
76588,42511
76546,42524
76489,42530
65213,42530
65155,42524
65112,42511
65073,42490
65038,42462
65010,42428
64988,42388
64975,42346
64969,42289
64969,39340
67630,39340
67630,40899
67633,40939
67654,41006
67693,41065
67747,41111
67811,41140
67881,41150
68661,41150
68701,41147
68768,41126
68827,41087
68873,41033
68902,40969
68912,40899
68912,40170
69600,40170
69600,40559
69622,40683
69668,40800
69735,40906
69822,40997
69926,41069
70041,41119
70090,41131
70190,41084
70190,40170
70290,40170
70290,41084
70389,41131
70438,41119
70553,41069
70657,40997
70744,40906
70811,40800
70857,40683
70879,40559
70879,40498
73269,40498
73269,41278
73272,41318
73293,41385
73332,41444
73386,41490
73450,41519
73520,41529
75079,41529
75119,41526
75186,41505
75245,41466
75291,41412
75320,41348
75330,41278
75330,40498
75327,40458
75306,40391
75267,40332
75213,40286
75149,40257
75079,40247
73520,40247
73480,40250
73413,40271
73354,40310
73308,40364
73279,40428
73269,40498
70879,40498
70879,40170
70290,40170
70190,40170
69600,40170
68912,40170
68912,39680
69600,39680
69600,40070
70190,40070
70190,39155
70290,39155
70290,40070
70879,40070
70879,39680
70857,39556
70811,39439
70744,39333
70657,39242
70553,39170
70438,39120
70389,39108
70290,39155
70190,39155
70090,39108
70041,39120
69926,39170
69822,39242
69735,39333
69668,39439
69622,39556
69600,39680
68912,39680
68912,39340
68909,39300
68888,39233
68849,39174
68795,39128
68731,39099
68661,39089
67881,39089
67841,39092
67774,39113
67715,39152
67669,39206
67640,39270
67630,39340
64969,39340
64969,39069
73288,39069
73300,39118
73350,39233
73422,39337
73513,39424
73619,39491
73736,39537
73860,39559
74250,39559
74250,38970
74350,38970
74350,39559
74739,39559
74863,39537
74980,39491
75086,39424
75177,39337
75249,39233
75299,39118
75311,39069
75264,38970
74350,38970
74250,38970
73335,38970
73288,39069
64969,39069
64969,38770
73288,38770
73335,38870
74250,38870
74250,38280
74350,38280
74350,38870
75264,38870
75311,38770
75299,38721
75249,38606
75177,38502
75086,38415
74980,38348
74863,38302
74739,38280
74350,38280
74250,38280
73860,38280
73736,38302
73619,38348
73513,38415
73422,38502
73350,38606
73300,38721
73288,38770
64969,38770
64969,38044
65073,38044
65092,38145
65130,38241
65186,38328
65257,38402
65342,38461
65436,38502
65537,38524
65640,38526
65742,38508
65838,38471
65925,38416
65999,38345
66059,38260
66101,38166
66123,38066
66125,37948
66105,37847
66066,37752
66009,37666
65936,37593
65851,37535
65756,37495
65655,37474
65552,37474
65450,37493
65355,37531
65269,37588
65195,37660
65137,37745
65096,37840
65075,37941
65073,38044
64969,38044
64969,36944
65973,36944
65992,37045
66030,37141
66086,37228
66157,37302
66242,37361
66336,37402
66437,37424
66540,37426
66642,37408
66738,37371
66825,37316
66899,37245
66959,37160
67001,37066
67023,36966
67024,36896
67971,36896
67981,36998
68010,37096
68057,37187
68121,37267
68200,37333
68290,37383
68388,37414
68490,37425
68497,37425
68502,37425
68604,37415
68702,37385
68793,37337
68872,37272
68888,37254
68963,37332
69054,37395
69156,37439
69264,37463
69375,37466
69484,37446
69587,37406
69681,37347
69761,37270
69825,37180
69870,37079
69894,36971
69895,36947
70734,36947
70754,37056
70795,37159
70855,37252
70932,37332
71023,37395
71124,37439
71232,37463
71343,37466
71452,37446
71555,37406
71649,37347
71729,37270
71793,37180
71838,37079
71863,36971
71864,36844
71843,36735
71801,36633
71739,36541
71680,36481
73270,36481
73270,36782
73280,36831
73298,36876
73326,36917
73361,36952
73402,36979
73447,36998
73495,37008
74187,37008
74250,36945
74250,36418
74350,36418
74350,36945
74412,37008
75104,37008
75152,36998
75197,36979
75238,36952
75273,36917
75301,36876
75319,36831
75329,36782
75329,36481
75267,36418
74350,36418
74250,36418
73332,36418
73270,36481
71680,36481
71661,36462
71570,36400
71467,36357
71359,36335
71248,36334
71139,36355
71036,36396
70944,36457
70865,36535
70802,36626
70758,36728
70735,36836
70734,36947
69895,36947
69896,36844
69874,36735
69832,36633
69771,36541
69693,36462
69601,36400
69499,36357
69390,36335
69280,36334
69171,36355
69068,36396
68975,36457
68896,36535
68889,36546
68878,36532
68799,36466
68709,36416
68611,36385
68509,36374
68502,36374
68497,36374
68395,36384
68297,36414
68206,36462
68127,36527
68061,36606
68012,36696
67982,36794
67971,36896
67024,36896
67025,36848
67005,36747
66966,36652
66909,36566
66836,36493
66751,36435
66656,36395
66555,36374
66452,36374
66350,36393
66255,36431
66169,36488
66095,36560
66037,36645
65996,36740
65975,36841
65973,36944
64969,36944
64969,35997
65074,35997
65074,36002
65084,36104
65114,36202
65162,36293
65227,36372
65306,36438
65396,36487
65494,36517
65596,36528
65698,36518
65796,36489
65887,36442
65967,36378
66033,36299
66083,36209
66114,36111
66125,36009
66125,36002
66125,35997
66121,35959
67939,35959
67968,36055
68068,36102
68176,36130
68287,36135
68397,36119
68502,36081
68551,36055
68580,35959
68260,35639
67939,35959
66121,35959
66115,35895
66085,35797
66037,35706
65972,35627
65935,35596
67692,35596
67709,35706
67746,35811
67773,35860
67869,35888
68189,35568
68330,35568
68650,35888
68746,35860
68774,35802
68773,35844
68792,35945
68830,36041
68886,36128
68957,36202
69042,36261
69136,36302
69237,36324
69340,36326
69442,36308
69538,36271
69625,36216
69699,36145
69759,36060
69801,35966
69809,35931
70791,35931
70803,35973
70847,36067
70908,36150
70983,36219
71071,36273
71168,36308
71250,36260
71250,35850
71350,35850
71350,36260
71431,36308
71528,36273
71616,36219
71691,36150
71752,36067
71796,35973
71802,35954
73270,35954
73270,36256
73332,36318
74250,36318
74250,35791
74350,35791
74350,36318
75267,36318
75329,36256
75329,35954
75319,35905
75301,35860
75273,35819
75238,35784
75197,35757
75152,35738
75104,35728
74412,35728
74350,35791
74250,35791
74187,35728
73495,35728
73447,35738
73402,35757
73361,35784
73326,35819
73298,35860
73280,35905
73270,35954
71802,35954
71808,35931
71760,35850
71350,35850
71250,35850
70839,35850
70791,35931
69809,35931
69823,35866
69825,35748
69809,35668
70791,35668
70839,35750
71250,35750
71250,35339
71350,35339
71350,35750
71760,35750
71808,35668
71796,35626
71752,35532
71691,35449
71616,35380
71528,35326
71431,35291
71350,35339
71250,35339
71168,35291
71071,35326
70983,35380
70908,35449
70847,35532
70803,35626
70791,35668
69809,35668
69805,35647
69766,35552
69709,35466
69636,35393
69551,35335
69456,35295
69355,35274
69252,35274
69150,35293
69055,35331
68969,35388
68895,35460
68837,35545
68825,35573
68827,35540
68810,35430
68773,35325
68746,35276
68650,35248
68330,35568
68189,35568
67869,35248
67773,35276
67725,35377
67698,35485
67692,35596
65935,35596
65893,35561
65803,35512
65705,35482
65603,35471
65501,35481
65403,35510
65312,35557
65232,35621
65166,35700
65116,35790
65085,35888
65074,35990
65074,35997
64969,35997
64969,33997
66252,33997
66259,34080
66283,34160
66321,34233
66334,34249
66325,34261
66285,34334
66260,34414
66252,34497
66259,34580
66283,34660
66295,34684
66292,34688
66263,34752
66253,34822
66253,35177
66256,35216
66277,35284
66316,35343
66370,35389
66434,35418
66504,35428
67095,35428
67135,35425
67202,35404
67261,35365
67307,35311
67336,35247
67346,35177
67939,35177
68260,35497
68580,35177
68551,35081
68451,35034
68343,35006
68232,35001
68122,35017
68017,35055
67968,35081
67939,35177
67346,35177
67346,35177
67346,34822
67343,34783
67332,34747
68725,34747
68745,34856
68786,34959
68846,35052
68923,35132
69014,35195
69116,35239
69224,35263
69335,35266
69444,35246
69547,35206
69641,35147
69721,35070
69785,34980
69830,34879
69854,34771
69855,34747
70694,34747
70714,34856
70755,34959
70815,35052
70892,35132
70983,35195
71084,35239
71192,35263
71303,35266
71412,35246
71515,35206
71609,35147
71689,35070
71753,34980
71798,34879
71823,34771
71824,34644
71803,34535
71761,34433
71736,34395
73265,34395
73276,34519
73312,34639
73369,34750
73448,34847
73543,34927
73653,34988
73772,35025
73896,35039
73905,35039
74694,35039
74819,35027
74938,34991
75048,34932
75145,34853
75225,34757
75284,34647
75321,34528
75334,34404
75323,34280
75287,34160
75230,34049
75151,33952
75056,33872
74946,33811
74827,33774
74703,33760
74694,33760
73905,33760
73780,33772
73661,33808
73551,33867
73454,33946
73374,34042
73315,34152
73278,34271
73265,34395
71736,34395
71699,34341
71621,34262
71530,34200
71427,34157
71319,34135
71208,34134
71099,34155
70996,34196
70904,34257
70825,34335
70762,34426
70718,34528
70695,34636
70694,34747
69855,34747
69856,34644
69834,34535
69792,34433
69731,34341
69653,34262
69561,34200
69459,34157
69350,34135
69240,34134
69131,34155
69028,34196
68935,34257
68856,34335
68794,34426
68750,34528
68727,34636
68725,34747
67332,34747
67322,34715
67303,34686
67314,34665
67339,34585
67347,34502
67340,34419
67316,34339
67278,34266
67265,34250
67274,34238
67314,34165
67339,34085
67347,34002
67340,33919
67316,33839
67278,33766
67225,33701
67162,33647
67162,33647
67694,33647
67714,33756
67755,33859
67815,33952
67892,34032
67983,34095
68084,34139
68192,34163
68303,34166
68412,34146
68515,34106
68609,34047
68689,33970
68753,33880
68798,33779
68801,33768
68830,33841
68886,33928
68957,34002
69042,34061
69136,34102
69237,34124
69340,34126
69442,34108
69538,34071
69625,34016
69699,33945
69759,33860
69801,33766
69809,33731
70791,33731
70803,33773
70847,33867
70908,33950
70983,34019
71071,34073
71168,34108
71250,34060
71250,33650
71350,33650
71350,34060
71431,34108
71528,34073
71616,34019
71691,33950
71752,33867
71796,33773
71808,33731
71760,33650
71350,33650
71250,33650
70839,33650
70791,33731
69809,33731
69823,33666
69825,33548
69809,33468
70791,33468
70839,33550
71250,33550
71250,33139
71350,33139
71350,33550
71760,33550
71808,33468
71796,33426
71752,33332
71691,33249
71616,33180
71528,33126
71431,33091
71350,33139
71250,33139
71168,33091
71071,33126
70983,33180
70908,33249
70847,33332
70803,33426
70791,33468
69809,33468
69805,33447
69766,33352
69709,33266
69636,33193
69551,33135
69456,33095
69355,33074
69252,33074
69150,33093
69055,33131
68969,33188
68895,33260
68837,33345
68801,33429
68761,33333
68699,33241
68621,33162
68530,33100
68427,33057
68319,33035
68208,33034
68099,33055
67996,33096
67904,33157
67825,33235
67762,33326
67718,33428
67695,33536
67694,33647
67162,33647
67089,33607
67009,33582
66926,33572
66920,33572
66679,33572
66596,33580
66516,33605
66442,33644
66378,33696
66325,33761
66285,33834
66260,33914
66252,33997
64969,33997
64969,33213
64975,33155
64988,33112
65009,33073
65037,33038
65071,33010
65111,32988
65153,32975
65210,32969
76486,32969
76544,32975
" /> 
</g>
<g style="fill:#FFFFFF; fill-opacity:0.0; 
stroke:#FFFFFF; stroke-width:100; stroke-opacity:1; 
stroke-linecap:round; stroke-linejoin:round;">
</g>
<g style="fill:#FFFFFF; fill-opacity:1.0; 
stroke:#FFFFFF; stroke-width:0; stroke-opacity:1; 
stroke-linecap:round; stroke-linejoin:round;">
<circle cx="69291.5" cy="34700" r="157.48" /> 
</g>
<g style="fill:#FFFFFF; fill-opacity:1.0; 
stroke:#FFFFFF; stroke-width:39.3701; stroke-opacity:1; 
stroke-linecap:round; stroke-linejoin:round;">
</g>
<g style="fill:#FFFFFF; fill-opacity:1.0; 
stroke:#FFFFFF; stroke-width:0; stroke-opacity:1; 
stroke-linecap:round; stroke-linejoin:round;">
<circle cx="71260" cy="34700" r="157.48" /> 
</g>
<g style="fill:#FFFFFF; fill-opacity:1.0; 
stroke:#FFFFFF; stroke-width:39.3701; stroke-opacity:1; 
stroke-linecap:round; stroke-linejoin:round;">
</g>
<g style="fill:#FFFFFF; fill-opacity:1.0; 
stroke:#FFFFFF; stroke-width:0; stroke-opacity:1; 
stroke-linecap:round; stroke-linejoin:round;">
<circle cx="71300" cy="36900" r="157.48" /> 
</g>
<g style="fill:#FFFFFF; fill-opacity:1.0; 
stroke:#FFFFFF; stroke-width:39.3701; stroke-opacity:1; 
stroke-linecap:round; stroke-linejoin:round;">
</g>
<g style="fill:#FFFFFF; fill-opacity:1.0; 
stroke:#FFFFFF; stroke-width:0; stroke-opacity:1; 
stroke-linecap:round; stroke-linejoin:round;">
<circle cx="69331.5" cy="36900" r="157.48" /> 
</g>
<g style="fill:#FFFFFF; fill-opacity:1.0; 
stroke:#FFFFFF; stroke-width:39.3701; stroke-opacity:1; 
stroke-linecap:round; stroke-linejoin:round;">
</g>
<g style="fill:#FFFFFF; fill-opacity:1.0; 
stroke:#FFFFFF; stroke-width:0; stroke-opacity:1; 
stroke-linecap:round; stroke-linejoin:round;">
<circle cx="68260" cy="35568.5" r="157.48" /> 
</g>
<g style="fill:#FFFFFF; fill-opacity:1.0; 
stroke:#FFFFFF; stroke-width:39.3701; stroke-opacity:1; 
stroke-linecap:round; stroke-linejoin:round;">
</g>
<g style="fill:#FFFFFF; fill-opacity:1.0; 
stroke:#FFFFFF; stroke-width:0; stroke-opacity:1; 
stroke-linecap:round; stroke-linejoin:round;">
<circle cx="68260" cy="33600" r="157.48" /> 
</g>
<g style="fill:#FFFFFF; fill-opacity:1.0; 
stroke:#FFFFFF; stroke-width:39.3701; stroke-opacity:1; 
stroke-linecap:round; stroke-linejoin:round;">
</g>
<g style="fill:#FFFFFF; fill-opacity:1.0; 
stroke:#FFFFFF; stroke-width:0; stroke-opacity:1; 
stroke-linecap:round; stroke-linejoin:round;">
<circle cx="68271.5" cy="40120" r="259.843" /> 
</g>
<g style="fill:#FFFFFF; fill-opacity:1.0; 
stroke:#FFFFFF; stroke-width:39.3701; stroke-opacity:1; 
stroke-linecap:round; stroke-linejoin:round;">
</g>
<g style="fill:#FFFFFF; fill-opacity:1.0; 
stroke:#FFFFFF; stroke-width:0; stroke-opacity:1; 
stroke-linecap:round; stroke-linejoin:round;">
<circle cx="70240" cy="40120" r="259.843" /> 
</g>
<g style="fill:#FFFFFF; fill-opacity:1.0; 
stroke:#FFFFFF; stroke-width:39.3701; stroke-opacity:1; 
stroke-linecap:round; stroke-linejoin:round;">
</g>
<g style="fill:#FFFFFF; fill-opacity:1.0; 
stroke:#FFFFFF; stroke-width:0; stroke-opacity:1; 
stroke-linecap:round; stroke-linejoin:round;">
<circle cx="74300" cy="36368.5" r="259.843" /> 
</g>
<g style="fill:#FFFFFF; fill-opacity:1.0; 
stroke:#FFFFFF; stroke-width:39.3701; stroke-opacity:1; 
stroke-linecap:round; stroke-linejoin:round;">
</g>
<g style="fill:#FFFFFF; fill-opacity:1.0; 
stroke:#FFFFFF; stroke-width:0; stroke-opacity:1; 
stroke-linecap:round; stroke-linejoin:round;">
<circle cx="74300" cy="34400" r="259.843" /> 
</g>
<g style="fill:#FFFFFF; fill-opacity:1.0; 
stroke:#FFFFFF; stroke-width:39.3701; stroke-opacity:1; 
stroke-linecap:round; stroke-linejoin:round;">
</g>
<g style="fill:#FFFFFF; fill-opacity:1.0; 
stroke:#FFFFFF; stroke-width:0; stroke-opacity:1; 
stroke-linecap:round; stroke-linejoin:round;">
<circle cx="74300" cy="40888.5" r="259.843" /> 
</g>
<g style="fill:#FFFFFF; fill-opacity:1.0; 
stroke:#FFFFFF; stroke-width:39.3701; stroke-opacity:1; 
stroke-linecap:round; stroke-linejoin:round;">
</g>
<g style="fill:#FFFFFF; fill-opacity:1.0; 
stroke:#FFFFFF; stroke-width:0; stroke-opacity:1; 
stroke-linecap:round; stroke-linejoin:round;">
<circle cx="74300" cy="38920" r="259.843" /> 
</g>
<g style="fill:#FFFFFF; fill-opacity:1.0; 
stroke:#FFFFFF; stroke-width:39.3701; stroke-opacity:1; 
stroke-linecap:round; stroke-linejoin:round;">
</g>
<g style="fill:#FFFFFF; fill-opacity:1.0; 
stroke:#FFFFFF; stroke-width:0; stroke-opacity:1; 
stroke-linecap:round; stroke-linejoin:round;">
<circle cx="66800" cy="34500" r="118.11" /> 
</g>
<g style="fill:#FFFFFF; fill-opacity:1.0; 
stroke:#FFFFFF; stroke-width:39.3701; stroke-opacity:1; 
stroke-linecap:round; stroke-linejoin:round;">
</g>
<g style="fill:#FFFFFF; fill-opacity:1.0; 
stroke:#FFFFFF; stroke-width:0; stroke-opacity:1; 
stroke-linecap:round; stroke-linejoin:round;">
<circle cx="66800" cy="34000" r="118.11" /> 
</g>
<g style="fill:#FFFFFF; fill-opacity:1.0; 
stroke:#FFFFFF; stroke-width:39.3701; stroke-opacity:1; 
stroke-linecap:round; stroke-linejoin:round;">
</g>
<g style="fill:#FFFFFF; fill-opacity:1.0; 
stroke:#FFFFFF; stroke-width:0; stroke-opacity:1; 
stroke-linecap:round; stroke-linejoin:round;">
<circle cx="66800" cy="35000" r="118.11" /> 
</g>
<g style="fill:#FFFFFF; fill-opacity:1.0; 
stroke:#FFFFFF; stroke-width:39.3701; stroke-opacity:1; 
stroke-linecap:round; stroke-linejoin:round;">
</g>
<g style="fill:#FFFFFF; fill-opacity:1.0; 
stroke:#FFFFFF; stroke-width:0; stroke-opacity:1; 
stroke-linecap:round; stroke-linejoin:round;">
<circle cx="65600" cy="38000" r="137.795" /> 
</g>
<g style="fill:#FFFFFF; fill-opacity:1.0; 
stroke:#FFFFFF; stroke-width:39.3701; stroke-opacity:1; 
stroke-linecap:round; stroke-linejoin:round;">
</g>
<g style="fill:#FFFFFF; fill-opacity:1.0; 
stroke:#FFFFFF; stroke-width:0; stroke-opacity:1; 
stroke-linecap:round; stroke-linejoin:round;">
<circle cx="65600" cy="36000" r="137.795" /> 
</g>
<g style="fill:#FFFFFF; fill-opacity:1.0; 
stroke:#FFFFFF; stroke-width:39.3701; stroke-opacity:1; 
stroke-linecap:round; stroke-linejoin:round;">
</g>
<g style="fill:#FFFFFF; fill-opacity:1.0; 
stroke:#FFFFFF; stroke-width:0; stroke-opacity:1; 
stroke-linecap:round; stroke-linejoin:round;">
<circle cx="66500" cy="36900" r="137.795" /> 
</g>
<g style="fill:#FFFFFF; fill-opacity:1.0; 
stroke:#FFFFFF; stroke-width:39.3701; stroke-opacity:1; 
stroke-linecap:round; stroke-linejoin:round;">
</g>
<g style="fill:#FFFFFF; fill-opacity:1.0; 
stroke:#FFFFFF; stroke-width:0; stroke-opacity:1; 
stroke-linecap:round; stroke-linejoin:round;">
<circle cx="68500" cy="36900" r="137.795" /> 
</g>
<g style="fill:#FFFFFF; fill-opacity:1.0; 
stroke:#FFFFFF; stroke-width:39.3701; stroke-opacity:1; 
stroke-linecap:round; stroke-linejoin:round;">
</g>
<g style="fill:#FFFFFF; fill-opacity:1.0; 
stroke:#FFFFFF; stroke-width:0; stroke-opacity:1; 
stroke-linecap:round; stroke-linejoin:round;">
<circle cx="69300" cy="35800" r="137.795" /> 
</g>
<g style="fill:#FFFFFF; fill-opacity:1.0; 
stroke:#FFFFFF; stroke-width:39.3701; stroke-opacity:1; 
stroke-linecap:round; stroke-linejoin:round;">
</g>
<g style="fill:#FFFFFF; fill-opacity:1.0; 
stroke:#FFFFFF; stroke-width:0; stroke-opacity:1; 
stroke-linecap:round; stroke-linejoin:round;">
<circle cx="71300" cy="35800" r="137.795" /> 
</g>
<g style="fill:#FFFFFF; fill-opacity:1.0; 
stroke:#FFFFFF; stroke-width:39.3701; stroke-opacity:1; 
stroke-linecap:round; stroke-linejoin:round;">
</g>
<g style="fill:#FFFFFF; fill-opacity:1.0; 
stroke:#FFFFFF; stroke-width:0; stroke-opacity:1; 
stroke-linecap:round; stroke-linejoin:round;">
<circle cx="69300" cy="33600" r="137.795" /> 
</g>
<g style="fill:#FFFFFF; fill-opacity:1.0; 
stroke:#FFFFFF; stroke-width:39.3701; stroke-opacity:1; 
stroke-linecap:round; stroke-linejoin:round;">
</g>
<g style="fill:#FFFFFF; fill-opacity:1.0; 
stroke:#FFFFFF; stroke-width:0; stroke-opacity:1; 
stroke-linecap:round; stroke-linejoin:round;">
<circle cx="71300" cy="33600" r="137.795" /> 
</g>
<g style="fill:#FFFFFF; fill-opacity:1.0; 
stroke:#FFFFFF; stroke-width:39.3701; stroke-opacity:1; 
stroke-linecap:round; stroke-linejoin:round;">
</g>
<g style="fill:#000000; fill-opacity:1.0; 
stroke:#000000; stroke-width:39.3701; stroke-opacity:1; 
stroke-linecap:round; stroke-linejoin:round;">
</g> 
</svg>
