M48
;DRILL file {KiCad 4.0.6} date 06/17/17 10:59:15
;FORMAT={-:-/ absolute / inch / decimal}
FMAT,2
INCH,TZ
T1C0.024
T2C0.031
T3C0.035
T4C0.039
T5C0.043
T6C0.047
T7C0.052
%
G90
G05
M72
T1
X4.2618Y-3.7823
X4.3118Y-3.7323
X4.3118Y-3.8323
X4.5957Y-3.7823
X4.6457Y-3.7323
X4.6457Y-3.8323
X4.6457Y-3.9524
X4.6457Y-4.0524
X4.6957Y-4.0024
X4.8268Y-4.685
X4.8268Y-4.785
X4.8346Y-3.8819
X4.8768Y-4.735
X4.8846Y-3.8319
X4.8846Y-3.9319
T2
X3.5433Y-3.4961
X3.622Y-3.6693
X3.622Y-4.0693
X3.7402Y-3.4961
X3.7417Y-3.6693
X3.8976Y-4.1575
X3.8976Y-4.2953
X3.8976Y-4.5039
X3.8976Y-4.6417
X3.9213Y-2.5748
X3.9213Y-2.7126
X4.0079Y-3.7795
X4.0079Y-3.9764
X4.1378Y-3.9704
X4.1417Y-3.6693
X4.1496Y-4.4252
X4.1496Y-4.622
X4.1512Y-4.2913
X4.1654Y-2.5433
X4.1654Y-2.7402
X4.1669Y-3.3228
X4.3307Y-2.6929
X4.3307Y-3.0929
X4.3347Y-3.9704
X4.4268Y-4.4252
X4.4646Y-3.0945
X4.4646Y-3.6654
X4.4646Y-4.0654
X4.5512Y-4.2913
X4.5669Y-3.3228
X4.6457Y-4.1811
X4.6457Y-4.5591
X4.6614Y-3.0945
X4.7717Y-3.3071
X4.7717Y-3.4173
X4.7717Y-3.6142
X4.8268Y-4.4252
X4.8346Y-2.9945
X4.8346Y-3.0945
X4.8346Y-3.1945
X4.9543Y-3.5354
X5.0457Y-4.1811
X5.0457Y-4.5591
X5.1717Y-3.3071
X5.3543Y-3.5354
X5.5591Y-3.3087
X5.5591Y-3.7087
X5.7638Y-4.4567
X5.7638Y-4.6535
T3
X5.0787Y-2.8583
X5.0787Y-2.9583
T4
X4.3646Y-3.5512
X4.4646Y-3.5512
X4.4669Y-2.5433
X4.5646Y-3.5512
X4.5669Y-2.5433
X4.6669Y-2.5433
X4.9394Y-4.4252
X5.0394Y-4.4252
X5.1394Y-4.4252
X5.2543Y-4.7874
X5.3543Y-4.7874
X5.4543Y-4.7874
T5
X4.4646Y-2.8583
X4.8646Y-2.8583
T6
X5.3543Y-2.6016
X5.3543Y-3.4016
X5.3543Y-3.6693
X5.3543Y-4.4693
X5.7638Y-3.5354
X5.7638Y-4.3354
X6.0945Y-3.5354
X6.0945Y-4.4354
T7
X3.2205Y-2.5748
X3.2205Y-2.7717
X3.2205Y-3.4961
X3.2205Y-3.6929
X3.2205Y-4.4488
X3.2205Y-4.6457
X6.5512Y-4.2362
X6.5512Y-4.4331
T0
M30
