G04 #@! TF.FileFunction,Soldermask,Top*
%FSLAX46Y46*%
G04 Gerber Fmt 4.6, Leading zero omitted, Abs format (unit mm)*
G04 Created by KiCad (PCBNEW 4.0.6) date 06/17/17 10:40:26*
%MOMM*%
%LPD*%
G01*
G04 APERTURE LIST*
%ADD10C,0.100000*%
%ADD11C,2.000000*%
%ADD12R,2.000000X2.000000*%
%ADD13C,2.600000*%
%ADD14O,2.600000X2.600000*%
%ADD15C,2.200000*%
%ADD16O,4.360000X2.380000*%
%ADD17R,4.360000X2.380000*%
%ADD18C,1.400000*%
%ADD19O,2.200000X2.200000*%
%ADD20O,2.000000X2.000000*%
%ADD21C,1.840000*%
%ADD22C,2.800000*%
%ADD23O,2.800000X2.800000*%
G04 APERTURE END LIST*
D10*
D11*
X95000000Y-88800000D03*
X90000000Y-88800000D03*
X101800000Y-96000000D03*
D12*
X101800000Y-101000000D03*
D11*
X99000000Y-105600000D03*
D12*
X99000000Y-109100000D03*
D11*
X110100800Y-100848400D03*
D12*
X105100800Y-100848400D03*
D11*
X121200000Y-91800000D03*
X121200000Y-86800000D03*
X113400000Y-78600000D03*
X118400000Y-78600000D03*
X99600000Y-65400000D03*
D12*
X99600000Y-68900000D03*
D11*
X105800000Y-64600000D03*
D12*
X105800000Y-69600000D03*
D11*
X146400000Y-113200000D03*
D12*
X146400000Y-118200000D03*
X99000000Y-114400000D03*
D11*
X99000000Y-117900000D03*
X105400000Y-117400000D03*
D12*
X105400000Y-112400000D03*
D13*
X123560000Y-72600000D03*
D14*
X113400000Y-72600000D03*
D15*
X129000000Y-75140000D03*
X129000000Y-72600000D03*
D16*
X81800000Y-88800000D03*
D17*
X81800000Y-93800000D03*
D16*
X166400000Y-112600000D03*
D17*
X166400000Y-107600000D03*
D16*
X81800000Y-65400000D03*
D17*
X81800000Y-70400000D03*
X81800000Y-113000000D03*
D16*
X81800000Y-118000000D03*
D18*
X108250400Y-96070000D03*
X109520400Y-94800000D03*
X109520400Y-97340000D03*
X116730000Y-96070000D03*
X118000000Y-94800000D03*
X118000000Y-97340000D03*
X119270000Y-101661200D03*
X118000000Y-102931200D03*
X118000000Y-100391200D03*
X122800000Y-98600000D03*
X124070000Y-97330000D03*
X124070000Y-99870000D03*
X123870000Y-120270000D03*
X122600000Y-121540000D03*
X122600000Y-119000000D03*
D15*
X125460000Y-112400000D03*
D19*
X128000000Y-112400000D03*
X130540000Y-112400000D03*
D15*
X110860000Y-90200000D03*
D19*
X113400000Y-90200000D03*
X115940000Y-90200000D03*
D15*
X113460000Y-64600000D03*
D19*
X116000000Y-64600000D03*
X118540000Y-64600000D03*
D15*
X138540000Y-121600000D03*
D19*
X136000000Y-121600000D03*
X133460000Y-121600000D03*
D11*
X92000000Y-93200000D03*
D12*
X92000000Y-103360000D03*
D11*
X105200000Y-93200000D03*
D20*
X95040000Y-93200000D03*
D11*
X115600000Y-109000000D03*
D12*
X105440000Y-109000000D03*
D11*
X116000000Y-84400000D03*
D20*
X105840000Y-84400000D03*
D11*
X128160000Y-106200000D03*
D20*
X118000000Y-106200000D03*
D11*
X113400000Y-93100000D03*
D20*
X113400000Y-103260000D03*
D11*
X122600000Y-112400000D03*
D12*
X112440000Y-112400000D03*
D11*
X136000000Y-89800000D03*
D20*
X125840000Y-89800000D03*
D11*
X131360000Y-84000000D03*
D20*
X121200000Y-84000000D03*
D21*
X122800000Y-81140000D03*
X122800000Y-78600000D03*
X122800000Y-76060000D03*
D11*
X128160000Y-115800000D03*
D20*
X118000000Y-115800000D03*
D11*
X110000000Y-68400000D03*
D20*
X110000000Y-78560000D03*
D11*
X141200000Y-94200000D03*
D20*
X141200000Y-84040000D03*
D22*
X136000000Y-66080000D03*
D23*
X136000000Y-86400000D03*
D22*
X136000000Y-93200000D03*
D23*
X136000000Y-113520000D03*
D22*
X146400000Y-89800000D03*
D23*
X146400000Y-110120000D03*
D22*
X154800000Y-112660000D03*
D23*
X154800000Y-89800000D03*
M02*
