<?xml version="1.0" standalone="no"?>
 <!DOCTYPE svg PUBLIC "-//W3C//DTD SVG 1.1//EN" 
 "http://www.w3.org/Graphics/SVG/1.1/DTD/svg11.dtd"> 
<svg xmlns="http://www.w3.org/2000/svg" version="1.1" 
    width="29.7002cm" height="21.0007cm" viewBox="0 0 116930 82680 ">
<title>SVG Picture created as KursaDarbs-Margin.svg date 2017/06/17 10:40:04 </title>
  <desc>Picture generated by PCBNEW </desc>
<g style="fill:#000000; fill-opacity:1;stroke:#000000; stroke-opacity:1;
stroke-linecap:round; stroke-linejoin:round; "
 transform="translate(0 0) scale(1 1)">
</g>
<g style="fill:#000000; fill-opacity:0.0; 
stroke:#000000; stroke-width:-0.000393701; stroke-opacity:1; 
stroke-linecap:round; stroke-linejoin:round;">
</g>
<g style="fill:#000000; fill-opacity:0.0; 
stroke:#000000; stroke-width:39.3701; stroke-opacity:1; 
stroke-linecap:round; stroke-linejoin:round;">
</g>
<g style="fill:#000000; fill-opacity:0.0; 
stroke:#000000; stroke-width:59.0551; stroke-opacity:1; 
stroke-linecap:round; stroke-linejoin:round;">
<rect x="69685.9" y="65357.2" width="42519.7" height="12598.4" rx="0" />
</g>
<g style="fill:#000000; fill-opacity:0.0; 
stroke:#000000; stroke-width:39.3701; stroke-opacity:1; 
stroke-linecap:round; stroke-linejoin:round;">
</g>
<g style="fill:#000000; fill-opacity:0.0; 
stroke:#000000; stroke-width:59.0551; stroke-opacity:1; 
stroke-linecap:round; stroke-linejoin:round;">
<rect x="3937.01" y="3937.01" width="109056" height="74806" rx="0" />
</g>
<g style="fill:#000000; fill-opacity:0.0; 
stroke:#000000; stroke-width:39.3701; stroke-opacity:1; 
stroke-linecap:round; stroke-linejoin:round;">
</g>
<g style="fill:#000000; fill-opacity:0.0; 
stroke:#000000; stroke-width:59.0551; stroke-opacity:1; 
stroke-linecap:round; stroke-linejoin:round;">
<rect x="4724.41" y="4724.41" width="107481" height="73231.2" rx="0" />
</g>
<g style="fill:#000000; fill-opacity:0.0; 
stroke:#000000; stroke-width:39.3701; stroke-opacity:1; 
stroke-linecap:round; stroke-linejoin:round;">
</g>
<g style="fill:#000000; fill-opacity:0.0; 
stroke:#000000; stroke-width:59.0551; stroke-opacity:1; 
stroke-linecap:round; stroke-linejoin:round;">
<path d="M23622 4724
L23622 3937
" />
</g>
<g style="fill:#000000; fill-opacity:0.0; 
stroke:#000000; stroke-width:39.3701; stroke-opacity:1; 
stroke-linecap:round; stroke-linejoin:round;">
</g>
<g style="fill:#000000; fill-opacity:0.0; 
stroke:#000000; stroke-width:59.0551; stroke-opacity:1; 
stroke-linecap:round; stroke-linejoin:round;">
<path d="M43307 4724
L43307 3937
" />
</g>
<g style="fill:#000000; fill-opacity:0.0; 
stroke:#000000; stroke-width:39.3701; stroke-opacity:1; 
stroke-linecap:round; stroke-linejoin:round;">
</g>
<g style="fill:#000000; fill-opacity:0.0; 
stroke:#000000; stroke-width:59.0551; stroke-opacity:1; 
stroke-linecap:round; stroke-linejoin:round;">
<path d="M62992 4724
L62992 3937
" />
</g>
<g style="fill:#000000; fill-opacity:0.0; 
stroke:#000000; stroke-width:39.3701; stroke-opacity:1; 
stroke-linecap:round; stroke-linejoin:round;">
</g>
<g style="fill:#000000; fill-opacity:0.0; 
stroke:#000000; stroke-width:59.0551; stroke-opacity:1; 
stroke-linecap:round; stroke-linejoin:round;">
<path d="M82677 4724
L82677 3937
" />
</g>
<g style="fill:#000000; fill-opacity:0.0; 
stroke:#000000; stroke-width:39.3701; stroke-opacity:1; 
stroke-linecap:round; stroke-linejoin:round;">
</g>
<g style="fill:#000000; fill-opacity:0.0; 
stroke:#000000; stroke-width:59.0551; stroke-opacity:1; 
stroke-linecap:round; stroke-linejoin:round;">
<path d="M102362 4724
L102362 3937
" />
</g>
<g style="fill:#000000; fill-opacity:0.0; 
stroke:#000000; stroke-width:39.3701; stroke-opacity:1; 
stroke-linecap:round; stroke-linejoin:round;">
</g>
<g style="fill:#000000; fill-opacity:0.0; 
stroke:#000000; stroke-width:59.0551; stroke-opacity:1; 
stroke-linecap:round; stroke-linejoin:round;">
<path d="M14169 4562
L13877 4562
" />
<path d="M14023 4562
L14023 4050
L13974 4123
L13925 4172
L13877 4196
" />
</g>
<g style="fill:#000000; fill-opacity:0.0; 
stroke:#000000; stroke-width:39.3701; stroke-opacity:1; 
stroke-linecap:round; stroke-linejoin:round;">
</g>
<g style="fill:#000000; fill-opacity:0.0; 
stroke:#000000; stroke-width:59.0551; stroke-opacity:1; 
stroke-linecap:round; stroke-linejoin:round;">
<path d="M33562 4099
L33586 4074
L33635 4050
L33757 4050
L33805 4074
L33830 4099
L33854 4147
L33854 4196
L33830 4269
L33537 4562
L33854 4562
" />
</g>
<g style="fill:#000000; fill-opacity:0.0; 
stroke:#000000; stroke-width:39.3701; stroke-opacity:1; 
stroke-linecap:round; stroke-linejoin:round;">
</g>
<g style="fill:#000000; fill-opacity:0.0; 
stroke:#000000; stroke-width:59.0551; stroke-opacity:1; 
stroke-linecap:round; stroke-linejoin:round;">
<path d="M53222 4050
L53539 4050
L53368 4245
L53442 4245
L53490 4269
L53515 4294
L53539 4342
L53539 4464
L53515 4513
L53490 4537
L53442 4562
L53295 4562
L53247 4537
L53222 4513
" />
</g>
<g style="fill:#000000; fill-opacity:0.0; 
stroke:#000000; stroke-width:39.3701; stroke-opacity:1; 
stroke-linecap:round; stroke-linejoin:round;">
</g>
<g style="fill:#000000; fill-opacity:0.0; 
stroke:#000000; stroke-width:59.0551; stroke-opacity:1; 
stroke-linecap:round; stroke-linejoin:round;">
<path d="M73175 4221
L73175 4562
" />
<path d="M73053 4026
L72932 4391
L73248 4391
" />
</g>
<g style="fill:#000000; fill-opacity:0.0; 
stroke:#000000; stroke-width:39.3701; stroke-opacity:1; 
stroke-linecap:round; stroke-linejoin:round;">
</g>
<g style="fill:#000000; fill-opacity:0.0; 
stroke:#000000; stroke-width:59.0551; stroke-opacity:1; 
stroke-linecap:round; stroke-linejoin:round;">
<path d="M92885 4050
L92641 4050
L92617 4294
L92641 4269
L92690 4245
L92812 4245
L92860 4269
L92885 4294
L92909 4342
L92909 4464
L92885 4513
L92860 4537
L92812 4562
L92690 4562
L92641 4537
L92617 4513
" />
</g>
<g style="fill:#000000; fill-opacity:0.0; 
stroke:#000000; stroke-width:39.3701; stroke-opacity:1; 
stroke-linecap:round; stroke-linejoin:round;">
</g>
<g style="fill:#000000; fill-opacity:0.0; 
stroke:#000000; stroke-width:59.0551; stroke-opacity:1; 
stroke-linecap:round; stroke-linejoin:round;">
<path d="M112545 4050
L112448 4050
L112399 4074
L112375 4099
L112326 4172
L112302 4269
L112302 4464
L112326 4513
L112350 4537
L112399 4562
L112497 4562
L112545 4537
L112570 4513
L112594 4464
L112594 4342
L112570 4294
L112545 4269
L112497 4245
L112399 4245
L112350 4269
L112326 4294
L112302 4342
" />
</g>
<g style="fill:#000000; fill-opacity:0.0; 
stroke:#000000; stroke-width:39.3701; stroke-opacity:1; 
stroke-linecap:round; stroke-linejoin:round;">
</g>
<g style="fill:#000000; fill-opacity:0.0; 
stroke:#000000; stroke-width:59.0551; stroke-opacity:1; 
stroke-linecap:round; stroke-linejoin:round;">
<path d="M23622 77955
L23622 78742
" />
</g>
<g style="fill:#000000; fill-opacity:0.0; 
stroke:#000000; stroke-width:39.3701; stroke-opacity:1; 
stroke-linecap:round; stroke-linejoin:round;">
</g>
<g style="fill:#000000; fill-opacity:0.0; 
stroke:#000000; stroke-width:59.0551; stroke-opacity:1; 
stroke-linecap:round; stroke-linejoin:round;">
<path d="M43307 77955
L43307 78742
" />
</g>
<g style="fill:#000000; fill-opacity:0.0; 
stroke:#000000; stroke-width:39.3701; stroke-opacity:1; 
stroke-linecap:round; stroke-linejoin:round;">
</g>
<g style="fill:#000000; fill-opacity:0.0; 
stroke:#000000; stroke-width:59.0551; stroke-opacity:1; 
stroke-linecap:round; stroke-linejoin:round;">
<path d="M62992 77955
L62992 78742
" />
</g>
<g style="fill:#000000; fill-opacity:0.0; 
stroke:#000000; stroke-width:39.3701; stroke-opacity:1; 
stroke-linecap:round; stroke-linejoin:round;">
</g>
<g style="fill:#000000; fill-opacity:0.0; 
stroke:#000000; stroke-width:59.0551; stroke-opacity:1; 
stroke-linecap:round; stroke-linejoin:round;">
<path d="M82677 77955
L82677 78742
" />
</g>
<g style="fill:#000000; fill-opacity:0.0; 
stroke:#000000; stroke-width:39.3701; stroke-opacity:1; 
stroke-linecap:round; stroke-linejoin:round;">
</g>
<g style="fill:#000000; fill-opacity:0.0; 
stroke:#000000; stroke-width:59.0551; stroke-opacity:1; 
stroke-linecap:round; stroke-linejoin:round;">
<path d="M102362 77955
L102362 78742
" />
</g>
<g style="fill:#000000; fill-opacity:0.0; 
stroke:#000000; stroke-width:39.3701; stroke-opacity:1; 
stroke-linecap:round; stroke-linejoin:round;">
</g>
<g style="fill:#000000; fill-opacity:0.0; 
stroke:#000000; stroke-width:59.0551; stroke-opacity:1; 
stroke-linecap:round; stroke-linejoin:round;">
<path d="M14169 78580
L13877 78580
" />
<path d="M14023 78580
L14023 78069
L13974 78142
L13925 78190
L13877 78215
" />
</g>
<g style="fill:#000000; fill-opacity:0.0; 
stroke:#000000; stroke-width:39.3701; stroke-opacity:1; 
stroke-linecap:round; stroke-linejoin:round;">
</g>
<g style="fill:#000000; fill-opacity:0.0; 
stroke:#000000; stroke-width:59.0551; stroke-opacity:1; 
stroke-linecap:round; stroke-linejoin:round;">
<path d="M33562 78117
L33586 78093
L33635 78069
L33757 78069
L33805 78093
L33830 78117
L33854 78166
L33854 78215
L33830 78288
L33537 78580
L33854 78580
" />
</g>
<g style="fill:#000000; fill-opacity:0.0; 
stroke:#000000; stroke-width:39.3701; stroke-opacity:1; 
stroke-linecap:round; stroke-linejoin:round;">
</g>
<g style="fill:#000000; fill-opacity:0.0; 
stroke:#000000; stroke-width:59.0551; stroke-opacity:1; 
stroke-linecap:round; stroke-linejoin:round;">
<path d="M53222 78069
L53539 78069
L53368 78263
L53442 78263
L53490 78288
L53515 78312
L53539 78361
L53539 78483
L53515 78532
L53490 78556
L53442 78580
L53295 78580
L53247 78556
L53222 78532
" />
</g>
<g style="fill:#000000; fill-opacity:0.0; 
stroke:#000000; stroke-width:39.3701; stroke-opacity:1; 
stroke-linecap:round; stroke-linejoin:round;">
</g>
<g style="fill:#000000; fill-opacity:0.0; 
stroke:#000000; stroke-width:59.0551; stroke-opacity:1; 
stroke-linecap:round; stroke-linejoin:round;">
<path d="M73175 78239
L73175 78580
" />
<path d="M73053 78044
L72932 78410
L73248 78410
" />
</g>
<g style="fill:#000000; fill-opacity:0.0; 
stroke:#000000; stroke-width:39.3701; stroke-opacity:1; 
stroke-linecap:round; stroke-linejoin:round;">
</g>
<g style="fill:#000000; fill-opacity:0.0; 
stroke:#000000; stroke-width:59.0551; stroke-opacity:1; 
stroke-linecap:round; stroke-linejoin:round;">
<path d="M92885 78069
L92641 78069
L92617 78312
L92641 78288
L92690 78263
L92812 78263
L92860 78288
L92885 78312
L92909 78361
L92909 78483
L92885 78532
L92860 78556
L92812 78580
L92690 78580
L92641 78556
L92617 78532
" />
</g>
<g style="fill:#000000; fill-opacity:0.0; 
stroke:#000000; stroke-width:39.3701; stroke-opacity:1; 
stroke-linecap:round; stroke-linejoin:round;">
</g>
<g style="fill:#000000; fill-opacity:0.0; 
stroke:#000000; stroke-width:59.0551; stroke-opacity:1; 
stroke-linecap:round; stroke-linejoin:round;">
<path d="M112545 78069
L112448 78069
L112399 78093
L112375 78117
L112326 78190
L112302 78288
L112302 78483
L112326 78532
L112350 78556
L112399 78580
L112497 78580
L112545 78556
L112570 78532
L112594 78483
L112594 78361
L112570 78312
L112545 78288
L112497 78263
L112399 78263
L112350 78288
L112326 78312
L112302 78361
" />
</g>
<g style="fill:#000000; fill-opacity:0.0; 
stroke:#000000; stroke-width:39.3701; stroke-opacity:1; 
stroke-linecap:round; stroke-linejoin:round;">
</g>
<g style="fill:#000000; fill-opacity:0.0; 
stroke:#000000; stroke-width:59.0551; stroke-opacity:1; 
stroke-linecap:round; stroke-linejoin:round;">
<path d="M3937 23622
L4724 23622
" />
</g>
<g style="fill:#000000; fill-opacity:0.0; 
stroke:#000000; stroke-width:39.3701; stroke-opacity:1; 
stroke-linecap:round; stroke-linejoin:round;">
</g>
<g style="fill:#000000; fill-opacity:0.0; 
stroke:#000000; stroke-width:59.0551; stroke-opacity:1; 
stroke-linecap:round; stroke-linejoin:round;">
<path d="M3937 43307
L4724 43307
" />
</g>
<g style="fill:#000000; fill-opacity:0.0; 
stroke:#000000; stroke-width:39.3701; stroke-opacity:1; 
stroke-linecap:round; stroke-linejoin:round;">
</g>
<g style="fill:#000000; fill-opacity:0.0; 
stroke:#000000; stroke-width:59.0551; stroke-opacity:1; 
stroke-linecap:round; stroke-linejoin:round;">
<path d="M3937 62992
L4724 62992
" />
</g>
<g style="fill:#000000; fill-opacity:0.0; 
stroke:#000000; stroke-width:39.3701; stroke-opacity:1; 
stroke-linecap:round; stroke-linejoin:round;">
</g>
<g style="fill:#000000; fill-opacity:0.0; 
stroke:#000000; stroke-width:59.0551; stroke-opacity:1; 
stroke-linecap:round; stroke-linejoin:round;">
<path d="M4208 13864
L4452 13864
" />
<path d="M4160 14011
L4330 13499
L4501 14011
" />
</g>
<g style="fill:#000000; fill-opacity:0.0; 
stroke:#000000; stroke-width:39.3701; stroke-opacity:1; 
stroke-linecap:round; stroke-linejoin:round;">
</g>
<g style="fill:#000000; fill-opacity:0.0; 
stroke:#000000; stroke-width:59.0551; stroke-opacity:1; 
stroke-linecap:round; stroke-linejoin:round;">
<path d="M4367 33428
L4440 33452
L4464 33476
L4489 33525
L4489 33598
L4464 33647
L4440 33671
L4391 33696
L4196 33696
L4196 33184
L4367 33184
L4416 33208
L4440 33233
L4464 33281
L4464 33330
L4440 33379
L4416 33403
L4367 33428
L4196 33428
" />
</g>
<g style="fill:#000000; fill-opacity:0.0; 
stroke:#000000; stroke-width:39.3701; stroke-opacity:1; 
stroke-linecap:round; stroke-linejoin:round;">
</g>
<g style="fill:#000000; fill-opacity:0.0; 
stroke:#000000; stroke-width:59.0551; stroke-opacity:1; 
stroke-linecap:round; stroke-linejoin:round;">
<path d="M4489 53332
L4464 53356
L4391 53381
L4342 53381
L4269 53356
L4221 53308
L4196 53259
L4172 53161
L4172 53088
L4196 52991
L4221 52942
L4269 52893
L4342 52869
L4391 52869
L4464 52893
L4489 52918
" />
</g>
<g style="fill:#000000; fill-opacity:0.0; 
stroke:#000000; stroke-width:39.3701; stroke-opacity:1; 
stroke-linecap:round; stroke-linejoin:round;">
</g>
<g style="fill:#000000; fill-opacity:0.0; 
stroke:#000000; stroke-width:59.0551; stroke-opacity:1; 
stroke-linecap:round; stroke-linejoin:round;">
<path d="M4196 73066
L4196 72554
L4318 72554
L4391 72578
L4440 72627
L4464 72676
L4489 72773
L4489 72846
L4464 72944
L4440 72993
L4391 73041
L4318 73066
L4196 73066
" />
</g>
<g style="fill:#000000; fill-opacity:0.0; 
stroke:#000000; stroke-width:39.3701; stroke-opacity:1; 
stroke-linecap:round; stroke-linejoin:round;">
</g>
<g style="fill:#000000; fill-opacity:0.0; 
stroke:#000000; stroke-width:59.0551; stroke-opacity:1; 
stroke-linecap:round; stroke-linejoin:round;">
<path d="M112992 23622
L112205 23622
" />
</g>
<g style="fill:#000000; fill-opacity:0.0; 
stroke:#000000; stroke-width:39.3701; stroke-opacity:1; 
stroke-linecap:round; stroke-linejoin:round;">
</g>
<g style="fill:#000000; fill-opacity:0.0; 
stroke:#000000; stroke-width:59.0551; stroke-opacity:1; 
stroke-linecap:round; stroke-linejoin:round;">
<path d="M112992 43307
L112205 43307
" />
</g>
<g style="fill:#000000; fill-opacity:0.0; 
stroke:#000000; stroke-width:39.3701; stroke-opacity:1; 
stroke-linecap:round; stroke-linejoin:round;">
</g>
<g style="fill:#000000; fill-opacity:0.0; 
stroke:#000000; stroke-width:59.0551; stroke-opacity:1; 
stroke-linecap:round; stroke-linejoin:round;">
<path d="M112992 62992
L112205 62992
" />
</g>
<g style="fill:#000000; fill-opacity:0.0; 
stroke:#000000; stroke-width:39.3701; stroke-opacity:1; 
stroke-linecap:round; stroke-linejoin:round;">
</g>
<g style="fill:#000000; fill-opacity:0.0; 
stroke:#000000; stroke-width:59.0551; stroke-opacity:1; 
stroke-linecap:round; stroke-linejoin:round;">
<path d="M112477 13864
L112721 13864
" />
<path d="M112428 14011
L112599 13499
L112769 14011
" />
</g>
<g style="fill:#000000; fill-opacity:0.0; 
stroke:#000000; stroke-width:39.3701; stroke-opacity:1; 
stroke-linecap:round; stroke-linejoin:round;">
</g>
<g style="fill:#000000; fill-opacity:0.0; 
stroke:#000000; stroke-width:59.0551; stroke-opacity:1; 
stroke-linecap:round; stroke-linejoin:round;">
<path d="M112635 33428
L112708 33452
L112733 33476
L112757 33525
L112757 33598
L112733 33647
L112708 33671
L112660 33696
L112465 33696
L112465 33184
L112635 33184
L112684 33208
L112708 33233
L112733 33281
L112733 33330
L112708 33379
L112684 33403
L112635 33428
L112465 33428
" />
</g>
<g style="fill:#000000; fill-opacity:0.0; 
stroke:#000000; stroke-width:39.3701; stroke-opacity:1; 
stroke-linecap:round; stroke-linejoin:round;">
</g>
<g style="fill:#000000; fill-opacity:0.0; 
stroke:#000000; stroke-width:59.0551; stroke-opacity:1; 
stroke-linecap:round; stroke-linejoin:round;">
<path d="M112757 53332
L112733 53356
L112660 53381
L112611 53381
L112538 53356
L112489 53308
L112465 53259
L112440 53161
L112440 53088
L112465 52991
L112489 52942
L112538 52893
L112611 52869
L112660 52869
L112733 52893
L112757 52918
" />
</g>
<g style="fill:#000000; fill-opacity:0.0; 
stroke:#000000; stroke-width:39.3701; stroke-opacity:1; 
stroke-linecap:round; stroke-linejoin:round;">
</g>
<g style="fill:#000000; fill-opacity:0.0; 
stroke:#000000; stroke-width:59.0551; stroke-opacity:1; 
stroke-linecap:round; stroke-linejoin:round;">
<path d="M112465 73066
L112465 72554
L112587 72554
L112660 72578
L112708 72627
L112733 72676
L112757 72773
L112757 72846
L112733 72944
L112708 72993
L112660 73041
L112587 73066
L112465 73066
" />
</g>
<g style="fill:#000000; fill-opacity:0.0; 
stroke:#000000; stroke-width:39.3701; stroke-opacity:1; 
stroke-linecap:round; stroke-linejoin:round;">
</g>
<g style="fill:#000000; fill-opacity:0.0; 
stroke:#000000; stroke-width:59.0551; stroke-opacity:1; 
stroke-linecap:round; stroke-linejoin:round;">
<path d="M78881 76293
L78881 75703
L79022 75703
L79106 75731
L79162 75787
L79190 75843
L79219 75956
L79219 76040
L79190 76153
L79162 76209
L79106 76265
L79022 76293
L78881 76293
" />
<path d="M79725 76293
L79725 75984
L79697 75928
L79640 75899
L79528 75899
L79472 75928
" />
<path d="M79725 76265
L79669 76293
L79528 76293
L79472 76265
L79444 76209
L79444 76153
L79472 76096
L79528 76068
L79669 76068
L79725 76040
" />
<path d="M79922 75899
L80147 75899
" />
<path d="M80006 75703
L80006 76209
L80034 76265
L80090 76293
L80147 76293
" />
<path d="M80568 76265
L80512 76293
L80400 76293
L80343 76265
L80315 76209
L80315 75984
L80343 75928
L80400 75899
L80512 75899
L80568 75928
L80597 75984
L80597 76040
L80315 76096
" />
<path d="M80850 76237
L80878 76265
L80850 76293
L80822 76265
L80850 76237
L80850 76293
" />
<path d="M80850 75928
L80878 75956
L80850 75984
L80822 75956
L80850 75928
L80850 75984
" />
</g>
<g style="fill:#000000; fill-opacity:0.0; 
stroke:#000000; stroke-width:39.3701; stroke-opacity:1; 
stroke-linecap:round; stroke-linejoin:round;">
</g>
<g style="fill:#000000; fill-opacity:0.0; 
stroke:#000000; stroke-width:59.0551; stroke-opacity:1; 
stroke-linecap:round; stroke-linejoin:round;">
<path d="M69685 76577
L112205 76577
" />
</g>
<g style="fill:#000000; fill-opacity:0.0; 
stroke:#000000; stroke-width:39.3701; stroke-opacity:1; 
stroke-linecap:round; stroke-linejoin:round;">
</g>
<g style="fill:#000000; fill-opacity:0.0; 
stroke:#000000; stroke-width:59.0551; stroke-opacity:1; 
stroke-linecap:round; stroke-linejoin:round;">
<path d="M70220 77395
L70220 76805
" />
<path d="M70557 77395
L70304 77058
" />
<path d="M70557 76805
L70220 77142
" />
<path d="M70810 77395
L70810 77002
" />
<path d="M70810 76805
L70782 76833
L70810 76861
L70838 76833
L70810 76805
L70810 76861
" />
<path d="M71429 77339
L71401 77367
L71316 77395
L71260 77395
L71176 77367
L71120 77311
L71091 77255
L71063 77142
L71063 77058
L71091 76946
L71120 76889
L71176 76833
L71260 76805
L71316 76805
L71401 76833
L71429 76861
" />
<path d="M71935 77395
L71935 77086
L71907 77030
L71851 77002
L71738 77002
L71682 77030
" />
<path d="M71935 77367
L71879 77395
L71738 77395
L71682 77367
L71654 77311
L71654 77255
L71682 77199
L71738 77171
L71879 77171
L71935 77142
" />
<path d="M72469 77395
L72469 76805
" />
<path d="M72469 77367
L72413 77395
L72301 77395
L72244 77367
L72216 77339
L72188 77283
L72188 77114
L72216 77058
L72244 77030
L72301 77002
L72413 77002
L72469 77030
" />
<path d="M73201 77086
L73397 77086
" />
<path d="M73482 77395
L73201 77395
L73201 76805
L73482 76805
" />
<path d="M73735 77339
L73763 77367
L73735 77395
L73707 77367
L73735 77339
L73735 77395
" />
<path d="M74016 77395
L74016 76805
L74157 76805
L74241 76833
L74297 76889
L74325 76946
L74354 77058
L74354 77142
L74325 77255
L74297 77311
L74241 77367
L74157 77395
L74016 77395
" />
<path d="M74607 77339
L74635 77367
L74607 77395
L74579 77367
L74607 77339
L74607 77395
" />
<path d="M74860 77227
L75141 77227
" />
<path d="M74804 77395
L75000 76805
L75197 77395
" />
<path d="M75394 77339
L75422 77367
L75394 77395
L75366 77367
L75394 77339
L75394 77395
" />
<path d="M76575 77395
L76575 76805
" />
<path d="M76631 77171
L76800 77395
" />
<path d="M76800 77002
L76575 77227
" />
<path d="M77053 77395
L77053 77002
" />
<path d="M77053 76805
L77025 76833
L77053 76861
L77081 76833
L77053 76805
L77053 76861
" />
<path d="M77588 77367
L77531 77395
L77419 77395
L77363 77367
L77334 77339
L77306 77283
L77306 77114
L77334 77058
L77363 77030
L77419 77002
L77531 77002
L77588 77030
" />
<path d="M78094 77395
L78094 77086
L78066 77030
L78009 77002
L77897 77002
L77841 77030
" />
<path d="M78094 77367
L78037 77395
L77897 77395
L77841 77367
L77813 77311
L77813 77255
L77841 77199
L77897 77171
L78037 77171
L78094 77142
" />
<path d="M78628 77395
L78628 76805
" />
<path d="M78628 77367
L78572 77395
L78459 77395
L78403 77367
L78375 77339
L78347 77283
L78347 77114
L78375 77058
L78403 77030
L78459 77002
L78572 77002
L78628 77030
" />
<path d="M79612 77002
L79612 77395
" />
<path d="M79472 76777
L79331 77199
L79697 77199
" />
<path d="M79922 77339
L79950 77367
L79922 77395
L79894 77367
L79922 77339
L79922 77395
" />
<path d="M80315 76805
L80372 76805
L80428 76833
L80456 76861
L80484 76917
L80512 77030
L80512 77171
L80484 77283
L80456 77339
L80428 77367
L80372 77395
L80315 77395
L80259 77367
L80231 77339
L80203 77283
L80175 77171
L80175 77030
L80203 76917
L80231 76861
L80259 76833
L80315 76805
" />
<path d="M80765 77339
L80793 77367
L80765 77395
L80737 77367
L80765 77339
L80765 77395
" />
<path d="M81300 76805
L81187 76805
L81131 76833
L81103 76861
L81046 76946
L81018 77058
L81018 77283
L81046 77339
L81075 77367
L81131 77395
L81243 77395
L81300 77367
L81328 77339
L81356 77283
L81356 77142
L81328 77086
L81300 77058
L81243 77030
L81131 77030
L81075 77058
L81046 77086
L81018 77142
" />
</g>
<g style="fill:#000000; fill-opacity:0.0; 
stroke:#000000; stroke-width:39.3701; stroke-opacity:1; 
stroke-linecap:round; stroke-linejoin:round;">
</g>
<g style="fill:#000000; fill-opacity:0.0; 
stroke:#000000; stroke-width:59.0551; stroke-opacity:1; 
stroke-linecap:round; stroke-linejoin:round;">
<path d="M69685 75396
L112205 75396
" />
</g>
<g style="fill:#000000; fill-opacity:0.0; 
stroke:#000000; stroke-width:39.3701; stroke-opacity:1; 
stroke-linecap:round; stroke-linejoin:round;">
</g>
<g style="fill:#000000; fill-opacity:0.0; 
stroke:#000000; stroke-width:118.11; stroke-opacity:1; 
stroke-linecap:round; stroke-linejoin:round;">
<path d="M104022 76293
L103825 76012
" />
<path d="M103684 76293
L103684 75703
L103909 75703
L103965 75731
L103994 75759
L104022 75815
L104022 75899
L103994 75956
L103965 75984
L103909 76012
L103684 76012
" />
<path d="M104500 76265
L104444 76293
L104331 76293
L104275 76265
L104247 76209
L104247 75984
L104275 75928
L104331 75899
L104444 75899
L104500 75928
L104528 75984
L104528 76040
L104247 76096
" />
<path d="M104725 75899
L104865 76293
L105006 75899
" />
<path d="M105231 76237
L105259 76265
L105231 76293
L105203 76265
L105231 76237
L105231 76293
" />
<path d="M105231 75928
L105259 75956
L105231 75984
L105203 75956
L105231 75928
L105231 75984
" />
<path d="M105906 75899
L106046 76293
L106187 75899
" />
<path d="M107143 75703
L106862 75703
L106834 75984
L106862 75956
L106918 75928
L107059 75928
L107115 75956
L107143 75984
L107171 76040
L107171 76181
L107143 76237
L107115 76265
L107059 76293
L106918 76293
L106862 76265
L106834 76237
" />
<path d="M107424 76237
L107453 76265
L107424 76293
L107396 76265
L107424 76237
L107424 76293
" />
<path d="M107818 75703
L107874 75703
L107931 75731
L107959 75759
L107987 75815
L108015 75928
L108015 76068
L107987 76181
L107959 76237
L107931 76265
L107874 76293
L107818 76293
L107762 76265
L107734 76237
L107706 76181
L107678 76068
L107678 75928
L107706 75815
L107734 75759
L107762 75731
L107818 75703
" />
</g>
<g style="fill:#000000; fill-opacity:0.0; 
stroke:#000000; stroke-width:39.3701; stroke-opacity:1; 
stroke-linecap:round; stroke-linejoin:round;">
</g>
<g style="fill:#000000; fill-opacity:0.0; 
stroke:#000000; stroke-width:59.0551; stroke-opacity:1; 
stroke-linecap:round; stroke-linejoin:round;">
<path d="M70192 76265
L70276 76293
L70417 76293
L70473 76265
L70501 76237
L70529 76181
L70529 76124
L70501 76068
L70473 76040
L70417 76012
L70304 75984
L70248 75956
L70220 75928
L70192 75871
L70192 75815
L70220 75759
L70248 75731
L70304 75703
L70445 75703
L70529 75731
" />
<path d="M70782 76293
L70782 75899
" />
<path d="M70782 75703
L70754 75731
L70782 75759
L70810 75731
L70782 75703
L70782 75759
" />
<path d="M71007 75899
L71316 75899
L71007 76293
L71316 76293
" />
<path d="M71766 76265
L71710 76293
L71598 76293
L71541 76265
L71513 76209
L71513 75984
L71541 75928
L71598 75899
L71710 75899
L71766 75928
L71795 75984
L71795 76040
L71513 76096
" />
<path d="M72048 76237
L72076 76265
L72048 76293
L72019 76265
L72048 76237
L72048 76293
" />
<path d="M72048 75928
L72076 75956
L72048 75984
L72019 75956
L72048 75928
L72048 75984
" />
<path d="M72751 76124
L73032 76124
" />
<path d="M72694 76293
L72891 75703
L73088 76293
" />
<path d="M73538 75899
L73538 76293
" />
<path d="M73397 75674
L73257 76096
L73622 76096
" />
</g>
<g style="fill:#000000; fill-opacity:0.0; 
stroke:#000000; stroke-width:39.3701; stroke-opacity:1; 
stroke-linecap:round; stroke-linejoin:round;">
</g>
<g style="fill:#000000; fill-opacity:0.0; 
stroke:#000000; stroke-width:59.0551; stroke-opacity:1; 
stroke-linecap:round; stroke-linejoin:round;">
<path d="M103684 77395
L103684 76805
" />
<path d="M104219 77395
L104219 76805
" />
<path d="M104219 77367
L104162 77395
L104050 77395
L103994 77367
L103965 77339
L103937 77283
L103937 77114
L103965 77058
L103994 77030
L104050 77002
L104162 77002
L104219 77030
" />
<path d="M104500 77339
L104528 77367
L104500 77395
L104472 77367
L104500 77339
L104500 77395
" />
<path d="M104500 77030
L104528 77058
L104500 77086
L104472 77058
L104500 77030
L104500 77086
" />
<path d="M105540 77395
L105203 77395
" />
<path d="M105372 77395
L105372 76805
L105315 76889
L105259 76946
L105203 76974
" />
<path d="M106215 76777
L105709 77536
" />
<path d="M106721 77395
L106384 77395
" />
<path d="M106553 77395
L106553 76805
L106496 76889
L106440 76946
L106384 76974
" />
</g>
<g style="fill:#000000; fill-opacity:0.0; 
stroke:#000000; stroke-width:39.3701; stroke-opacity:1; 
stroke-linecap:round; stroke-linejoin:round;">
</g>
<g style="fill:#000000; fill-opacity:0.0; 
stroke:#000000; stroke-width:59.0551; stroke-opacity:1; 
stroke-linecap:round; stroke-linejoin:round;">
<path d="M69685 73821
L112205 73821
" />
</g>
<g style="fill:#000000; fill-opacity:0.0; 
stroke:#000000; stroke-width:39.3701; stroke-opacity:1; 
stroke-linecap:round; stroke-linejoin:round;">
</g>
<g style="fill:#000000; fill-opacity:0.0; 
stroke:#000000; stroke-width:157.48; stroke-opacity:1; 
stroke-linecap:round; stroke-linejoin:round;">
<path d="M70257 74099
L70707 74099
" />
<path d="M70384 74886
L70482 74099
" />
<path d="M70871 74886
L70937 74361
" />
<path d="M70970 74099
L70927 74136
L70960 74174
L71002 74136
L70970 74099
L70960 74174
" />
<path d="M71199 74361
L71499 74361
" />
<path d="M71345 74099
L71260 74774
L71288 74849
L71359 74886
L71434 74886
" />
<path d="M71809 74886
L71738 74849
L71710 74774
L71795 74099
" />
<path d="M72413 74849
L72334 74886
L72184 74886
L72113 74849
L72085 74774
L72123 74474
L72169 74399
L72249 74361
L72399 74361
L72469 74399
L72498 74474
L72488 74549
L72104 74624
" />
<path d="M72793 74811
L72826 74849
L72783 74886
L72751 74849
L72793 74811
L72783 74886
" />
<path d="M72844 74399
L72877 74436
L72835 74474
L72802 74436
L72844 74399
L72835 74474
" />
<path d="M73758 74886
L73857 74099
" />
<path d="M74208 74886
L73927 74436
" />
<path d="M74307 74099
L73801 74549
" />
<path d="M74949 74361
L74883 74886
" />
<path d="M74611 74361
L74560 74774
L74588 74849
L74658 74886
L74771 74886
L74850 74849
L74893 74811
" />
<path d="M75258 74886
L75324 74361
" />
<path d="M75305 74511
L75352 74436
L75394 74399
L75474 74361
L75549 74361
" />
<path d="M75713 74849
L75783 74886
L75933 74886
L76013 74849
L76060 74774
L76064 74736
L76036 74661
L75966 74624
L75853 74624
L75783 74586
L75755 74511
L75760 74474
L75807 74399
L75886 74361
L75999 74361
L76069 74399
" />
<path d="M76720 74886
L76772 74474
L76744 74399
L76674 74361
L76524 74361
L76444 74399
" />
<path d="M76725 74849
L76645 74886
L76458 74886
L76388 74849
L76360 74774
L76369 74699
L76416 74624
L76495 74586
L76683 74586
L76763 74549
" />
<path d="M78033 74886
L78131 74099
" />
<path d="M78037 74849
L77958 74886
L77808 74886
L77738 74849
L77705 74811
L77677 74736
L77705 74511
L77752 74436
L77794 74399
L77873 74361
L78023 74361
L78094 74399
" />
<path d="M78745 74886
L78797 74474
L78769 74399
L78698 74361
L78548 74361
L78469 74399
" />
<path d="M78750 74849
L78670 74886
L78483 74886
L78412 74849
L78384 74774
L78394 74699
L78441 74624
L78520 74586
L78708 74586
L78787 74549
" />
<path d="M79120 74886
L79186 74361
" />
<path d="M79167 74511
L79214 74436
L79256 74399
L79336 74361
L79411 74361
" />
<path d="M79608 74886
L79706 74099
" />
<path d="M79669 74399
L79748 74361
L79898 74361
L79968 74399
L80001 74436
L80029 74511
L80001 74736
L79954 74811
L79912 74849
L79833 74886
L79683 74886
L79612 74849
" />
<path d="M80287 74849
L80358 74886
L80507 74886
L80587 74849
L80634 74774
L80639 74736
L80611 74661
L80540 74624
L80428 74624
L80358 74586
L80329 74511
L80334 74474
L80381 74399
L80461 74361
L80573 74361
L80643 74399
" />
<path d="M81557 74886
L81656 74099
L81843 74099
L81951 74136
L82017 74211
L82045 74286
L82064 74436
L82049 74549
L81993 74699
L81946 74774
L81862 74849
L81745 74886
L81557 74886
" />
<path d="M82682 74886
L82734 74474
L82706 74399
L82635 74361
L82485 74361
L82406 74399
" />
<path d="M82687 74849
L82607 74886
L82420 74886
L82349 74849
L82321 74774
L82331 74699
L82378 74624
L82457 74586
L82645 74586
L82724 74549
" />
<path d="M83010 74361
L83310 74361
" />
<path d="M83156 74099
L83071 74774
L83099 74849
L83170 74886
L83245 74886
" />
<path d="M83620 74886
L83549 74849
L83516 74811
L83488 74736
L83516 74511
L83563 74436
L83606 74399
L83685 74361
L83798 74361
L83868 74399
L83901 74436
L83929 74511
L83901 74736
L83854 74811
L83812 74849
L83732 74886
L83620 74886
" />
<path d="M84220 74886
L84285 74361
" />
<path d="M84266 74511
L84313 74436
L84355 74399
L84435 74361
L84510 74361
" />
<path d="M84707 74886
L84773 74361
" />
<path d="M84805 74099
L84763 74136
L84796 74174
L84838 74136
L84805 74099
L84796 74174
" />
<path d="M85073 74361
L85485 74361
L85007 74886
L85419 74886
" />
<path d="M86024 74849
L85944 74886
L85794 74886
L85724 74849
L85696 74774
L85733 74474
L85780 74399
L85860 74361
L86010 74361
L86080 74399
L86108 74474
L86099 74549
L85715 74624
" />
<path d="M85776 74136
L86151 74136
" />
<path d="M86347 74361
L86647 74361
" />
<path d="M86493 74099
L86408 74774
L86436 74849
L86507 74886
L86582 74886
" />
<path d="M87182 74886
L87233 74474
L87205 74399
L87135 74361
L86985 74361
L86905 74399
" />
<path d="M87186 74849
L87107 74886
L86919 74886
L86849 74849
L86821 74774
L86830 74699
L86877 74624
L86957 74586
L87144 74586
L87224 74549
" />
<path d="M87622 74361
L87538 75036
L87491 75111
L87411 75149
L87374 75149
" />
<path d="M87655 74099
L87613 74136
L87646 74174
L87688 74136
L87655 74099
L87646 74174
" />
<path d="M88269 74886
L88321 74474
L88292 74399
L88222 74361
L88072 74361
L87992 74399
" />
<path d="M88274 74849
L88194 74886
L88007 74886
L87936 74849
L87908 74774
L87918 74699
L87964 74624
L88044 74586
L88232 74586
L88311 74549
" />
<path d="M87988 74136
L88363 74136
" />
<path d="M89310 74361
L89211 75149
" />
<path d="M89305 74399
L89385 74361
L89534 74361
L89605 74399
L89638 74436
L89666 74511
L89638 74736
L89591 74811
L89549 74849
L89469 74886
L89319 74886
L89249 74849
" />
<path d="M89956 74886
L90022 74361
" />
<path d="M90003 74511
L90050 74436
L90092 74399
L90172 74361
L90247 74361
" />
<path d="M90556 74886
L90486 74849
L90453 74811
L90425 74736
L90453 74511
L90500 74436
L90542 74399
L90622 74361
L90734 74361
L90805 74399
L90837 74436
L90866 74511
L90837 74736
L90791 74811
L90748 74849
L90669 74886
L90556 74886
" />
<path d="M91222 74361
L91137 75036
L91091 75111
L91011 75149
L90973 75149
" />
<path d="M91255 74099
L91212 74136
L91245 74174
L91287 74136
L91255 74099
L91245 74174
" />
<path d="M91836 74849
L91756 74886
L91606 74886
L91536 74849
L91508 74774
L91545 74474
L91592 74399
L91672 74361
L91822 74361
L91892 74399
L91920 74474
L91911 74549
L91526 74624
" />
<path d="M92206 74886
L92304 74099
" />
<path d="M92319 74586
L92506 74886
" />
<path d="M92572 74361
L92234 74661
" />
<path d="M92797 74361
L93097 74361
" />
<path d="M92942 74099
L92858 74774
L92886 74849
L92956 74886
L93031 74886
" />
<path d="M93598 74849
L93518 74886
L93368 74886
L93298 74849
L93270 74774
L93307 74474
L93354 74399
L93434 74361
L93584 74361
L93654 74399
L93682 74474
L93673 74549
L93289 74624
" />
<path d="M93350 74136
L93725 74136
" />
<path d="M93936 74849
L94006 74886
L94156 74886
L94235 74849
L94282 74774
L94287 74736
L94259 74661
L94189 74624
L94076 74624
L94006 74586
L93978 74511
L93982 74474
L94029 74399
L94109 74361
L94221 74361
L94292 74399
" />
<path d="M94034 74061
L94170 74174
L94334 74061
" />
<path d="M94943 74886
L94995 74474
L94967 74399
L94896 74361
L94746 74361
L94667 74399
" />
<path d="M94948 74849
L94868 74886
L94681 74886
L94610 74849
L94582 74774
L94592 74699
L94639 74624
L94718 74586
L94906 74586
L94985 74549
" />
<path d="M95384 74361
L95318 74886
" />
<path d="M95374 74436
L95417 74399
L95496 74361
L95609 74361
L95679 74399
L95707 74474
L95656 74886
" />
<path d="M96368 74886
L96420 74474
L96391 74399
L96321 74361
L96171 74361
L96091 74399
" />
<path d="M96373 74849
L96293 74886
L96106 74886
L96035 74849
L96007 74774
L96016 74699
L96063 74624
L96143 74586
L96331 74586
L96410 74549
" />
<path d="M96087 74136
L96462 74136
" />
</g>
<g style="fill:#000000; fill-opacity:0.0; 
stroke:#000000; stroke-width:39.3701; stroke-opacity:1; 
stroke-linecap:round; stroke-linejoin:round;">
</g>
<g style="fill:#000000; fill-opacity:0.0; 
stroke:#000000; stroke-width:59.0551; stroke-opacity:1; 
stroke-linecap:round; stroke-linejoin:round;">
<path d="M70417 73070
L70220 73070
" />
<path d="M70220 73380
L70220 72789
L70501 72789
" />
<path d="M70726 73380
L70726 72986
" />
<path d="M70726 72789
L70698 72817
L70726 72845
L70754 72817
L70726 72789
L70726 72845
" />
<path d="M71091 73380
L71035 73352
L71007 73295
L71007 72789
" />
<path d="M71541 73352
L71485 73380
L71373 73380
L71316 73352
L71288 73295
L71288 73070
L71316 73014
L71373 72986
L71485 72986
L71541 73014
L71570 73070
L71570 73127
L71288 73183
" />
<path d="M71823 73323
L71851 73352
L71823 73380
L71795 73352
L71823 73323
L71823 73380
" />
<path d="M71823 73014
L71851 73042
L71823 73070
L71795 73042
L71823 73014
L71823 73070
" />
<path d="M72554 73380
L72554 72789
" />
<path d="M72891 73380
L72638 73042
" />
<path d="M72891 72789
L72554 73127
" />
<path d="M73397 72986
L73397 73380
" />
<path d="M73144 72986
L73144 73295
L73172 73352
L73229 73380
L73313 73380
L73369 73352
L73397 73323
" />
<path d="M73679 73380
L73679 72986
" />
<path d="M73679 73099
L73707 73042
L73735 73014
L73791 72986
L73847 72986
" />
<path d="M74016 73352
L74072 73380
L74185 73380
L74241 73352
L74269 73295
L74269 73267
L74241 73211
L74185 73183
L74100 73183
L74044 73155
L74016 73099
L74016 73070
L74044 73014
L74100 72986
L74185 72986
L74241 73014
" />
<path d="M74775 73380
L74775 73070
L74747 73014
L74691 72986
L74579 72986
L74522 73014
" />
<path d="M74775 73352
L74719 73380
L74579 73380
L74522 73352
L74494 73295
L74494 73239
L74522 73183
L74579 73155
L74719 73155
L74775 73127
" />
<path d="M75057 73380
L75057 72789
L75197 72789
L75282 72817
L75338 72874
L75366 72930
L75394 73042
L75394 73127
L75366 73239
L75338 73295
L75282 73352
L75197 73380
L75057 73380
" />
<path d="M75900 73380
L75900 73070
L75872 73014
L75816 72986
L75703 72986
L75647 73014
" />
<path d="M75900 73352
L75844 73380
L75703 73380
L75647 73352
L75619 73295
L75619 73239
L75647 73183
L75703 73155
L75844 73155
L75900 73127
" />
<path d="M76181 73380
L76181 72986
" />
<path d="M76181 73099
L76210 73042
L76238 73014
L76294 72986
L76350 72986
" />
<path d="M76547 73380
L76547 72789
" />
<path d="M76547 73014
L76603 72986
L76716 72986
L76772 73014
L76800 73042
L76828 73099
L76828 73267
L76800 73323
L76772 73352
L76716 73380
L76603 73380
L76547 73352
" />
<path d="M77053 73352
L77109 73380
L77222 73380
L77278 73352
L77306 73295
L77306 73267
L77278 73211
L77222 73183
L77138 73183
L77081 73155
L77053 73099
L77053 73070
L77081 73014
L77138 72986
L77222 72986
L77278 73014
" />
<path d="M77559 73323
L77588 73352
L77559 73380
L77531 73352
L77559 73323
L77559 73380
" />
<path d="M77841 73380
L77841 72789
" />
<path d="M77897 73155
L78066 73380
" />
<path d="M78066 72986
L77841 73211
" />
<path d="M78319 73380
L78319 72986
" />
<path d="M78319 72789
L78291 72817
L78319 72845
L78347 72817
L78319 72789
L78319 72845
" />
<path d="M78853 73352
L78797 73380
L78684 73380
L78628 73352
L78600 73323
L78572 73267
L78572 73099
L78600 73042
L78628 73014
L78684 72986
L78797 72986
L78853 73014
" />
<path d="M79359 73380
L79359 73070
L79331 73014
L79275 72986
L79162 72986
L79106 73014
" />
<path d="M79359 73352
L79303 73380
L79162 73380
L79106 73352
L79078 73295
L79078 73239
L79106 73183
L79162 73155
L79303 73155
L79359 73127
" />
<path d="M79894 73380
L79894 72789
" />
<path d="M79894 73352
L79837 73380
L79725 73380
L79669 73352
L79640 73323
L79612 73267
L79612 73099
L79640 73042
L79669 73014
L79725 72986
L79837 72986
L79894 73014
" />
<path d="M80034 73436
L80484 73436
" />
<path d="M80625 72986
L80625 73577
" />
<path d="M80625 73014
L80681 72986
L80793 72986
L80850 73014
L80878 73042
L80906 73099
L80906 73267
L80878 73323
L80850 73352
L80793 73380
L80681 73380
L80625 73352
" />
<path d="M81412 73352
L81356 73380
L81243 73380
L81187 73352
L81159 73323
L81131 73267
L81131 73099
L81159 73042
L81187 73014
L81243 72986
L81356 72986
L81412 73014
" />
<path d="M81665 73380
L81665 72789
" />
<path d="M81665 73014
L81721 72986
L81834 72986
L81890 73014
L81918 73042
L81946 73099
L81946 73267
L81918 73323
L81890 73352
L81834 73380
L81721 73380
L81665 73352
" />
</g>
<g style="fill:#000000; fill-opacity:0.0; 
stroke:#000000; stroke-width:39.3701; stroke-opacity:1; 
stroke-linecap:round; stroke-linejoin:round;">
</g>
<g style="fill:#000000; fill-opacity:0.0; 
stroke:#000000; stroke-width:59.0551; stroke-opacity:1; 
stroke-linecap:round; stroke-linejoin:round;">
<path d="M69685 71459
L112205 71459
" />
</g>
<g style="fill:#000000; fill-opacity:0.0; 
stroke:#000000; stroke-width:39.3701; stroke-opacity:1; 
stroke-linecap:round; stroke-linejoin:round;">
</g>
<g style="fill:#000000; fill-opacity:0.0; 
stroke:#000000; stroke-width:59.0551; stroke-opacity:1; 
stroke-linecap:round; stroke-linejoin:round;">
<path d="M70192 72289
L70276 72317
L70417 72317
L70473 72289
L70501 72260
L70529 72204
L70529 72148
L70501 72092
L70473 72064
L70417 72036
L70304 72007
L70248 71979
L70220 71951
L70192 71895
L70192 71839
L70220 71782
L70248 71754
L70304 71726
L70445 71726
L70529 71754
" />
<path d="M70782 72317
L70782 71726
" />
<path d="M71035 72317
L71035 72007
L71007 71951
L70951 71923
L70867 71923
L70810 71951
L70782 71979
" />
<path d="M71541 72289
L71485 72317
L71373 72317
L71316 72289
L71288 72232
L71288 72007
L71316 71951
L71373 71923
L71485 71923
L71541 71951
L71570 72007
L71570 72064
L71288 72120
" />
<path d="M72048 72289
L71991 72317
L71879 72317
L71823 72289
L71795 72232
L71795 72007
L71823 71951
L71879 71923
L71991 71923
L72048 71951
L72076 72007
L72076 72064
L71795 72120
" />
<path d="M72244 71923
L72469 71923
" />
<path d="M72329 71726
L72329 72232
L72357 72289
L72413 72317
L72469 72317
" />
<path d="M72666 72260
L72694 72289
L72666 72317
L72638 72289
L72666 72260
L72666 72317
" />
<path d="M72666 71951
L72694 71979
L72666 72007
L72638 71979
L72666 71951
L72666 72007
" />
</g>
<g style="fill:#000000; fill-opacity:0.0; 
stroke:#000000; stroke-width:39.3701; stroke-opacity:1; 
stroke-linecap:round; stroke-linejoin:round;">
</g>
<g style="fill:#000000; fill-opacity:0.0; 
stroke:#000000; stroke-width:59.0551; stroke-opacity:1; 
stroke-linecap:round; stroke-linejoin:round;">
<path d="M70220 69955
L70220 69364
" />
<path d="M70557 69955
L70304 69617
" />
<path d="M70557 69364
L70220 69701
" />
<path d="M70810 69955
L70810 69561
" />
<path d="M70810 69673
L70838 69617
L70867 69589
L70923 69561
L70979 69561
" />
<path d="M71176 69955
L71176 69561
" />
<path d="M71176 69364
L71148 69392
L71176 69420
L71204 69392
L71176 69364
L71176 69420
" />
<path d="M71429 69926
L71485 69955
L71598 69955
L71654 69926
L71682 69870
L71682 69842
L71654 69786
L71598 69758
L71513 69758
L71457 69730
L71429 69673
L71429 69645
L71457 69589
L71513 69561
L71598 69561
L71654 69589
" />
<path d="M71851 69561
L72076 69561
" />
<path d="M71935 69364
L71935 69870
L71963 69926
L72019 69955
L72076 69955
" />
<path d="M72526 69955
L72526 69645
L72498 69589
L72441 69561
L72329 69561
L72273 69589
" />
<path d="M72526 69926
L72469 69955
L72329 69955
L72273 69926
L72244 69870
L72244 69814
L72273 69758
L72329 69730
L72469 69730
L72526 69701
" />
<path d="M72807 69561
L72807 70151
" />
<path d="M72807 69589
L72863 69561
L72976 69561
L73032 69589
L73060 69617
L73088 69673
L73088 69842
L73060 69898
L73032 69926
L72976 69955
L72863 69955
L72807 69926
" />
<path d="M73313 69926
L73369 69955
L73482 69955
L73538 69926
L73566 69870
L73566 69842
L73538 69786
L73482 69758
L73397 69758
L73341 69730
L73313 69673
L73313 69645
L73341 69589
L73397 69561
L73482 69561
L73538 69589
" />
<path d="M74185 69364
L74382 69955
L74579 69364
" />
<path d="M74775 69955
L74775 69561
" />
<path d="M74775 69364
L74747 69392
L74775 69420
L74804 69392
L74775 69364
L74775 69420
" />
<path d="M75141 69955
L75085 69926
L75057 69870
L75057 69364
" />
<path d="M75619 69926
L75563 69955
L75450 69955
L75394 69926
L75366 69898
L75338 69842
L75338 69673
L75366 69617
L75394 69589
L75450 69561
L75563 69561
L75619 69589
" />
<path d="M76125 69955
L76125 69645
L76097 69589
L76041 69561
L75928 69561
L75872 69589
" />
<path d="M76125 69926
L76069 69955
L75928 69955
L75872 69926
L75844 69870
L75844 69814
L75872 69758
L75928 69730
L76069 69730
L76125 69701
" />
<path d="M75844 69392
L76125 69392
" />
<path d="M76406 69561
L76406 69955
" />
<path d="M76406 69617
L76435 69589
L76491 69561
L76575 69561
L76631 69589
L76660 69645
L76660 69955
" />
<path d="M76913 69926
L76969 69955
L77081 69955
L77138 69926
L77166 69870
L77166 69842
L77138 69786
L77081 69758
L76997 69758
L76941 69730
L76913 69673
L76913 69645
L76941 69589
L76997 69561
L77081 69561
L77138 69589
" />
</g>
<g style="fill:#000000; fill-opacity:0.0; 
stroke:#000000; stroke-width:39.3701; stroke-opacity:1; 
stroke-linecap:round; stroke-linejoin:round;">
</g>
<g style="fill:#000000; fill-opacity:0.0; 
stroke:#000000; stroke-width:59.0551; stroke-opacity:1; 
stroke-linecap:round; stroke-linejoin:round;">
<path d="M70192 68605
L70473 68605
" />
<path d="M70135 68773
L70332 68183
L70529 68773
" />
<path d="M70979 68380
L70979 68773
" />
<path d="M70726 68380
L70726 68689
L70754 68745
L70810 68773
L70895 68773
L70951 68745
L70979 68717
" />
<path d="M71176 68380
L71401 68380
" />
<path d="M71260 68183
L71260 68689
L71288 68745
L71345 68773
L71401 68773
" />
<path d="M71682 68773
L71626 68745
L71598 68717
L71570 68661
L71570 68492
L71598 68436
L71626 68408
L71682 68380
L71766 68380
L71823 68408
L71851 68436
L71879 68492
L71879 68661
L71851 68717
L71823 68745
L71766 68773
L71682 68773
" />
<path d="M72132 68773
L72132 68380
" />
<path d="M72132 68492
L72160 68436
L72188 68408
L72244 68380
L72301 68380
" />
<path d="M72469 68745
L72526 68773
L72638 68773
L72694 68745
L72723 68689
L72723 68661
L72694 68605
L72638 68577
L72554 68577
L72498 68548
L72469 68492
L72469 68464
L72498 68408
L72554 68380
L72638 68380
L72694 68408
" />
<path d="M72976 68717
L73004 68745
L72976 68773
L72947 68745
L72976 68717
L72976 68773
" />
<path d="M72976 68408
L73004 68436
L72976 68464
L72947 68436
L72976 68408
L72976 68464
" />
</g>
<g style="fill:#000000; fill-opacity:0.0; 
stroke:#000000; stroke-width:39.3701; stroke-opacity:1; 
stroke-linecap:round; stroke-linejoin:round;">
</g>
<g style="fill:#000000; fill-opacity:0.0; 
stroke:#000000; stroke-width:59.0551; stroke-opacity:1; 
stroke-linecap:round; stroke-linejoin:round;">
<path d="M70473 65821
L70360 65821
L70304 65849
L70276 65877
L70220 65961
L70192 66074
L70192 66299
L70220 66355
L70248 66383
L70304 66411
L70417 66411
L70473 66383
L70501 66355
L70529 66299
L70529 66158
L70501 66102
L70473 66074
L70417 66046
L70304 66046
L70248 66074
L70220 66102
L70192 66158
" />
<path d="M70895 65821
L70951 65821
L71007 65849
L71035 65877
L71063 65933
L71091 66046
L71091 66186
L71063 66299
L71035 66355
L71007 66383
L70951 66411
L70895 66411
L70838 66383
L70810 66355
L70782 66299
L70754 66186
L70754 66046
L70782 65933
L70810 65877
L70838 65849
L70895 65821
" />
<path d="M71288 65821
L71429 66411
L71541 65989
L71654 66411
L71795 65821
" />
<path d="M71991 66242
L72273 66242
" />
<path d="M71935 66411
L72132 65821
L72329 66411
" />
<path d="M72779 66018
L72779 66411
" />
<path d="M72526 66018
L72526 66327
L72554 66383
L72610 66411
L72694 66411
L72751 66383
L72779 66355
" />
<path d="M73313 66411
L73313 65821
" />
<path d="M73313 66383
L73257 66411
L73144 66411
L73088 66383
L73060 66355
L73032 66299
L73032 66130
L73060 66074
L73088 66046
L73144 66018
L73257 66018
L73313 66046
" />
<path d="M73594 66411
L73594 66018
" />
<path d="M73594 65821
L73566 65849
L73594 65877
L73622 65849
L73594 65821
L73594 65877
" />
<path d="M73960 66411
L73904 66383
L73876 66355
L73847 66299
L73847 66130
L73876 66074
L73904 66046
L73960 66018
L74044 66018
L74100 66046
L74129 66074
L74157 66130
L74157 66299
L74129 66355
L74100 66383
L74044 66411
L73960 66411
" />
<path d="M74860 66411
L74860 65821
L75085 65821
L75141 65849
L75169 65877
L75197 65933
L75197 66018
L75169 66074
L75141 66102
L75085 66130
L74860 66130
" />
<path d="M75703 66411
L75703 66102
L75675 66046
L75619 66018
L75507 66018
L75450 66046
" />
<path d="M75703 66383
L75647 66411
L75507 66411
L75450 66383
L75422 66327
L75422 66271
L75450 66214
L75507 66186
L75647 66186
L75703 66158
" />
<path d="M75956 66383
L76013 66411
L76125 66411
L76181 66383
L76210 66327
L76210 66299
L76181 66242
L76125 66214
L76041 66214
L75985 66186
L75956 66130
L75956 66102
L75985 66046
L76041 66018
L76125 66018
L76181 66046
" />
<path d="M76378 66018
L76603 66018
" />
<path d="M76463 65821
L76463 66327
L76491 66383
L76547 66411
L76603 66411
" />
<path d="M76800 66411
L76800 66018
" />
<path d="M76800 65821
L76772 65849
L76800 65877
L76828 65849
L76800 65821
L76800 65877
" />
<path d="M77081 66018
L77081 66608
" />
<path d="M77081 66046
L77138 66018
L77250 66018
L77306 66046
L77334 66074
L77363 66130
L77363 66299
L77334 66355
L77306 66383
L77250 66411
L77138 66411
L77081 66383
" />
<path d="M77616 66411
L77616 66018
" />
<path d="M77616 66130
L77644 66074
L77672 66046
L77728 66018
L77784 66018
" />
<path d="M77981 66411
L77981 66018
" />
<path d="M77981 65821
L77953 65849
L77981 65877
L78009 65849
L77981 65821
L77981 65877
" />
<path d="M78262 66018
L78262 66411
" />
<path d="M78262 66074
L78291 66046
L78347 66018
L78431 66018
L78487 66046
L78516 66102
L78516 66411
" />
<path d="M79050 66411
L79050 66102
L79022 66046
L78965 66018
L78853 66018
L78797 66046
" />
<path d="M79050 66383
L78994 66411
L78853 66411
L78797 66383
L78769 66327
L78769 66271
L78797 66214
L78853 66186
L78994 66186
L79050 66158
" />
<path d="M78769 65849
L79050 65849
" />
<path d="M79247 66018
L79472 66018
" />
<path d="M79331 65821
L79331 66327
L79359 66383
L79415 66411
L79472 66411
" />
<path d="M79922 66411
L79922 66102
L79894 66046
L79837 66018
L79725 66018
L79669 66046
" />
<path d="M79922 66383
L79865 66411
L79725 66411
L79669 66383
L79640 66327
L79640 66271
L79669 66214
L79725 66186
L79865 66186
L79922 66158
" />
<path d="M79640 65849
L79922 65849
" />
<path d="M80203 66018
L80203 66524
L80175 66580
L80118 66608
L80090 66608
" />
<path d="M80203 65821
L80175 65849
L80203 65877
L80231 65849
L80203 65821
L80203 65877
" />
<path d="M80456 66383
L80512 66411
L80625 66411
L80681 66383
L80709 66327
L80709 66299
L80681 66242
L80625 66214
L80540 66214
L80484 66186
L80456 66130
L80456 66102
L80484 66046
L80540 66018
L80625 66018
L80681 66046
" />
</g>
<g style="fill:#000000; fill-opacity:0.0; 
stroke:#000000; stroke-width:39.3701; stroke-opacity:1; 
stroke-linecap:round; stroke-linejoin:round;">
</g>
<g style="fill:#000000; fill-opacity:0.0; 
stroke:#000000; stroke-width:59.0551; stroke-opacity:1; 
stroke-linecap:round; stroke-linejoin:round;">
<path d="M77559 75396
L77559 76577
" />
</g>
<g style="fill:#000000; fill-opacity:0.0; 
stroke:#000000; stroke-width:39.3701; stroke-opacity:1; 
stroke-linecap:round; stroke-linejoin:round;">
</g>
<g style="fill:#000000; fill-opacity:0.0; 
stroke:#000000; stroke-width:59.0551; stroke-opacity:1; 
stroke-linecap:round; stroke-linejoin:round;">
<path d="M102756 75396
L102756 77955
" />
</g>
<g style="fill:#C2C200; fill-opacity:0.0; 
stroke:#C2C200; stroke-width:59.0551; stroke-opacity:1; 
stroke-linecap:round; stroke-linejoin:round;">
<circle cx="50423.2" cy="37224.4" r="590.551" /> 
<circle cx="67283.5" cy="24724.4" r="590.551" /> 
<circle cx="67283.5" cy="48582.7" r="590.551" /> 
<circle cx="30039.4" cy="31417.3" r="590.551" /> 
<circle cx="30039.4" cy="48543.3" r="591.862" /> 
<path d="M29645 23543
L67677 23543
" />
<path d="M28858 48976
L28858 24330
" />
<path d="M67677 49763
L29645 49763
" />
<path d="M68464 24330
L68464 48976
" />
<path d="M28858.3 48976.4 A787.402 787.402 0.0 0 0 29645.7 49763.8 " />
<path d="M29645.7 23543.3 A787.402 787.402 0.0 0 0 28858.3 24330.7 " />
<path d="M68464.6 24330.7 A787.402 787.402 0.0 0 0 67677.2 23543.3 " />
<path d="M67677.2 49763.8 A787.402 787.402 0.0 0 0 68464.6 48976.4 " />
</g> 
</svg>
