G04 #@! TF.FileFunction,Legend,Top*
%FSLAX46Y46*%
G04 Gerber Fmt 4.6, Leading zero omitted, Abs format (unit mm)*
G04 Created by KiCad (PCBNEW 4.0.6) date 06/17/17 10:40:26*
%MOMM*%
%LPD*%
G01*
G04 APERTURE LIST*
%ADD10C,0.100000*%
%ADD11C,0.200000*%
%ADD12C,0.300000*%
%ADD13C,0.500000*%
%ADD14C,0.120000*%
%ADD15C,0.150000*%
G04 APERTURE END LIST*
D10*
D11*
X143900000Y-76575000D02*
X150650000Y-76575000D01*
X144150000Y-71475000D02*
X157375000Y-71475000D01*
X143350000Y-66325000D02*
X143350000Y-79325000D01*
X171300000Y-66325000D02*
X143350000Y-66325000D01*
X171300000Y-79325000D02*
X171300000Y-66325000D01*
X143350000Y-79325000D02*
X171300000Y-79325000D01*
D12*
X144157143Y-68578571D02*
X144157143Y-67078571D01*
X144514286Y-67078571D01*
X144728571Y-67150000D01*
X144871429Y-67292857D01*
X144942857Y-67435714D01*
X145014286Y-67721429D01*
X145014286Y-67935714D01*
X144942857Y-68221429D01*
X144871429Y-68364286D01*
X144728571Y-68507143D01*
X144514286Y-68578571D01*
X144157143Y-68578571D01*
X146300000Y-68578571D02*
X146300000Y-67792857D01*
X146228571Y-67650000D01*
X146085714Y-67578571D01*
X145800000Y-67578571D01*
X145657143Y-67650000D01*
X146300000Y-68507143D02*
X146157143Y-68578571D01*
X145800000Y-68578571D01*
X145657143Y-68507143D01*
X145585714Y-68364286D01*
X145585714Y-68221429D01*
X145657143Y-68078571D01*
X145800000Y-68007143D01*
X146157143Y-68007143D01*
X146300000Y-67935714D01*
X146800000Y-67578571D02*
X147371429Y-67578571D01*
X147014286Y-67078571D02*
X147014286Y-68364286D01*
X147085714Y-68507143D01*
X147228572Y-68578571D01*
X147371429Y-68578571D01*
X148085715Y-68578571D02*
X147942857Y-68507143D01*
X147871429Y-68435714D01*
X147800000Y-68292857D01*
X147800000Y-67864286D01*
X147871429Y-67721429D01*
X147942857Y-67650000D01*
X148085715Y-67578571D01*
X148300000Y-67578571D01*
X148442857Y-67650000D01*
X148514286Y-67721429D01*
X148585715Y-67864286D01*
X148585715Y-68292857D01*
X148514286Y-68435714D01*
X148442857Y-68507143D01*
X148300000Y-68578571D01*
X148085715Y-68578571D01*
X149228572Y-68578571D02*
X149228572Y-67578571D01*
X149228572Y-67864286D02*
X149300000Y-67721429D01*
X149371429Y-67650000D01*
X149514286Y-67578571D01*
X149657143Y-67578571D01*
X150157143Y-68578571D02*
X150157143Y-67578571D01*
X150157143Y-67078571D02*
X150085714Y-67150000D01*
X150157143Y-67221429D01*
X150228571Y-67150000D01*
X150157143Y-67078571D01*
X150157143Y-67221429D01*
X150728572Y-67578571D02*
X151514286Y-67578571D01*
X150728572Y-68578571D01*
X151514286Y-68578571D01*
X152657143Y-68507143D02*
X152514286Y-68578571D01*
X152228572Y-68578571D01*
X152085715Y-68507143D01*
X152014286Y-68364286D01*
X152014286Y-67792857D01*
X152085715Y-67650000D01*
X152228572Y-67578571D01*
X152514286Y-67578571D01*
X152657143Y-67650000D01*
X152728572Y-67792857D01*
X152728572Y-67935714D01*
X152014286Y-68078571D01*
X152014286Y-67150000D02*
X152728572Y-67150000D01*
X153157143Y-67578571D02*
X153728572Y-67578571D01*
X153371429Y-67078571D02*
X153371429Y-68364286D01*
X153442857Y-68507143D01*
X153585715Y-68578571D01*
X153728572Y-68578571D01*
X154871429Y-68578571D02*
X154871429Y-67792857D01*
X154800000Y-67650000D01*
X154657143Y-67578571D01*
X154371429Y-67578571D01*
X154228572Y-67650000D01*
X154871429Y-68507143D02*
X154728572Y-68578571D01*
X154371429Y-68578571D01*
X154228572Y-68507143D01*
X154157143Y-68364286D01*
X154157143Y-68221429D01*
X154228572Y-68078571D01*
X154371429Y-68007143D01*
X154728572Y-68007143D01*
X154871429Y-67935714D01*
X154157143Y-67150000D02*
X154871429Y-67150000D01*
X156728572Y-67578571D02*
X156728572Y-69078571D01*
X156728572Y-67650000D02*
X156871429Y-67578571D01*
X157157143Y-67578571D01*
X157300000Y-67650000D01*
X157371429Y-67721429D01*
X157442858Y-67864286D01*
X157442858Y-68292857D01*
X157371429Y-68435714D01*
X157300000Y-68507143D01*
X157157143Y-68578571D01*
X156871429Y-68578571D01*
X156728572Y-68507143D01*
X158085715Y-68578571D02*
X158085715Y-67578571D01*
X158085715Y-67864286D02*
X158157143Y-67721429D01*
X158228572Y-67650000D01*
X158371429Y-67578571D01*
X158514286Y-67578571D01*
X159228572Y-68578571D02*
X159085714Y-68507143D01*
X159014286Y-68435714D01*
X158942857Y-68292857D01*
X158942857Y-67864286D01*
X159014286Y-67721429D01*
X159085714Y-67650000D01*
X159228572Y-67578571D01*
X159442857Y-67578571D01*
X159585714Y-67650000D01*
X159657143Y-67721429D01*
X159728572Y-67864286D01*
X159728572Y-68292857D01*
X159657143Y-68435714D01*
X159585714Y-68507143D01*
X159442857Y-68578571D01*
X159228572Y-68578571D01*
X160371429Y-67578571D02*
X160371429Y-68864286D01*
X160300000Y-69007143D01*
X160157143Y-69078571D01*
X160085715Y-69078571D01*
X160371429Y-67078571D02*
X160300000Y-67150000D01*
X160371429Y-67221429D01*
X160442857Y-67150000D01*
X160371429Y-67078571D01*
X160371429Y-67221429D01*
X161657143Y-68507143D02*
X161514286Y-68578571D01*
X161228572Y-68578571D01*
X161085715Y-68507143D01*
X161014286Y-68364286D01*
X161014286Y-67792857D01*
X161085715Y-67650000D01*
X161228572Y-67578571D01*
X161514286Y-67578571D01*
X161657143Y-67650000D01*
X161728572Y-67792857D01*
X161728572Y-67935714D01*
X161014286Y-68078571D01*
X162371429Y-68578571D02*
X162371429Y-67078571D01*
X162514286Y-68007143D02*
X162942857Y-68578571D01*
X162942857Y-67578571D02*
X162371429Y-68150000D01*
X163371429Y-67578571D02*
X163942858Y-67578571D01*
X163585715Y-67078571D02*
X163585715Y-68364286D01*
X163657143Y-68507143D01*
X163800001Y-68578571D01*
X163942858Y-68578571D01*
X165014286Y-68507143D02*
X164871429Y-68578571D01*
X164585715Y-68578571D01*
X164442858Y-68507143D01*
X164371429Y-68364286D01*
X164371429Y-67792857D01*
X164442858Y-67650000D01*
X164585715Y-67578571D01*
X164871429Y-67578571D01*
X165014286Y-67650000D01*
X165085715Y-67792857D01*
X165085715Y-67935714D01*
X164371429Y-68078571D01*
X164371429Y-67150000D02*
X165085715Y-67150000D01*
X165657143Y-68507143D02*
X165800000Y-68578571D01*
X166085715Y-68578571D01*
X166228572Y-68507143D01*
X166300000Y-68364286D01*
X166300000Y-68292857D01*
X166228572Y-68150000D01*
X166085715Y-68078571D01*
X165871429Y-68078571D01*
X165728572Y-68007143D01*
X165657143Y-67864286D01*
X165657143Y-67792857D01*
X165728572Y-67650000D01*
X165871429Y-67578571D01*
X166085715Y-67578571D01*
X166228572Y-67650000D01*
X165657143Y-67007143D02*
X165942858Y-67221429D01*
X166228572Y-67007143D01*
X167585715Y-68578571D02*
X167585715Y-67792857D01*
X167514286Y-67650000D01*
X167371429Y-67578571D01*
X167085715Y-67578571D01*
X166942858Y-67650000D01*
X167585715Y-68507143D02*
X167442858Y-68578571D01*
X167085715Y-68578571D01*
X166942858Y-68507143D01*
X166871429Y-68364286D01*
X166871429Y-68221429D01*
X166942858Y-68078571D01*
X167085715Y-68007143D01*
X167442858Y-68007143D01*
X167585715Y-67935714D01*
X168300001Y-67578571D02*
X168300001Y-68578571D01*
X168300001Y-67721429D02*
X168371429Y-67650000D01*
X168514287Y-67578571D01*
X168728572Y-67578571D01*
X168871429Y-67650000D01*
X168942858Y-67792857D01*
X168942858Y-68578571D01*
X170300001Y-68578571D02*
X170300001Y-67792857D01*
X170228572Y-67650000D01*
X170085715Y-67578571D01*
X169800001Y-67578571D01*
X169657144Y-67650000D01*
X170300001Y-68507143D02*
X170157144Y-68578571D01*
X169800001Y-68578571D01*
X169657144Y-68507143D01*
X169585715Y-68364286D01*
X169585715Y-68221429D01*
X169657144Y-68078571D01*
X169800001Y-68007143D01*
X170157144Y-68007143D01*
X170300001Y-67935714D01*
X144157143Y-71128571D02*
X144157143Y-69628571D01*
X145014286Y-71128571D02*
X144371429Y-70271429D01*
X145014286Y-69628571D02*
X144157143Y-70485714D01*
X146300000Y-70128571D02*
X146300000Y-71128571D01*
X145657143Y-70128571D02*
X145657143Y-70914286D01*
X145728571Y-71057143D01*
X145871429Y-71128571D01*
X146085714Y-71128571D01*
X146228571Y-71057143D01*
X146300000Y-70985714D01*
X147014286Y-71128571D02*
X147014286Y-70128571D01*
X147014286Y-70414286D02*
X147085714Y-70271429D01*
X147157143Y-70200000D01*
X147300000Y-70128571D01*
X147442857Y-70128571D01*
X147871428Y-71057143D02*
X148014285Y-71128571D01*
X148300000Y-71128571D01*
X148442857Y-71057143D01*
X148514285Y-70914286D01*
X148514285Y-70842857D01*
X148442857Y-70700000D01*
X148300000Y-70628571D01*
X148085714Y-70628571D01*
X147942857Y-70557143D01*
X147871428Y-70414286D01*
X147871428Y-70342857D01*
X147942857Y-70200000D01*
X148085714Y-70128571D01*
X148300000Y-70128571D01*
X148442857Y-70200000D01*
X149800000Y-71128571D02*
X149800000Y-70342857D01*
X149728571Y-70200000D01*
X149585714Y-70128571D01*
X149300000Y-70128571D01*
X149157143Y-70200000D01*
X149800000Y-71057143D02*
X149657143Y-71128571D01*
X149300000Y-71128571D01*
X149157143Y-71057143D01*
X149085714Y-70914286D01*
X149085714Y-70771429D01*
X149157143Y-70628571D01*
X149300000Y-70557143D01*
X149657143Y-70557143D01*
X149800000Y-70485714D01*
X152300000Y-71128571D02*
X152300000Y-69628571D01*
X152300000Y-71057143D02*
X152157143Y-71128571D01*
X151871429Y-71128571D01*
X151728571Y-71057143D01*
X151657143Y-70985714D01*
X151585714Y-70842857D01*
X151585714Y-70414286D01*
X151657143Y-70271429D01*
X151728571Y-70200000D01*
X151871429Y-70128571D01*
X152157143Y-70128571D01*
X152300000Y-70200000D01*
X153657143Y-71128571D02*
X153657143Y-70342857D01*
X153585714Y-70200000D01*
X153442857Y-70128571D01*
X153157143Y-70128571D01*
X153014286Y-70200000D01*
X153657143Y-71057143D02*
X153514286Y-71128571D01*
X153157143Y-71128571D01*
X153014286Y-71057143D01*
X152942857Y-70914286D01*
X152942857Y-70771429D01*
X153014286Y-70628571D01*
X153157143Y-70557143D01*
X153514286Y-70557143D01*
X153657143Y-70485714D01*
X154371429Y-71128571D02*
X154371429Y-70128571D01*
X154371429Y-70414286D02*
X154442857Y-70271429D01*
X154514286Y-70200000D01*
X154657143Y-70128571D01*
X154800000Y-70128571D01*
X155300000Y-71128571D02*
X155300000Y-69628571D01*
X155300000Y-70200000D02*
X155442857Y-70128571D01*
X155728571Y-70128571D01*
X155871428Y-70200000D01*
X155942857Y-70271429D01*
X156014286Y-70414286D01*
X156014286Y-70842857D01*
X155942857Y-70985714D01*
X155871428Y-71057143D01*
X155728571Y-71128571D01*
X155442857Y-71128571D01*
X155300000Y-71057143D01*
X156585714Y-71057143D02*
X156728571Y-71128571D01*
X157014286Y-71128571D01*
X157157143Y-71057143D01*
X157228571Y-70914286D01*
X157228571Y-70842857D01*
X157157143Y-70700000D01*
X157014286Y-70628571D01*
X156800000Y-70628571D01*
X156657143Y-70557143D01*
X156585714Y-70414286D01*
X156585714Y-70342857D01*
X156657143Y-70200000D01*
X156800000Y-70128571D01*
X157014286Y-70128571D01*
X157157143Y-70200000D01*
X157871429Y-70985714D02*
X157942857Y-71057143D01*
X157871429Y-71128571D01*
X157800000Y-71057143D01*
X157871429Y-70985714D01*
X157871429Y-71128571D01*
X157871429Y-70200000D02*
X157942857Y-70271429D01*
X157871429Y-70342857D01*
X157800000Y-70271429D01*
X157871429Y-70200000D01*
X157871429Y-70342857D01*
X144800000Y-72178571D02*
X144514286Y-72178571D01*
X144371429Y-72250000D01*
X144300000Y-72321429D01*
X144157143Y-72535714D01*
X144085714Y-72821429D01*
X144085714Y-73392857D01*
X144157143Y-73535714D01*
X144228571Y-73607143D01*
X144371429Y-73678571D01*
X144657143Y-73678571D01*
X144800000Y-73607143D01*
X144871429Y-73535714D01*
X144942857Y-73392857D01*
X144942857Y-73035714D01*
X144871429Y-72892857D01*
X144800000Y-72821429D01*
X144657143Y-72750000D01*
X144371429Y-72750000D01*
X144228571Y-72821429D01*
X144157143Y-72892857D01*
X144085714Y-73035714D01*
X145871428Y-72178571D02*
X146014285Y-72178571D01*
X146157142Y-72250000D01*
X146228571Y-72321429D01*
X146300000Y-72464286D01*
X146371428Y-72750000D01*
X146371428Y-73107143D01*
X146300000Y-73392857D01*
X146228571Y-73535714D01*
X146157142Y-73607143D01*
X146014285Y-73678571D01*
X145871428Y-73678571D01*
X145728571Y-73607143D01*
X145657142Y-73535714D01*
X145585714Y-73392857D01*
X145514285Y-73107143D01*
X145514285Y-72750000D01*
X145585714Y-72464286D01*
X145657142Y-72321429D01*
X145728571Y-72250000D01*
X145871428Y-72178571D01*
X146871428Y-72678571D02*
X147157142Y-73678571D01*
X147442856Y-72964286D01*
X147728571Y-73678571D01*
X148014285Y-72678571D01*
X149657142Y-73250000D02*
X150371428Y-73250000D01*
X149514285Y-73678571D02*
X150014285Y-72178571D01*
X150514285Y-73678571D01*
X151657142Y-72678571D02*
X151657142Y-73678571D01*
X151014285Y-72678571D02*
X151014285Y-73464286D01*
X151085713Y-73607143D01*
X151228571Y-73678571D01*
X151442856Y-73678571D01*
X151585713Y-73607143D01*
X151657142Y-73535714D01*
X153014285Y-73678571D02*
X153014285Y-72178571D01*
X153014285Y-73607143D02*
X152871428Y-73678571D01*
X152585714Y-73678571D01*
X152442856Y-73607143D01*
X152371428Y-73535714D01*
X152299999Y-73392857D01*
X152299999Y-72964286D01*
X152371428Y-72821429D01*
X152442856Y-72750000D01*
X152585714Y-72678571D01*
X152871428Y-72678571D01*
X153014285Y-72750000D01*
X153728571Y-73678571D02*
X153728571Y-72678571D01*
X153728571Y-72178571D02*
X153657142Y-72250000D01*
X153728571Y-72321429D01*
X153799999Y-72250000D01*
X153728571Y-72178571D01*
X153728571Y-72321429D01*
X154657143Y-73678571D02*
X154514285Y-73607143D01*
X154442857Y-73535714D01*
X154371428Y-73392857D01*
X154371428Y-72964286D01*
X154442857Y-72821429D01*
X154514285Y-72750000D01*
X154657143Y-72678571D01*
X154871428Y-72678571D01*
X155014285Y-72750000D01*
X155085714Y-72821429D01*
X155157143Y-72964286D01*
X155157143Y-73392857D01*
X155085714Y-73535714D01*
X155014285Y-73607143D01*
X154871428Y-73678571D01*
X154657143Y-73678571D01*
X157585714Y-73678571D02*
X157585714Y-72892857D01*
X157514285Y-72750000D01*
X157371428Y-72678571D01*
X157085714Y-72678571D01*
X156942857Y-72750000D01*
X157585714Y-73607143D02*
X157442857Y-73678571D01*
X157085714Y-73678571D01*
X156942857Y-73607143D01*
X156871428Y-73464286D01*
X156871428Y-73321429D01*
X156942857Y-73178571D01*
X157085714Y-73107143D01*
X157442857Y-73107143D01*
X157585714Y-73035714D01*
X158228571Y-73607143D02*
X158371428Y-73678571D01*
X158657143Y-73678571D01*
X158800000Y-73607143D01*
X158871428Y-73464286D01*
X158871428Y-73392857D01*
X158800000Y-73250000D01*
X158657143Y-73178571D01*
X158442857Y-73178571D01*
X158300000Y-73107143D01*
X158228571Y-72964286D01*
X158228571Y-72892857D01*
X158300000Y-72750000D01*
X158442857Y-72678571D01*
X158657143Y-72678571D01*
X158800000Y-72750000D01*
X159300000Y-72678571D02*
X159871429Y-72678571D01*
X159514286Y-72178571D02*
X159514286Y-73464286D01*
X159585714Y-73607143D01*
X159728572Y-73678571D01*
X159871429Y-73678571D01*
X160371429Y-73678571D02*
X160371429Y-72678571D01*
X160371429Y-72178571D02*
X160300000Y-72250000D01*
X160371429Y-72321429D01*
X160442857Y-72250000D01*
X160371429Y-72178571D01*
X160371429Y-72321429D01*
X161085715Y-72678571D02*
X161085715Y-74178571D01*
X161085715Y-72750000D02*
X161228572Y-72678571D01*
X161514286Y-72678571D01*
X161657143Y-72750000D01*
X161728572Y-72821429D01*
X161800001Y-72964286D01*
X161800001Y-73392857D01*
X161728572Y-73535714D01*
X161657143Y-73607143D01*
X161514286Y-73678571D01*
X161228572Y-73678571D01*
X161085715Y-73607143D01*
X162442858Y-73678571D02*
X162442858Y-72678571D01*
X162442858Y-72964286D02*
X162514286Y-72821429D01*
X162585715Y-72750000D01*
X162728572Y-72678571D01*
X162871429Y-72678571D01*
X163371429Y-73678571D02*
X163371429Y-72678571D01*
X163371429Y-72178571D02*
X163300000Y-72250000D01*
X163371429Y-72321429D01*
X163442857Y-72250000D01*
X163371429Y-72178571D01*
X163371429Y-72321429D01*
X164085715Y-72678571D02*
X164085715Y-73678571D01*
X164085715Y-72821429D02*
X164157143Y-72750000D01*
X164300001Y-72678571D01*
X164514286Y-72678571D01*
X164657143Y-72750000D01*
X164728572Y-72892857D01*
X164728572Y-73678571D01*
X166085715Y-73678571D02*
X166085715Y-72892857D01*
X166014286Y-72750000D01*
X165871429Y-72678571D01*
X165585715Y-72678571D01*
X165442858Y-72750000D01*
X166085715Y-73607143D02*
X165942858Y-73678571D01*
X165585715Y-73678571D01*
X165442858Y-73607143D01*
X165371429Y-73464286D01*
X165371429Y-73321429D01*
X165442858Y-73178571D01*
X165585715Y-73107143D01*
X165942858Y-73107143D01*
X166085715Y-73035714D01*
X165371429Y-72250000D02*
X166085715Y-72250000D01*
X166585715Y-72678571D02*
X167157144Y-72678571D01*
X166800001Y-72178571D02*
X166800001Y-73464286D01*
X166871429Y-73607143D01*
X167014287Y-73678571D01*
X167157144Y-73678571D01*
X168300001Y-73678571D02*
X168300001Y-72892857D01*
X168228572Y-72750000D01*
X168085715Y-72678571D01*
X167800001Y-72678571D01*
X167657144Y-72750000D01*
X168300001Y-73607143D02*
X168157144Y-73678571D01*
X167800001Y-73678571D01*
X167657144Y-73607143D01*
X167585715Y-73464286D01*
X167585715Y-73321429D01*
X167657144Y-73178571D01*
X167800001Y-73107143D01*
X168157144Y-73107143D01*
X168300001Y-73035714D01*
X167585715Y-72250000D02*
X168300001Y-72250000D01*
X169014287Y-72678571D02*
X169014287Y-73964286D01*
X168942858Y-74107143D01*
X168800001Y-74178571D01*
X168728573Y-74178571D01*
X169014287Y-72178571D02*
X168942858Y-72250000D01*
X169014287Y-72321429D01*
X169085715Y-72250000D01*
X169014287Y-72178571D01*
X169014287Y-72321429D01*
X169657144Y-73607143D02*
X169800001Y-73678571D01*
X170085716Y-73678571D01*
X170228573Y-73607143D01*
X170300001Y-73464286D01*
X170300001Y-73392857D01*
X170228573Y-73250000D01*
X170085716Y-73178571D01*
X169871430Y-73178571D01*
X169728573Y-73107143D01*
X169657144Y-72964286D01*
X169657144Y-72892857D01*
X169728573Y-72750000D01*
X169871430Y-72678571D01*
X170085716Y-72678571D01*
X170228573Y-72750000D01*
X144085714Y-75800000D02*
X144800000Y-75800000D01*
X143942857Y-76228571D02*
X144442857Y-74728571D01*
X144942857Y-76228571D01*
X146085714Y-75228571D02*
X146085714Y-76228571D01*
X145442857Y-75228571D02*
X145442857Y-76014286D01*
X145514285Y-76157143D01*
X145657143Y-76228571D01*
X145871428Y-76228571D01*
X146014285Y-76157143D01*
X146085714Y-76085714D01*
X146585714Y-75228571D02*
X147157143Y-75228571D01*
X146800000Y-74728571D02*
X146800000Y-76014286D01*
X146871428Y-76157143D01*
X147014286Y-76228571D01*
X147157143Y-76228571D01*
X147871429Y-76228571D02*
X147728571Y-76157143D01*
X147657143Y-76085714D01*
X147585714Y-75942857D01*
X147585714Y-75514286D01*
X147657143Y-75371429D01*
X147728571Y-75300000D01*
X147871429Y-75228571D01*
X148085714Y-75228571D01*
X148228571Y-75300000D01*
X148300000Y-75371429D01*
X148371429Y-75514286D01*
X148371429Y-75942857D01*
X148300000Y-76085714D01*
X148228571Y-76157143D01*
X148085714Y-76228571D01*
X147871429Y-76228571D01*
X149014286Y-76228571D02*
X149014286Y-75228571D01*
X149014286Y-75514286D02*
X149085714Y-75371429D01*
X149157143Y-75300000D01*
X149300000Y-75228571D01*
X149442857Y-75228571D01*
X149871428Y-76157143D02*
X150014285Y-76228571D01*
X150300000Y-76228571D01*
X150442857Y-76157143D01*
X150514285Y-76014286D01*
X150514285Y-75942857D01*
X150442857Y-75800000D01*
X150300000Y-75728571D01*
X150085714Y-75728571D01*
X149942857Y-75657143D01*
X149871428Y-75514286D01*
X149871428Y-75442857D01*
X149942857Y-75300000D01*
X150085714Y-75228571D01*
X150300000Y-75228571D01*
X150442857Y-75300000D01*
X151157143Y-76085714D02*
X151228571Y-76157143D01*
X151157143Y-76228571D01*
X151085714Y-76157143D01*
X151157143Y-76085714D01*
X151157143Y-76228571D01*
X151157143Y-75300000D02*
X151228571Y-75371429D01*
X151157143Y-75442857D01*
X151085714Y-75371429D01*
X151157143Y-75300000D01*
X151157143Y-75442857D01*
X144157143Y-78778571D02*
X144157143Y-77278571D01*
X145014286Y-78778571D02*
X144371429Y-77921429D01*
X145014286Y-77278571D02*
X144157143Y-78135714D01*
X145657143Y-78778571D02*
X145657143Y-77778571D01*
X145657143Y-78064286D02*
X145728571Y-77921429D01*
X145800000Y-77850000D01*
X145942857Y-77778571D01*
X146085714Y-77778571D01*
X146585714Y-78778571D02*
X146585714Y-77778571D01*
X146585714Y-77278571D02*
X146514285Y-77350000D01*
X146585714Y-77421429D01*
X146657142Y-77350000D01*
X146585714Y-77278571D01*
X146585714Y-77421429D01*
X147228571Y-78707143D02*
X147371428Y-78778571D01*
X147657143Y-78778571D01*
X147800000Y-78707143D01*
X147871428Y-78564286D01*
X147871428Y-78492857D01*
X147800000Y-78350000D01*
X147657143Y-78278571D01*
X147442857Y-78278571D01*
X147300000Y-78207143D01*
X147228571Y-78064286D01*
X147228571Y-77992857D01*
X147300000Y-77850000D01*
X147442857Y-77778571D01*
X147657143Y-77778571D01*
X147800000Y-77850000D01*
X148300000Y-77778571D02*
X148871429Y-77778571D01*
X148514286Y-77278571D02*
X148514286Y-78564286D01*
X148585714Y-78707143D01*
X148728572Y-78778571D01*
X148871429Y-78778571D01*
X150014286Y-78778571D02*
X150014286Y-77992857D01*
X149942857Y-77850000D01*
X149800000Y-77778571D01*
X149514286Y-77778571D01*
X149371429Y-77850000D01*
X150014286Y-78707143D02*
X149871429Y-78778571D01*
X149514286Y-78778571D01*
X149371429Y-78707143D01*
X149300000Y-78564286D01*
X149300000Y-78421429D01*
X149371429Y-78278571D01*
X149514286Y-78207143D01*
X149871429Y-78207143D01*
X150014286Y-78135714D01*
X150728572Y-77778571D02*
X150728572Y-79278571D01*
X150728572Y-77850000D02*
X150871429Y-77778571D01*
X151157143Y-77778571D01*
X151300000Y-77850000D01*
X151371429Y-77921429D01*
X151442858Y-78064286D01*
X151442858Y-78492857D01*
X151371429Y-78635714D01*
X151300000Y-78707143D01*
X151157143Y-78778571D01*
X150871429Y-78778571D01*
X150728572Y-78707143D01*
X152014286Y-78707143D02*
X152157143Y-78778571D01*
X152442858Y-78778571D01*
X152585715Y-78707143D01*
X152657143Y-78564286D01*
X152657143Y-78492857D01*
X152585715Y-78350000D01*
X152442858Y-78278571D01*
X152228572Y-78278571D01*
X152085715Y-78207143D01*
X152014286Y-78064286D01*
X152014286Y-77992857D01*
X152085715Y-77850000D01*
X152228572Y-77778571D01*
X152442858Y-77778571D01*
X152585715Y-77850000D01*
X154228572Y-77278571D02*
X154728572Y-78778571D01*
X155228572Y-77278571D01*
X155728572Y-78778571D02*
X155728572Y-77778571D01*
X155728572Y-77278571D02*
X155657143Y-77350000D01*
X155728572Y-77421429D01*
X155800000Y-77350000D01*
X155728572Y-77278571D01*
X155728572Y-77421429D01*
X156657144Y-78778571D02*
X156514286Y-78707143D01*
X156442858Y-78564286D01*
X156442858Y-77278571D01*
X157871429Y-78707143D02*
X157728572Y-78778571D01*
X157442858Y-78778571D01*
X157300000Y-78707143D01*
X157228572Y-78635714D01*
X157157143Y-78492857D01*
X157157143Y-78064286D01*
X157228572Y-77921429D01*
X157300000Y-77850000D01*
X157442858Y-77778571D01*
X157728572Y-77778571D01*
X157871429Y-77850000D01*
X159157143Y-78778571D02*
X159157143Y-77992857D01*
X159085714Y-77850000D01*
X158942857Y-77778571D01*
X158657143Y-77778571D01*
X158514286Y-77850000D01*
X159157143Y-78707143D02*
X159014286Y-78778571D01*
X158657143Y-78778571D01*
X158514286Y-78707143D01*
X158442857Y-78564286D01*
X158442857Y-78421429D01*
X158514286Y-78278571D01*
X158657143Y-78207143D01*
X159014286Y-78207143D01*
X159157143Y-78135714D01*
X159871429Y-77778571D02*
X159871429Y-78778571D01*
X159871429Y-77921429D02*
X159942857Y-77850000D01*
X160085715Y-77778571D01*
X160300000Y-77778571D01*
X160442857Y-77850000D01*
X160514286Y-77992857D01*
X160514286Y-78778571D01*
X161157143Y-78707143D02*
X161300000Y-78778571D01*
X161585715Y-78778571D01*
X161728572Y-78707143D01*
X161800000Y-78564286D01*
X161800000Y-78492857D01*
X161728572Y-78350000D01*
X161585715Y-78278571D01*
X161371429Y-78278571D01*
X161228572Y-78207143D01*
X161157143Y-78064286D01*
X161157143Y-77992857D01*
X161228572Y-77850000D01*
X161371429Y-77778571D01*
X161585715Y-77778571D01*
X161728572Y-77850000D01*
X80935714Y-74150000D02*
X80792857Y-74078571D01*
X80578571Y-74078571D01*
X80364286Y-74150000D01*
X80221428Y-74292857D01*
X80150000Y-74435714D01*
X80078571Y-74721429D01*
X80078571Y-74935714D01*
X80150000Y-75221429D01*
X80221428Y-75364286D01*
X80364286Y-75507143D01*
X80578571Y-75578571D01*
X80721428Y-75578571D01*
X80935714Y-75507143D01*
X81007143Y-75435714D01*
X81007143Y-74935714D01*
X80721428Y-74935714D01*
X81650000Y-74578571D02*
X81650000Y-75578571D01*
X81650000Y-74721429D02*
X81721428Y-74650000D01*
X81864286Y-74578571D01*
X82078571Y-74578571D01*
X82221428Y-74650000D01*
X82292857Y-74792857D01*
X82292857Y-75578571D01*
X83650000Y-75578571D02*
X83650000Y-74078571D01*
X83650000Y-75507143D02*
X83507143Y-75578571D01*
X83221429Y-75578571D01*
X83078571Y-75507143D01*
X83007143Y-75435714D01*
X82935714Y-75292857D01*
X82935714Y-74864286D01*
X83007143Y-74721429D01*
X83078571Y-74650000D01*
X83221429Y-74578571D01*
X83507143Y-74578571D01*
X83650000Y-74650000D01*
X80935714Y-108250000D02*
X80792857Y-108178571D01*
X80578571Y-108178571D01*
X80364286Y-108250000D01*
X80221428Y-108392857D01*
X80150000Y-108535714D01*
X80078571Y-108821429D01*
X80078571Y-109035714D01*
X80150000Y-109321429D01*
X80221428Y-109464286D01*
X80364286Y-109607143D01*
X80578571Y-109678571D01*
X80721428Y-109678571D01*
X80935714Y-109607143D01*
X81007143Y-109535714D01*
X81007143Y-109035714D01*
X80721428Y-109035714D01*
X81650000Y-108678571D02*
X81650000Y-109678571D01*
X81650000Y-108821429D02*
X81721428Y-108750000D01*
X81864286Y-108678571D01*
X82078571Y-108678571D01*
X82221428Y-108750000D01*
X82292857Y-108892857D01*
X82292857Y-109678571D01*
X83650000Y-109678571D02*
X83650000Y-108178571D01*
X83650000Y-109607143D02*
X83507143Y-109678571D01*
X83221429Y-109678571D01*
X83078571Y-109607143D01*
X83007143Y-109535714D01*
X82935714Y-109392857D01*
X82935714Y-108964286D01*
X83007143Y-108821429D01*
X83078571Y-108750000D01*
X83221429Y-108678571D01*
X83507143Y-108678571D01*
X83650000Y-108750000D01*
D13*
X166314286Y-102542857D02*
X166314286Y-100257143D01*
X165257143Y-117514286D02*
X167542857Y-117514286D01*
X166400000Y-118657143D02*
X166400000Y-116371429D01*
D12*
X78657144Y-61807143D02*
X79800001Y-61807143D01*
X79228572Y-62378571D02*
X79228572Y-61235714D01*
X81157144Y-61378571D02*
X81157144Y-62378571D01*
X80800001Y-60807143D02*
X80442858Y-61878571D01*
X81371430Y-61878571D01*
X82228572Y-60878571D02*
X82371429Y-60878571D01*
X82514286Y-60950000D01*
X82585715Y-61021429D01*
X82657144Y-61164286D01*
X82728572Y-61450000D01*
X82728572Y-61807143D01*
X82657144Y-62092857D01*
X82585715Y-62235714D01*
X82514286Y-62307143D01*
X82371429Y-62378571D01*
X82228572Y-62378571D01*
X82085715Y-62307143D01*
X82014286Y-62235714D01*
X81942858Y-62092857D01*
X81871429Y-61807143D01*
X81871429Y-61450000D01*
X81942858Y-61164286D01*
X82014286Y-61021429D01*
X82085715Y-60950000D01*
X82228572Y-60878571D01*
X83157143Y-60878571D02*
X83657143Y-62378571D01*
X84157143Y-60878571D01*
D13*
X81614286Y-100442857D02*
X81614286Y-98157143D01*
X80557143Y-84114286D02*
X82842857Y-84114286D01*
X81700000Y-85257143D02*
X81700000Y-82971429D01*
D12*
X80057144Y-122807143D02*
X81200001Y-122807143D01*
X82557144Y-122378571D02*
X82557144Y-123378571D01*
X82200001Y-121807143D02*
X81842858Y-122878571D01*
X82771430Y-122878571D01*
X83628572Y-121878571D02*
X83771429Y-121878571D01*
X83914286Y-121950000D01*
X83985715Y-122021429D01*
X84057144Y-122164286D01*
X84128572Y-122450000D01*
X84128572Y-122807143D01*
X84057144Y-123092857D01*
X83985715Y-123235714D01*
X83914286Y-123307143D01*
X83771429Y-123378571D01*
X83628572Y-123378571D01*
X83485715Y-123307143D01*
X83414286Y-123235714D01*
X83342858Y-123092857D01*
X83271429Y-122807143D01*
X83271429Y-122450000D01*
X83342858Y-122164286D01*
X83414286Y-122021429D01*
X83485715Y-121950000D01*
X83628572Y-121878571D01*
X84557143Y-121878571D02*
X85057143Y-123378571D01*
X85557143Y-121878571D01*
D13*
X161457143Y-123300000D02*
X161457143Y-122728571D01*
X161600000Y-122442857D01*
X161885714Y-122157143D01*
X162457143Y-122014285D01*
X163457143Y-122014285D01*
X164028571Y-122157143D01*
X164314286Y-122442857D01*
X164457143Y-122728571D01*
X164457143Y-123300000D01*
X164314286Y-123585714D01*
X164028571Y-123871428D01*
X163457143Y-124014285D01*
X162457143Y-124014285D01*
X161885714Y-123871428D01*
X161600000Y-123585714D01*
X161457143Y-123300000D01*
X161457143Y-120728571D02*
X163885714Y-120728571D01*
X164171429Y-120585714D01*
X164314286Y-120442857D01*
X164457143Y-120157143D01*
X164457143Y-119585714D01*
X164314286Y-119300000D01*
X164171429Y-119157143D01*
X163885714Y-119014286D01*
X161457143Y-119014286D01*
X161457143Y-118014286D02*
X161457143Y-116300000D01*
X164457143Y-117157143D02*
X161457143Y-117157143D01*
X84842857Y-82028572D02*
X87842857Y-82028572D01*
X84842857Y-83457143D02*
X87842857Y-83457143D01*
X84842857Y-85171428D01*
X87842857Y-85171428D01*
D14*
X96160000Y-91110000D02*
X88840000Y-91110000D01*
X96160000Y-86490000D02*
X88840000Y-86490000D01*
X96160000Y-91110000D02*
X96160000Y-86490000D01*
X88840000Y-91110000D02*
X88840000Y-86490000D01*
X103110000Y-95940000D02*
X103110000Y-101060000D01*
X100490000Y-95940000D02*
X100490000Y-101060000D01*
X103110000Y-95940000D02*
X102796000Y-95940000D01*
X100804000Y-95940000D02*
X100490000Y-95940000D01*
X103110000Y-101060000D02*
X102796000Y-101060000D01*
X100804000Y-101060000D02*
X100490000Y-101060000D01*
X103050000Y-107350000D02*
X94950000Y-107350000D01*
X103050000Y-107390000D02*
X94950000Y-107390000D01*
X103050000Y-107430000D02*
X94950000Y-107430000D01*
X103049000Y-107470000D02*
X94951000Y-107470000D01*
X103047000Y-107510000D02*
X94953000Y-107510000D01*
X103046000Y-107550000D02*
X94954000Y-107550000D01*
X103043000Y-107590000D02*
X94957000Y-107590000D01*
X103041000Y-107630000D02*
X94959000Y-107630000D01*
X103038000Y-107670000D02*
X94962000Y-107670000D01*
X103035000Y-107710000D02*
X94965000Y-107710000D01*
X103031000Y-107750000D02*
X94969000Y-107750000D01*
X103027000Y-107790000D02*
X94973000Y-107790000D01*
X103022000Y-107830000D02*
X94978000Y-107830000D01*
X103017000Y-107870000D02*
X94983000Y-107870000D01*
X103012000Y-107910000D02*
X94988000Y-107910000D01*
X103006000Y-107950000D02*
X94994000Y-107950000D01*
X103000000Y-107990000D02*
X95000000Y-107990000D01*
X102994000Y-108030000D02*
X95006000Y-108030000D01*
X102987000Y-108071000D02*
X95013000Y-108071000D01*
X102979000Y-108111000D02*
X95021000Y-108111000D01*
X102971000Y-108151000D02*
X99980000Y-108151000D01*
X98020000Y-108151000D02*
X95029000Y-108151000D01*
X102963000Y-108191000D02*
X99980000Y-108191000D01*
X98020000Y-108191000D02*
X95037000Y-108191000D01*
X102955000Y-108231000D02*
X99980000Y-108231000D01*
X98020000Y-108231000D02*
X95045000Y-108231000D01*
X102946000Y-108271000D02*
X99980000Y-108271000D01*
X98020000Y-108271000D02*
X95054000Y-108271000D01*
X102936000Y-108311000D02*
X99980000Y-108311000D01*
X98020000Y-108311000D02*
X95064000Y-108311000D01*
X102926000Y-108351000D02*
X99980000Y-108351000D01*
X98020000Y-108351000D02*
X95074000Y-108351000D01*
X102916000Y-108391000D02*
X99980000Y-108391000D01*
X98020000Y-108391000D02*
X95084000Y-108391000D01*
X102905000Y-108431000D02*
X99980000Y-108431000D01*
X98020000Y-108431000D02*
X95095000Y-108431000D01*
X102894000Y-108471000D02*
X99980000Y-108471000D01*
X98020000Y-108471000D02*
X95106000Y-108471000D01*
X102883000Y-108511000D02*
X99980000Y-108511000D01*
X98020000Y-108511000D02*
X95117000Y-108511000D01*
X102870000Y-108551000D02*
X99980000Y-108551000D01*
X98020000Y-108551000D02*
X95130000Y-108551000D01*
X102858000Y-108591000D02*
X99980000Y-108591000D01*
X98020000Y-108591000D02*
X95142000Y-108591000D01*
X102845000Y-108631000D02*
X99980000Y-108631000D01*
X98020000Y-108631000D02*
X95155000Y-108631000D01*
X102832000Y-108671000D02*
X99980000Y-108671000D01*
X98020000Y-108671000D02*
X95168000Y-108671000D01*
X102818000Y-108711000D02*
X99980000Y-108711000D01*
X98020000Y-108711000D02*
X95182000Y-108711000D01*
X102803000Y-108751000D02*
X99980000Y-108751000D01*
X98020000Y-108751000D02*
X95197000Y-108751000D01*
X102789000Y-108791000D02*
X99980000Y-108791000D01*
X98020000Y-108791000D02*
X95211000Y-108791000D01*
X102773000Y-108831000D02*
X99980000Y-108831000D01*
X98020000Y-108831000D02*
X95227000Y-108831000D01*
X102758000Y-108871000D02*
X99980000Y-108871000D01*
X98020000Y-108871000D02*
X95242000Y-108871000D01*
X102741000Y-108911000D02*
X99980000Y-108911000D01*
X98020000Y-108911000D02*
X95259000Y-108911000D01*
X102725000Y-108951000D02*
X99980000Y-108951000D01*
X98020000Y-108951000D02*
X95275000Y-108951000D01*
X102707000Y-108991000D02*
X99980000Y-108991000D01*
X98020000Y-108991000D02*
X95293000Y-108991000D01*
X102690000Y-109031000D02*
X99980000Y-109031000D01*
X98020000Y-109031000D02*
X95310000Y-109031000D01*
X102671000Y-109071000D02*
X99980000Y-109071000D01*
X98020000Y-109071000D02*
X95329000Y-109071000D01*
X102652000Y-109111000D02*
X99980000Y-109111000D01*
X98020000Y-109111000D02*
X95348000Y-109111000D01*
X102633000Y-109151000D02*
X99980000Y-109151000D01*
X98020000Y-109151000D02*
X95367000Y-109151000D01*
X102613000Y-109191000D02*
X99980000Y-109191000D01*
X98020000Y-109191000D02*
X95387000Y-109191000D01*
X102593000Y-109231000D02*
X99980000Y-109231000D01*
X98020000Y-109231000D02*
X95407000Y-109231000D01*
X102572000Y-109271000D02*
X99980000Y-109271000D01*
X98020000Y-109271000D02*
X95428000Y-109271000D01*
X102550000Y-109311000D02*
X99980000Y-109311000D01*
X98020000Y-109311000D02*
X95450000Y-109311000D01*
X102528000Y-109351000D02*
X99980000Y-109351000D01*
X98020000Y-109351000D02*
X95472000Y-109351000D01*
X102505000Y-109391000D02*
X99980000Y-109391000D01*
X98020000Y-109391000D02*
X95495000Y-109391000D01*
X102482000Y-109431000D02*
X99980000Y-109431000D01*
X98020000Y-109431000D02*
X95518000Y-109431000D01*
X102458000Y-109471000D02*
X99980000Y-109471000D01*
X98020000Y-109471000D02*
X95542000Y-109471000D01*
X102434000Y-109511000D02*
X99980000Y-109511000D01*
X98020000Y-109511000D02*
X95566000Y-109511000D01*
X102408000Y-109551000D02*
X99980000Y-109551000D01*
X98020000Y-109551000D02*
X95592000Y-109551000D01*
X102383000Y-109591000D02*
X99980000Y-109591000D01*
X98020000Y-109591000D02*
X95617000Y-109591000D01*
X102356000Y-109631000D02*
X99980000Y-109631000D01*
X98020000Y-109631000D02*
X95644000Y-109631000D01*
X102329000Y-109671000D02*
X99980000Y-109671000D01*
X98020000Y-109671000D02*
X95671000Y-109671000D01*
X102301000Y-109711000D02*
X99980000Y-109711000D01*
X98020000Y-109711000D02*
X95699000Y-109711000D01*
X102272000Y-109751000D02*
X99980000Y-109751000D01*
X98020000Y-109751000D02*
X95728000Y-109751000D01*
X102243000Y-109791000D02*
X99980000Y-109791000D01*
X98020000Y-109791000D02*
X95757000Y-109791000D01*
X102213000Y-109831000D02*
X99980000Y-109831000D01*
X98020000Y-109831000D02*
X95787000Y-109831000D01*
X102182000Y-109871000D02*
X99980000Y-109871000D01*
X98020000Y-109871000D02*
X95818000Y-109871000D01*
X102150000Y-109911000D02*
X99980000Y-109911000D01*
X98020000Y-109911000D02*
X95850000Y-109911000D01*
X102118000Y-109951000D02*
X99980000Y-109951000D01*
X98020000Y-109951000D02*
X95882000Y-109951000D01*
X102084000Y-109991000D02*
X99980000Y-109991000D01*
X98020000Y-109991000D02*
X95916000Y-109991000D01*
X102050000Y-110031000D02*
X99980000Y-110031000D01*
X98020000Y-110031000D02*
X95950000Y-110031000D01*
X102015000Y-110071000D02*
X99980000Y-110071000D01*
X98020000Y-110071000D02*
X95985000Y-110071000D01*
X101979000Y-110111000D02*
X96021000Y-110111000D01*
X101942000Y-110151000D02*
X96058000Y-110151000D01*
X101904000Y-110191000D02*
X96096000Y-110191000D01*
X101865000Y-110231000D02*
X96135000Y-110231000D01*
X101824000Y-110271000D02*
X96176000Y-110271000D01*
X101783000Y-110311000D02*
X96217000Y-110311000D01*
X101740000Y-110351000D02*
X96260000Y-110351000D01*
X101697000Y-110391000D02*
X96303000Y-110391000D01*
X101652000Y-110431000D02*
X96348000Y-110431000D01*
X101605000Y-110471000D02*
X96395000Y-110471000D01*
X101557000Y-110511000D02*
X96443000Y-110511000D01*
X101508000Y-110551000D02*
X96492000Y-110551000D01*
X101457000Y-110591000D02*
X96543000Y-110591000D01*
X101404000Y-110631000D02*
X96596000Y-110631000D01*
X101349000Y-110671000D02*
X96651000Y-110671000D01*
X101293000Y-110711000D02*
X96707000Y-110711000D01*
X101234000Y-110751000D02*
X96766000Y-110751000D01*
X101173000Y-110791000D02*
X96827000Y-110791000D01*
X101109000Y-110831000D02*
X96891000Y-110831000D01*
X101043000Y-110871000D02*
X96957000Y-110871000D01*
X100974000Y-110911000D02*
X97026000Y-110911000D01*
X100902000Y-110951000D02*
X97098000Y-110951000D01*
X100826000Y-110991000D02*
X97174000Y-110991000D01*
X100745000Y-111031000D02*
X97255000Y-111031000D01*
X100660000Y-111071000D02*
X97340000Y-111071000D01*
X100570000Y-111111000D02*
X97430000Y-111111000D01*
X100473000Y-111151000D02*
X97527000Y-111151000D01*
X100369000Y-111191000D02*
X97631000Y-111191000D01*
X100254000Y-111231000D02*
X97746000Y-111231000D01*
X100127000Y-111271000D02*
X97873000Y-111271000D01*
X99983000Y-111311000D02*
X98017000Y-111311000D01*
X99814000Y-111351000D02*
X98186000Y-111351000D01*
X99598000Y-111391000D02*
X98402000Y-111391000D01*
X99246000Y-111431000D02*
X98754000Y-111431000D01*
X99000000Y-103400000D02*
X99000000Y-104600000D01*
X99650000Y-104000000D02*
X98350000Y-104000000D01*
X103090000Y-107350000D02*
G75*
G03X103090000Y-107350000I-4090000J0D01*
G01*
X111260800Y-102158400D02*
X103940800Y-102158400D01*
X111260800Y-99538400D02*
X103940800Y-99538400D01*
X111260800Y-102158400D02*
X111260800Y-99538400D01*
X103940800Y-102158400D02*
X103940800Y-99538400D01*
X119890000Y-92360000D02*
X119890000Y-86240000D01*
X122510000Y-92360000D02*
X122510000Y-86240000D01*
X119890000Y-92360000D02*
X120204000Y-92360000D01*
X122196000Y-92360000D02*
X122510000Y-92360000D01*
X119890000Y-86240000D02*
X120204000Y-86240000D01*
X122196000Y-86240000D02*
X122510000Y-86240000D01*
X112240000Y-74940000D02*
X119560000Y-74940000D01*
X112240000Y-82260000D02*
X119560000Y-82260000D01*
X112240000Y-74940000D02*
X112240000Y-82260000D01*
X119560000Y-74940000D02*
X119560000Y-82260000D01*
X103650000Y-67150000D02*
X95550000Y-67150000D01*
X103650000Y-67190000D02*
X95550000Y-67190000D01*
X103650000Y-67230000D02*
X95550000Y-67230000D01*
X103649000Y-67270000D02*
X95551000Y-67270000D01*
X103647000Y-67310000D02*
X95553000Y-67310000D01*
X103646000Y-67350000D02*
X95554000Y-67350000D01*
X103643000Y-67390000D02*
X95557000Y-67390000D01*
X103641000Y-67430000D02*
X95559000Y-67430000D01*
X103638000Y-67470000D02*
X95562000Y-67470000D01*
X103635000Y-67510000D02*
X95565000Y-67510000D01*
X103631000Y-67550000D02*
X95569000Y-67550000D01*
X103627000Y-67590000D02*
X95573000Y-67590000D01*
X103622000Y-67630000D02*
X95578000Y-67630000D01*
X103617000Y-67670000D02*
X95583000Y-67670000D01*
X103612000Y-67710000D02*
X95588000Y-67710000D01*
X103606000Y-67750000D02*
X95594000Y-67750000D01*
X103600000Y-67790000D02*
X95600000Y-67790000D01*
X103594000Y-67830000D02*
X95606000Y-67830000D01*
X103587000Y-67871000D02*
X95613000Y-67871000D01*
X103579000Y-67911000D02*
X95621000Y-67911000D01*
X103571000Y-67951000D02*
X100580000Y-67951000D01*
X98620000Y-67951000D02*
X95629000Y-67951000D01*
X103563000Y-67991000D02*
X100580000Y-67991000D01*
X98620000Y-67991000D02*
X95637000Y-67991000D01*
X103555000Y-68031000D02*
X100580000Y-68031000D01*
X98620000Y-68031000D02*
X95645000Y-68031000D01*
X103546000Y-68071000D02*
X100580000Y-68071000D01*
X98620000Y-68071000D02*
X95654000Y-68071000D01*
X103536000Y-68111000D02*
X100580000Y-68111000D01*
X98620000Y-68111000D02*
X95664000Y-68111000D01*
X103526000Y-68151000D02*
X100580000Y-68151000D01*
X98620000Y-68151000D02*
X95674000Y-68151000D01*
X103516000Y-68191000D02*
X100580000Y-68191000D01*
X98620000Y-68191000D02*
X95684000Y-68191000D01*
X103505000Y-68231000D02*
X100580000Y-68231000D01*
X98620000Y-68231000D02*
X95695000Y-68231000D01*
X103494000Y-68271000D02*
X100580000Y-68271000D01*
X98620000Y-68271000D02*
X95706000Y-68271000D01*
X103483000Y-68311000D02*
X100580000Y-68311000D01*
X98620000Y-68311000D02*
X95717000Y-68311000D01*
X103470000Y-68351000D02*
X100580000Y-68351000D01*
X98620000Y-68351000D02*
X95730000Y-68351000D01*
X103458000Y-68391000D02*
X100580000Y-68391000D01*
X98620000Y-68391000D02*
X95742000Y-68391000D01*
X103445000Y-68431000D02*
X100580000Y-68431000D01*
X98620000Y-68431000D02*
X95755000Y-68431000D01*
X103432000Y-68471000D02*
X100580000Y-68471000D01*
X98620000Y-68471000D02*
X95768000Y-68471000D01*
X103418000Y-68511000D02*
X100580000Y-68511000D01*
X98620000Y-68511000D02*
X95782000Y-68511000D01*
X103403000Y-68551000D02*
X100580000Y-68551000D01*
X98620000Y-68551000D02*
X95797000Y-68551000D01*
X103389000Y-68591000D02*
X100580000Y-68591000D01*
X98620000Y-68591000D02*
X95811000Y-68591000D01*
X103373000Y-68631000D02*
X100580000Y-68631000D01*
X98620000Y-68631000D02*
X95827000Y-68631000D01*
X103358000Y-68671000D02*
X100580000Y-68671000D01*
X98620000Y-68671000D02*
X95842000Y-68671000D01*
X103341000Y-68711000D02*
X100580000Y-68711000D01*
X98620000Y-68711000D02*
X95859000Y-68711000D01*
X103325000Y-68751000D02*
X100580000Y-68751000D01*
X98620000Y-68751000D02*
X95875000Y-68751000D01*
X103307000Y-68791000D02*
X100580000Y-68791000D01*
X98620000Y-68791000D02*
X95893000Y-68791000D01*
X103290000Y-68831000D02*
X100580000Y-68831000D01*
X98620000Y-68831000D02*
X95910000Y-68831000D01*
X103271000Y-68871000D02*
X100580000Y-68871000D01*
X98620000Y-68871000D02*
X95929000Y-68871000D01*
X103252000Y-68911000D02*
X100580000Y-68911000D01*
X98620000Y-68911000D02*
X95948000Y-68911000D01*
X103233000Y-68951000D02*
X100580000Y-68951000D01*
X98620000Y-68951000D02*
X95967000Y-68951000D01*
X103213000Y-68991000D02*
X100580000Y-68991000D01*
X98620000Y-68991000D02*
X95987000Y-68991000D01*
X103193000Y-69031000D02*
X100580000Y-69031000D01*
X98620000Y-69031000D02*
X96007000Y-69031000D01*
X103172000Y-69071000D02*
X100580000Y-69071000D01*
X98620000Y-69071000D02*
X96028000Y-69071000D01*
X103150000Y-69111000D02*
X100580000Y-69111000D01*
X98620000Y-69111000D02*
X96050000Y-69111000D01*
X103128000Y-69151000D02*
X100580000Y-69151000D01*
X98620000Y-69151000D02*
X96072000Y-69151000D01*
X103105000Y-69191000D02*
X100580000Y-69191000D01*
X98620000Y-69191000D02*
X96095000Y-69191000D01*
X103082000Y-69231000D02*
X100580000Y-69231000D01*
X98620000Y-69231000D02*
X96118000Y-69231000D01*
X103058000Y-69271000D02*
X100580000Y-69271000D01*
X98620000Y-69271000D02*
X96142000Y-69271000D01*
X103034000Y-69311000D02*
X100580000Y-69311000D01*
X98620000Y-69311000D02*
X96166000Y-69311000D01*
X103008000Y-69351000D02*
X100580000Y-69351000D01*
X98620000Y-69351000D02*
X96192000Y-69351000D01*
X102983000Y-69391000D02*
X100580000Y-69391000D01*
X98620000Y-69391000D02*
X96217000Y-69391000D01*
X102956000Y-69431000D02*
X100580000Y-69431000D01*
X98620000Y-69431000D02*
X96244000Y-69431000D01*
X102929000Y-69471000D02*
X100580000Y-69471000D01*
X98620000Y-69471000D02*
X96271000Y-69471000D01*
X102901000Y-69511000D02*
X100580000Y-69511000D01*
X98620000Y-69511000D02*
X96299000Y-69511000D01*
X102872000Y-69551000D02*
X100580000Y-69551000D01*
X98620000Y-69551000D02*
X96328000Y-69551000D01*
X102843000Y-69591000D02*
X100580000Y-69591000D01*
X98620000Y-69591000D02*
X96357000Y-69591000D01*
X102813000Y-69631000D02*
X100580000Y-69631000D01*
X98620000Y-69631000D02*
X96387000Y-69631000D01*
X102782000Y-69671000D02*
X100580000Y-69671000D01*
X98620000Y-69671000D02*
X96418000Y-69671000D01*
X102750000Y-69711000D02*
X100580000Y-69711000D01*
X98620000Y-69711000D02*
X96450000Y-69711000D01*
X102718000Y-69751000D02*
X100580000Y-69751000D01*
X98620000Y-69751000D02*
X96482000Y-69751000D01*
X102684000Y-69791000D02*
X100580000Y-69791000D01*
X98620000Y-69791000D02*
X96516000Y-69791000D01*
X102650000Y-69831000D02*
X100580000Y-69831000D01*
X98620000Y-69831000D02*
X96550000Y-69831000D01*
X102615000Y-69871000D02*
X100580000Y-69871000D01*
X98620000Y-69871000D02*
X96585000Y-69871000D01*
X102579000Y-69911000D02*
X96621000Y-69911000D01*
X102542000Y-69951000D02*
X96658000Y-69951000D01*
X102504000Y-69991000D02*
X96696000Y-69991000D01*
X102465000Y-70031000D02*
X96735000Y-70031000D01*
X102424000Y-70071000D02*
X96776000Y-70071000D01*
X102383000Y-70111000D02*
X96817000Y-70111000D01*
X102340000Y-70151000D02*
X96860000Y-70151000D01*
X102297000Y-70191000D02*
X96903000Y-70191000D01*
X102252000Y-70231000D02*
X96948000Y-70231000D01*
X102205000Y-70271000D02*
X96995000Y-70271000D01*
X102157000Y-70311000D02*
X97043000Y-70311000D01*
X102108000Y-70351000D02*
X97092000Y-70351000D01*
X102057000Y-70391000D02*
X97143000Y-70391000D01*
X102004000Y-70431000D02*
X97196000Y-70431000D01*
X101949000Y-70471000D02*
X97251000Y-70471000D01*
X101893000Y-70511000D02*
X97307000Y-70511000D01*
X101834000Y-70551000D02*
X97366000Y-70551000D01*
X101773000Y-70591000D02*
X97427000Y-70591000D01*
X101709000Y-70631000D02*
X97491000Y-70631000D01*
X101643000Y-70671000D02*
X97557000Y-70671000D01*
X101574000Y-70711000D02*
X97626000Y-70711000D01*
X101502000Y-70751000D02*
X97698000Y-70751000D01*
X101426000Y-70791000D02*
X97774000Y-70791000D01*
X101345000Y-70831000D02*
X97855000Y-70831000D01*
X101260000Y-70871000D02*
X97940000Y-70871000D01*
X101170000Y-70911000D02*
X98030000Y-70911000D01*
X101073000Y-70951000D02*
X98127000Y-70951000D01*
X100969000Y-70991000D02*
X98231000Y-70991000D01*
X100854000Y-71031000D02*
X98346000Y-71031000D01*
X100727000Y-71071000D02*
X98473000Y-71071000D01*
X100583000Y-71111000D02*
X98617000Y-71111000D01*
X100414000Y-71151000D02*
X98786000Y-71151000D01*
X100198000Y-71191000D02*
X99002000Y-71191000D01*
X99846000Y-71231000D02*
X99354000Y-71231000D01*
X99600000Y-63200000D02*
X99600000Y-64400000D01*
X100250000Y-63800000D02*
X98950000Y-63800000D01*
X103690000Y-67150000D02*
G75*
G03X103690000Y-67150000I-4090000J0D01*
G01*
X107110000Y-63440000D02*
X107110000Y-70760000D01*
X104490000Y-63440000D02*
X104490000Y-70760000D01*
X107110000Y-63440000D02*
X104490000Y-63440000D01*
X107110000Y-70760000D02*
X104490000Y-70760000D01*
X147710000Y-112040000D02*
X147710000Y-119360000D01*
X145090000Y-112040000D02*
X145090000Y-119360000D01*
X147710000Y-112040000D02*
X145090000Y-112040000D01*
X147710000Y-119360000D02*
X145090000Y-119360000D01*
X103050000Y-116150000D02*
X94950000Y-116150000D01*
X103050000Y-116190000D02*
X94950000Y-116190000D01*
X103050000Y-116230000D02*
X94950000Y-116230000D01*
X103049000Y-116270000D02*
X94951000Y-116270000D01*
X103047000Y-116310000D02*
X94953000Y-116310000D01*
X103046000Y-116350000D02*
X94954000Y-116350000D01*
X103043000Y-116390000D02*
X94957000Y-116390000D01*
X103041000Y-116430000D02*
X94959000Y-116430000D01*
X103038000Y-116470000D02*
X94962000Y-116470000D01*
X103035000Y-116510000D02*
X94965000Y-116510000D01*
X103031000Y-116550000D02*
X94969000Y-116550000D01*
X103027000Y-116590000D02*
X94973000Y-116590000D01*
X103022000Y-116630000D02*
X94978000Y-116630000D01*
X103017000Y-116670000D02*
X94983000Y-116670000D01*
X103012000Y-116710000D02*
X94988000Y-116710000D01*
X103006000Y-116750000D02*
X94994000Y-116750000D01*
X103000000Y-116790000D02*
X95000000Y-116790000D01*
X102994000Y-116830000D02*
X95006000Y-116830000D01*
X102987000Y-116871000D02*
X95013000Y-116871000D01*
X102979000Y-116911000D02*
X95021000Y-116911000D01*
X102971000Y-116951000D02*
X99980000Y-116951000D01*
X98020000Y-116951000D02*
X95029000Y-116951000D01*
X102963000Y-116991000D02*
X99980000Y-116991000D01*
X98020000Y-116991000D02*
X95037000Y-116991000D01*
X102955000Y-117031000D02*
X99980000Y-117031000D01*
X98020000Y-117031000D02*
X95045000Y-117031000D01*
X102946000Y-117071000D02*
X99980000Y-117071000D01*
X98020000Y-117071000D02*
X95054000Y-117071000D01*
X102936000Y-117111000D02*
X99980000Y-117111000D01*
X98020000Y-117111000D02*
X95064000Y-117111000D01*
X102926000Y-117151000D02*
X99980000Y-117151000D01*
X98020000Y-117151000D02*
X95074000Y-117151000D01*
X102916000Y-117191000D02*
X99980000Y-117191000D01*
X98020000Y-117191000D02*
X95084000Y-117191000D01*
X102905000Y-117231000D02*
X99980000Y-117231000D01*
X98020000Y-117231000D02*
X95095000Y-117231000D01*
X102894000Y-117271000D02*
X99980000Y-117271000D01*
X98020000Y-117271000D02*
X95106000Y-117271000D01*
X102883000Y-117311000D02*
X99980000Y-117311000D01*
X98020000Y-117311000D02*
X95117000Y-117311000D01*
X102870000Y-117351000D02*
X99980000Y-117351000D01*
X98020000Y-117351000D02*
X95130000Y-117351000D01*
X102858000Y-117391000D02*
X99980000Y-117391000D01*
X98020000Y-117391000D02*
X95142000Y-117391000D01*
X102845000Y-117431000D02*
X99980000Y-117431000D01*
X98020000Y-117431000D02*
X95155000Y-117431000D01*
X102832000Y-117471000D02*
X99980000Y-117471000D01*
X98020000Y-117471000D02*
X95168000Y-117471000D01*
X102818000Y-117511000D02*
X99980000Y-117511000D01*
X98020000Y-117511000D02*
X95182000Y-117511000D01*
X102803000Y-117551000D02*
X99980000Y-117551000D01*
X98020000Y-117551000D02*
X95197000Y-117551000D01*
X102789000Y-117591000D02*
X99980000Y-117591000D01*
X98020000Y-117591000D02*
X95211000Y-117591000D01*
X102773000Y-117631000D02*
X99980000Y-117631000D01*
X98020000Y-117631000D02*
X95227000Y-117631000D01*
X102758000Y-117671000D02*
X99980000Y-117671000D01*
X98020000Y-117671000D02*
X95242000Y-117671000D01*
X102741000Y-117711000D02*
X99980000Y-117711000D01*
X98020000Y-117711000D02*
X95259000Y-117711000D01*
X102725000Y-117751000D02*
X99980000Y-117751000D01*
X98020000Y-117751000D02*
X95275000Y-117751000D01*
X102707000Y-117791000D02*
X99980000Y-117791000D01*
X98020000Y-117791000D02*
X95293000Y-117791000D01*
X102690000Y-117831000D02*
X99980000Y-117831000D01*
X98020000Y-117831000D02*
X95310000Y-117831000D01*
X102671000Y-117871000D02*
X99980000Y-117871000D01*
X98020000Y-117871000D02*
X95329000Y-117871000D01*
X102652000Y-117911000D02*
X99980000Y-117911000D01*
X98020000Y-117911000D02*
X95348000Y-117911000D01*
X102633000Y-117951000D02*
X99980000Y-117951000D01*
X98020000Y-117951000D02*
X95367000Y-117951000D01*
X102613000Y-117991000D02*
X99980000Y-117991000D01*
X98020000Y-117991000D02*
X95387000Y-117991000D01*
X102593000Y-118031000D02*
X99980000Y-118031000D01*
X98020000Y-118031000D02*
X95407000Y-118031000D01*
X102572000Y-118071000D02*
X99980000Y-118071000D01*
X98020000Y-118071000D02*
X95428000Y-118071000D01*
X102550000Y-118111000D02*
X99980000Y-118111000D01*
X98020000Y-118111000D02*
X95450000Y-118111000D01*
X102528000Y-118151000D02*
X99980000Y-118151000D01*
X98020000Y-118151000D02*
X95472000Y-118151000D01*
X102505000Y-118191000D02*
X99980000Y-118191000D01*
X98020000Y-118191000D02*
X95495000Y-118191000D01*
X102482000Y-118231000D02*
X99980000Y-118231000D01*
X98020000Y-118231000D02*
X95518000Y-118231000D01*
X102458000Y-118271000D02*
X99980000Y-118271000D01*
X98020000Y-118271000D02*
X95542000Y-118271000D01*
X102434000Y-118311000D02*
X99980000Y-118311000D01*
X98020000Y-118311000D02*
X95566000Y-118311000D01*
X102408000Y-118351000D02*
X99980000Y-118351000D01*
X98020000Y-118351000D02*
X95592000Y-118351000D01*
X102383000Y-118391000D02*
X99980000Y-118391000D01*
X98020000Y-118391000D02*
X95617000Y-118391000D01*
X102356000Y-118431000D02*
X99980000Y-118431000D01*
X98020000Y-118431000D02*
X95644000Y-118431000D01*
X102329000Y-118471000D02*
X99980000Y-118471000D01*
X98020000Y-118471000D02*
X95671000Y-118471000D01*
X102301000Y-118511000D02*
X99980000Y-118511000D01*
X98020000Y-118511000D02*
X95699000Y-118511000D01*
X102272000Y-118551000D02*
X99980000Y-118551000D01*
X98020000Y-118551000D02*
X95728000Y-118551000D01*
X102243000Y-118591000D02*
X99980000Y-118591000D01*
X98020000Y-118591000D02*
X95757000Y-118591000D01*
X102213000Y-118631000D02*
X99980000Y-118631000D01*
X98020000Y-118631000D02*
X95787000Y-118631000D01*
X102182000Y-118671000D02*
X99980000Y-118671000D01*
X98020000Y-118671000D02*
X95818000Y-118671000D01*
X102150000Y-118711000D02*
X99980000Y-118711000D01*
X98020000Y-118711000D02*
X95850000Y-118711000D01*
X102118000Y-118751000D02*
X99980000Y-118751000D01*
X98020000Y-118751000D02*
X95882000Y-118751000D01*
X102084000Y-118791000D02*
X99980000Y-118791000D01*
X98020000Y-118791000D02*
X95916000Y-118791000D01*
X102050000Y-118831000D02*
X99980000Y-118831000D01*
X98020000Y-118831000D02*
X95950000Y-118831000D01*
X102015000Y-118871000D02*
X99980000Y-118871000D01*
X98020000Y-118871000D02*
X95985000Y-118871000D01*
X101979000Y-118911000D02*
X96021000Y-118911000D01*
X101942000Y-118951000D02*
X96058000Y-118951000D01*
X101904000Y-118991000D02*
X96096000Y-118991000D01*
X101865000Y-119031000D02*
X96135000Y-119031000D01*
X101824000Y-119071000D02*
X96176000Y-119071000D01*
X101783000Y-119111000D02*
X96217000Y-119111000D01*
X101740000Y-119151000D02*
X96260000Y-119151000D01*
X101697000Y-119191000D02*
X96303000Y-119191000D01*
X101652000Y-119231000D02*
X96348000Y-119231000D01*
X101605000Y-119271000D02*
X96395000Y-119271000D01*
X101557000Y-119311000D02*
X96443000Y-119311000D01*
X101508000Y-119351000D02*
X96492000Y-119351000D01*
X101457000Y-119391000D02*
X96543000Y-119391000D01*
X101404000Y-119431000D02*
X96596000Y-119431000D01*
X101349000Y-119471000D02*
X96651000Y-119471000D01*
X101293000Y-119511000D02*
X96707000Y-119511000D01*
X101234000Y-119551000D02*
X96766000Y-119551000D01*
X101173000Y-119591000D02*
X96827000Y-119591000D01*
X101109000Y-119631000D02*
X96891000Y-119631000D01*
X101043000Y-119671000D02*
X96957000Y-119671000D01*
X100974000Y-119711000D02*
X97026000Y-119711000D01*
X100902000Y-119751000D02*
X97098000Y-119751000D01*
X100826000Y-119791000D02*
X97174000Y-119791000D01*
X100745000Y-119831000D02*
X97255000Y-119831000D01*
X100660000Y-119871000D02*
X97340000Y-119871000D01*
X100570000Y-119911000D02*
X97430000Y-119911000D01*
X100473000Y-119951000D02*
X97527000Y-119951000D01*
X100369000Y-119991000D02*
X97631000Y-119991000D01*
X100254000Y-120031000D02*
X97746000Y-120031000D01*
X100127000Y-120071000D02*
X97873000Y-120071000D01*
X99983000Y-120111000D02*
X98017000Y-120111000D01*
X99814000Y-120151000D02*
X98186000Y-120151000D01*
X99598000Y-120191000D02*
X98402000Y-120191000D01*
X99246000Y-120231000D02*
X98754000Y-120231000D01*
X99000000Y-112200000D02*
X99000000Y-113400000D01*
X99650000Y-112800000D02*
X98350000Y-112800000D01*
X103090000Y-116150000D02*
G75*
G03X103090000Y-116150000I-4090000J0D01*
G01*
X104090000Y-118560000D02*
X104090000Y-111240000D01*
X106710000Y-118560000D02*
X106710000Y-111240000D01*
X104090000Y-118560000D02*
X106710000Y-118560000D01*
X104090000Y-111240000D02*
X106710000Y-111240000D01*
X121140000Y-74010000D02*
X121140000Y-71190000D01*
X121140000Y-71190000D02*
X115820000Y-71190000D01*
X115820000Y-71190000D02*
X115820000Y-74010000D01*
X115820000Y-74010000D02*
X121140000Y-74010000D01*
X122280000Y-72600000D02*
X121140000Y-72600000D01*
X114680000Y-72600000D02*
X115820000Y-72600000D01*
X120300000Y-74010000D02*
X120300000Y-71190000D01*
X129000462Y-70880000D02*
G75*
G03X127455170Y-76430000I-462J-2990000D01*
G01*
X128999538Y-70880000D02*
G75*
G02X130544830Y-76430000I462J-2990000D01*
G01*
X131500000Y-73870000D02*
G75*
G03X131500000Y-73870000I-2500000J0D01*
G01*
X127455000Y-76430000D02*
X130545000Y-76430000D01*
X88100000Y-86150000D02*
X75500000Y-86150000D01*
X75500000Y-86150000D02*
X75500000Y-96500000D01*
X75500000Y-96500000D02*
X76450000Y-96500000D01*
X76450000Y-96500000D02*
X76200000Y-97000000D01*
X76200000Y-97000000D02*
X78100000Y-97000000D01*
X78100000Y-97000000D02*
X78150000Y-97000000D01*
X78150000Y-97000000D02*
X77900000Y-96500000D01*
X77900000Y-96500000D02*
X83300000Y-96500000D01*
X83300000Y-96500000D02*
X83000000Y-97000000D01*
X83000000Y-97000000D02*
X88100000Y-97000000D01*
X88100000Y-97000000D02*
X88100000Y-86150000D01*
X160100000Y-115250000D02*
X172700000Y-115250000D01*
X172700000Y-115250000D02*
X172700000Y-104900000D01*
X172700000Y-104900000D02*
X171750000Y-104900000D01*
X171750000Y-104900000D02*
X172000000Y-104400000D01*
X172000000Y-104400000D02*
X170100000Y-104400000D01*
X170100000Y-104400000D02*
X170050000Y-104400000D01*
X170050000Y-104400000D02*
X170300000Y-104900000D01*
X170300000Y-104900000D02*
X164900000Y-104900000D01*
X164900000Y-104900000D02*
X165200000Y-104400000D01*
X165200000Y-104400000D02*
X160100000Y-104400000D01*
X160100000Y-104400000D02*
X160100000Y-115250000D01*
X88100000Y-62750000D02*
X75500000Y-62750000D01*
X75500000Y-62750000D02*
X75500000Y-73100000D01*
X75500000Y-73100000D02*
X76450000Y-73100000D01*
X76450000Y-73100000D02*
X76200000Y-73600000D01*
X76200000Y-73600000D02*
X78100000Y-73600000D01*
X78100000Y-73600000D02*
X78150000Y-73600000D01*
X78150000Y-73600000D02*
X77900000Y-73100000D01*
X77900000Y-73100000D02*
X83300000Y-73100000D01*
X83300000Y-73100000D02*
X83000000Y-73600000D01*
X83000000Y-73600000D02*
X88100000Y-73600000D01*
X88100000Y-73600000D02*
X88100000Y-62750000D01*
X88100000Y-110350000D02*
X75500000Y-110350000D01*
X75500000Y-110350000D02*
X75500000Y-120700000D01*
X75500000Y-120700000D02*
X76450000Y-120700000D01*
X76450000Y-120700000D02*
X76200000Y-121200000D01*
X76200000Y-121200000D02*
X78100000Y-121200000D01*
X78100000Y-121200000D02*
X78150000Y-121200000D01*
X78150000Y-121200000D02*
X77900000Y-120700000D01*
X77900000Y-120700000D02*
X83300000Y-120700000D01*
X83300000Y-120700000D02*
X83000000Y-121200000D01*
X83000000Y-121200000D02*
X88100000Y-121200000D01*
X88100000Y-121200000D02*
X88100000Y-110350000D01*
X111370400Y-97870000D02*
X111370400Y-94270000D01*
X111358878Y-97908478D02*
G75*
G02X106920400Y-96070000I-1838478J1838478D01*
G01*
X111358878Y-94231522D02*
G75*
G03X106920400Y-96070000I-1838478J-1838478D01*
G01*
X119850000Y-97870000D02*
X119850000Y-94270000D01*
X119838478Y-97908478D02*
G75*
G02X115400000Y-96070000I-1838478J1838478D01*
G01*
X119838478Y-94231522D02*
G75*
G03X115400000Y-96070000I-1838478J-1838478D01*
G01*
X116150000Y-99861200D02*
X116150000Y-103461200D01*
X116161522Y-99822722D02*
G75*
G02X120600000Y-101661200I1838478J-1838478D01*
G01*
X116161522Y-103499678D02*
G75*
G03X120600000Y-101661200I1838478J1838478D01*
G01*
X125920000Y-100400000D02*
X125920000Y-96800000D01*
X125908478Y-100438478D02*
G75*
G02X121470000Y-98600000I-1838478J1838478D01*
G01*
X125908478Y-96761522D02*
G75*
G03X121470000Y-98600000I-1838478J-1838478D01*
G01*
X120750000Y-118470000D02*
X120750000Y-122070000D01*
X120761522Y-118431522D02*
G75*
G02X125200000Y-120270000I1838478J-1838478D01*
G01*
X120761522Y-122108478D02*
G75*
G03X125200000Y-120270000I1838478J1838478D01*
G01*
X123880000Y-110280000D02*
X132120000Y-110280000D01*
X123880000Y-113770000D02*
X132120000Y-113770000D01*
X123880000Y-110280000D02*
X123880000Y-113770000D01*
X132120000Y-110280000D02*
X132120000Y-113770000D01*
X126400000Y-110280000D02*
X126400000Y-111350000D01*
X126400000Y-113450000D02*
X126400000Y-113770000D01*
X129601000Y-110280000D02*
X129601000Y-111860000D01*
X129601000Y-112940000D02*
X129601000Y-113770000D01*
X109280000Y-88080000D02*
X117520000Y-88080000D01*
X109280000Y-91570000D02*
X117520000Y-91570000D01*
X109280000Y-88080000D02*
X109280000Y-91570000D01*
X117520000Y-88080000D02*
X117520000Y-91570000D01*
X111800000Y-88080000D02*
X111800000Y-89150000D01*
X111800000Y-91250000D02*
X111800000Y-91570000D01*
X115001000Y-88080000D02*
X115001000Y-89660000D01*
X115001000Y-90740000D02*
X115001000Y-91570000D01*
X110880000Y-61980000D02*
X121120000Y-61980000D01*
X110880000Y-66621000D02*
X121120000Y-66621000D01*
X110880000Y-61980000D02*
X110880000Y-66621000D01*
X121120000Y-61980000D02*
X121120000Y-66621000D01*
X110880000Y-63490000D02*
X121120000Y-63490000D01*
X114150000Y-61980000D02*
X114150000Y-63490000D01*
X117851000Y-61980000D02*
X117851000Y-63490000D01*
X141120000Y-124220000D02*
X130880000Y-124220000D01*
X141120000Y-119579000D02*
X130880000Y-119579000D01*
X141120000Y-124220000D02*
X141120000Y-119579000D01*
X130880000Y-124220000D02*
X130880000Y-119579000D01*
X141120000Y-122710000D02*
X130880000Y-122710000D01*
X137850000Y-124220000D02*
X137850000Y-122710000D01*
X134149000Y-124220000D02*
X134149000Y-122710000D01*
X93310000Y-95070000D02*
X90690000Y-95070000D01*
X90690000Y-95070000D02*
X90690000Y-101490000D01*
X90690000Y-101490000D02*
X93310000Y-101490000D01*
X93310000Y-101490000D02*
X93310000Y-95070000D01*
X92000000Y-94180000D02*
X92000000Y-95070000D01*
X92000000Y-102380000D02*
X92000000Y-101490000D01*
X103330000Y-94510000D02*
X103330000Y-91890000D01*
X103330000Y-91890000D02*
X96910000Y-91890000D01*
X96910000Y-91890000D02*
X96910000Y-94510000D01*
X96910000Y-94510000D02*
X103330000Y-94510000D01*
X104220000Y-93200000D02*
X103330000Y-93200000D01*
X96020000Y-93200000D02*
X96910000Y-93200000D01*
X113730000Y-110310000D02*
X113730000Y-107690000D01*
X113730000Y-107690000D02*
X107310000Y-107690000D01*
X107310000Y-107690000D02*
X107310000Y-110310000D01*
X107310000Y-110310000D02*
X113730000Y-110310000D01*
X114620000Y-109000000D02*
X113730000Y-109000000D01*
X106420000Y-109000000D02*
X107310000Y-109000000D01*
X114130000Y-85710000D02*
X114130000Y-83090000D01*
X114130000Y-83090000D02*
X107710000Y-83090000D01*
X107710000Y-83090000D02*
X107710000Y-85710000D01*
X107710000Y-85710000D02*
X114130000Y-85710000D01*
X115020000Y-84400000D02*
X114130000Y-84400000D01*
X106820000Y-84400000D02*
X107710000Y-84400000D01*
X126290000Y-107510000D02*
X126290000Y-104890000D01*
X126290000Y-104890000D02*
X119870000Y-104890000D01*
X119870000Y-104890000D02*
X119870000Y-107510000D01*
X119870000Y-107510000D02*
X126290000Y-107510000D01*
X127180000Y-106200000D02*
X126290000Y-106200000D01*
X118980000Y-106200000D02*
X119870000Y-106200000D01*
X114710000Y-94970000D02*
X112090000Y-94970000D01*
X112090000Y-94970000D02*
X112090000Y-101390000D01*
X112090000Y-101390000D02*
X114710000Y-101390000D01*
X114710000Y-101390000D02*
X114710000Y-94970000D01*
X113400000Y-94080000D02*
X113400000Y-94970000D01*
X113400000Y-102280000D02*
X113400000Y-101390000D01*
X120730000Y-113710000D02*
X120730000Y-111090000D01*
X120730000Y-111090000D02*
X114310000Y-111090000D01*
X114310000Y-111090000D02*
X114310000Y-113710000D01*
X114310000Y-113710000D02*
X120730000Y-113710000D01*
X121620000Y-112400000D02*
X120730000Y-112400000D01*
X113420000Y-112400000D02*
X114310000Y-112400000D01*
X134130000Y-91110000D02*
X134130000Y-88490000D01*
X134130000Y-88490000D02*
X127710000Y-88490000D01*
X127710000Y-88490000D02*
X127710000Y-91110000D01*
X127710000Y-91110000D02*
X134130000Y-91110000D01*
X135020000Y-89800000D02*
X134130000Y-89800000D01*
X126820000Y-89800000D02*
X127710000Y-89800000D01*
X129490000Y-85310000D02*
X129490000Y-82690000D01*
X129490000Y-82690000D02*
X123070000Y-82690000D01*
X123070000Y-82690000D02*
X123070000Y-85310000D01*
X123070000Y-85310000D02*
X129490000Y-85310000D01*
X130380000Y-84000000D02*
X129490000Y-84000000D01*
X122180000Y-84000000D02*
X123070000Y-84000000D01*
X120390000Y-75240000D02*
X122189000Y-75240000D01*
X123411000Y-75240000D02*
X125210000Y-75240000D01*
X120390000Y-81960000D02*
X122189000Y-81960000D01*
X123411000Y-81960000D02*
X125210000Y-81960000D01*
X125210000Y-75240000D02*
X125210000Y-81960000D01*
X120390000Y-75240000D02*
X120390000Y-81960000D01*
X126290000Y-117110000D02*
X126290000Y-114490000D01*
X126290000Y-114490000D02*
X119870000Y-114490000D01*
X119870000Y-114490000D02*
X119870000Y-117110000D01*
X119870000Y-117110000D02*
X126290000Y-117110000D01*
X127180000Y-115800000D02*
X126290000Y-115800000D01*
X118980000Y-115800000D02*
X119870000Y-115800000D01*
X111310000Y-70270000D02*
X108690000Y-70270000D01*
X108690000Y-70270000D02*
X108690000Y-76690000D01*
X108690000Y-76690000D02*
X111310000Y-76690000D01*
X111310000Y-76690000D02*
X111310000Y-70270000D01*
X110000000Y-69380000D02*
X110000000Y-70270000D01*
X110000000Y-77580000D02*
X110000000Y-76690000D01*
X139890000Y-92330000D02*
X142510000Y-92330000D01*
X142510000Y-92330000D02*
X142510000Y-85910000D01*
X142510000Y-85910000D02*
X139890000Y-85910000D01*
X139890000Y-85910000D02*
X139890000Y-92330000D01*
X141200000Y-93220000D02*
X141200000Y-92330000D01*
X141200000Y-85020000D02*
X141200000Y-85910000D01*
X139060000Y-67680000D02*
X132940000Y-67680000D01*
X132940000Y-67680000D02*
X132940000Y-84800000D01*
X132940000Y-84800000D02*
X139060000Y-84800000D01*
X139060000Y-84800000D02*
X139060000Y-67680000D01*
X136000000Y-67460000D02*
X136000000Y-67680000D01*
X136000000Y-85020000D02*
X136000000Y-84800000D01*
X139060000Y-94800000D02*
X132940000Y-94800000D01*
X132940000Y-94800000D02*
X132940000Y-111920000D01*
X132940000Y-111920000D02*
X139060000Y-111920000D01*
X139060000Y-111920000D02*
X139060000Y-94800000D01*
X136000000Y-94580000D02*
X136000000Y-94800000D01*
X136000000Y-112140000D02*
X136000000Y-111920000D01*
X149460000Y-91400000D02*
X143340000Y-91400000D01*
X143340000Y-91400000D02*
X143340000Y-108520000D01*
X143340000Y-108520000D02*
X149460000Y-108520000D01*
X149460000Y-108520000D02*
X149460000Y-91400000D01*
X146400000Y-91180000D02*
X146400000Y-91400000D01*
X146400000Y-108740000D02*
X146400000Y-108520000D01*
X150240000Y-110290000D02*
X159360000Y-110290000D01*
X159360000Y-110290000D02*
X159360000Y-92170000D01*
X159360000Y-92170000D02*
X150240000Y-92170000D01*
X150240000Y-92170000D02*
X150240000Y-110290000D01*
X154800000Y-111280000D02*
X154800000Y-110290000D01*
X154800000Y-91180000D02*
X154800000Y-92170000D01*
D15*
X92433334Y-89057143D02*
X92385715Y-89104762D01*
X92242858Y-89152381D01*
X92147620Y-89152381D01*
X92004762Y-89104762D01*
X91909524Y-89009524D01*
X91861905Y-88914286D01*
X91814286Y-88723810D01*
X91814286Y-88580952D01*
X91861905Y-88390476D01*
X91909524Y-88295238D01*
X92004762Y-88200000D01*
X92147620Y-88152381D01*
X92242858Y-88152381D01*
X92385715Y-88200000D01*
X92433334Y-88247619D01*
X93385715Y-89152381D02*
X92814286Y-89152381D01*
X93100000Y-89152381D02*
X93100000Y-88152381D01*
X93004762Y-88295238D01*
X92909524Y-88390476D01*
X92814286Y-88438095D01*
X101533334Y-98757143D02*
X101485715Y-98804762D01*
X101342858Y-98852381D01*
X101247620Y-98852381D01*
X101104762Y-98804762D01*
X101009524Y-98709524D01*
X100961905Y-98614286D01*
X100914286Y-98423810D01*
X100914286Y-98280952D01*
X100961905Y-98090476D01*
X101009524Y-97995238D01*
X101104762Y-97900000D01*
X101247620Y-97852381D01*
X101342858Y-97852381D01*
X101485715Y-97900000D01*
X101533334Y-97947619D01*
X101914286Y-97947619D02*
X101961905Y-97900000D01*
X102057143Y-97852381D01*
X102295239Y-97852381D01*
X102390477Y-97900000D01*
X102438096Y-97947619D01*
X102485715Y-98042857D01*
X102485715Y-98138095D01*
X102438096Y-98280952D01*
X101866667Y-98852381D01*
X102485715Y-98852381D01*
X101533334Y-106857143D02*
X101485715Y-106904762D01*
X101342858Y-106952381D01*
X101247620Y-106952381D01*
X101104762Y-106904762D01*
X101009524Y-106809524D01*
X100961905Y-106714286D01*
X100914286Y-106523810D01*
X100914286Y-106380952D01*
X100961905Y-106190476D01*
X101009524Y-106095238D01*
X101104762Y-106000000D01*
X101247620Y-105952381D01*
X101342858Y-105952381D01*
X101485715Y-106000000D01*
X101533334Y-106047619D01*
X101866667Y-105952381D02*
X102485715Y-105952381D01*
X102152381Y-106333333D01*
X102295239Y-106333333D01*
X102390477Y-106380952D01*
X102438096Y-106428571D01*
X102485715Y-106523810D01*
X102485715Y-106761905D01*
X102438096Y-106857143D01*
X102390477Y-106904762D01*
X102295239Y-106952381D01*
X102009524Y-106952381D01*
X101914286Y-106904762D01*
X101866667Y-106857143D01*
X107233334Y-101357143D02*
X107185715Y-101404762D01*
X107042858Y-101452381D01*
X106947620Y-101452381D01*
X106804762Y-101404762D01*
X106709524Y-101309524D01*
X106661905Y-101214286D01*
X106614286Y-101023810D01*
X106614286Y-100880952D01*
X106661905Y-100690476D01*
X106709524Y-100595238D01*
X106804762Y-100500000D01*
X106947620Y-100452381D01*
X107042858Y-100452381D01*
X107185715Y-100500000D01*
X107233334Y-100547619D01*
X108090477Y-100785714D02*
X108090477Y-101452381D01*
X107852381Y-100404762D02*
X107614286Y-101119048D01*
X108233334Y-101119048D01*
X121033334Y-89557143D02*
X120985715Y-89604762D01*
X120842858Y-89652381D01*
X120747620Y-89652381D01*
X120604762Y-89604762D01*
X120509524Y-89509524D01*
X120461905Y-89414286D01*
X120414286Y-89223810D01*
X120414286Y-89080952D01*
X120461905Y-88890476D01*
X120509524Y-88795238D01*
X120604762Y-88700000D01*
X120747620Y-88652381D01*
X120842858Y-88652381D01*
X120985715Y-88700000D01*
X121033334Y-88747619D01*
X121938096Y-88652381D02*
X121461905Y-88652381D01*
X121414286Y-89128571D01*
X121461905Y-89080952D01*
X121557143Y-89033333D01*
X121795239Y-89033333D01*
X121890477Y-89080952D01*
X121938096Y-89128571D01*
X121985715Y-89223810D01*
X121985715Y-89461905D01*
X121938096Y-89557143D01*
X121890477Y-89604762D01*
X121795239Y-89652381D01*
X121557143Y-89652381D01*
X121461905Y-89604762D01*
X121414286Y-89557143D01*
X115833334Y-77657143D02*
X115785715Y-77704762D01*
X115642858Y-77752381D01*
X115547620Y-77752381D01*
X115404762Y-77704762D01*
X115309524Y-77609524D01*
X115261905Y-77514286D01*
X115214286Y-77323810D01*
X115214286Y-77180952D01*
X115261905Y-76990476D01*
X115309524Y-76895238D01*
X115404762Y-76800000D01*
X115547620Y-76752381D01*
X115642858Y-76752381D01*
X115785715Y-76800000D01*
X115833334Y-76847619D01*
X116690477Y-76752381D02*
X116500000Y-76752381D01*
X116404762Y-76800000D01*
X116357143Y-76847619D01*
X116261905Y-76990476D01*
X116214286Y-77180952D01*
X116214286Y-77561905D01*
X116261905Y-77657143D01*
X116309524Y-77704762D01*
X116404762Y-77752381D01*
X116595239Y-77752381D01*
X116690477Y-77704762D01*
X116738096Y-77657143D01*
X116785715Y-77561905D01*
X116785715Y-77323810D01*
X116738096Y-77228571D01*
X116690477Y-77180952D01*
X116595239Y-77133333D01*
X116404762Y-77133333D01*
X116309524Y-77180952D01*
X116261905Y-77228571D01*
X116214286Y-77323810D01*
X101860134Y-66263143D02*
X101812515Y-66310762D01*
X101669658Y-66358381D01*
X101574420Y-66358381D01*
X101431562Y-66310762D01*
X101336324Y-66215524D01*
X101288705Y-66120286D01*
X101241086Y-65929810D01*
X101241086Y-65786952D01*
X101288705Y-65596476D01*
X101336324Y-65501238D01*
X101431562Y-65406000D01*
X101574420Y-65358381D01*
X101669658Y-65358381D01*
X101812515Y-65406000D01*
X101860134Y-65453619D01*
X102193467Y-65358381D02*
X102860134Y-65358381D01*
X102431562Y-66358381D01*
X105533334Y-67557143D02*
X105485715Y-67604762D01*
X105342858Y-67652381D01*
X105247620Y-67652381D01*
X105104762Y-67604762D01*
X105009524Y-67509524D01*
X104961905Y-67414286D01*
X104914286Y-67223810D01*
X104914286Y-67080952D01*
X104961905Y-66890476D01*
X105009524Y-66795238D01*
X105104762Y-66700000D01*
X105247620Y-66652381D01*
X105342858Y-66652381D01*
X105485715Y-66700000D01*
X105533334Y-66747619D01*
X106104762Y-67080952D02*
X106009524Y-67033333D01*
X105961905Y-66985714D01*
X105914286Y-66890476D01*
X105914286Y-66842857D01*
X105961905Y-66747619D01*
X106009524Y-66700000D01*
X106104762Y-66652381D01*
X106295239Y-66652381D01*
X106390477Y-66700000D01*
X106438096Y-66747619D01*
X106485715Y-66842857D01*
X106485715Y-66890476D01*
X106438096Y-66985714D01*
X106390477Y-67033333D01*
X106295239Y-67080952D01*
X106104762Y-67080952D01*
X106009524Y-67128571D01*
X105961905Y-67176190D01*
X105914286Y-67271429D01*
X105914286Y-67461905D01*
X105961905Y-67557143D01*
X106009524Y-67604762D01*
X106104762Y-67652381D01*
X106295239Y-67652381D01*
X106390477Y-67604762D01*
X106438096Y-67557143D01*
X106485715Y-67461905D01*
X106485715Y-67271429D01*
X106438096Y-67176190D01*
X106390477Y-67128571D01*
X106295239Y-67080952D01*
X146233334Y-116057143D02*
X146185715Y-116104762D01*
X146042858Y-116152381D01*
X145947620Y-116152381D01*
X145804762Y-116104762D01*
X145709524Y-116009524D01*
X145661905Y-115914286D01*
X145614286Y-115723810D01*
X145614286Y-115580952D01*
X145661905Y-115390476D01*
X145709524Y-115295238D01*
X145804762Y-115200000D01*
X145947620Y-115152381D01*
X146042858Y-115152381D01*
X146185715Y-115200000D01*
X146233334Y-115247619D01*
X146709524Y-116152381D02*
X146900000Y-116152381D01*
X146995239Y-116104762D01*
X147042858Y-116057143D01*
X147138096Y-115914286D01*
X147185715Y-115723810D01*
X147185715Y-115342857D01*
X147138096Y-115247619D01*
X147090477Y-115200000D01*
X146995239Y-115152381D01*
X146804762Y-115152381D01*
X146709524Y-115200000D01*
X146661905Y-115247619D01*
X146614286Y-115342857D01*
X146614286Y-115580952D01*
X146661905Y-115676190D01*
X146709524Y-115723810D01*
X146804762Y-115771429D01*
X146995239Y-115771429D01*
X147090477Y-115723810D01*
X147138096Y-115676190D01*
X147185715Y-115580952D01*
X101057143Y-115757143D02*
X101009524Y-115804762D01*
X100866667Y-115852381D01*
X100771429Y-115852381D01*
X100628571Y-115804762D01*
X100533333Y-115709524D01*
X100485714Y-115614286D01*
X100438095Y-115423810D01*
X100438095Y-115280952D01*
X100485714Y-115090476D01*
X100533333Y-114995238D01*
X100628571Y-114900000D01*
X100771429Y-114852381D01*
X100866667Y-114852381D01*
X101009524Y-114900000D01*
X101057143Y-114947619D01*
X102009524Y-115852381D02*
X101438095Y-115852381D01*
X101723809Y-115852381D02*
X101723809Y-114852381D01*
X101628571Y-114995238D01*
X101533333Y-115090476D01*
X101438095Y-115138095D01*
X102628571Y-114852381D02*
X102723810Y-114852381D01*
X102819048Y-114900000D01*
X102866667Y-114947619D01*
X102914286Y-115042857D01*
X102961905Y-115233333D01*
X102961905Y-115471429D01*
X102914286Y-115661905D01*
X102866667Y-115757143D01*
X102819048Y-115804762D01*
X102723810Y-115852381D01*
X102628571Y-115852381D01*
X102533333Y-115804762D01*
X102485714Y-115757143D01*
X102438095Y-115661905D01*
X102390476Y-115471429D01*
X102390476Y-115233333D01*
X102438095Y-115042857D01*
X102485714Y-114947619D01*
X102533333Y-114900000D01*
X102628571Y-114852381D01*
X104757143Y-115457143D02*
X104709524Y-115504762D01*
X104566667Y-115552381D01*
X104471429Y-115552381D01*
X104328571Y-115504762D01*
X104233333Y-115409524D01*
X104185714Y-115314286D01*
X104138095Y-115123810D01*
X104138095Y-114980952D01*
X104185714Y-114790476D01*
X104233333Y-114695238D01*
X104328571Y-114600000D01*
X104471429Y-114552381D01*
X104566667Y-114552381D01*
X104709524Y-114600000D01*
X104757143Y-114647619D01*
X105709524Y-115552381D02*
X105138095Y-115552381D01*
X105423809Y-115552381D02*
X105423809Y-114552381D01*
X105328571Y-114695238D01*
X105233333Y-114790476D01*
X105138095Y-114838095D01*
X106661905Y-115552381D02*
X106090476Y-115552381D01*
X106376190Y-115552381D02*
X106376190Y-114552381D01*
X106280952Y-114695238D01*
X106185714Y-114790476D01*
X106090476Y-114838095D01*
X117661905Y-73252381D02*
X117661905Y-72252381D01*
X117900000Y-72252381D01*
X118042858Y-72300000D01*
X118138096Y-72395238D01*
X118185715Y-72490476D01*
X118233334Y-72680952D01*
X118233334Y-72823810D01*
X118185715Y-73014286D01*
X118138096Y-73109524D01*
X118042858Y-73204762D01*
X117900000Y-73252381D01*
X117661905Y-73252381D01*
X119185715Y-73252381D02*
X118614286Y-73252381D01*
X118900000Y-73252381D02*
X118900000Y-72252381D01*
X118804762Y-72395238D01*
X118709524Y-72490476D01*
X118614286Y-72538095D01*
X128261905Y-77652381D02*
X128261905Y-76652381D01*
X128500000Y-76652381D01*
X128642858Y-76700000D01*
X128738096Y-76795238D01*
X128785715Y-76890476D01*
X128833334Y-77080952D01*
X128833334Y-77223810D01*
X128785715Y-77414286D01*
X128738096Y-77509524D01*
X128642858Y-77604762D01*
X128500000Y-77652381D01*
X128261905Y-77652381D01*
X129214286Y-76747619D02*
X129261905Y-76700000D01*
X129357143Y-76652381D01*
X129595239Y-76652381D01*
X129690477Y-76700000D01*
X129738096Y-76747619D01*
X129785715Y-76842857D01*
X129785715Y-76938095D01*
X129738096Y-77080952D01*
X129166667Y-77652381D01*
X129785715Y-77652381D01*
X86666667Y-86652381D02*
X86666667Y-87366667D01*
X86619047Y-87509524D01*
X86523809Y-87604762D01*
X86380952Y-87652381D01*
X86285714Y-87652381D01*
X87666667Y-87652381D02*
X87095238Y-87652381D01*
X87380952Y-87652381D02*
X87380952Y-86652381D01*
X87285714Y-86795238D01*
X87190476Y-86890476D01*
X87095238Y-86938095D01*
X160766667Y-104952381D02*
X160766667Y-105666667D01*
X160719047Y-105809524D01*
X160623809Y-105904762D01*
X160480952Y-105952381D01*
X160385714Y-105952381D01*
X161195238Y-105047619D02*
X161242857Y-105000000D01*
X161338095Y-104952381D01*
X161576191Y-104952381D01*
X161671429Y-105000000D01*
X161719048Y-105047619D01*
X161766667Y-105142857D01*
X161766667Y-105238095D01*
X161719048Y-105380952D01*
X161147619Y-105952381D01*
X161766667Y-105952381D01*
X86106667Y-63253181D02*
X86106667Y-63967467D01*
X86059047Y-64110324D01*
X85963809Y-64205562D01*
X85820952Y-64253181D01*
X85725714Y-64253181D01*
X86487619Y-63253181D02*
X87106667Y-63253181D01*
X86773333Y-63634133D01*
X86916191Y-63634133D01*
X87011429Y-63681752D01*
X87059048Y-63729371D01*
X87106667Y-63824610D01*
X87106667Y-64062705D01*
X87059048Y-64157943D01*
X87011429Y-64205562D01*
X86916191Y-64253181D01*
X86630476Y-64253181D01*
X86535238Y-64205562D01*
X86487619Y-64157943D01*
X86566667Y-110952381D02*
X86566667Y-111666667D01*
X86519047Y-111809524D01*
X86423809Y-111904762D01*
X86280952Y-111952381D01*
X86185714Y-111952381D01*
X87471429Y-111285714D02*
X87471429Y-111952381D01*
X87233333Y-110904762D02*
X86995238Y-111619048D01*
X87614286Y-111619048D01*
X111104762Y-96647619D02*
X111009524Y-96600000D01*
X110914286Y-96504762D01*
X110771429Y-96361905D01*
X110676190Y-96314286D01*
X110580952Y-96314286D01*
X110628571Y-96552381D02*
X110533333Y-96504762D01*
X110438095Y-96409524D01*
X110390476Y-96219048D01*
X110390476Y-95885714D01*
X110438095Y-95695238D01*
X110533333Y-95600000D01*
X110628571Y-95552381D01*
X110819048Y-95552381D01*
X110914286Y-95600000D01*
X111009524Y-95695238D01*
X111057143Y-95885714D01*
X111057143Y-96219048D01*
X111009524Y-96409524D01*
X110914286Y-96504762D01*
X110819048Y-96552381D01*
X110628571Y-96552381D01*
X112009524Y-96552381D02*
X111438095Y-96552381D01*
X111723809Y-96552381D02*
X111723809Y-95552381D01*
X111628571Y-95695238D01*
X111533333Y-95790476D01*
X111438095Y-95838095D01*
X120704762Y-96447619D02*
X120609524Y-96400000D01*
X120514286Y-96304762D01*
X120371429Y-96161905D01*
X120276190Y-96114286D01*
X120180952Y-96114286D01*
X120228571Y-96352381D02*
X120133333Y-96304762D01*
X120038095Y-96209524D01*
X119990476Y-96019048D01*
X119990476Y-95685714D01*
X120038095Y-95495238D01*
X120133333Y-95400000D01*
X120228571Y-95352381D01*
X120419048Y-95352381D01*
X120514286Y-95400000D01*
X120609524Y-95495238D01*
X120657143Y-95685714D01*
X120657143Y-96019048D01*
X120609524Y-96209524D01*
X120514286Y-96304762D01*
X120419048Y-96352381D01*
X120228571Y-96352381D01*
X121038095Y-95447619D02*
X121085714Y-95400000D01*
X121180952Y-95352381D01*
X121419048Y-95352381D01*
X121514286Y-95400000D01*
X121561905Y-95447619D01*
X121609524Y-95542857D01*
X121609524Y-95638095D01*
X121561905Y-95780952D01*
X120990476Y-96352381D01*
X121609524Y-96352381D01*
X115104762Y-102647619D02*
X115009524Y-102600000D01*
X114914286Y-102504762D01*
X114771429Y-102361905D01*
X114676190Y-102314286D01*
X114580952Y-102314286D01*
X114628571Y-102552381D02*
X114533333Y-102504762D01*
X114438095Y-102409524D01*
X114390476Y-102219048D01*
X114390476Y-101885714D01*
X114438095Y-101695238D01*
X114533333Y-101600000D01*
X114628571Y-101552381D01*
X114819048Y-101552381D01*
X114914286Y-101600000D01*
X115009524Y-101695238D01*
X115057143Y-101885714D01*
X115057143Y-102219048D01*
X115009524Y-102409524D01*
X114914286Y-102504762D01*
X114819048Y-102552381D01*
X114628571Y-102552381D01*
X115390476Y-101552381D02*
X116009524Y-101552381D01*
X115676190Y-101933333D01*
X115819048Y-101933333D01*
X115914286Y-101980952D01*
X115961905Y-102028571D01*
X116009524Y-102123810D01*
X116009524Y-102361905D01*
X115961905Y-102457143D01*
X115914286Y-102504762D01*
X115819048Y-102552381D01*
X115533333Y-102552381D01*
X115438095Y-102504762D01*
X115390476Y-102457143D01*
X126804762Y-99047619D02*
X126709524Y-99000000D01*
X126614286Y-98904762D01*
X126471429Y-98761905D01*
X126376190Y-98714286D01*
X126280952Y-98714286D01*
X126328571Y-98952381D02*
X126233333Y-98904762D01*
X126138095Y-98809524D01*
X126090476Y-98619048D01*
X126090476Y-98285714D01*
X126138095Y-98095238D01*
X126233333Y-98000000D01*
X126328571Y-97952381D01*
X126519048Y-97952381D01*
X126614286Y-98000000D01*
X126709524Y-98095238D01*
X126757143Y-98285714D01*
X126757143Y-98619048D01*
X126709524Y-98809524D01*
X126614286Y-98904762D01*
X126519048Y-98952381D01*
X126328571Y-98952381D01*
X127614286Y-98285714D02*
X127614286Y-98952381D01*
X127376190Y-97904762D02*
X127138095Y-98619048D01*
X127757143Y-98619048D01*
X119604762Y-120847619D02*
X119509524Y-120800000D01*
X119414286Y-120704762D01*
X119271429Y-120561905D01*
X119176190Y-120514286D01*
X119080952Y-120514286D01*
X119128571Y-120752381D02*
X119033333Y-120704762D01*
X118938095Y-120609524D01*
X118890476Y-120419048D01*
X118890476Y-120085714D01*
X118938095Y-119895238D01*
X119033333Y-119800000D01*
X119128571Y-119752381D01*
X119319048Y-119752381D01*
X119414286Y-119800000D01*
X119509524Y-119895238D01*
X119557143Y-120085714D01*
X119557143Y-120419048D01*
X119509524Y-120609524D01*
X119414286Y-120704762D01*
X119319048Y-120752381D01*
X119128571Y-120752381D01*
X120461905Y-119752381D02*
X119985714Y-119752381D01*
X119938095Y-120228571D01*
X119985714Y-120180952D01*
X120080952Y-120133333D01*
X120319048Y-120133333D01*
X120414286Y-120180952D01*
X120461905Y-120228571D01*
X120509524Y-120323810D01*
X120509524Y-120561905D01*
X120461905Y-120657143D01*
X120414286Y-120704762D01*
X120319048Y-120752381D01*
X120080952Y-120752381D01*
X119985714Y-120704762D01*
X119938095Y-120657143D01*
X127704762Y-110147619D02*
X127609524Y-110100000D01*
X127514286Y-110004762D01*
X127371429Y-109861905D01*
X127276190Y-109814286D01*
X127180952Y-109814286D01*
X127228571Y-110052381D02*
X127133333Y-110004762D01*
X127038095Y-109909524D01*
X126990476Y-109719048D01*
X126990476Y-109385714D01*
X127038095Y-109195238D01*
X127133333Y-109100000D01*
X127228571Y-109052381D01*
X127419048Y-109052381D01*
X127514286Y-109100000D01*
X127609524Y-109195238D01*
X127657143Y-109385714D01*
X127657143Y-109719048D01*
X127609524Y-109909524D01*
X127514286Y-110004762D01*
X127419048Y-110052381D01*
X127228571Y-110052381D01*
X128514286Y-109052381D02*
X128323809Y-109052381D01*
X128228571Y-109100000D01*
X128180952Y-109147619D01*
X128085714Y-109290476D01*
X128038095Y-109480952D01*
X128038095Y-109861905D01*
X128085714Y-109957143D01*
X128133333Y-110004762D01*
X128228571Y-110052381D01*
X128419048Y-110052381D01*
X128514286Y-110004762D01*
X128561905Y-109957143D01*
X128609524Y-109861905D01*
X128609524Y-109623810D01*
X128561905Y-109528571D01*
X128514286Y-109480952D01*
X128419048Y-109433333D01*
X128228571Y-109433333D01*
X128133333Y-109480952D01*
X128085714Y-109528571D01*
X128038095Y-109623810D01*
X113204762Y-87847619D02*
X113109524Y-87800000D01*
X113014286Y-87704762D01*
X112871429Y-87561905D01*
X112776190Y-87514286D01*
X112680952Y-87514286D01*
X112728571Y-87752381D02*
X112633333Y-87704762D01*
X112538095Y-87609524D01*
X112490476Y-87419048D01*
X112490476Y-87085714D01*
X112538095Y-86895238D01*
X112633333Y-86800000D01*
X112728571Y-86752381D01*
X112919048Y-86752381D01*
X113014286Y-86800000D01*
X113109524Y-86895238D01*
X113157143Y-87085714D01*
X113157143Y-87419048D01*
X113109524Y-87609524D01*
X113014286Y-87704762D01*
X112919048Y-87752381D01*
X112728571Y-87752381D01*
X113490476Y-86752381D02*
X114157143Y-86752381D01*
X113728571Y-87752381D01*
X116104762Y-67947619D02*
X116009524Y-67900000D01*
X115914286Y-67804762D01*
X115771429Y-67661905D01*
X115676190Y-67614286D01*
X115580952Y-67614286D01*
X115628571Y-67852381D02*
X115533333Y-67804762D01*
X115438095Y-67709524D01*
X115390476Y-67519048D01*
X115390476Y-67185714D01*
X115438095Y-66995238D01*
X115533333Y-66900000D01*
X115628571Y-66852381D01*
X115819048Y-66852381D01*
X115914286Y-66900000D01*
X116009524Y-66995238D01*
X116057143Y-67185714D01*
X116057143Y-67519048D01*
X116009524Y-67709524D01*
X115914286Y-67804762D01*
X115819048Y-67852381D01*
X115628571Y-67852381D01*
X116628571Y-67280952D02*
X116533333Y-67233333D01*
X116485714Y-67185714D01*
X116438095Y-67090476D01*
X116438095Y-67042857D01*
X116485714Y-66947619D01*
X116533333Y-66900000D01*
X116628571Y-66852381D01*
X116819048Y-66852381D01*
X116914286Y-66900000D01*
X116961905Y-66947619D01*
X117009524Y-67042857D01*
X117009524Y-67090476D01*
X116961905Y-67185714D01*
X116914286Y-67233333D01*
X116819048Y-67280952D01*
X116628571Y-67280952D01*
X116533333Y-67328571D01*
X116485714Y-67376190D01*
X116438095Y-67471429D01*
X116438095Y-67661905D01*
X116485714Y-67757143D01*
X116533333Y-67804762D01*
X116628571Y-67852381D01*
X116819048Y-67852381D01*
X116914286Y-67804762D01*
X116961905Y-67757143D01*
X117009524Y-67661905D01*
X117009524Y-67471429D01*
X116961905Y-67376190D01*
X116914286Y-67328571D01*
X116819048Y-67280952D01*
X135853962Y-119447619D02*
X135758724Y-119400000D01*
X135663486Y-119304762D01*
X135520629Y-119161905D01*
X135425390Y-119114286D01*
X135330152Y-119114286D01*
X135377771Y-119352381D02*
X135282533Y-119304762D01*
X135187295Y-119209524D01*
X135139676Y-119019048D01*
X135139676Y-118685714D01*
X135187295Y-118495238D01*
X135282533Y-118400000D01*
X135377771Y-118352381D01*
X135568248Y-118352381D01*
X135663486Y-118400000D01*
X135758724Y-118495238D01*
X135806343Y-118685714D01*
X135806343Y-119019048D01*
X135758724Y-119209524D01*
X135663486Y-119304762D01*
X135568248Y-119352381D01*
X135377771Y-119352381D01*
X136282533Y-119352381D02*
X136473009Y-119352381D01*
X136568248Y-119304762D01*
X136615867Y-119257143D01*
X136711105Y-119114286D01*
X136758724Y-118923810D01*
X136758724Y-118542857D01*
X136711105Y-118447619D01*
X136663486Y-118400000D01*
X136568248Y-118352381D01*
X136377771Y-118352381D01*
X136282533Y-118400000D01*
X136234914Y-118447619D01*
X136187295Y-118542857D01*
X136187295Y-118780952D01*
X136234914Y-118876190D01*
X136282533Y-118923810D01*
X136377771Y-118971429D01*
X136568248Y-118971429D01*
X136663486Y-118923810D01*
X136711105Y-118876190D01*
X136758724Y-118780952D01*
X92033334Y-99252381D02*
X91700000Y-98776190D01*
X91461905Y-99252381D02*
X91461905Y-98252381D01*
X91842858Y-98252381D01*
X91938096Y-98300000D01*
X91985715Y-98347619D01*
X92033334Y-98442857D01*
X92033334Y-98585714D01*
X91985715Y-98680952D01*
X91938096Y-98728571D01*
X91842858Y-98776190D01*
X91461905Y-98776190D01*
X92985715Y-99252381D02*
X92414286Y-99252381D01*
X92700000Y-99252381D02*
X92700000Y-98252381D01*
X92604762Y-98395238D01*
X92509524Y-98490476D01*
X92414286Y-98538095D01*
X99867734Y-93599981D02*
X99534400Y-93123790D01*
X99296305Y-93599981D02*
X99296305Y-92599981D01*
X99677258Y-92599981D01*
X99772496Y-92647600D01*
X99820115Y-92695219D01*
X99867734Y-92790457D01*
X99867734Y-92933314D01*
X99820115Y-93028552D01*
X99772496Y-93076171D01*
X99677258Y-93123790D01*
X99296305Y-93123790D01*
X100248686Y-92695219D02*
X100296305Y-92647600D01*
X100391543Y-92599981D01*
X100629639Y-92599981D01*
X100724877Y-92647600D01*
X100772496Y-92695219D01*
X100820115Y-92790457D01*
X100820115Y-92885695D01*
X100772496Y-93028552D01*
X100201067Y-93599981D01*
X100820115Y-93599981D01*
X109959734Y-109498381D02*
X109626400Y-109022190D01*
X109388305Y-109498381D02*
X109388305Y-108498381D01*
X109769258Y-108498381D01*
X109864496Y-108546000D01*
X109912115Y-108593619D01*
X109959734Y-108688857D01*
X109959734Y-108831714D01*
X109912115Y-108926952D01*
X109864496Y-108974571D01*
X109769258Y-109022190D01*
X109388305Y-109022190D01*
X110293067Y-108498381D02*
X110912115Y-108498381D01*
X110578781Y-108879333D01*
X110721639Y-108879333D01*
X110816877Y-108926952D01*
X110864496Y-108974571D01*
X110912115Y-109069810D01*
X110912115Y-109307905D01*
X110864496Y-109403143D01*
X110816877Y-109450762D01*
X110721639Y-109498381D01*
X110435924Y-109498381D01*
X110340686Y-109450762D01*
X110293067Y-109403143D01*
X110833334Y-84652381D02*
X110500000Y-84176190D01*
X110261905Y-84652381D02*
X110261905Y-83652381D01*
X110642858Y-83652381D01*
X110738096Y-83700000D01*
X110785715Y-83747619D01*
X110833334Y-83842857D01*
X110833334Y-83985714D01*
X110785715Y-84080952D01*
X110738096Y-84128571D01*
X110642858Y-84176190D01*
X110261905Y-84176190D01*
X111690477Y-83985714D02*
X111690477Y-84652381D01*
X111452381Y-83604762D02*
X111214286Y-84319048D01*
X111833334Y-84319048D01*
X122993334Y-106852381D02*
X122660000Y-106376190D01*
X122421905Y-106852381D02*
X122421905Y-105852381D01*
X122802858Y-105852381D01*
X122898096Y-105900000D01*
X122945715Y-105947619D01*
X122993334Y-106042857D01*
X122993334Y-106185714D01*
X122945715Y-106280952D01*
X122898096Y-106328571D01*
X122802858Y-106376190D01*
X122421905Y-106376190D01*
X123898096Y-105852381D02*
X123421905Y-105852381D01*
X123374286Y-106328571D01*
X123421905Y-106280952D01*
X123517143Y-106233333D01*
X123755239Y-106233333D01*
X123850477Y-106280952D01*
X123898096Y-106328571D01*
X123945715Y-106423810D01*
X123945715Y-106661905D01*
X123898096Y-106757143D01*
X123850477Y-106804762D01*
X123755239Y-106852381D01*
X123517143Y-106852381D01*
X123421905Y-106804762D01*
X123374286Y-106757143D01*
X113353734Y-98752381D02*
X113020400Y-98276190D01*
X112782305Y-98752381D02*
X112782305Y-97752381D01*
X113163258Y-97752381D01*
X113258496Y-97800000D01*
X113306115Y-97847619D01*
X113353734Y-97942857D01*
X113353734Y-98085714D01*
X113306115Y-98180952D01*
X113258496Y-98228571D01*
X113163258Y-98276190D01*
X112782305Y-98276190D01*
X114210877Y-97752381D02*
X114020400Y-97752381D01*
X113925162Y-97800000D01*
X113877543Y-97847619D01*
X113782305Y-97990476D01*
X113734686Y-98180952D01*
X113734686Y-98561905D01*
X113782305Y-98657143D01*
X113829924Y-98704762D01*
X113925162Y-98752381D01*
X114115639Y-98752381D01*
X114210877Y-98704762D01*
X114258496Y-98657143D01*
X114306115Y-98561905D01*
X114306115Y-98323810D01*
X114258496Y-98228571D01*
X114210877Y-98180952D01*
X114115639Y-98133333D01*
X113925162Y-98133333D01*
X113829924Y-98180952D01*
X113782305Y-98228571D01*
X113734686Y-98323810D01*
X117233334Y-113052381D02*
X116900000Y-112576190D01*
X116661905Y-113052381D02*
X116661905Y-112052381D01*
X117042858Y-112052381D01*
X117138096Y-112100000D01*
X117185715Y-112147619D01*
X117233334Y-112242857D01*
X117233334Y-112385714D01*
X117185715Y-112480952D01*
X117138096Y-112528571D01*
X117042858Y-112576190D01*
X116661905Y-112576190D01*
X117566667Y-112052381D02*
X118233334Y-112052381D01*
X117804762Y-113052381D01*
X130633334Y-90452381D02*
X130300000Y-89976190D01*
X130061905Y-90452381D02*
X130061905Y-89452381D01*
X130442858Y-89452381D01*
X130538096Y-89500000D01*
X130585715Y-89547619D01*
X130633334Y-89642857D01*
X130633334Y-89785714D01*
X130585715Y-89880952D01*
X130538096Y-89928571D01*
X130442858Y-89976190D01*
X130061905Y-89976190D01*
X131204762Y-89880952D02*
X131109524Y-89833333D01*
X131061905Y-89785714D01*
X131014286Y-89690476D01*
X131014286Y-89642857D01*
X131061905Y-89547619D01*
X131109524Y-89500000D01*
X131204762Y-89452381D01*
X131395239Y-89452381D01*
X131490477Y-89500000D01*
X131538096Y-89547619D01*
X131585715Y-89642857D01*
X131585715Y-89690476D01*
X131538096Y-89785714D01*
X131490477Y-89833333D01*
X131395239Y-89880952D01*
X131204762Y-89880952D01*
X131109524Y-89928571D01*
X131061905Y-89976190D01*
X131014286Y-90071429D01*
X131014286Y-90261905D01*
X131061905Y-90357143D01*
X131109524Y-90404762D01*
X131204762Y-90452381D01*
X131395239Y-90452381D01*
X131490477Y-90404762D01*
X131538096Y-90357143D01*
X131585715Y-90261905D01*
X131585715Y-90071429D01*
X131538096Y-89976190D01*
X131490477Y-89928571D01*
X131395239Y-89880952D01*
X126033334Y-84452381D02*
X125700000Y-83976190D01*
X125461905Y-84452381D02*
X125461905Y-83452381D01*
X125842858Y-83452381D01*
X125938096Y-83500000D01*
X125985715Y-83547619D01*
X126033334Y-83642857D01*
X126033334Y-83785714D01*
X125985715Y-83880952D01*
X125938096Y-83928571D01*
X125842858Y-83976190D01*
X125461905Y-83976190D01*
X126509524Y-84452381D02*
X126700000Y-84452381D01*
X126795239Y-84404762D01*
X126842858Y-84357143D01*
X126938096Y-84214286D01*
X126985715Y-84023810D01*
X126985715Y-83642857D01*
X126938096Y-83547619D01*
X126890477Y-83500000D01*
X126795239Y-83452381D01*
X126604762Y-83452381D01*
X126509524Y-83500000D01*
X126461905Y-83547619D01*
X126414286Y-83642857D01*
X126414286Y-83880952D01*
X126461905Y-83976190D01*
X126509524Y-84023810D01*
X126604762Y-84071429D01*
X126795239Y-84071429D01*
X126890477Y-84023810D01*
X126938096Y-83976190D01*
X126985715Y-83880952D01*
X124957143Y-79052381D02*
X124623809Y-78576190D01*
X124385714Y-79052381D02*
X124385714Y-78052381D01*
X124766667Y-78052381D01*
X124861905Y-78100000D01*
X124909524Y-78147619D01*
X124957143Y-78242857D01*
X124957143Y-78385714D01*
X124909524Y-78480952D01*
X124861905Y-78528571D01*
X124766667Y-78576190D01*
X124385714Y-78576190D01*
X125909524Y-79052381D02*
X125338095Y-79052381D01*
X125623809Y-79052381D02*
X125623809Y-78052381D01*
X125528571Y-78195238D01*
X125433333Y-78290476D01*
X125338095Y-78338095D01*
X126528571Y-78052381D02*
X126623810Y-78052381D01*
X126719048Y-78100000D01*
X126766667Y-78147619D01*
X126814286Y-78242857D01*
X126861905Y-78433333D01*
X126861905Y-78671429D01*
X126814286Y-78861905D01*
X126766667Y-78957143D01*
X126719048Y-79004762D01*
X126623810Y-79052381D01*
X126528571Y-79052381D01*
X126433333Y-79004762D01*
X126385714Y-78957143D01*
X126338095Y-78861905D01*
X126290476Y-78671429D01*
X126290476Y-78433333D01*
X126338095Y-78242857D01*
X126385714Y-78147619D01*
X126433333Y-78100000D01*
X126528571Y-78052381D01*
X122557143Y-116252381D02*
X122223809Y-115776190D01*
X121985714Y-116252381D02*
X121985714Y-115252381D01*
X122366667Y-115252381D01*
X122461905Y-115300000D01*
X122509524Y-115347619D01*
X122557143Y-115442857D01*
X122557143Y-115585714D01*
X122509524Y-115680952D01*
X122461905Y-115728571D01*
X122366667Y-115776190D01*
X121985714Y-115776190D01*
X123509524Y-116252381D02*
X122938095Y-116252381D01*
X123223809Y-116252381D02*
X123223809Y-115252381D01*
X123128571Y-115395238D01*
X123033333Y-115490476D01*
X122938095Y-115538095D01*
X124461905Y-116252381D02*
X123890476Y-116252381D01*
X124176190Y-116252381D02*
X124176190Y-115252381D01*
X124080952Y-115395238D01*
X123985714Y-115490476D01*
X123890476Y-115538095D01*
X109357143Y-74352381D02*
X109023809Y-73876190D01*
X108785714Y-74352381D02*
X108785714Y-73352381D01*
X109166667Y-73352381D01*
X109261905Y-73400000D01*
X109309524Y-73447619D01*
X109357143Y-73542857D01*
X109357143Y-73685714D01*
X109309524Y-73780952D01*
X109261905Y-73828571D01*
X109166667Y-73876190D01*
X108785714Y-73876190D01*
X110309524Y-74352381D02*
X109738095Y-74352381D01*
X110023809Y-74352381D02*
X110023809Y-73352381D01*
X109928571Y-73495238D01*
X109833333Y-73590476D01*
X109738095Y-73638095D01*
X110690476Y-73447619D02*
X110738095Y-73400000D01*
X110833333Y-73352381D01*
X111071429Y-73352381D01*
X111166667Y-73400000D01*
X111214286Y-73447619D01*
X111261905Y-73542857D01*
X111261905Y-73638095D01*
X111214286Y-73780952D01*
X110642857Y-74352381D01*
X111261905Y-74352381D01*
X141652381Y-89442857D02*
X141176190Y-89776191D01*
X141652381Y-90014286D02*
X140652381Y-90014286D01*
X140652381Y-89633333D01*
X140700000Y-89538095D01*
X140747619Y-89490476D01*
X140842857Y-89442857D01*
X140985714Y-89442857D01*
X141080952Y-89490476D01*
X141128571Y-89538095D01*
X141176190Y-89633333D01*
X141176190Y-90014286D01*
X141652381Y-88490476D02*
X141652381Y-89061905D01*
X141652381Y-88776191D02*
X140652381Y-88776191D01*
X140795238Y-88871429D01*
X140890476Y-88966667D01*
X140938095Y-89061905D01*
X140652381Y-88157143D02*
X140652381Y-87538095D01*
X141033333Y-87871429D01*
X141033333Y-87728571D01*
X141080952Y-87633333D01*
X141128571Y-87585714D01*
X141223810Y-87538095D01*
X141461905Y-87538095D01*
X141557143Y-87585714D01*
X141604762Y-87633333D01*
X141652381Y-87728571D01*
X141652381Y-88014286D01*
X141604762Y-88109524D01*
X141557143Y-88157143D01*
X135557143Y-76352381D02*
X135223809Y-75876190D01*
X134985714Y-76352381D02*
X134985714Y-75352381D01*
X135366667Y-75352381D01*
X135461905Y-75400000D01*
X135509524Y-75447619D01*
X135557143Y-75542857D01*
X135557143Y-75685714D01*
X135509524Y-75780952D01*
X135461905Y-75828571D01*
X135366667Y-75876190D01*
X134985714Y-75876190D01*
X136509524Y-76352381D02*
X135938095Y-76352381D01*
X136223809Y-76352381D02*
X136223809Y-75352381D01*
X136128571Y-75495238D01*
X136033333Y-75590476D01*
X135938095Y-75638095D01*
X137366667Y-75685714D02*
X137366667Y-76352381D01*
X137128571Y-75304762D02*
X136890476Y-76019048D01*
X137509524Y-76019048D01*
X135357143Y-103452381D02*
X135023809Y-102976190D01*
X134785714Y-103452381D02*
X134785714Y-102452381D01*
X135166667Y-102452381D01*
X135261905Y-102500000D01*
X135309524Y-102547619D01*
X135357143Y-102642857D01*
X135357143Y-102785714D01*
X135309524Y-102880952D01*
X135261905Y-102928571D01*
X135166667Y-102976190D01*
X134785714Y-102976190D01*
X136309524Y-103452381D02*
X135738095Y-103452381D01*
X136023809Y-103452381D02*
X136023809Y-102452381D01*
X135928571Y-102595238D01*
X135833333Y-102690476D01*
X135738095Y-102738095D01*
X137214286Y-102452381D02*
X136738095Y-102452381D01*
X136690476Y-102928571D01*
X136738095Y-102880952D01*
X136833333Y-102833333D01*
X137071429Y-102833333D01*
X137166667Y-102880952D01*
X137214286Y-102928571D01*
X137261905Y-103023810D01*
X137261905Y-103261905D01*
X137214286Y-103357143D01*
X137166667Y-103404762D01*
X137071429Y-103452381D01*
X136833333Y-103452381D01*
X136738095Y-103404762D01*
X136690476Y-103357143D01*
X145957143Y-101452381D02*
X145623809Y-100976190D01*
X145385714Y-101452381D02*
X145385714Y-100452381D01*
X145766667Y-100452381D01*
X145861905Y-100500000D01*
X145909524Y-100547619D01*
X145957143Y-100642857D01*
X145957143Y-100785714D01*
X145909524Y-100880952D01*
X145861905Y-100928571D01*
X145766667Y-100976190D01*
X145385714Y-100976190D01*
X146909524Y-101452381D02*
X146338095Y-101452381D01*
X146623809Y-101452381D02*
X146623809Y-100452381D01*
X146528571Y-100595238D01*
X146433333Y-100690476D01*
X146338095Y-100738095D01*
X147766667Y-100452381D02*
X147576190Y-100452381D01*
X147480952Y-100500000D01*
X147433333Y-100547619D01*
X147338095Y-100690476D01*
X147290476Y-100880952D01*
X147290476Y-101261905D01*
X147338095Y-101357143D01*
X147385714Y-101404762D01*
X147480952Y-101452381D01*
X147671429Y-101452381D01*
X147766667Y-101404762D01*
X147814286Y-101357143D01*
X147861905Y-101261905D01*
X147861905Y-101023810D01*
X147814286Y-100928571D01*
X147766667Y-100880952D01*
X147671429Y-100833333D01*
X147480952Y-100833333D01*
X147385714Y-100880952D01*
X147338095Y-100928571D01*
X147290476Y-101023810D01*
X154657143Y-101452381D02*
X154323809Y-100976190D01*
X154085714Y-101452381D02*
X154085714Y-100452381D01*
X154466667Y-100452381D01*
X154561905Y-100500000D01*
X154609524Y-100547619D01*
X154657143Y-100642857D01*
X154657143Y-100785714D01*
X154609524Y-100880952D01*
X154561905Y-100928571D01*
X154466667Y-100976190D01*
X154085714Y-100976190D01*
X155609524Y-101452381D02*
X155038095Y-101452381D01*
X155323809Y-101452381D02*
X155323809Y-100452381D01*
X155228571Y-100595238D01*
X155133333Y-100690476D01*
X155038095Y-100738095D01*
X155942857Y-100452381D02*
X156609524Y-100452381D01*
X156180952Y-101452381D01*
M02*
