G04 #@! TF.FileFunction,Legend,Top*
%FSLAX46Y46*%
G04 Gerber Fmt 4.6, Leading zero omitted, Abs format (unit mm)*
G04 Created by KiCad (PCBNEW 4.0.6) date 06/15/17 23:10:10*
%MOMM*%
%LPD*%
G01*
G04 APERTURE LIST*
%ADD10C,0.100000*%
%ADD11C,0.120000*%
%ADD12C,0.150000*%
G04 APERTURE END LIST*
D10*
D11*
X175940400Y-86828000D02*
X181060400Y-86828000D01*
X175940400Y-89448000D02*
X181060400Y-89448000D01*
X175940400Y-86828000D02*
X175940400Y-87142000D01*
X175940400Y-89134000D02*
X175940400Y-89448000D01*
X181060400Y-86828000D02*
X181060400Y-87142000D01*
X181060400Y-89134000D02*
X181060400Y-89448000D01*
X181162000Y-95036000D02*
X176042000Y-95036000D01*
X181162000Y-92416000D02*
X176042000Y-92416000D01*
X181162000Y-95036000D02*
X181162000Y-94722000D01*
X181162000Y-92730000D02*
X181162000Y-92416000D01*
X176042000Y-95036000D02*
X176042000Y-94722000D01*
X176042000Y-92730000D02*
X176042000Y-92416000D01*
X172070400Y-90404000D02*
X172070400Y-85284000D01*
X174690400Y-90404000D02*
X174690400Y-85284000D01*
X172070400Y-90404000D02*
X172384400Y-90404000D01*
X174376400Y-90404000D02*
X174690400Y-90404000D01*
X172070400Y-85284000D02*
X172384400Y-85284000D01*
X174376400Y-85284000D02*
X174690400Y-85284000D01*
X170759600Y-95604800D02*
X170759600Y-108204800D01*
X170759600Y-108204800D02*
X181109600Y-108204800D01*
X181109600Y-108204800D02*
X181109600Y-107254800D01*
X181109600Y-107254800D02*
X181609600Y-107504800D01*
X181609600Y-107504800D02*
X181609600Y-105604800D01*
X181609600Y-105604800D02*
X181609600Y-105554800D01*
X181609600Y-105554800D02*
X181109600Y-105804800D01*
X181109600Y-105804800D02*
X181109600Y-100404800D01*
X181109600Y-100404800D02*
X181609600Y-100704800D01*
X181609600Y-100704800D02*
X181609600Y-95604800D01*
X181609600Y-95604800D02*
X170759600Y-95604800D01*
X182422000Y-95026000D02*
X195022000Y-95026000D01*
X195022000Y-95026000D02*
X195022000Y-84676000D01*
X195022000Y-84676000D02*
X194072000Y-84676000D01*
X194072000Y-84676000D02*
X194322000Y-84176000D01*
X194322000Y-84176000D02*
X192422000Y-84176000D01*
X192422000Y-84176000D02*
X192372000Y-84176000D01*
X192372000Y-84176000D02*
X192622000Y-84676000D01*
X192622000Y-84676000D02*
X187222000Y-84676000D01*
X187222000Y-84676000D02*
X187522000Y-84176000D01*
X187522000Y-84176000D02*
X182422000Y-84176000D01*
X182422000Y-84176000D02*
X182422000Y-95026000D01*
X182422000Y-106506800D02*
X195022000Y-106506800D01*
X195022000Y-106506800D02*
X195022000Y-96156800D01*
X195022000Y-96156800D02*
X194072000Y-96156800D01*
X194072000Y-96156800D02*
X194322000Y-95656800D01*
X194322000Y-95656800D02*
X192422000Y-95656800D01*
X192422000Y-95656800D02*
X192372000Y-95656800D01*
X192372000Y-95656800D02*
X192622000Y-96156800D01*
X192622000Y-96156800D02*
X187222000Y-96156800D01*
X187222000Y-96156800D02*
X187522000Y-95656800D01*
X187522000Y-95656800D02*
X182422000Y-95656800D01*
X182422000Y-95656800D02*
X182422000Y-106506800D01*
X171522000Y-89430000D02*
X171522000Y-85830000D01*
X171510478Y-89468478D02*
G75*
G02X167072000Y-87630000I-1838478J1838478D01*
G01*
X171510478Y-85791522D02*
G75*
G03X167072000Y-87630000I-1838478J-1838478D01*
G01*
X165764000Y-95840000D02*
X165764000Y-92120000D01*
X167484000Y-95840000D02*
X167484000Y-92120000D01*
X169590000Y-92866000D02*
X173310000Y-92866000D01*
X169590000Y-94586000D02*
X173310000Y-94586000D01*
X176702000Y-90072000D02*
X180422000Y-90072000D01*
X176702000Y-91792000D02*
X180422000Y-91792000D01*
X176702000Y-84484000D02*
X180422000Y-84484000D01*
X176702000Y-86204000D02*
X180422000Y-86204000D01*
D12*
X178333734Y-86185143D02*
X178286115Y-86232762D01*
X178143258Y-86280381D01*
X178048020Y-86280381D01*
X177905162Y-86232762D01*
X177809924Y-86137524D01*
X177762305Y-86042286D01*
X177714686Y-85851810D01*
X177714686Y-85708952D01*
X177762305Y-85518476D01*
X177809924Y-85423238D01*
X177905162Y-85328000D01*
X178048020Y-85280381D01*
X178143258Y-85280381D01*
X178286115Y-85328000D01*
X178333734Y-85375619D01*
X179286115Y-86280381D02*
X178714686Y-86280381D01*
X179000400Y-86280381D02*
X179000400Y-85280381D01*
X178905162Y-85423238D01*
X178809924Y-85518476D01*
X178714686Y-85566095D01*
X178435334Y-96393143D02*
X178387715Y-96440762D01*
X178244858Y-96488381D01*
X178149620Y-96488381D01*
X178006762Y-96440762D01*
X177911524Y-96345524D01*
X177863905Y-96250286D01*
X177816286Y-96059810D01*
X177816286Y-95916952D01*
X177863905Y-95726476D01*
X177911524Y-95631238D01*
X178006762Y-95536000D01*
X178149620Y-95488381D01*
X178244858Y-95488381D01*
X178387715Y-95536000D01*
X178435334Y-95583619D01*
X178816286Y-95583619D02*
X178863905Y-95536000D01*
X178959143Y-95488381D01*
X179197239Y-95488381D01*
X179292477Y-95536000D01*
X179340096Y-95583619D01*
X179387715Y-95678857D01*
X179387715Y-95774095D01*
X179340096Y-95916952D01*
X178768667Y-96488381D01*
X179387715Y-96488381D01*
X171427543Y-88010666D02*
X171475162Y-88058285D01*
X171522781Y-88201142D01*
X171522781Y-88296380D01*
X171475162Y-88439238D01*
X171379924Y-88534476D01*
X171284686Y-88582095D01*
X171094210Y-88629714D01*
X170951352Y-88629714D01*
X170760876Y-88582095D01*
X170665638Y-88534476D01*
X170570400Y-88439238D01*
X170522781Y-88296380D01*
X170522781Y-88201142D01*
X170570400Y-88058285D01*
X170618019Y-88010666D01*
X170522781Y-87677333D02*
X170522781Y-87058285D01*
X170903733Y-87391619D01*
X170903733Y-87248761D01*
X170951352Y-87153523D01*
X170998971Y-87105904D01*
X171094210Y-87058285D01*
X171332305Y-87058285D01*
X171427543Y-87105904D01*
X171475162Y-87153523D01*
X171522781Y-87248761D01*
X171522781Y-87534476D01*
X171475162Y-87629714D01*
X171427543Y-87677333D01*
X170751505Y-95367181D02*
X170751505Y-94367181D01*
X171132458Y-94367181D01*
X171227696Y-94414800D01*
X171275315Y-94462419D01*
X171322934Y-94557657D01*
X171322934Y-94700514D01*
X171275315Y-94795752D01*
X171227696Y-94843371D01*
X171132458Y-94890990D01*
X170751505Y-94890990D01*
X172275315Y-95367181D02*
X171703886Y-95367181D01*
X171989600Y-95367181D02*
X171989600Y-94367181D01*
X171894362Y-94510038D01*
X171799124Y-94605276D01*
X171703886Y-94652895D01*
X182184381Y-95034095D02*
X181184381Y-95034095D01*
X181184381Y-94653142D01*
X181232000Y-94557904D01*
X181279619Y-94510285D01*
X181374857Y-94462666D01*
X181517714Y-94462666D01*
X181612952Y-94510285D01*
X181660571Y-94557904D01*
X181708190Y-94653142D01*
X181708190Y-95034095D01*
X181279619Y-94081714D02*
X181232000Y-94034095D01*
X181184381Y-93938857D01*
X181184381Y-93700761D01*
X181232000Y-93605523D01*
X181279619Y-93557904D01*
X181374857Y-93510285D01*
X181470095Y-93510285D01*
X181612952Y-93557904D01*
X182184381Y-94129333D01*
X182184381Y-93510285D01*
X182184381Y-106514895D02*
X181184381Y-106514895D01*
X181184381Y-106133942D01*
X181232000Y-106038704D01*
X181279619Y-105991085D01*
X181374857Y-105943466D01*
X181517714Y-105943466D01*
X181612952Y-105991085D01*
X181660571Y-106038704D01*
X181708190Y-106133942D01*
X181708190Y-106514895D01*
X181184381Y-105610133D02*
X181184381Y-104991085D01*
X181565333Y-105324419D01*
X181565333Y-105181561D01*
X181612952Y-105086323D01*
X181660571Y-105038704D01*
X181755810Y-104991085D01*
X181993905Y-104991085D01*
X182089143Y-105038704D01*
X182136762Y-105086323D01*
X182184381Y-105181561D01*
X182184381Y-105467276D01*
X182136762Y-105562514D01*
X182089143Y-105610133D01*
X166659619Y-87725238D02*
X166612000Y-87820476D01*
X166516762Y-87915714D01*
X166373905Y-88058571D01*
X166326286Y-88153810D01*
X166326286Y-88249048D01*
X166564381Y-88201429D02*
X166516762Y-88296667D01*
X166421524Y-88391905D01*
X166231048Y-88439524D01*
X165897714Y-88439524D01*
X165707238Y-88391905D01*
X165612000Y-88296667D01*
X165564381Y-88201429D01*
X165564381Y-88010952D01*
X165612000Y-87915714D01*
X165707238Y-87820476D01*
X165897714Y-87772857D01*
X166231048Y-87772857D01*
X166421524Y-87820476D01*
X166516762Y-87915714D01*
X166564381Y-88010952D01*
X166564381Y-88201429D01*
X166564381Y-86820476D02*
X166564381Y-87391905D01*
X166564381Y-87106191D02*
X165564381Y-87106191D01*
X165707238Y-87201429D01*
X165802476Y-87296667D01*
X165850095Y-87391905D01*
X165216381Y-94146666D02*
X164740190Y-94480000D01*
X165216381Y-94718095D02*
X164216381Y-94718095D01*
X164216381Y-94337142D01*
X164264000Y-94241904D01*
X164311619Y-94194285D01*
X164406857Y-94146666D01*
X164549714Y-94146666D01*
X164644952Y-94194285D01*
X164692571Y-94241904D01*
X164740190Y-94337142D01*
X164740190Y-94718095D01*
X165216381Y-93194285D02*
X165216381Y-93765714D01*
X165216381Y-93480000D02*
X164216381Y-93480000D01*
X164359238Y-93575238D01*
X164454476Y-93670476D01*
X164502095Y-93765714D01*
X171283334Y-92318381D02*
X170950000Y-91842190D01*
X170711905Y-92318381D02*
X170711905Y-91318381D01*
X171092858Y-91318381D01*
X171188096Y-91366000D01*
X171235715Y-91413619D01*
X171283334Y-91508857D01*
X171283334Y-91651714D01*
X171235715Y-91746952D01*
X171188096Y-91794571D01*
X171092858Y-91842190D01*
X170711905Y-91842190D01*
X171616667Y-91318381D02*
X172235715Y-91318381D01*
X171902381Y-91699333D01*
X172045239Y-91699333D01*
X172140477Y-91746952D01*
X172188096Y-91794571D01*
X172235715Y-91889810D01*
X172235715Y-92127905D01*
X172188096Y-92223143D01*
X172140477Y-92270762D01*
X172045239Y-92318381D01*
X171759524Y-92318381D01*
X171664286Y-92270762D01*
X171616667Y-92223143D01*
X178395334Y-89524381D02*
X178062000Y-89048190D01*
X177823905Y-89524381D02*
X177823905Y-88524381D01*
X178204858Y-88524381D01*
X178300096Y-88572000D01*
X178347715Y-88619619D01*
X178395334Y-88714857D01*
X178395334Y-88857714D01*
X178347715Y-88952952D01*
X178300096Y-89000571D01*
X178204858Y-89048190D01*
X177823905Y-89048190D01*
X178776286Y-88619619D02*
X178823905Y-88572000D01*
X178919143Y-88524381D01*
X179157239Y-88524381D01*
X179252477Y-88572000D01*
X179300096Y-88619619D01*
X179347715Y-88714857D01*
X179347715Y-88810095D01*
X179300096Y-88952952D01*
X178728667Y-89524381D01*
X179347715Y-89524381D01*
X178395334Y-83936381D02*
X178062000Y-83460190D01*
X177823905Y-83936381D02*
X177823905Y-82936381D01*
X178204858Y-82936381D01*
X178300096Y-82984000D01*
X178347715Y-83031619D01*
X178395334Y-83126857D01*
X178395334Y-83269714D01*
X178347715Y-83364952D01*
X178300096Y-83412571D01*
X178204858Y-83460190D01*
X177823905Y-83460190D01*
X179252477Y-83269714D02*
X179252477Y-83936381D01*
X179014381Y-82888762D02*
X178776286Y-83603048D01*
X179395334Y-83603048D01*
M02*
