M48
;DRILL file {KiCad 4.0.6} date 06/15/17 23:10:34
;FORMAT={-:-/ absolute / inch / decimal}
FMAT,2
INCH,TZ
T1C0.024
T2C0.028
T3C0.031
T4C0.052
%
G90
G05
M72
T1
X6.68Y-3.4
X6.68Y-3.45
X6.68Y-3.5
T2
X6.56Y-3.6
X6.56Y-3.8
X6.65Y-3.69
X6.85Y-3.69
X6.93Y-3.36
X6.93Y-3.58
X7.13Y-3.36
X7.13Y-3.58
T3
X6.826Y-3.36
X6.826Y-3.5569
X6.9291Y-3.47
X6.9331Y-3.69
X7.126Y-3.47
X7.13Y-3.69
T4
X6.8271Y-4.012
X7.024Y-4.012
X7.43Y-3.44
X7.43Y-3.6369
X7.43Y-3.892
X7.43Y-4.0889
T0
M30
